<svg xmlns="http://www.w3.org/2000/svg" width="99" height="99" viewBox="0 0 99 99"><g fill="none" fill-rule="evenodd"><circle cx="49.5" cy="49.5" r="48.5" fill="#FFF" stroke="#267137" stroke-width="2"/><g fill="#267137" transform="translate(19 23)"><path d="M19.946692,8.40579417 C21.3275968,8.74013181 23.8405508,9.62422896 25.156576,11.7894718 C25.8205525,12.8819426 25.9942273,14.1339919 25.6954921,15.2754387 C23.9372376,13.299955 21.5641633,11.4034474 18.3637388,9.9632654 C17.817413,9.7178435 17.1756655,9.96109672 16.9298821,10.5072418 C16.6840988,11.0532061 16.9277135,11.6953151 17.4738585,11.9410984 C20.3518731,13.2361598 22.717357,15.0157397 24.5531418,17.2539946 C23.8385628,17.9748988 22.964044,18.3730317 21.9453082,18.4366462 C20.3491622,18.5362246 18.5191606,17.7708625 17.1711474,16.4391144 C15.7676522,15.0527879 14.894037,13.2444731 14.2244581,11.6586283 C14.0715664,11.2964593 13.9275301,10.929953 13.7751806,10.5421213 C13.4677707,9.76049414 13.1542162,8.96224044 12.7616858,8.1919988 C15.2596397,7.80705871 17.7644612,7.8775407 19.946692,8.40579417 M32.6533295,8.41175803 C33.4689326,6.01284029 35.7306816,4.60518847 37.0064056,3.979706 C39.0223712,2.99115092 41.4521926,2.37958413 43.9745441,2.21422254 C43.7580379,3.05115097 43.624845,3.89838062 43.4941823,4.72808014 C43.4293027,5.13976724 43.3682183,5.52868324 43.2973749,5.91524984 C42.9874348,7.60880553 42.5262296,9.56350602 41.4567106,11.2207364 C40.4289387,12.8130871 38.8089372,13.9565219 37.2285142,14.2051968 C36.1711036,14.371462 35.1895968,14.145016 34.3035117,13.5341721 C35.9043564,10.6525431 38.0461053,8.27910731 40.7199028,6.4496479 C41.2141803,6.11151507 41.3406864,5.43669521 41.0025536,4.94241767 C40.6638786,4.44814014 39.9890588,4.32199545 39.4953234,4.65994755 C36.7913451,6.51000939 34.5453191,8.92211992 32.8177875,11.7995923 C32.3363413,10.777242 32.2589918,9.57181928 32.6533295,8.41175803 M11.7568656,11.3354955 C11.9074079,11.7186284 12.0631912,12.1147733 12.2265648,12.5020628 C12.9789149,14.2841728 13.9736145,16.3288733 15.6469292,17.981947 C17.3348825,19.6494786 19.5534386,20.6141782 21.6594043,20.6141782 C21.8001876,20.6141782 21.9407901,20.6098409 22.0803083,20.6009855 C23.512177,20.5117083 24.7904311,19.9711656 25.833926,19.0276106 C26.4232639,19.9558042 26.9403125,20.9454436 27.3767587,22.0012276 C28.4455548,24.5875552 28.7276635,26.8489427 28.8021213,27.827558 C28.8133262,28.1848475 28.8290491,28.3948476 28.8319406,28.4297272 C28.8773021,28.9952096 29.3497122,29.4276799 29.9121223,29.4276799 C29.9267609,29.4276799 29.9413994,29.4273184 29.956038,29.4267762 C30.5376048,29.403463 30.9971835,28.9254505 30.9971835,28.3433416 C30.9971835,28.3106307 30.9960992,28.0919558 30.9702558,27.7227386 C30.9386292,26.5467737 30.9650148,23.5619519 31.8080878,20.0575513 C32.1995339,18.4301402 32.711703,16.9097172 33.3341132,15.491222 C34.3273671,16.1096563 35.4209223,16.4270059 36.564357,16.4270059 C36.8943573,16.4270059 37.2285142,16.4006204 37.5655627,16.3474878 C39.7703839,16.0006803 41.9059881,14.5238115 43.2787604,12.3967012 C44.554123,10.4206754 45.0821957,8.20880605 45.4306297,6.30579235 C45.506172,5.89247874 45.5723166,5.47193621 45.6364733,5.06530935 C45.8368951,3.79121186 46.0264736,2.5879578 46.4909319,1.51572796 C46.635691,1.18157104 46.6031609,0.797173118 46.4041848,0.492112613 C46.205028,0.18723283 45.866353,0.00235315202 45.5023768,0.000365198494 C42.1210486,-0.0186107216 38.7642987,0.702474241 36.0516457,2.03241515 C33.3276072,3.3681392 31.3915212,5.38591203 30.600135,7.71380562 C29.8472427,9.92856657 30.2652551,12.2651349 31.6439913,13.9914014 C30.8175448,15.7337523 30.1600743,17.6159829 29.682604,19.6214665 C29.5600738,20.1359851 29.4538087,20.6387566 29.3618206,21.1270703 C28.8642901,19.9315873 28.1784461,18.5951403 27.2385055,17.2379103 C28.3293499,15.2111013 28.2700727,12.7366413 27.0098909,10.6632058 C25.7329018,8.56211961 23.4057311,7.0118773 20.4568732,6.29802126 C17.5208465,5.58723751 14.0876508,5.60982789 10.7903587,6.36181649 C10.4354187,6.44278042 10.144816,6.69651558 10.0165027,7.03735925 C9.88837002,7.37820292 9.93987608,7.76061289 10.1536715,8.05537218 C10.8393347,9.00127661 11.2849977,10.135133 11.7568656,11.3354955"/><path d="M2.16867658,44.3035903 L2.16867658,29.2923725 L6.96163254,29.2923725 L6.96163254,30.3508674 C6.96163254,30.3512289 6.96145182,30.3515903 6.96163254,30.3519517 L6.96163254,44.3035903 L2.16867658,44.3035903 Z M58.9158944,31.1995428 C56.210109,28.9835168 50.6250439,31.9237001 44.1575081,35.3283416 C43.0948566,35.8876794 41.9960605,36.4659932 40.9489512,36.9969575 C40.4149145,37.2678614 40.2014806,37.920633 40.4722038,38.4546696 C40.7432883,38.9888869 41.3956985,39.201598 41.9299159,38.9312363 C42.9918445,38.3926816 44.0978695,37.8103919 45.16775,37.2472589 C47.9357042,35.7902697 50.7979958,34.2834009 53.1486605,33.397858 C56.1457716,32.2694233 57.1874592,32.5869537 57.5416764,32.8771949 C57.8481827,33.1282192 57.8351706,33.2688217 57.8297489,33.3288218 C57.8011947,33.6396654 57.4209534,34.5797867 54.5170954,36.5937644 C52.0708283,38.2902116 48.4677528,40.31937 44.9387739,42.2594319 C35.9698505,47.1900989 31.7197865,48.164919 29.7338209,48.1022081 C26.9035173,48.0223285 24.5221297,47.3728099 21.2405606,45.7853386 C20.0685716,45.2184104 19.0241731,44.6869039 18.047365,44.1604577 C18.0419433,44.1573854 18.0365217,44.1546745 18.0311,44.151783 C18.0034493,44.1364215 17.975618,44.1212408 17.9476059,44.10606 L17.8870637,44.0731685 C17.7871238,44.0189515 17.687184,43.9647346 17.5885092,43.9106984 C17.5818225,43.907084 17.574955,43.9032888 17.5679068,43.8996743 C15.1104348,42.6190708 11.9974803,42.1258776 9.13030912,41.856781 L9.13030912,31.185085 C10.2695872,30.9004462 11.4722991,30.549482 12.7836255,30.1177347 C14.8122418,29.449963 17.2449547,28.8139986 19.9028486,29.1631555 C21.7191152,29.4015292 23.3855624,30.4753856 25.1499616,31.6123143 C26.5225531,32.4969536 27.9417712,33.4114122 29.6067726,34.0827984 C32.1632809,35.1138233 34.6086445,36.5122583 36.3161158,37.9193679 C38.1455752,39.4271403 38.624672,40.5261172 38.4790093,41.0091899 C38.3568405,41.4140095 38.1941897,41.4976843 38.1246114,41.5332867 C37.2912974,41.9606967 34.8831628,41.1371418 32.3327991,40.2651531 C31.6371961,40.0273216 30.9679786,39.78949 30.3209901,39.5594296 C27.1037584,38.4156334 24.3253223,37.4278012 20.3237526,37.1086443 C19.7259207,37.0612949 19.204354,37.5067772 19.1568238,38.1035247 C19.1092937,38.700453 19.5545953,39.223104 20.1515235,39.2706342 C23.868093,39.5668392 26.5216495,40.5103943 29.5944835,41.6028651 C30.2476166,41.8350942 30.9227979,42.0750944 31.6310515,42.317444 C34.124126,43.1697339 36.0162963,43.8167224 37.4956951,43.8167224 C38.0998523,43.8167224 38.6356961,43.7086501 39.1149737,43.462686 C39.8131068,43.1041315 40.2976253,42.4894924 40.5551556,41.6352145 C41.6353373,38.0534644 35.084669,33.9534006 30.4178577,32.0715315 C28.9436998,31.4771334 27.6123131,30.6190604 26.3246614,29.7893609 C24.3497199,28.5167092 22.4844773,27.3147202 20.185138,27.012732 C17.0765208,26.6044786 14.2342894,27.3570094 12.1053719,28.0576726 C11.0457927,28.4066489 10.0630208,28.6996009 9.13030912,28.9459264 L9.13030912,28.7684564 C9.13030912,27.8615881 8.39241691,27.1236959 7.48554866,27.1236959 L1.64476046,27.1236959 C0.737892206,27.1236959 0,27.8615881 0,28.7684564 L0,44.8275065 C0,45.7345554 0.737892206,46.4722669 1.64476046,46.4722669 L7.48554866,46.4722669 C8.39241691,46.4722669 9.13030912,45.7345554 9.13030912,44.8275065 L9.13030912,44.0348552 C11.7193475,44.2867831 14.4724824,44.7353377 16.5554963,45.8175073 C16.6541711,45.8717242 16.7539302,45.9257604 16.8451953,45.9750978 L16.915858,46.0135918 C16.9409785,46.0271461 16.966099,46.0405196 16.9904967,46.054616 C17.011822,46.0670858 17.033328,46.0784714 17.0553762,46.0893148 C18.0495337,46.6244357 19.1100166,47.1637133 20.2961019,47.7376897 C23.8324905,49.4482334 26.5491194,50.1817882 29.6727366,50.2701618 C29.7433993,50.271969 29.8147849,50.2728726 29.8870741,50.2728726 C33.1894264,50.2728726 38.6028045,48.2173287 45.9835338,44.1599155 C55.472036,38.9435255 59.7461361,36.170511 59.9892086,33.5276171 C60.0459557,32.9129781 59.9057146,32.0102664 58.9158944,31.1995428 L58.9158944,31.1995428 Z"/><path d="M38.0741535,34.0574429 C37.5686711,34.3787685 37.4195746,35.0488895 37.7407195,35.5541912 C37.9474666,35.879312 38.2982501,36.0569627 38.6569853,36.0569627 C38.8557807,36.0569627 39.0571061,36.0023844 39.2374677,35.8876252 C39.596203,35.6595527 39.9585527,35.4276851 40.3227096,35.1945523 C43.7533753,32.9982251 47.6414509,30.5089459 49.9158505,30.5058736 C50.7813332,30.5067772 51.1796468,30.69744 51.2842854,30.811657 C51.6882014,31.2535248 52.3738647,31.2846092 52.816094,30.8805124 C53.2583233,30.4765964 53.2888655,29.7907525 52.8849494,29.3485232 C52.2800694,28.6867154 51.2568155,28.337197 49.9254288,28.337197 L49.9127782,28.337197 C47.0054865,28.3409922 43.0138566,30.8965968 39.1534315,33.3681652 C38.7910818,33.6000329 38.4309008,33.8306355 38.0741535,34.0574429"/><path d="M45.7778168,27.2263286 C45.3276357,27.1249429 44.8096834,27.0987381 44.2380564,27.1482562 C42.1282955,27.3311479 40.0855829,28.8953059 37.4992554,30.8758498 C36.8538934,31.370308 36.1864832,31.8813928 35.4800368,32.3997065 C34.9971448,32.7539237 34.8928676,33.4325388 35.246904,33.9154307 C35.4594343,34.2049491 35.7887117,34.3585636 36.1221458,34.3583831 C36.3447966,34.3583831 36.5694353,34.2900696 36.7626282,34.1483827 C37.4873277,33.6166955 38.163774,33.0987433 38.8179915,32.597779 C41.032391,30.9018739 42.944983,29.4371136 44.4256469,29.3088002 C44.8601051,29.2706677 45.1414909,29.3059087 45.3016115,29.3420533 C45.885347,29.4732582 46.4661909,29.1063904 46.5975765,28.5222935 C46.7291429,27.9380159 46.3620944,27.3578949 45.7778168,27.2263286"/><path d="M38.4172381,29.0958543 C38.8157324,29.0369386 39.0642266,29.0560952 39.2028412,29.0828422 C39.7905526,29.1957941 40.3591073,28.8103119 40.4718784,28.2220583 C40.5846496,27.6339855 40.1993481,27.0657923 39.6110946,26.9530211 C39.1697689,26.8684427 38.6615757,26.8677198 38.0988041,26.9506717 C36.6248269,27.1702502 35.7738021,27.971034 34.5958493,29.0797699 C34.0562102,29.5877824 33.444282,30.163566 32.6319319,30.8241088 C32.1672929,31.2016392 32.0968109,31.8847723 32.4747028,32.3494113 C32.6890404,32.6129055 33.0015105,32.7497129 33.3166915,32.7497129 C33.5570532,32.7497129 33.7988606,32.6701947 34.0001861,32.5066404 C34.8734399,31.7965795 35.5437416,31.1658561 36.0822963,30.6589279 C37.1735021,29.6318788 37.6471772,29.2106134 38.4172381,29.0958543"/></g></g></svg>