<svg xmlns="http://www.w3.org/2000/svg" width="50" height="50" viewBox="0 0 50 50"><g fill="#6C247E" fill-rule="evenodd"><path d="M25.0006716,1.16591446 C11.8582597,1.16591446 1.16460253,11.8579411 1.16460253,25 C1.16460253,38.1420589 11.8582597,48.8340855 25.0006716,48.8340855 C38.1430836,48.8340855 48.8353975,38.1420589 48.8353975,25 C48.8353975,11.8579411 38.1430836,1.16591446 25.0006716,1.16591446 M25.0006716,50 C11.2148403,50 0,38.785461 0,25 C0,11.214539 11.2148403,0 25.0006716,0 C38.786503,0 50,11.214539 50,25 C50,38.785461 38.786503,50 25.0006716,50"/><path d="M38.2399323,26.8017945 C38.3218709,26.6661294 38.3944067,26.5237481 38.4588829,26.3786804 C39.2903581,24.410864 38.2023211,22.1596282 37.8060608,21.4504083 C37.9471026,20.5491081 38.2264997,17.5537288 35.983263,16.4052762 C35.5346157,16.1742424 35.0591032,15.9982807 34.568815,15.8814206 C34.9785079,13.6570492 33.9495742,12.0935418 32.7231819,11.5481947 C32.4437848,11.4259617 32.1469253,11.3507415 31.8420063,11.3225338 L31.8178277,11.292983 C29.5772775,9.49709865 27.2641915,8.82414571 25.7691481,9.54008167 C25.4749751,9.68246293 25.2130403,9.88260262 25.000806,10.1310982 C24.7885716,9.88260262 24.5266368,9.68111971 24.2324638,9.54008167 C22.7387637,8.82548893 20.4203047,9.49441221 18.1837842,11.2916398 L18.1596056,11.3211906 C17.8546866,11.3493982 17.5578271,11.4246185 17.27843,11.5481947 C16.0520377,12.0921986 15.023104,13.6597357 15.4327969,15.8814206 C14.9411654,15.9969375 14.4669962,16.1728992 14.0183489,16.4039329 C11.7777987,17.5537288 12.0545093,20.5491081 12.1955511,21.4490651 C11.7992908,22.1596282 10.7085673,24.410864 11.542729,26.3773372 C11.6072052,26.5237481 11.679741,26.6647862 11.7616796,26.8004513 C10.932891,27.7702557 10.6817022,29.1081023 11.1034844,30.3116269 C11.4137764,31.4023211 12.1028665,32.3466043 13.0444886,32.9765743 C12.8591194,34.3627767 13.2862746,35.7610681 14.2144642,36.8060928 C14.8135561,37.5394907 15.6490611,38.0391683 16.5785939,38.2231893 C17.2461919,39.7866968 18.8003385,40.7833656 20.4995567,40.7376961 C20.7440292,40.7363529 20.9871585,40.7202343 21.2289445,40.6893402 C22.7441367,40.589942 24.1317196,39.806845 25.000806,38.5616806 C25.868549,39.8081883 27.256132,40.5926284 28.7713242,40.6920266 C29.0131102,40.7229207 29.2575827,40.7390393 29.5020552,40.7403825 C31.1999302,40.7847088 32.75542,39.78804 33.423018,38.2245326 C34.3512076,38.0418547 35.1867125,37.5408339 35.7858045,36.8087793 C36.713994,35.7624113 37.1411493,34.3641199 36.95578,32.9792607 C37.8987454,32.3479476 38.5878355,31.4023211 38.8967842,30.3116269 C39.3185665,29.1081023 39.068721,27.771599 38.2399323,26.8017945 L38.2399323,26.8017945 Z M21.0664106,39.4226843 C18.3893023,39.7598324 17.7190178,37.6697829 17.6531983,37.4333763 C17.5712597,37.1284655 17.27843,36.9283258 16.962765,36.9632495 C16.253526,36.9041479 15.6033904,36.5414786 15.1802649,35.9679239 C14.4011767,35.086772 14.1070037,33.8765313 14.3944604,32.7334515 C14.481772,32.3909306 14.2749107,32.0430368 13.9323805,31.9557275 L13.8571582,31.9422953 C13.5253741,31.8979691 12.6724068,31.0880077 12.3298767,29.9462712 C12.0786879,29.2236192 12.1848051,28.4244036 12.6173334,27.7930905 C13.4488085,28.4338061 14.4266985,28.8609499 15.4636918,29.0355685 C15.811595,29.0973565 16.1447223,28.8663228 16.2065121,28.518429 C16.2669586,28.1826241 16.0520377,27.857565 15.7202536,27.7823447 C14.1298391,27.4545992 13.1210542,26.81657 12.7221073,25.8816892 C11.9980926,24.1825167 13.3937351,21.9339673 13.4085109,21.9124758 C13.4958225,21.7714378 13.5267174,21.6008489 13.4917927,21.4383194 C13.4864197,21.4074253 12.8779249,18.4295078 14.6013218,17.5456695 C15.9445773,16.8565979 17.2797733,16.8471954 18.25632,17.5228347 C19.1724203,18.1904148 19.649276,19.3066301 19.4961449,20.4309048 C19.4571904,20.7814851 19.7097225,21.0984848 20.0616554,21.1374382 C20.4135884,21.1763916 20.7292534,20.9225231 20.7695511,20.5719428 C20.9750692,18.9788846 20.2886656,17.401945 18.9830213,16.4670643 C18.3154233,16.0090264 17.5269323,15.7578444 16.7169492,15.743069 C16.3918814,14.1500107 17.0164952,13.0646894 17.7955834,12.7181388 C18.7318325,12.303084 19.8077801,12.8349989 20.6056739,14.1083709 C20.7923864,14.4079089 21.1886468,14.4992478 21.489536,14.3125403 C21.789082,14.1244896 21.8817666,13.7282398 21.6937109,13.4287019 C21.2584961,12.6805287 20.6244795,12.0680206 19.8628536,11.6569955 C21.5513258,10.5528691 22.9577143,10.3486998 23.681729,10.6939072 C24.1639578,10.9679239 24.4326089,11.5078981 24.3600731,12.0586181 L24.3600731,18.1635504 L24.1787336,18.0198259 C23.539344,17.567161 22.7118986,17.4717924 21.9865406,17.7699871 C21.6560997,17.8935633 21.4868495,18.2616054 21.6090858,18.5933806 C21.7326653,18.9238126 22.1007173,19.0930582 22.4325014,18.9708253 L22.4660828,18.9560499 C22.7978669,18.8217279 23.1753217,18.8700838 23.4627784,19.0849989 C24.0551541,19.5551257 24.3896247,20.279121 24.3600731,21.0353535 L24.3600731,31.9154309 L24.0403783,31.646787 C23.3230798,31.0423383 22.3666819,30.8032452 21.4478951,30.998012 C21.1093947,31.0960671 20.9132794,31.450677 21.0126803,31.7905115 C21.110738,32.130346 21.4667007,32.3251128 21.8065443,32.2270578 C22.335787,32.1558672 22.8704027,32.3183967 23.2720361,32.6703202 C23.9114257,33.1149259 24.3130591,33.8295186 24.3600731,34.6072426 L24.3600731,36.6381904 C24.3600731,36.6623684 24.270075,39.0156888 21.0664106,39.4226843 L21.0664106,39.4226843 Z M37.6730785,29.9462712 C37.3318916,31.0880077 36.4789243,31.8979691 36.145797,31.9422953 C35.7952073,31.9879648 35.5493915,32.3089942 35.5950622,32.6595745 L35.6084947,32.7334515 C35.8972947,33.8765313 35.6031217,35.086772 34.8226903,35.9679239 C34.3995648,36.5414786 33.7507724,36.9041479 33.0401902,36.9632495 C32.7272117,36.9283258 32.434382,37.1257791 32.3511001,37.4293467 C32.2879671,37.6697829 31.6123096,39.7652052 28.9365446,39.4226843 C25.7301937,39.0156888 25.6401956,36.6623684 25.6401956,36.6381904 L25.6401956,18.0963894 C25.6146737,17.7820761 25.7261639,17.4731356 25.9491443,17.2501612 C26.3386884,16.9828605 26.8128576,16.863314 27.2843403,16.9156995 C27.6362733,16.9559961 27.9519383,16.7034709 27.992236,16.3515474 C28.0325336,16.0009671 27.7800016,15.6826241 27.4280687,15.6436708 C26.8168874,15.589942 26.2016764,15.6920266 25.6401956,15.9432087 L25.6401956,12.0586181 C25.569003,11.5065549 25.8376541,10.9679239 26.3225694,10.6939072 C27.0452408,10.3486998 28.4529726,10.5528691 30.1401016,11.6569955 C29.3784757,12.0680206 28.7458023,12.6805287 28.3105875,13.4287019 C28.1225318,13.7282398 28.2138731,14.1244896 28.5147624,14.3125403 C28.8143084,14.4992478 29.2105687,14.4079089 29.3986245,14.1083709 C30.195175,12.8349989 31.2711227,12.303084 32.2073718,12.7181388 C32.9878032,13.0646894 33.6110738,14.1500107 33.286006,15.743069 C32.4760229,15.7565012 31.6861886,16.0090264 31.0172474,16.4670643 C29.711603,17.401945 29.0251995,18.9788846 29.2307176,20.5719428 C29.269672,20.9225231 29.5866803,21.1763916 29.9386132,21.1374382 C30.2905462,21.0984848 30.5430782,20.7814851 30.5041238,20.4309048 C30.3509927,19.3052869 30.8278484,18.1877283 31.7439486,17.5201483 C32.7218386,16.8458521 34.0543481,16.8539115 35.4002901,17.5443262 C37.123687,18.4268214 36.5151922,21.4060821 36.5084759,21.4356329 C36.4748946,21.5995057 36.5044462,21.7687513 36.593101,21.9111326 C36.6078769,21.9339673 38.0008328,24.1825167 37.2781614,25.8790028 C36.8792145,26.8138835 35.8704296,27.453256 34.2813583,27.7796583 C33.9334551,27.8427896 33.7010719,28.1745648 33.7642049,28.5224586 C33.8259947,28.8703525 34.159122,29.1027294 34.5070252,29.0395981 L34.5379201,29.0342252 C35.5735701,28.8582635 36.5501169,28.4324629 37.3829353,27.790404 C37.8168068,28.4217172 37.9256105,29.222276 37.6730785,29.9462712 L37.6730785,29.9462712 Z M27.6040351,23.2489792 C27.324638,23.0313776 27.2749375,22.6284118 27.4938882,22.3503654 C27.7114956,22.0723189 28.1144722,22.0226198 28.3925261,22.2402214 C29.6914542,23.254352 30.8372512,23.5713518 31.7976789,23.180475 C33.0200414,22.684827 33.7534589,21.1105738 33.9374849,19.7727273 C33.9844988,19.422147 34.3082234,19.1776811 34.6574698,19.2246937 C35.0080595,19.2730496 35.2538753,19.5967655 35.2055181,19.9460026 C34.989254,21.5256286 34.0919593,23.6304535 32.2785643,24.3665377 C32.0542407,24.4565334 31.8191709,24.5223512 31.5800715,24.563991 C31.6378314,24.8299484 31.7627542,25.078444 31.9427504,25.2826134 C32.3658759,25.6802063 32.9354163,25.8830325 33.5143594,25.8440791 C33.8676356,25.8481087 34.1524058,26.1369009 34.148376,26.4915109 C34.1456895,26.8447776 33.8555463,27.1281969 33.5022701,27.1255104 L33.4901808,27.1255104 C32.5512452,27.165807 31.6391747,26.804481 30.983666,26.1301848 C30.5981517,25.6869224 30.3523359,25.1388889 30.2798001,24.5559317 C29.2938506,24.3450462 28.3750638,23.8977541 27.6040351,23.2489792 L27.6040351,23.2489792 Z M33.6070631,32.4245111 C33.601671,32.7737481 33.3169008,33.054481 32.9663112,33.054481 L32.9609381,33.054481 C32.5230368,33.0598539 32.087822,33.1297013 31.6700696,33.2640232 L31.6364882,33.274769 C31.1300809,33.4238663 30.6666577,33.6898238 30.2838299,34.052493 C29.7357816,34.6327638 29.4496682,35.4118311 29.4926524,36.2083602 C29.4926524,36.5629701 29.206539,36.8490759 28.8532628,36.8490759 C28.4999866,36.8490759 28.2125299,36.5629701 28.2125299,36.2083602 C28.1641727,35.0666237 28.5899847,33.954438 29.3892217,33.1364174 C29.8056309,32.7347948 30.2972624,32.417795 30.8359079,32.2069095 C30.9003842,31.3082957 30.6559117,30.416398 30.1427881,29.6776273 C29.5060849,28.9482592 28.5913279,28.5251451 27.624184,28.5130561 C27.272251,28.4835053 27.0103162,28.1732216 27.0398678,27.8212981 C27.0653897,27.4734043 27.3676222,27.2114765 27.7168686,27.2356544 L27.7316444,27.2369976 C29.0587809,27.2705781 30.3080085,27.8750269 31.156946,28.8972168 C31.782903,29.7555341 32.1187169,30.7911562 32.1173737,31.8536428 C32.4008006,31.8052869 32.686914,31.7797657 32.9730274,31.7757361 C33.3276469,31.7797657 33.6097305,32.0699011 33.6070631,32.4231678 L33.6070631,32.4245111 Z M15.4959299,20.6471631 C15.4529458,20.2965828 15.7027913,19.9768966 16.0547242,19.9352568 C16.3972544,19.893617 16.7102329,20.1313669 16.7639631,20.4725446 C16.9479891,21.8117344 17.6814067,23.3859875 18.9051124,23.8816355 C19.8641969,24.2725124 21.0099938,23.9555126 22.3089219,22.9413819 C22.5936921,22.7318397 22.9939822,22.7922845 23.2035301,23.0770471 C23.4036751,23.3510638 23.3566612,23.7338814 23.0960696,23.9501397 C22.325041,24.5975715 21.4062542,25.0448635 20.4216479,25.255749 C20.3504554,25.8387062 20.1046396,26.3867397 19.717782,26.8300021 C19.0622733,27.5042983 18.1502028,27.8656243 17.2112672,27.8253277 L17.1991779,27.8253277 C16.8459017,27.8280142 16.5571018,27.5445949 16.553072,27.1913282 C16.5503855,26.8380615 16.8338124,26.5479261 17.1870886,26.5452396 C17.7700615,26.584193 18.3436316,26.3773372 18.7667571,25.9743714 C18.9440668,25.7715452 19.0663031,25.5270793 19.1240631,25.2638083 C18.8836203,25.2235117 18.6498939,25.157694 18.4228837,25.066355 C16.6094888,24.3302708 15.7121941,22.2254459 15.4959299,20.6471631 L15.4959299,20.6471631 Z M19.9125541,33.8375779 C20.7117911,34.6555985 21.1376031,35.766441 21.0892459,36.9095207 C21.0892459,37.2627874 20.8031325,37.5502364 20.448513,37.5502364 C20.0952368,37.5502364 19.8091234,37.2627874 19.8091234,36.9095207 C19.8521076,36.1129916 19.5659941,35.3339243 19.0179459,34.7536536 C18.2684093,34.1209972 17.3227574,33.7677305 16.3421809,33.7556415 L16.3368079,33.7556415 C15.9821884,33.758328 15.6933885,33.4749087 15.6906831,33.1202987 C15.6880155,32.767032 15.9727856,32.4782398 16.3260618,32.4755534 C16.6135185,32.4768966 16.8996319,32.5024178 17.1830589,32.5521169 C17.1817156,31.4909736 17.5175295,30.4553514 18.1434866,29.5970342 C18.992424,28.5748442 20.2416517,27.9690522 21.5701314,27.9327853 C21.9220643,27.9032345 22.2323563,28.1665055 22.2605647,28.518429 C22.2901163,28.8703525 22.0281815,29.1806361 21.6762486,29.2088438 C20.7091046,29.222276 19.7943476,29.6467333 19.1589877,30.3761014 C18.6472074,31.1148721 18.4013916,32.0067698 18.4658679,32.9040404 C19.0045133,33.1176123 19.4961449,33.4346121 19.9125541,33.8362347 L19.9125541,33.8375779 Z"/></g></svg>