<svg xmlns="http://www.w3.org/2000/svg" width="50" height="50" viewBox="0 0 50 50"><g fill="#6C247E" fill-rule="evenodd"><path d="M24.9993284,1.16594579 C11.8569164,1.16594579 1.16460253,11.8582597 1.16460253,25.0006716 C1.16460253,38.1430836 11.8569164,48.8353975 24.9993284,48.8353975 C38.1417403,48.8353975 48.8353975,38.1430836 48.8353975,25.0006716 C48.8353975,11.8582597 38.1417403,1.16594579 24.9993284,1.16594579 M24.9993284,50.0013433 C11.213497,50.0013433 0,38.786503 0,25.0006716 C0,11.2148403 11.213497,0 24.9993284,0 C38.7851597,0 50,11.2148403 50,25.0006716 C50,38.786503 38.7851597,50.0013433 24.9993284,50.0013433"/><path d="M31.7526798,14.6194284 C35.89125,14.6234855 39.2440158,17.980281 39.2399897,22.1201945 C39.2386428,24.1095559 38.4447788,26.0169787 37.0357037,27.422024 L36.7186954,27.7390323 L28.5436424,35.9302044 L27.0875534,37.3889799 L26.554281,37.9222524 L25.8007146,38.6758187 C25.3534105,39.1177498 24.6334256,39.1177498 24.1861215,38.6758187 L23.4164361,37.8967305 L23.3519598,37.8295677 L21.4525965,35.9302044 L20.9838003,35.4667813 L13.28023,27.7605244 L12.9632217,27.4435161 C10.0214921,24.5313382 9.99731349,19.7842732 12.9108347,16.8425436 C14.321253,15.4173495 16.2447949,14.6167692 18.2502754,14.6194284 C20.2369503,14.6140827 22.1443731,15.4025737 23.5453886,16.8116487 L23.8623969,17.128657 L25.0001343,18.2583349 L26.1204094,17.1380598 L26.4374177,16.8210515 C27.8451495,15.4106332 29.7566021,14.620799 31.7499933,14.6288585 L31.7526798,14.6194284 Z M31.7499933,13.0451603 C29.3375064,13.0371007 27.0230771,13.9908121 25.3157994,15.6927169 L25.0001343,16.0097252 L24.683126,15.6927169 C21.1355882,12.1411493 15.3797383,12.1371195 11.8281708,15.6846573 C8.27660318,19.2335384 8.27257341,24.988045 11.8201112,28.5396126 L12.1371195,28.8566209 L20.3242619,37.047793 L22.2249684,38.9484996 L22.2572066,38.9834242 L23.0671896,39.7974371 C24.1337345,40.8572657 25.8557881,40.8572657 26.922333,39.7974371 L27.6758993,39.0465572 L29.6652607,37.0571958 L37.8430003,28.8700535 L38.1600086,28.5530452 C41.7169492,25.0162534 41.7330683,19.2671198 38.1962765,15.7101792 C36.4889987,13.9934986 34.1651667,13.0290412 31.743277,13.033071 L31.7499933,13.0451603 Z"/></g></svg>