<svg xmlns="http://www.w3.org/2000/svg" width="50" height="50" viewBox="0 0 50 50"><g fill="#6C247E" fill-rule="evenodd"><path d="M24.9993284,1.16460253 C11.8569164,1.16460253 1.16460253,11.8569164 1.16460253,24.9993284 C1.16460253,38.1417403 11.8569164,48.8340542 24.9993284,48.8340542 C38.1417403,48.8340542 48.8353975,38.1417403 48.8353975,24.9993284 C48.8353975,11.8569164 38.1417403,1.16460253 24.9993284,1.16460253 M24.9993284,49.9986567 C11.213497,49.9986567 0,38.7851597 0,24.9993284 C0,11.213497 11.213497,0 24.9993284,0 C38.7851597,0 50,11.213497 50,24.9993284 C50,38.7851597 38.7851597,49.9986567 24.9993284,49.9986567"/><path d="M28.2009779,10.8931306 C28.2009779,9.12540633 26.7677243,7.6921527 24.9986567,7.6921527 C23.2309325,7.6921527 21.7976789,9.12540633 21.7976789,10.8931306 C21.7976789,12.6608548 23.2309325,14.0954517 24.9986567,14.0941094 C26.7677243,14.0941094 28.2009779,12.6608548 28.2009779,10.8931306"/><path d="M22.4263224,33.9548129 L23.5157027,40.5045268 C23.659431,41.3682401 23.0764581,42.1849394 22.2127448,42.3286678 C21.3490315,42.4723961 20.5323322,41.8894232 20.3886038,41.0257099 L19.2266878,34.0380947 C19.1796739,33.7533246 19.2105687,33.4618381 19.3180292,33.193187 L21.0320232,28.8893963 L21.03068,17.9539532 C17.5247831,16.2721973 14.5629047,13.6353867 12.4862316,10.3470972 C12.0872847,9.71711039 12.2753405,8.88160546 12.9066706,8.48265857 C13.5380007,8.08371168 14.3735056,8.27199774 14.7724525,8.9044408 C16.6986809,11.9536308 19.4966822,14.3526852 22.8051205,15.7913118 L27.1935363,15.7913118 C30.5006313,14.3526852 33.2999758,11.9522876 35.2262042,8.90309755 C35.6251511,8.2704242 36.460656,8.08236843 37.0906429,8.48131532 C37.7233162,8.87891895 37.911372,9.71576713 37.5124251,10.3470972 C35.4062005,13.6810574 32.3905918,16.3447331 28.8215619,18.0224592 L28.8229052,28.8880531 L30.5368992,33.1918438 C30.6443597,33.4604949 30.6752545,33.7533246 30.6282406,34.0380947 L29.4676678,41.0243667 C29.3225962,41.88808 28.5072401,42.4723961 27.6435269,42.3286678 C26.7798136,42.1849394 26.1954974,41.3682401 26.3392257,40.5045268 L27.428606,33.9548129 L25.7656556,29.7799747 C25.6904333,29.591919 25.6528222,29.3931172 25.6528222,29.1916288 C25.6528222,28.7913387 25.3277543,28.4676141 24.9274642,28.4676141 C24.5271741,28.4676141 24.2021062,28.7913387 24.2021062,29.1916288 C24.2021062,29.3931172 24.1644951,29.591919 24.0892728,29.7799747 L22.4263224,33.9548129 Z"/></g></svg>