<svg xmlns="http://www.w3.org/2000/svg" xmlns:xlink="http://www.w3.org/1999/xlink" width="229" height="95" viewBox="0 0 229 95"><defs><polygon id="a" points="0 0 49.993 0 49.993 49.96 0 49.96"/><polygon id="c" points="0 0 50 0 50 49.967 0 49.967"/><polygon id="e" points="0 0 50 0 50 49.997 0 49.997"/></defs><g fill="none" fill-rule="evenodd"><mask id="b" fill="#fff"><use xlink:href="#a"/></mask><path fill="#6D2280" d="M23.3790439,21.0240468 C23.3790439,21.0240468 23.8573036,17.8137676 21.6254249,15.8038264 C19.3904204,13.7938853 15.295517,13.7438712 15.295517,13.7438712 C15.295517,13.7438712 14.8172573,16.9541504 17.0491359,18.9640916 C19.2810146,20.9740327 23.3790439,21.0240468 23.3790439,21.0240468 M25.0295087,16.1476733 C25.0295087,16.1476733 28.3054315,13.7938853 28.2898578,10.9055718 C28.2741727,8.01413233 24.9732429,5.6822255 24.9732429,5.6822255 C24.9732429,5.6822255 21.6973202,8.03601349 21.7128938,10.9274529 C21.728579,13.8157665 25.0295087,16.1476733 25.0295087,16.1476733 M4.24552956,14.4878308 C7.04631845,8.9456447 11.8382932,4.82573426 17.7399555,2.88768837 C20.1250023,2.10621825 22.5788185,1.7154832 25.0201311,1.7154832 C28.6148936,1.7154832 32.1846491,2.55947092 35.4887048,4.22869109 C40.9152333,6.97321413 44.7819474,11.5776361 46.7512521,16.8728776 L21.9786494,25.0126703 C21.7066978,24.6344387 21.3909839,24.2687107 21.0127524,23.9311156 C18.0212848,21.2366067 12.5291128,21.1709632 12.5291128,21.1709632 C12.5291128,21.1709632 12.0164684,24.8438727 14.3108646,27.529004 L2.66383404,31.3550817 C1.04462796,25.7097416 1.57915352,19.7580652 4.24552956,14.4878308 M45.7478444,35.4718663 C39.9649656,46.9125888 25.9516435,51.5170107 14.5046692,45.731006 C9.20942773,43.0552523 5.23330778,38.5446068 3.1983596,33.0024207 L15.8237908,28.8543774 C18.8965313,30.8549409 23.3665403,30.9268361 23.3665403,30.9268361 C23.3665403,30.9268361 23.6603731,28.7762304 22.7945042,26.5662329 L28.2147809,24.784481 C26.1329445,27.4477312 26.6268337,30.9268361 26.6268337,30.9268361 C26.6268337,30.9268361 32.1190056,30.8611926 35.1135991,28.1666837 C37.4642612,26.0473367 37.5705412,22.9652186 37.5111494,21.7304958 L47.2951553,18.5170907 C48.8799767,23.974878 48.5079969,30.0109531 45.7478444,35.4718663 M1.26031372,32.7773573 C3.3421501,39.1166429 7.76839684,44.2680939 13.726325,47.2783168 C17.3273393,49.1007051 21.1690464,49.9603222 24.9544876,49.9603222 C34.0883103,49.9603222 42.9001673,44.9432841 47.2951553,36.2502105 C50.3053782,30.2954083 50.8148967,23.5247512 48.7330603,17.1823397 C46.6512239,10.8430541 42.2218513,5.69160314 36.267049,2.68138026 C23.9729611,-3.52974422 8.91559497,1.41539867 2.69821873,13.7094865 C-0.312004156,19.6642888 -0.821522672,26.4349459 1.26031372,32.7773573 M11.5350828,31.3800888 C11.5350828,31.3800888 10.8348856,36.0876648 14.1076824,39.03537 C17.3836051,41.9830753 23.3884215,42.0549706 23.3884215,42.0549706 C23.3884215,42.0549706 24.0886187,37.3473946 20.8158219,34.3996893 C17.543025,31.451984 11.5350828,31.3800888 11.5350828,31.3800888 M26.6049525,42.0549706 C26.6049525,42.0549706 32.6097689,41.9830753 35.8825657,39.03537 C39.1584884,36.0876648 38.4582912,31.3800888 38.4582912,31.3800888 C38.4582912,31.3800888 32.450349,31.451984 29.1775521,34.3996893 C25.9047553,37.3473946 26.6049525,42.0549706 26.6049525,42.0549706 M26.6143301,21.0240468 C26.6143301,21.0240468 30.7123594,20.9740327 32.9442381,18.9640916 C35.1761167,16.9541504 34.697857,13.7438712 34.697857,13.7438712 C34.697857,13.7438712 30.6029536,13.7938853 28.3679491,15.8038264 C26.1360704,17.8137676 26.6143301,21.0240468 26.6143301,21.0240468" mask="url(#b)"/><path fill="#6D2280" fill-rule="nonzero" d="M14.584 11.456C13.7306667 11.456 12.984 11.32 12.344 11.048 11.704 10.776 11.2106667 10.3866667 10.864 9.88 10.5173333 9.37333333 10.344 8.784 10.344 8.112L10.344 7.76C10.344 7.70666667 10.3626667 7.66133333 10.4 7.624 10.4373333 7.58666667 10.4826667 7.568 10.536 7.568L12.36 7.568C12.4133333 7.568 12.4586667 7.58666667 12.496 7.624 12.5333333 7.66133333 12.552 7.70666667 12.552 7.76L12.552 8C12.552 8.42666667 12.7493333 8.78666667 13.144 9.08 13.5386667 9.37333333 14.072 9.52 14.744 9.52 15.3093333 9.52 15.7306667 9.4 16.008 9.16 16.2853333 8.92 16.424 8.624 16.424 8.272 16.424 8.016 16.3386667 7.8 16.168 7.624 15.9973333 7.448 15.7653333 7.29333333 15.472 7.16 15.1786667 7.02666667 14.712 6.84266667 14.072 6.608 13.3573333 6.36266667 12.752 6.112 12.256 5.856 11.76 5.6 11.344 5.25066667 11.008 4.808 10.672 4.36533333 10.504 3.81866667 10.504 3.168 10.504 2.528 10.6693333 1.968 11 1.488 11.3306667 1.008 11.7893333.64 12.376.384 12.9626667.128 13.64 0 14.408 0 15.2186667 0 15.9413333.144 16.576.432 17.2106667.72 17.7066667 1.12266667 18.064 1.64 18.4213333 2.15733333 18.6 2.75733333 18.6 3.44L18.6 3.68C18.6 3.73333333 18.5813333 3.77866667 18.544 3.816 18.5066667 3.85333333 18.4613333 3.872 18.408 3.872L16.568 3.872C16.5146667 3.872 16.4693333 3.85333333 16.432 3.816 16.3946667 3.77866667 16.376 3.73333333 16.376 3.68L16.376 3.552C16.376 3.104 16.192 2.72266667 15.824 2.408 15.456 2.09333333 14.952 1.936 14.312 1.936 13.8106667 1.936 13.4186667 2.04266667 13.136 2.256 12.8533333 2.46933333 12.712 2.76266667 12.712 3.136 12.712 3.40266667 12.7946667 3.62666667 12.96 3.808 13.1253333 3.98933333 13.3706667 4.152 13.696 4.296 14.0213333 4.44 14.5253333 4.63466667 15.208 4.88 15.9653333 5.15733333 16.56 5.40266667 16.992 5.616 17.424 5.82933333 17.8133333 6.14666667 18.16 6.568 18.5066667 6.98933333 18.68 7.536 18.68 8.208 18.68 9.21066667 18.312 10.0026667 17.576 10.584 16.84 11.1653333 15.8426667 11.456 14.584 11.456ZM20.456 11.328C20.4026667 11.328 20.3573333 11.3093333 20.32 11.272 20.2826667 11.2346667 20.264 11.1893333 20.264 11.136L20.264.32C20.264.266666667 20.2826667.221333333 20.32.184 20.3573333.146666667 20.4026667.128 20.456.128L22.328.128C22.3813333.128 22.4266667.146666667 22.464.184 22.5013333.221333333 22.52.266666667 22.52.32L22.52 11.136C22.52 11.1893333 22.5013333 11.2346667 22.464 11.272 22.4266667 11.3093333 22.3813333 11.328 22.328 11.328L20.456 11.328ZM30.904.32C30.904.266666667 30.9226667.221333333 30.96.184 30.9973333.146666667 31.0426667.128 31.096.128L32.968.128C33.0213333.128 33.0666667.146666667 33.104.184 33.1413333.221333333 33.16.266666667 33.16.32L33.16 11.136C33.16 11.1893333 33.1413333 11.2346667 33.104 11.272 33.0666667 11.3093333 33.0213333 11.328 32.968 11.328L31.16 11.328C31.0533333 11.328 30.9786667 11.2853333 30.936 11.2L26.792 4.352C26.7706667 4.32 26.7493333 4.30666667 26.728 4.312 26.7066667 4.31733333 26.696 4.34133333 26.696 4.384L26.728 11.136C26.728 11.1893333 26.7093333 11.2346667 26.672 11.272 26.6346667 11.3093333 26.5893333 11.328 26.536 11.328L24.664 11.328C24.6106667 11.328 24.5653333 11.3093333 24.528 11.272 24.4906667 11.2346667 24.472 11.1893333 24.472 11.136L24.472.32C24.472.266666667 24.4906667.221333333 24.528.184 24.5653333.146666667 24.6106667.128 24.664.128L26.472.128C26.5786667.128 26.6533333.170666667 26.696.256L30.824 7.072C30.8453333 7.104 30.8666667 7.11733333 30.888 7.112 30.9093333 7.10666667 30.92 7.08266667 30.92 7.04L30.904.32ZM5.264 19.296C5.264 19.2426667 5.28266667 19.1973333 5.32 19.16 5.35733333 19.1226667 5.40266667 19.104 5.456 19.104L7.328 19.104C7.38133333 19.104 7.42666667 19.1226667 7.464 19.16 7.50133333 19.1973333 7.52 19.2426667 7.52 19.296L7.52 26.592C7.52 27.9893333 7.11733333 28.9866667 6.312 29.584 5.50666667 30.1813333 4.46933333 30.48 3.2 30.48 2.82666667 30.48 2.41066667 30.4533333 1.952 30.4 1.84533333 30.3893333 1.792 30.32 1.792 30.192L1.856 28.544C1.856 28.4053333 1.93066667 28.3466667 2.08 28.368 2.464 28.432 2.816 28.464 3.136 28.464 3.81866667 28.464 4.344 28.3146667 4.712 28.016 5.08 27.7173333 5.264 27.2373333 5.264 26.576 5.264 26.544 5.25333333 26.5253333 5.232 26.52 5.21066667 26.5146667 5.18933333 26.5226667 5.168 26.544 4.76266667 26.9813333 4.17066667 27.2 3.392 27.2 2.69866667 27.2 2.06133333 27.032 1.48 26.696.898666667 26.36.485333333 25.8186667.24 25.072.08 24.5813333 0 23.9466667 0 23.168 0 22.336.096 21.6586667.288 21.136.512 20.4853333.890666667 19.9626667 1.424 19.568 1.95733333 19.1733333 2.576 18.976 3.28 18.976 4.10133333 18.976 4.73066667 19.2213333 5.168 19.712 5.18933333 19.7333333 5.21066667 19.7413333 5.232 19.736 5.25333333 19.7306667 5.264 19.712 5.264 19.68L5.264 19.296ZM5.136 24.464C5.22133333 24.144 5.264 23.7066667 5.264 23.152 5.264 22.8213333 5.25333333 22.5653333 5.232 22.384 5.21066667 22.2026667 5.17333333 22.032 5.12 21.872 5.024 21.584 4.864 21.352 4.64 21.176 4.416 21 4.13866667 20.912 3.808 20.912 3.488 20.912 3.216 21 2.992 21.176 2.768 21.352 2.60266667 21.584 2.496 21.872 2.34666667 22.192 2.272 22.624 2.272 23.168 2.272 23.7653333 2.336 24.192 2.464 24.448 2.56 24.736 2.728 24.968 2.968 25.144 3.208 25.32 3.49333333 25.408 3.824 25.408 4.16533333 25.408 4.448 25.32 4.672 25.144 4.896 24.968 5.05066667 24.7413333 5.136 24.464ZM9.328 27.328C9.27466667 27.328 9.22933333 27.3093333 9.192 27.272 9.15466667 27.2346667 9.136 27.1893333 9.136 27.136L9.136 16.32C9.136 16.2666667 9.15466667 16.2213333 9.192 16.184 9.22933333 16.1466667 9.27466667 16.128 9.328 16.128L11.2 16.128C11.2533333 16.128 11.2986667 16.1466667 11.336 16.184 11.3733333 16.2213333 11.392 16.2666667 11.392 16.32L11.392 27.136C11.392 27.1893333 11.3733333 27.2346667 11.336 27.272 11.2986667 27.3093333 11.2533333 27.328 11.2 27.328L9.328 27.328ZM17.84 19.296C17.84 19.2426667 17.8586667 19.1973333 17.896 19.16 17.9333333 19.1226667 17.9786667 19.104 18.032 19.104L19.904 19.104C19.9573333 19.104 20.0026667 19.1226667 20.04 19.16 20.0773333 19.1973333 20.096 19.2426667 20.096 19.296L20.096 27.136C20.096 27.1893333 20.0773333 27.2346667 20.04 27.272 20.0026667 27.3093333 19.9573333 27.328 19.904 27.328L18.032 27.328C17.9786667 27.328 17.9333333 27.3093333 17.896 27.272 17.8586667 27.2346667 17.84 27.1893333 17.84 27.136L17.84 26.592C17.84 26.56 17.8293333 26.5413333 17.808 26.536 17.7866667 26.5306667 17.7653333 26.544 17.744 26.576 17.3173333 27.152 16.656 27.44 15.76 27.44 14.9493333 27.44 14.2826667 27.1946667 13.76 26.704 13.2373333 26.2133333 12.976 25.5253333 12.976 24.64L12.976 19.296C12.976 19.2426667 12.9946667 19.1973333 13.032 19.16 13.0693333 19.1226667 13.1146667 19.104 13.168 19.104L15.024 19.104C15.0773333 19.104 15.1226667 19.1226667 15.16 19.16 15.1973333 19.1973333 15.216 19.2426667 15.216 19.296L15.216 24.08C15.216 24.5066667 15.3306667 24.8533333 15.56 25.12 15.7893333 25.3866667 16.1066667 25.52 16.512 25.52 16.8746667 25.52 17.1733333 25.4106667 17.408 25.192 17.6426667 24.9733333 17.7866667 24.688 17.84 24.336L17.84 19.296ZM26.48 20.72C26.48 20.7733333 26.4613333 20.8186667 26.424 20.856 26.3866667 20.8933333 26.3413333 20.912 26.288 20.912L24.752 20.912C24.6986667 20.912 24.672 20.9386667 24.672 20.992L24.672 24.384C24.672 24.736 24.744 24.9973333 24.888 25.168 25.032 25.3386667 25.264 25.424 25.584 25.424L26.112 25.424C26.1653333 25.424 26.2106667 25.4426667 26.248 25.48 26.2853333 25.5173333 26.304 25.5626667 26.304 25.616L26.304 27.136C26.304 27.2533333 26.24 27.3226667 26.112 27.344 25.664 27.3653333 25.344 27.376 25.152 27.376 24.2666667 27.376 23.6053333 27.2293333 23.168 26.936 22.7306667 26.6426667 22.5066667 26.0906667 22.496 25.28L22.496 20.992C22.496 20.9386667 22.4693333 20.912 22.416 20.912L21.504 20.912C21.4506667 20.912 21.4053333 20.8933333 21.368 20.856 21.3306667 20.8186667 21.312 20.7733333 21.312 20.72L21.312 19.296C21.312 19.2426667 21.3306667 19.1973333 21.368 19.16 21.4053333 19.1226667 21.4506667 19.104 21.504 19.104L22.416 19.104C22.4693333 19.104 22.496 19.0773333 22.496 19.024L22.496 17.12C22.496 17.0666667 22.5146667 17.0213333 22.552 16.984 22.5893333 16.9466667 22.6346667 16.928 22.688 16.928L24.48 16.928C24.5333333 16.928 24.5786667 16.9466667 24.616 16.984 24.6533333 17.0213333 24.672 17.0666667 24.672 17.12L24.672 19.024C24.672 19.0773333 24.6986667 19.104 24.752 19.104L26.288 19.104C26.3413333 19.104 26.3866667 19.1226667 26.424 19.16 26.4613333 19.1973333 26.48 19.2426667 26.48 19.296L26.48 20.72ZM35.12 22.368C35.184 22.7733333 35.2053333 23.2266667 35.184 23.728 35.1733333 23.856 35.104 23.92 34.976 23.92L30.032 23.92C29.968 23.92 29.9466667 23.9466667 29.968 24 30 24.2133333 30.0586667 24.4266667 30.144 24.64 30.4213333 25.2373333 30.9866667 25.536 31.84 25.536 32.5226667 25.5253333 33.0613333 25.248 33.456 24.704 33.4986667 24.64 33.5466667 24.608 33.6 24.608 33.632 24.608 33.6693333 24.6293333 33.712 24.672L34.864 25.808C34.9173333 25.8613333 34.944 25.9093333 34.944 25.952 34.944 25.9733333 34.9226667 26.016 34.88 26.08 34.528 26.5173333 34.0746667 26.856 33.52 27.096 32.9653333 27.336 32.3573333 27.456 31.696 27.456 30.7786667 27.456 30.0026667 27.248 29.368 26.832 28.7333333 26.416 28.2773333 25.8346667 28 25.088 27.776 24.5546667 27.664 23.856 27.664 22.992 27.664 22.4053333 27.744 21.888 27.904 21.44 28.1493333 20.6826667 28.5786667 20.08 29.192 19.632 29.8053333 19.184 30.5333333 18.96 31.376 18.96 32.4426667 18.96 33.2986667 19.2693333 33.944 19.888 34.5893333 20.5066667 34.9813333 21.3333333 35.12 22.368ZM31.392 20.912C30.72 20.912 30.2773333 21.2266667 30.064 21.856 30.0213333 21.9946667 29.984 22.1653333 29.952 22.368 29.952 22.4213333 29.9786667 22.448 30.032 22.448L32.8 22.448C32.864 22.448 32.8853333 22.4213333 32.864 22.368 32.8106667 22.0586667 32.784 21.9093333 32.784 21.92 32.688 21.6 32.52 21.352 32.28 21.176 32.04 21 31.744 20.912 31.392 20.912ZM40.864 18.976C41.7173333 18.976 42.4053333 19.2373333 42.928 19.76 43.4506667 20.2826667 43.712 20.992 43.712 21.888L43.712 27.136C43.712 27.1893333 43.6933333 27.2346667 43.656 27.272 43.6186667 27.3093333 43.5733333 27.328 43.52 27.328L41.648 27.328C41.5946667 27.328 41.5493333 27.3093333 41.512 27.272 41.4746667 27.2346667 41.456 27.1893333 41.456 27.136L41.456 22.352C41.456 21.9253333 41.336 21.5786667 41.096 21.312 40.856 21.0453333 40.5386667 20.912 40.144 20.912 39.7493333 20.912 39.432 21.0453333 39.192 21.312 38.952 21.5786667 38.832 21.9253333 38.832 22.352L38.832 27.136C38.832 27.1893333 38.8133333 27.2346667 38.776 27.272 38.7386667 27.3093333 38.6933333 27.328 38.64 27.328L36.768 27.328C36.7146667 27.328 36.6693333 27.3093333 36.632 27.272 36.5946667 27.2346667 36.576 27.1893333 36.576 27.136L36.576 19.296C36.576 19.2426667 36.5946667 19.1973333 36.632 19.16 36.6693333 19.1226667 36.7146667 19.104 36.768 19.104L38.64 19.104C38.6933333 19.104 38.7386667 19.1226667 38.776 19.16 38.8133333 19.1973333 38.832 19.2426667 38.832 19.296L38.832 19.856C38.832 19.888 38.8426667 19.9093333 38.864 19.92 38.8853333 19.9306667 38.9013333 19.9253333 38.912 19.904 39.3493333 19.2853333 40 18.976 40.864 18.976Z" transform="translate(3.048 63.672)"/><g transform="translate(89)"><path fill="#6D2280" fill-rule="nonzero" d="M16.096 11.456C15.2426667 11.456 14.496 11.32 13.856 11.048 13.216 10.776 12.7226667 10.3866667 12.376 9.88 12.0293333 9.37333333 11.856 8.784 11.856 8.112L11.856 7.76C11.856 7.70666667 11.8746667 7.66133333 11.912 7.624 11.9493333 7.58666667 11.9946667 7.568 12.048 7.568L13.872 7.568C13.9253333 7.568 13.9706667 7.58666667 14.008 7.624 14.0453333 7.66133333 14.064 7.70666667 14.064 7.76L14.064 8C14.064 8.42666667 14.2613333 8.78666667 14.656 9.08 15.0506667 9.37333333 15.584 9.52 16.256 9.52 16.8213333 9.52 17.2426667 9.4 17.52 9.16 17.7973333 8.92 17.936 8.624 17.936 8.272 17.936 8.016 17.8506667 7.8 17.68 7.624 17.5093333 7.448 17.2773333 7.29333333 16.984 7.16 16.6906667 7.02666667 16.224 6.84266667 15.584 6.608 14.8693333 6.36266667 14.264 6.112 13.768 5.856 13.272 5.6 12.856 5.25066667 12.52 4.808 12.184 4.36533333 12.016 3.81866667 12.016 3.168 12.016 2.528 12.1813333 1.968 12.512 1.488 12.8426667 1.008 13.3013333.64 13.888.384 14.4746667.128 15.152 0 15.92 0 16.7306667 0 17.4533333.144 18.088.432 18.7226667.72 19.2186667 1.12266667 19.576 1.64 19.9333333 2.15733333 20.112 2.75733333 20.112 3.44L20.112 3.68C20.112 3.73333333 20.0933333 3.77866667 20.056 3.816 20.0186667 3.85333333 19.9733333 3.872 19.92 3.872L18.08 3.872C18.0266667 3.872 17.9813333 3.85333333 17.944 3.816 17.9066667 3.77866667 17.888 3.73333333 17.888 3.68L17.888 3.552C17.888 3.104 17.704 2.72266667 17.336 2.408 16.968 2.09333333 16.464 1.936 15.824 1.936 15.3226667 1.936 14.9306667 2.04266667 14.648 2.256 14.3653333 2.46933333 14.224 2.76266667 14.224 3.136 14.224 3.40266667 14.3066667 3.62666667 14.472 3.808 14.6373333 3.98933333 14.8826667 4.152 15.208 4.296 15.5333333 4.44 16.0373333 4.63466667 16.72 4.88 17.4773333 5.15733333 18.072 5.40266667 18.504 5.616 18.936 5.82933333 19.3253333 6.14666667 19.672 6.568 20.0186667 6.98933333 20.192 7.536 20.192 8.208 20.192 9.21066667 19.824 10.0026667 19.088 10.584 18.352 11.1653333 17.3546667 11.456 16.096 11.456ZM21.968 11.328C21.9146667 11.328 21.8693333 11.3093333 21.832 11.272 21.7946667 11.2346667 21.776 11.1893333 21.776 11.136L21.776.32C21.776.266666667 21.7946667.221333333 21.832.184 21.8693333.146666667 21.9146667.128 21.968.128L23.84.128C23.8933333.128 23.9386667.146666667 23.976.184 24.0133333.221333333 24.032.266666667 24.032.32L24.032 11.136C24.032 11.1893333 24.0133333 11.2346667 23.976 11.272 23.9386667 11.3093333 23.8933333 11.328 23.84 11.328L21.968 11.328ZM32.416.32C32.416.266666667 32.4346667.221333333 32.472.184 32.5093333.146666667 32.5546667.128 32.608.128L34.48.128C34.5333333.128 34.5786667.146666667 34.616.184 34.6533333.221333333 34.672.266666667 34.672.32L34.672 11.136C34.672 11.1893333 34.6533333 11.2346667 34.616 11.272 34.5786667 11.3093333 34.5333333 11.328 34.48 11.328L32.672 11.328C32.5653333 11.328 32.4906667 11.2853333 32.448 11.2L28.304 4.352C28.2826667 4.32 28.2613333 4.30666667 28.24 4.312 28.2186667 4.31733333 28.208 4.34133333 28.208 4.384L28.24 11.136C28.24 11.1893333 28.2213333 11.2346667 28.184 11.272 28.1466667 11.3093333 28.1013333 11.328 28.048 11.328L26.176 11.328C26.1226667 11.328 26.0773333 11.3093333 26.04 11.272 26.0026667 11.2346667 25.984 11.1893333 25.984 11.136L25.984.32C25.984.266666667 26.0026667.221333333 26.04.184 26.0773333.146666667 26.1226667.128 26.176.128L27.984.128C28.0906667.128 28.1653333.170666667 28.208.256L32.336 7.072C32.3573333 7.104 32.3786667 7.11733333 32.4 7.112 32.4213333 7.10666667 32.432 7.08266667 32.432 7.04L32.416.32ZM3.712 18.976C4.40533333 18.976 5.024 19.096 5.568 19.336 6.112 19.576 6.536 19.904 6.84 20.32 7.144 20.736 7.296 21.2 7.296 21.712L7.296 27.136C7.296 27.1893333 7.27733333 27.2346667 7.24 27.272 7.20266667 27.3093333 7.15733333 27.328 7.104 27.328L5.232 27.328C5.17866667 27.328 5.13333333 27.3093333 5.096 27.272 5.05866667 27.2346667 5.04 27.1893333 5.04 27.136L5.04 26.608C5.04 26.576 5.02933333 26.5546667 5.008 26.544 4.98666667 26.5333333 4.96533333 26.544 4.944 26.576 4.496 27.1626667 3.776 27.456 2.784 27.456 1.952 27.456 1.28 27.2533333.768 26.848.256 26.4426667 0 25.8453333 0 25.056 0 24.2346667.288 23.5973333.864 23.144 1.44 22.6906667 2.26133333 22.464 3.328 22.464L4.96 22.464C5.01333333 22.464 5.04 22.4373333 5.04 22.384L5.04 22.032C5.04 21.68 4.93333333 21.4053333 4.72 21.208 4.50666667 21.0106667 4.18666667 20.912 3.76 20.912 3.42933333 20.912 3.15466667 20.9706667 2.936 21.088 2.71733333 21.2053333 2.576 21.3706667 2.512 21.584 2.48 21.7013333 2.41066667 21.7546667 2.304 21.744L.368 21.488C.24 21.4666667.181333333 21.4186667.192 21.344.234666667 20.896.413333333 20.4906667.728 20.128 1.04266667 19.7653333 1.45866667 19.4826667 1.976 19.28 2.49333333 19.0773333 3.072 18.976 3.712 18.976ZM3.392 25.776C3.85066667 25.776 4.24 25.6533333 4.56 25.408 4.88 25.1626667 5.04 24.848 5.04 24.464L5.04 23.888C5.04 23.8346667 5.01333333 23.808 4.96 23.808L3.808 23.808C3.328 23.808 2.952 23.8986667 2.68 24.08 2.408 24.2613333 2.272 24.5173333 2.272 24.848 2.272 25.136 2.37333333 25.3626667 2.576 25.528 2.77866667 25.6933333 3.05066667 25.776 3.392 25.776ZM8.624 27.328C8.57066667 27.328 8.52533333 27.3093333 8.488 27.272 8.45066667 27.2346667 8.432 27.1893333 8.432 27.136L8.432 25.424C8.432 25.3386667 8.464 25.2586667 8.528 25.184L12.128 21.232C12.1813333 21.168 12.1706667 21.136 12.096 21.136L8.72 21.136C8.66666667 21.136 8.62133333 21.1173333 8.584 21.08 8.54666667 21.0426667 8.528 20.9973333 8.528 20.944L8.528 19.296C8.528 19.2426667 8.54666667 19.1973333 8.584 19.16 8.62133333 19.1226667 8.66666667 19.104 8.72 19.104L14.704 19.104C14.7573333 19.104 14.8026667 19.1226667 14.84 19.16 14.8773333 19.1973333 14.896 19.2426667 14.896 19.296L14.896 20.992C14.896 21.0666667 14.864 21.1466667 14.8 21.232L11.088 25.184C11.0453333 25.248 11.056 25.28 11.12 25.28L14.784 25.28C14.8373333 25.28 14.8826667 25.2986667 14.92 25.336 14.9573333 25.3733333 14.976 25.4186667 14.976 25.472L14.976 27.136C14.976 27.1893333 14.9573333 27.2346667 14.92 27.272 14.8826667 27.3093333 14.8373333 27.328 14.784 27.328L8.624 27.328ZM21.04 19.296C21.04 19.2426667 21.0586667 19.1973333 21.096 19.16 21.1333333 19.1226667 21.1786667 19.104 21.232 19.104L23.104 19.104C23.1573333 19.104 23.2026667 19.1226667 23.24 19.16 23.2773333 19.1973333 23.296 19.2426667 23.296 19.296L23.296 27.136C23.296 27.1893333 23.2773333 27.2346667 23.24 27.272 23.2026667 27.3093333 23.1573333 27.328 23.104 27.328L21.232 27.328C21.1786667 27.328 21.1333333 27.3093333 21.096 27.272 21.0586667 27.2346667 21.04 27.1893333 21.04 27.136L21.04 26.592C21.04 26.56 21.0293333 26.5413333 21.008 26.536 20.9866667 26.5306667 20.9653333 26.544 20.944 26.576 20.5173333 27.152 19.856 27.44 18.96 27.44 18.1493333 27.44 17.4826667 27.1946667 16.96 26.704 16.4373333 26.2133333 16.176 25.5253333 16.176 24.64L16.176 19.296C16.176 19.2426667 16.1946667 19.1973333 16.232 19.16 16.2693333 19.1226667 16.3146667 19.104 16.368 19.104L18.224 19.104C18.2773333 19.104 18.3226667 19.1226667 18.36 19.16 18.3973333 19.1973333 18.416 19.2426667 18.416 19.296L18.416 24.08C18.416 24.5066667 18.5306667 24.8533333 18.76 25.12 18.9893333 25.3866667 19.3066667 25.52 19.712 25.52 20.0746667 25.52 20.3733333 25.4106667 20.608 25.192 20.8426667 24.9733333 20.9866667 24.688 21.04 24.336L21.04 19.296ZM18.88 18.112C18.8053333 18.112 18.7573333 18.0906667 18.736 18.048 18.7146667 18.0053333 18.72 17.952 18.752 17.888L19.6 16.272C19.6426667 16.176 19.7226667 16.128 19.84 16.128L21.456 16.128C21.5306667 16.128 21.5813333 16.152 21.608 16.2 21.6346667 16.248 21.6266667 16.304 21.584 16.368L20.448 17.984C20.3946667 18.0693333 20.32 18.112 20.224 18.112L18.88 18.112ZM28.608 27.456C27.7546667 27.456 27.016 27.2426667 26.392 26.816 25.768 26.3893333 25.3226667 25.8026667 25.056 25.056 24.8746667 24.5226667 24.784 23.8933333 24.784 23.168 24.784 22.4533333 24.8746667 21.8346667 25.056 21.312 25.312 20.5866667 25.7546667 20.016 26.384 19.6 27.0133333 19.184 27.7546667 18.976 28.608 18.976 29.4613333 18.976 30.2106667 19.1893333 30.856 19.616 31.5013333 20.0426667 31.9306667 20.5813333 32.144 21.232 32.2293333 21.488 32.272 21.68 32.272 21.808L32.272 21.84C32.272 21.936 32.2186667 21.9946667 32.112 22.016L30.272 22.288 30.24 22.288C30.144 22.288 30.08 22.2346667 30.048 22.128L30 21.872C29.9253333 21.5946667 29.76 21.3653333 29.504 21.184 29.248 21.0026667 28.944 20.912 28.592 20.912 28.2506667 20.912 27.9626667 20.9973333 27.728 21.168 27.4933333 21.3386667 27.328 21.5733333 27.232 21.872 27.1146667 22.192 27.056 22.6293333 27.056 23.184 27.056 23.7386667 27.1093333 24.176 27.216 24.496 27.312 24.816 27.48 25.0666667 27.72 25.248 27.96 25.4293333 28.2506667 25.52 28.592 25.52 28.9226667 25.52 29.2133333 25.432 29.464 25.256 29.7146667 25.08 29.888 24.8373333 29.984 24.528 29.9946667 24.5066667 30 24.4746667 30 24.432 30.0106667 24.4213333 30.016 24.4053333 30.016 24.384 30.0266667 24.256 30.1013333 24.2026667 30.24 24.224L32.08 24.512C32.1866667 24.5333333 32.24 24.592 32.24 24.688 32.24 24.7733333 32.208 24.9333333 32.144 25.168 31.92 25.8826667 31.4853333 26.4426667 30.84 26.848 30.1946667 27.2533333 29.4506667 27.456 28.608 27.456ZM36.864 18.976C37.5573333 18.976 38.176 19.096 38.72 19.336 39.264 19.576 39.688 19.904 39.992 20.32 40.296 20.736 40.448 21.2 40.448 21.712L40.448 27.136C40.448 27.1893333 40.4293333 27.2346667 40.392 27.272 40.3546667 27.3093333 40.3093333 27.328 40.256 27.328L38.384 27.328C38.3306667 27.328 38.2853333 27.3093333 38.248 27.272 38.2106667 27.2346667 38.192 27.1893333 38.192 27.136L38.192 26.608C38.192 26.576 38.1813333 26.5546667 38.16 26.544 38.1386667 26.5333333 38.1173333 26.544 38.096 26.576 37.648 27.1626667 36.928 27.456 35.936 27.456 35.104 27.456 34.432 27.2533333 33.92 26.848 33.408 26.4426667 33.152 25.8453333 33.152 25.056 33.152 24.2346667 33.44 23.5973333 34.016 23.144 34.592 22.6906667 35.4133333 22.464 36.48 22.464L38.112 22.464C38.1653333 22.464 38.192 22.4373333 38.192 22.384L38.192 22.032C38.192 21.68 38.0853333 21.4053333 37.872 21.208 37.6586667 21.0106667 37.3386667 20.912 36.912 20.912 36.5813333 20.912 36.3066667 20.9706667 36.088 21.088 35.8693333 21.2053333 35.728 21.3706667 35.664 21.584 35.632 21.7013333 35.5626667 21.7546667 35.456 21.744L33.52 21.488C33.392 21.4666667 33.3333333 21.4186667 33.344 21.344 33.3866667 20.896 33.5653333 20.4906667 33.88 20.128 34.1946667 19.7653333 34.6106667 19.4826667 35.128 19.28 35.6453333 19.0773333 36.224 18.976 36.864 18.976ZM36.544 25.776C37.0026667 25.776 37.392 25.6533333 37.712 25.408 38.032 25.1626667 38.192 24.848 38.192 24.464L38.192 23.888C38.192 23.8346667 38.1653333 23.808 38.112 23.808L36.96 23.808C36.48 23.808 36.104 23.8986667 35.832 24.08 35.56 24.2613333 35.424 24.5173333 35.424 24.848 35.424 25.136 35.5253333 25.3626667 35.728 25.528 35.9306667 25.6933333 36.2026667 25.776 36.544 25.776ZM46.128 18.992C46.512 18.992 46.816 19.0666667 47.04 19.216 47.1253333 19.2586667 47.1573333 19.3386667 47.136 19.456L46.8 21.28C46.7893333 21.408 46.7146667 21.4453333 46.576 21.392 46.416 21.3386667 46.2293333 21.312 46.016 21.312 45.9306667 21.312 45.8133333 21.3226667 45.664 21.344 45.28 21.376 44.9546667 21.5173333 44.688 21.768 44.4213333 22.0186667 44.288 22.352 44.288 22.768L44.288 27.136C44.288 27.1893333 44.2693333 27.2346667 44.232 27.272 44.1946667 27.3093333 44.1493333 27.328 44.096 27.328L42.224 27.328C42.1706667 27.328 42.1253333 27.3093333 42.088 27.272 42.0506667 27.2346667 42.032 27.1893333 42.032 27.136L42.032 19.296C42.032 19.2426667 42.0506667 19.1973333 42.088 19.16 42.1253333 19.1226667 42.1706667 19.104 42.224 19.104L44.096 19.104C44.1493333 19.104 44.1946667 19.1226667 44.232 19.16 44.2693333 19.1973333 44.288 19.2426667 44.288 19.296L44.288 19.904C44.288 19.936 44.2986667 19.9573333 44.32 19.968 44.3413333 19.9786667 44.3573333 19.9733333 44.368 19.952 44.8053333 19.312 45.392 18.992 46.128 18.992Z" transform="translate(2.036 63.672)"/><mask id="d" fill="#fff"><use xlink:href="#c"/></mask><path fill="#6D2280" d="M45.7541419,35.4758537 C39.9696947,46.9193887 25.9562892,51.5218746 14.5067848,45.7374273 C9.20885194,43.0601058 5.2361485,38.5501472 3.20054839,33.0074647 L47.3032276,18.5194839 C48.8851456,23.9785933 48.5150365,30.0167443 45.7541419,35.4758537 M4.2452112,14.4900702 C7.04789229,8.94738776 11.8414022,4.82843153 17.7422548,2.89132819 C20.1300555,2.10633871 22.580536,1.71832109 25.0220622,1.71832109 C28.618687,1.71832109 32.1884491,2.56002084 35.4925683,4.23148135 C40.9218302,6.97446742 44.7870826,11.5799381 46.7570182,16.8778709 L2.66329323,31.3598822 C1.04854299,25.7157183 1.57982865,19.764125 4.2452112,14.4900702 M48.7388928,17.1853002 C46.6555367,10.8456893 42.2291511,5.69400929 36.2715883,2.68239563 C23.9773994,-3.52887099 8.91634635,1.4138765 2.69911024,13.7110502 C-0.312503419,19.668613 -0.822895822,26.4410128 1.2604603,32.7806237 C3.34381643,39.1232193 7.77020201,44.2719146 13.7277648,47.2835283 C17.3303591,49.1072111 21.1717335,49.9668193 24.9593824,49.9668193 C34.0927202,49.9668193 42.9066896,44.9494531 47.3002429,36.2548737 C50.3118565,30.3002957 50.8222489,23.5278959 48.7388928,17.1853002" mask="url(#d)"/><path fill="#6D2280" d="M25.9640496,27.2740567 L32.3782793,30.2020974 L32.3782793,37.7266544 L25.9640496,34.7986138 L25.9640496,27.2740567 Z M9.28227681,27.2740567 L15.7323235,30.2408991 L15.7323235,37.7654561 L9.28227681,34.8374155 L9.28227681,27.2740567 Z M24.999975,9.59239243 L31.0440956,12.3711955 L24.999975,15.1141816 L18.9588392,12.3353785 L24.999975,9.59239243 Z M16.660581,23.0476495 L22.7017168,25.8294373 L16.660581,28.6082404 L10.6164605,25.8294373 L16.660581,23.0476495 Z M24.0359005,16.7826573 L24.0359005,24.3072144 L17.6246556,21.3791737 L17.6246556,13.8546167 L24.0359005,16.7826573 Z M33.3423538,28.5724234 L27.2982332,25.7906356 L33.3423538,23.0118325 L39.3834896,25.7906356 L33.3423538,28.5724234 Z M42.0518569,24.9399815 L34.2676266,21.3791737 L34.2676266,12.3711955 C34.2676266,12.0010864 34.046755,11.6667943 33.7124629,11.5205415 L25.4088859,7.66424335 C25.1492126,7.55380757 24.8507375,7.55380757 24.6298659,7.66424335 L16.2874872,11.4817398 C15.9561798,11.6309773 15.7323235,11.9652694 15.7323235,12.3353785 L15.7323235,21.3433567 L7.94809316,24.9399815 C7.61380106,25.0862343 7.3929295,25.4205264 7.3929295,25.7906356 L7.3929295,35.4283962 C7.3929295,35.8014901 7.61380106,36.1327974 7.94809316,36.282035 L16.2874872,40.0995313 C16.4009077,40.1741501 16.5471605,40.1741501 16.696398,40.1741501 C16.8456356,40.1741501 16.9560714,40.1383331 17.1053089,40.0995313 L24.999975,36.5058913 L32.9334429,40.1383331 C33.0438787,40.2129519 33.1931162,40.2129519 33.3423538,40.2129519 C33.4886066,40.2129519 33.6020271,40.1741501 33.7482799,40.1383331 L42.0518569,36.317852 C42.386149,36.1715992 42.6100053,35.8373071 42.6100053,35.467198 L42.6100053,25.8294373 C42.6100053,25.4205264 42.386149,25.0862343 42.0518569,24.9399815 L42.0518569,24.9399815 Z"/></g><g transform="translate(177.624)"><g transform="translate(.376)"><mask id="f" fill="#fff"><use xlink:href="#e"/></mask><path fill="#6D2280" d="M3.36897256,16.4266417 C6.98472294,7.30281487 15.7613627,1.73218215 25.0290689,1.73218215 C27.8753776,1.73218215 30.7686035,2.25765452 33.5711228,3.36802769 C39.1918005,5.59502966 43.4424967,9.79255303 45.8947011,14.8470968 L34.0152721,19.9829637 C33.6117844,18.5504259 33.0143723,17.3211959 32.3231259,15.9981315 C31.5818345,14.5812328 29.8427712,10.590145 29.8427712,10.590145 C31.9477885,10.0678005 31.7288417,8.63213487 31.7288417,8.63213487 C31.7288417,7.6030848 30.6841526,6.76795906 29.3954941,6.76795906 L20.6063431,6.76795906 C19.3145569,6.76795906 18.2698677,7.64687417 18.2698677,8.63213487 C18.2698677,9.61739557 18.8047235,10.2711082 20.0026754,10.5401 C19.3145569,12.7233126 18.4200027,14.5812328 17.6755835,15.9981315 C16.4901429,18.2657951 15.4986265,20.1581212 15.4986265,23.5142632 L15.4986265,27.9901618 L3.29077727,33.269908 C1.28897775,28.0214399 1.1419706,22.0473195 3.36897256,16.4266417 M46.6297369,33.5701779 C41.9036133,45.4965241 28.3570606,51.3549156 16.4275866,46.628792 C10.7005633,44.3580007 6.39356652,40.0478761 3.96638461,34.865092 L15.4986265,29.8793601 L15.4986265,39.7976511 C15.4986265,41.6931051 17.4253586,43.2288606 19.7993677,43.2288606 L30.2024696,43.2288606 C32.5764787,43.2288606 34.5000829,41.6931051 34.5000829,39.7976511 L34.5000829,23.5142632 C34.5000829,22.8511671 34.4343989,22.2819053 34.3624592,21.722027 L46.5953309,16.4297696 C48.7066039,21.7501773 48.9005282,27.8431546 46.6297369,33.5701779 M15.789513,48.2396151 C18.8015957,49.4344391 21.9106406,49.9974453 24.9696405,49.9974453 C34.9254653,49.9974453 44.3558177,44.0108136 48.2405599,34.2082515 C53.3201262,21.390479 47.0238412,6.83364311 34.2091964,1.75407683 C21.3976795,-3.31923383 6.83771579,2.97392341 1.75814951,15.7885681 C-3.31828896,28.6032129 2.97486828,43.1631766 15.789513,48.2396151" mask="url(#f)"/></g><path fill="#6D2280" fill-rule="nonzero" d="M18.008 11.456C17.1546667 11.456 16.408 11.32 15.768 11.048 15.128 10.776 14.6346667 10.3866667 14.288 9.88 13.9413333 9.37333333 13.768 8.784 13.768 8.112L13.768 7.76C13.768 7.70666667 13.7866667 7.66133333 13.824 7.624 13.8613333 7.58666667 13.9066667 7.568 13.96 7.568L15.784 7.568C15.8373333 7.568 15.8826667 7.58666667 15.92 7.624 15.9573333 7.66133333 15.976 7.70666667 15.976 7.76L15.976 8C15.976 8.42666667 16.1733333 8.78666667 16.568 9.08 16.9626667 9.37333333 17.496 9.52 18.168 9.52 18.7333333 9.52 19.1546667 9.4 19.432 9.16 19.7093333 8.92 19.848 8.624 19.848 8.272 19.848 8.016 19.7626667 7.8 19.592 7.624 19.4213333 7.448 19.1893333 7.29333333 18.896 7.16 18.6026667 7.02666667 18.136 6.84266667 17.496 6.608 16.7813333 6.36266667 16.176 6.112 15.68 5.856 15.184 5.6 14.768 5.25066667 14.432 4.808 14.096 4.36533333 13.928 3.81866667 13.928 3.168 13.928 2.528 14.0933333 1.968 14.424 1.488 14.7546667 1.008 15.2133333.64 15.8.384 16.3866667.128 17.064 0 17.832 0 18.6426667 0 19.3653333.144 20 .432 20.6346667.72 21.1306667 1.12266667 21.488 1.64 21.8453333 2.15733333 22.024 2.75733333 22.024 3.44L22.024 3.68C22.024 3.73333333 22.0053333 3.77866667 21.968 3.816 21.9306667 3.85333333 21.8853333 3.872 21.832 3.872L19.992 3.872C19.9386667 3.872 19.8933333 3.85333333 19.856 3.816 19.8186667 3.77866667 19.8 3.73333333 19.8 3.68L19.8 3.552C19.8 3.104 19.616 2.72266667 19.248 2.408 18.88 2.09333333 18.376 1.936 17.736 1.936 17.2346667 1.936 16.8426667 2.04266667 16.56 2.256 16.2773333 2.46933333 16.136 2.76266667 16.136 3.136 16.136 3.40266667 16.2186667 3.62666667 16.384 3.808 16.5493333 3.98933333 16.7946667 4.152 17.12 4.296 17.4453333 4.44 17.9493333 4.63466667 18.632 4.88 19.3893333 5.15733333 19.984 5.40266667 20.416 5.616 20.848 5.82933333 21.2373333 6.14666667 21.584 6.568 21.9306667 6.98933333 22.104 7.536 22.104 8.208 22.104 9.21066667 21.736 10.0026667 21 10.584 20.264 11.1653333 19.2666667 11.456 18.008 11.456ZM23.88 11.328C23.8266667 11.328 23.7813333 11.3093333 23.744 11.272 23.7066667 11.2346667 23.688 11.1893333 23.688 11.136L23.688.32C23.688.266666667 23.7066667.221333333 23.744.184 23.7813333.146666667 23.8266667.128 23.88.128L25.752.128C25.8053333.128 25.8506667.146666667 25.888.184 25.9253333.221333333 25.944.266666667 25.944.32L25.944 11.136C25.944 11.1893333 25.9253333 11.2346667 25.888 11.272 25.8506667 11.3093333 25.8053333 11.328 25.752 11.328L23.88 11.328ZM34.328.32C34.328.266666667 34.3466667.221333333 34.384.184 34.4213333.146666667 34.4666667.128 34.52.128L36.392.128C36.4453333.128 36.4906667.146666667 36.528.184 36.5653333.221333333 36.584.266666667 36.584.32L36.584 11.136C36.584 11.1893333 36.5653333 11.2346667 36.528 11.272 36.4906667 11.3093333 36.4453333 11.328 36.392 11.328L34.584 11.328C34.4773333 11.328 34.4026667 11.2853333 34.36 11.2L30.216 4.352C30.1946667 4.32 30.1733333 4.30666667 30.152 4.312 30.1306667 4.31733333 30.12 4.34133333 30.12 4.384L30.152 11.136C30.152 11.1893333 30.1333333 11.2346667 30.096 11.272 30.0586667 11.3093333 30.0133333 11.328 29.96 11.328L28.088 11.328C28.0346667 11.328 27.9893333 11.3093333 27.952 11.272 27.9146667 11.2346667 27.896 11.1893333 27.896 11.136L27.896.32C27.896.266666667 27.9146667.221333333 27.952.184 27.9893333.146666667 28.0346667.128 28.088.128L29.896.128C30.0026667.128 30.0773333.170666667 30.12.256L34.248 7.072C34.2693333 7.104 34.2906667 7.11733333 34.312 7.112 34.3333333 7.10666667 34.344 7.08266667 34.344 7.04L34.328.32ZM.192 27.328C.138666667 27.328.0933333333 27.3093333.056 27.272.0186666667 27.2346667 0 27.1893333 0 27.136L0 16.32C0 16.2666667.0186666667 16.2213333.056 16.184.0933333333 16.1466667.138666667 16.128.192 16.128L2.064 16.128C2.11733333 16.128 2.16266667 16.1466667 2.2 16.184 2.23733333 16.2213333 2.256 16.2666667 2.256 16.32L2.256 27.136C2.256 27.1893333 2.23733333 27.2346667 2.2 27.272 2.16266667 27.3093333 2.11733333 27.328 2.064 27.328L.192 27.328ZM7.184 18.976C7.87733333 18.976 8.496 19.096 9.04 19.336 9.584 19.576 10.008 19.904 10.312 20.32 10.616 20.736 10.768 21.2 10.768 21.712L10.768 27.136C10.768 27.1893333 10.7493333 27.2346667 10.712 27.272 10.6746667 27.3093333 10.6293333 27.328 10.576 27.328L8.704 27.328C8.65066667 27.328 8.60533333 27.3093333 8.568 27.272 8.53066667 27.2346667 8.512 27.1893333 8.512 27.136L8.512 26.608C8.512 26.576 8.50133333 26.5546667 8.48 26.544 8.45866667 26.5333333 8.43733333 26.544 8.416 26.576 7.968 27.1626667 7.248 27.456 6.256 27.456 5.424 27.456 4.752 27.2533333 4.24 26.848 3.728 26.4426667 3.472 25.8453333 3.472 25.056 3.472 24.2346667 3.76 23.5973333 4.336 23.144 4.912 22.6906667 5.73333333 22.464 6.8 22.464L8.432 22.464C8.48533333 22.464 8.512 22.4373333 8.512 22.384L8.512 22.032C8.512 21.68 8.40533333 21.4053333 8.192 21.208 7.97866667 21.0106667 7.65866667 20.912 7.232 20.912 6.90133333 20.912 6.62666667 20.9706667 6.408 21.088 6.18933333 21.2053333 6.048 21.3706667 5.984 21.584 5.952 21.7013333 5.88266667 21.7546667 5.776 21.744L3.84 21.488C3.712 21.4666667 3.65333333 21.4186667 3.664 21.344 3.70666667 20.896 3.88533333 20.4906667 4.2 20.128 4.51466667 19.7653333 4.93066667 19.4826667 5.448 19.28 5.96533333 19.0773333 6.544 18.976 7.184 18.976ZM6.864 25.776C7.32266667 25.776 7.712 25.6533333 8.032 25.408 8.352 25.1626667 8.512 24.848 8.512 24.464L8.512 23.888C8.512 23.8346667 8.48533333 23.808 8.432 23.808L7.28 23.808C6.8 23.808 6.424 23.8986667 6.152 24.08 5.88 24.2613333 5.744 24.5173333 5.744 24.848 5.744 25.136 5.84533333 25.3626667 6.048 25.528 6.25066667 25.6933333 6.52266667 25.776 6.864 25.776ZM15.968 27.456C15.1146667 27.456 14.376 27.2426667 13.752 26.816 13.128 26.3893333 12.6826667 25.8026667 12.416 25.056 12.2346667 24.5226667 12.144 23.8933333 12.144 23.168 12.144 22.4533333 12.2346667 21.8346667 12.416 21.312 12.672 20.5866667 13.1146667 20.016 13.744 19.6 14.3733333 19.184 15.1146667 18.976 15.968 18.976 16.8213333 18.976 17.5706667 19.1893333 18.216 19.616 18.8613333 20.0426667 19.2906667 20.5813333 19.504 21.232 19.5893333 21.488 19.632 21.68 19.632 21.808L19.632 21.84C19.632 21.936 19.5786667 21.9946667 19.472 22.016L17.632 22.288 17.6 22.288C17.504 22.288 17.44 22.2346667 17.408 22.128L17.36 21.872C17.2853333 21.5946667 17.12 21.3653333 16.864 21.184 16.608 21.0026667 16.304 20.912 15.952 20.912 15.6106667 20.912 15.3226667 20.9973333 15.088 21.168 14.8533333 21.3386667 14.688 21.5733333 14.592 21.872 14.4746667 22.192 14.416 22.6293333 14.416 23.184 14.416 23.7386667 14.4693333 24.176 14.576 24.496 14.672 24.816 14.84 25.0666667 15.08 25.248 15.32 25.4293333 15.6106667 25.52 15.952 25.52 16.2826667 25.52 16.5733333 25.432 16.824 25.256 17.0746667 25.08 17.248 24.8373333 17.344 24.528 17.3546667 24.5066667 17.36 24.4746667 17.36 24.432 17.3706667 24.4213333 17.376 24.4053333 17.376 24.384 17.3866667 24.256 17.4613333 24.2026667 17.6 24.224L19.44 24.512C19.5466667 24.5333333 19.6 24.592 19.6 24.688 19.6 24.7733333 19.568 24.9333333 19.504 25.168 19.28 25.8826667 18.8453333 26.4426667 18.2 26.848 17.5546667 27.2533333 16.8106667 27.456 15.968 27.456ZM25.664 20.72C25.664 20.7733333 25.6453333 20.8186667 25.608 20.856 25.5706667 20.8933333 25.5253333 20.912 25.472 20.912L23.936 20.912C23.8826667 20.912 23.856 20.9386667 23.856 20.992L23.856 24.384C23.856 24.736 23.928 24.9973333 24.072 25.168 24.216 25.3386667 24.448 25.424 24.768 25.424L25.296 25.424C25.3493333 25.424 25.3946667 25.4426667 25.432 25.48 25.4693333 25.5173333 25.488 25.5626667 25.488 25.616L25.488 27.136C25.488 27.2533333 25.424 27.3226667 25.296 27.344 24.848 27.3653333 24.528 27.376 24.336 27.376 23.4506667 27.376 22.7893333 27.2293333 22.352 26.936 21.9146667 26.6426667 21.6906667 26.0906667 21.68 25.28L21.68 20.992C21.68 20.9386667 21.6533333 20.912 21.6 20.912L20.688 20.912C20.6346667 20.912 20.5893333 20.8933333 20.552 20.856 20.5146667 20.8186667 20.496 20.7733333 20.496 20.72L20.496 19.296C20.496 19.2426667 20.5146667 19.1973333 20.552 19.16 20.5893333 19.1226667 20.6346667 19.104 20.688 19.104L21.6 19.104C21.6533333 19.104 21.68 19.0773333 21.68 19.024L21.68 17.12C21.68 17.0666667 21.6986667 17.0213333 21.736 16.984 21.7733333 16.9466667 21.8186667 16.928 21.872 16.928L23.664 16.928C23.7173333 16.928 23.7626667 16.9466667 23.8 16.984 23.8373333 17.0213333 23.856 17.0666667 23.856 17.12L23.856 19.024C23.856 19.0773333 23.8826667 19.104 23.936 19.104L25.472 19.104C25.5253333 19.104 25.5706667 19.1226667 25.608 19.16 25.6453333 19.1973333 25.664 19.2426667 25.664 19.296L25.664 20.72ZM30.656 27.456C29.76 27.456 28.992 27.2213333 28.352 26.752 27.712 26.2826667 27.2746667 25.6426667 27.04 24.832 26.8906667 24.3306667 26.816 23.7866667 26.816 23.2 26.816 22.5706667 26.8906667 22.0053333 27.04 21.504 27.2853333 20.7146667 27.728 20.096 28.368 19.648 29.008 19.2 29.776 18.976 30.672 18.976 31.5466667 18.976 32.2933333 19.1973333 32.912 19.64 33.5306667 20.0826667 33.968 20.6986667 34.224 21.488 34.3946667 22.0213333 34.48 22.5813333 34.48 23.168 34.48 23.744 34.4053333 24.2826667 34.256 24.784 34.0213333 25.616 33.5866667 26.2693333 32.952 26.744 32.3173333 27.2186667 31.552 27.456 30.656 27.456ZM30.656 25.52C31.008 25.52 31.3066667 25.4133333 31.552 25.2 31.7973333 24.9866667 31.9733333 24.6933333 32.08 24.32 32.1653333 23.9786667 32.208 23.6053333 32.208 23.2 32.208 22.752 32.1653333 22.3733333 32.08 22.064 31.9626667 21.7013333 31.7813333 21.4186667 31.536 21.216 31.2906667 21.0133333 30.992 20.912 30.64 20.912 30.2773333 20.912 29.976 21.0133333 29.736 21.216 29.496 21.4186667 29.3226667 21.7013333 29.216 22.064 29.1306667 22.32 29.088 22.6986667 29.088 23.2 29.088 23.68 29.1253333 24.0533333 29.2 24.32 29.3066667 24.6933333 29.4853333 24.9866667 29.736 25.2 29.9866667 25.4133333 30.2933333 25.52 30.656 25.52ZM39.216 27.44C38.5013333 27.44 37.8773333 27.3386667 37.344 27.136 36.8106667 26.9333333 36.3973333 26.6506667 36.104 26.288 35.8106667 25.9253333 35.664 25.5146667 35.664 25.056L35.664 24.896C35.664 24.8426667 35.6826667 24.7973333 35.72 24.76 35.7573333 24.7226667 35.8026667 24.704 35.856 24.704L37.632 24.704C37.6853333 24.704 37.7306667 24.7226667 37.768 24.76 37.8053333 24.7973333 37.824 24.8426667 37.824 24.896L37.824 24.912C37.824 25.1466667 37.9546667 25.3466667 38.216 25.512 38.4773333 25.6773333 38.8053333 25.76 39.2 25.76 39.5626667 25.76 39.856 25.688 40.08 25.544 40.304 25.4 40.416 25.2213333 40.416 25.008 40.416 24.816 40.32 24.672 40.128 24.576 39.936 24.48 39.6213333 24.3786667 39.184 24.272 38.6826667 24.144 38.288 24.0213333 38 23.904 37.3173333 23.6693333 36.7733333 23.3813333 36.368 23.04 35.9626667 22.6986667 35.76 22.208 35.76 21.568 35.76 20.7786667 36.0666667 20.152 36.68 19.688 37.2933333 19.224 38.1066667 18.992 39.12 18.992 39.8026667 18.992 40.4 19.1013333 40.912 19.32 41.424 19.5386667 41.8213333 19.8453333 42.104 20.24 42.3866667 20.6346667 42.528 21.0826667 42.528 21.584 42.528 21.6373333 42.5093333 21.6826667 42.472 21.72 42.4346667 21.7573333 42.3893333 21.776 42.336 21.776L40.624 21.776C40.5706667 21.776 40.5253333 21.7573333 40.488 21.72 40.4506667 21.6826667 40.432 21.6373333 40.432 21.584 40.432 21.3493333 40.312 21.152 40.072 20.992 39.832 20.832 39.5146667 20.752 39.12 20.752 38.768 20.752 38.48 20.816 38.256 20.944 38.032 21.072 37.92 21.248 37.92 21.472 37.92 21.6853333 38.0293333 21.8453333 38.248 21.952 38.4666667 22.0586667 38.832 22.1706667 39.344 22.288 39.4613333 22.32 39.5946667 22.3546667 39.744 22.392 39.8933333 22.4293333 40.0533333 22.4746667 40.224 22.528 40.9813333 22.752 41.5786667 23.04 42.016 23.392 42.4533333 23.744 42.672 24.256 42.672 24.928 42.672 25.7173333 42.36 26.3333333 41.736 26.776 41.112 27.2186667 40.272 27.44 39.216 27.44ZM47.248 18.976C47.9413333 18.976 48.56 19.096 49.104 19.336 49.648 19.576 50.072 19.904 50.376 20.32 50.68 20.736 50.832 21.2 50.832 21.712L50.832 27.136C50.832 27.1893333 50.8133333 27.2346667 50.776 27.272 50.7386667 27.3093333 50.6933333 27.328 50.64 27.328L48.768 27.328C48.7146667 27.328 48.6693333 27.3093333 48.632 27.272 48.5946667 27.2346667 48.576 27.1893333 48.576 27.136L48.576 26.608C48.576 26.576 48.5653333 26.5546667 48.544 26.544 48.5226667 26.5333333 48.5013333 26.544 48.48 26.576 48.032 27.1626667 47.312 27.456 46.32 27.456 45.488 27.456 44.816 27.2533333 44.304 26.848 43.792 26.4426667 43.536 25.8453333 43.536 25.056 43.536 24.2346667 43.824 23.5973333 44.4 23.144 44.976 22.6906667 45.7973333 22.464 46.864 22.464L48.496 22.464C48.5493333 22.464 48.576 22.4373333 48.576 22.384L48.576 22.032C48.576 21.68 48.4693333 21.4053333 48.256 21.208 48.0426667 21.0106667 47.7226667 20.912 47.296 20.912 46.9653333 20.912 46.6906667 20.9706667 46.472 21.088 46.2533333 21.2053333 46.112 21.3706667 46.048 21.584 46.016 21.7013333 45.9466667 21.7546667 45.84 21.744L43.904 21.488C43.776 21.4666667 43.7173333 21.4186667 43.728 21.344 43.7706667 20.896 43.9493333 20.4906667 44.264 20.128 44.5786667 19.7653333 44.9946667 19.4826667 45.512 19.28 46.0293333 19.0773333 46.608 18.976 47.248 18.976ZM46.928 25.776C47.3866667 25.776 47.776 25.6533333 48.096 25.408 48.416 25.1626667 48.576 24.848 48.576 24.464L48.576 23.888C48.576 23.8346667 48.5493333 23.808 48.496 23.808L47.344 23.808C46.864 23.808 46.488 23.8986667 46.216 24.08 45.944 24.2613333 45.808 24.5173333 45.808 24.848 45.808 25.136 45.9093333 25.3626667 46.112 25.528 46.3146667 25.6933333 46.5866667 25.776 46.928 25.776Z" transform="translate(0 63.672)"/></g></g></svg>