<svg xmlns="http://www.w3.org/2000/svg" xmlns:xlink="http://www.w3.org/1999/xlink" width="309" height="95" viewBox="0 0 309 95"><defs><polygon id="a" points="0 0 49.993 0 49.993 49.96 0 49.96"/><polygon id="c" points="0 0 50 0 50 49.997 0 49.997"/><polygon id="e" points="0 0 50 0 50 49.967 0 49.967"/></defs><g fill="none" fill-rule="evenodd"><mask id="b" fill="#fff"><use xlink:href="#a"/></mask><path fill="#273271" d="M23.3790439,21.0240468 C23.3790439,21.0240468 23.8573036,17.8137676 21.6254249,15.8038264 C19.3904204,13.7938853 15.295517,13.7438712 15.295517,13.7438712 C15.295517,13.7438712 14.8172573,16.9541504 17.0491359,18.9640916 C19.2810146,20.9740327 23.3790439,21.0240468 23.3790439,21.0240468 M25.0295087,16.1476733 C25.0295087,16.1476733 28.3054315,13.7938853 28.2898578,10.9055718 C28.2741727,8.01413233 24.9732429,5.6822255 24.9732429,5.6822255 C24.9732429,5.6822255 21.6973202,8.03601349 21.7128938,10.9274529 C21.728579,13.8157665 25.0295087,16.1476733 25.0295087,16.1476733 M4.24552956,14.4878308 C7.04631845,8.9456447 11.8382932,4.82573426 17.7399555,2.88768837 C20.1250023,2.10621825 22.5788185,1.7154832 25.0201311,1.7154832 C28.6148936,1.7154832 32.1846491,2.55947092 35.4887048,4.22869109 C40.9152333,6.97321413 44.7819474,11.5776361 46.7512521,16.8728776 L21.9786494,25.0126703 C21.7066978,24.6344387 21.3909839,24.2687107 21.0127524,23.9311156 C18.0212848,21.2366067 12.5291128,21.1709632 12.5291128,21.1709632 C12.5291128,21.1709632 12.0164684,24.8438727 14.3108646,27.529004 L2.66383404,31.3550817 C1.04462796,25.7097416 1.57915352,19.7580652 4.24552956,14.4878308 M45.7478444,35.4718663 C39.9649656,46.9125888 25.9516435,51.5170107 14.5046692,45.731006 C9.20942773,43.0552523 5.23330778,38.5446068 3.1983596,33.0024207 L15.8237908,28.8543774 C18.8965313,30.8549409 23.3665403,30.9268361 23.3665403,30.9268361 C23.3665403,30.9268361 23.6603731,28.7762304 22.7945042,26.5662329 L28.2147809,24.784481 C26.1329445,27.4477312 26.6268337,30.9268361 26.6268337,30.9268361 C26.6268337,30.9268361 32.1190056,30.8611926 35.1135991,28.1666837 C37.4642612,26.0473367 37.5705412,22.9652186 37.5111494,21.7304958 L47.2951553,18.5170907 C48.8799767,23.974878 48.5079969,30.0109531 45.7478444,35.4718663 M1.26031372,32.7773573 C3.3421501,39.1166429 7.76839684,44.2680939 13.726325,47.2783168 C17.3273393,49.1007051 21.1690464,49.9603222 24.9544876,49.9603222 C34.0883103,49.9603222 42.9001673,44.9432841 47.2951553,36.2502105 C50.3053782,30.2954083 50.8148967,23.5247512 48.7330603,17.1823397 C46.6512239,10.8430541 42.2218513,5.69160314 36.267049,2.68138026 C23.9729611,-3.52974422 8.91559497,1.41539867 2.69821873,13.7094865 C-0.312004156,19.6642888 -0.821522672,26.4349459 1.26031372,32.7773573 M11.5350828,31.3800888 C11.5350828,31.3800888 10.8348856,36.0876648 14.1076824,39.03537 C17.3836051,41.9830753 23.3884215,42.0549706 23.3884215,42.0549706 C23.3884215,42.0549706 24.0886187,37.3473946 20.8158219,34.3996893 C17.543025,31.451984 11.5350828,31.3800888 11.5350828,31.3800888 M26.6049525,42.0549706 C26.6049525,42.0549706 32.6097689,41.9830753 35.8825657,39.03537 C39.1584884,36.0876648 38.4582912,31.3800888 38.4582912,31.3800888 C38.4582912,31.3800888 32.450349,31.451984 29.1775521,34.3996893 C25.9047553,37.3473946 26.6049525,42.0549706 26.6049525,42.0549706 M26.6143301,21.0240468 C26.6143301,21.0240468 30.7123594,20.9740327 32.9442381,18.9640916 C35.1761167,16.9541504 34.697857,13.7438712 34.697857,13.7438712 C34.697857,13.7438712 30.6029536,13.7938853 28.3679491,15.8038264 C26.1360704,17.8137676 26.6143301,21.0240468 26.6143301,21.0240468" mask="url(#b)"/><path fill="#273271" fill-rule="nonzero" d="M14.584 11.456C13.7306667 11.456 12.984 11.32 12.344 11.048 11.704 10.776 11.2106667 10.3866667 10.864 9.88 10.5173333 9.37333333 10.344 8.784 10.344 8.112L10.344 7.76C10.344 7.70666667 10.3626667 7.66133333 10.4 7.624 10.4373333 7.58666667 10.4826667 7.568 10.536 7.568L12.36 7.568C12.4133333 7.568 12.4586667 7.58666667 12.496 7.624 12.5333333 7.66133333 12.552 7.70666667 12.552 7.76L12.552 8C12.552 8.42666667 12.7493333 8.78666667 13.144 9.08 13.5386667 9.37333333 14.072 9.52 14.744 9.52 15.3093333 9.52 15.7306667 9.4 16.008 9.16 16.2853333 8.92 16.424 8.624 16.424 8.272 16.424 8.016 16.3386667 7.8 16.168 7.624 15.9973333 7.448 15.7653333 7.29333333 15.472 7.16 15.1786667 7.02666667 14.712 6.84266667 14.072 6.608 13.3573333 6.36266667 12.752 6.112 12.256 5.856 11.76 5.6 11.344 5.25066667 11.008 4.808 10.672 4.36533333 10.504 3.81866667 10.504 3.168 10.504 2.528 10.6693333 1.968 11 1.488 11.3306667 1.008 11.7893333.64 12.376.384 12.9626667.128 13.64 0 14.408 0 15.2186667 0 15.9413333.144 16.576.432 17.2106667.72 17.7066667 1.12266667 18.064 1.64 18.4213333 2.15733333 18.6 2.75733333 18.6 3.44L18.6 3.68C18.6 3.73333333 18.5813333 3.77866667 18.544 3.816 18.5066667 3.85333333 18.4613333 3.872 18.408 3.872L16.568 3.872C16.5146667 3.872 16.4693333 3.85333333 16.432 3.816 16.3946667 3.77866667 16.376 3.73333333 16.376 3.68L16.376 3.552C16.376 3.104 16.192 2.72266667 15.824 2.408 15.456 2.09333333 14.952 1.936 14.312 1.936 13.8106667 1.936 13.4186667 2.04266667 13.136 2.256 12.8533333 2.46933333 12.712 2.76266667 12.712 3.136 12.712 3.40266667 12.7946667 3.62666667 12.96 3.808 13.1253333 3.98933333 13.3706667 4.152 13.696 4.296 14.0213333 4.44 14.5253333 4.63466667 15.208 4.88 15.9653333 5.15733333 16.56 5.40266667 16.992 5.616 17.424 5.82933333 17.8133333 6.14666667 18.16 6.568 18.5066667 6.98933333 18.68 7.536 18.68 8.208 18.68 9.21066667 18.312 10.0026667 17.576 10.584 16.84 11.1653333 15.8426667 11.456 14.584 11.456ZM20.456 11.328C20.4026667 11.328 20.3573333 11.3093333 20.32 11.272 20.2826667 11.2346667 20.264 11.1893333 20.264 11.136L20.264.32C20.264.266666667 20.2826667.221333333 20.32.184 20.3573333.146666667 20.4026667.128 20.456.128L22.328.128C22.3813333.128 22.4266667.146666667 22.464.184 22.5013333.221333333 22.52.266666667 22.52.32L22.52 11.136C22.52 11.1893333 22.5013333 11.2346667 22.464 11.272 22.4266667 11.3093333 22.3813333 11.328 22.328 11.328L20.456 11.328ZM30.904.32C30.904.266666667 30.9226667.221333333 30.96.184 30.9973333.146666667 31.0426667.128 31.096.128L32.968.128C33.0213333.128 33.0666667.146666667 33.104.184 33.1413333.221333333 33.16.266666667 33.16.32L33.16 11.136C33.16 11.1893333 33.1413333 11.2346667 33.104 11.272 33.0666667 11.3093333 33.0213333 11.328 32.968 11.328L31.16 11.328C31.0533333 11.328 30.9786667 11.2853333 30.936 11.2L26.792 4.352C26.7706667 4.32 26.7493333 4.30666667 26.728 4.312 26.7066667 4.31733333 26.696 4.34133333 26.696 4.384L26.728 11.136C26.728 11.1893333 26.7093333 11.2346667 26.672 11.272 26.6346667 11.3093333 26.5893333 11.328 26.536 11.328L24.664 11.328C24.6106667 11.328 24.5653333 11.3093333 24.528 11.272 24.4906667 11.2346667 24.472 11.1893333 24.472 11.136L24.472.32C24.472.266666667 24.4906667.221333333 24.528.184 24.5653333.146666667 24.6106667.128 24.664.128L26.472.128C26.5786667.128 26.6533333.170666667 26.696.256L30.824 7.072C30.8453333 7.104 30.8666667 7.11733333 30.888 7.112 30.9093333 7.10666667 30.92 7.08266667 30.92 7.04L30.904.32ZM5.264 19.296C5.264 19.2426667 5.28266667 19.1973333 5.32 19.16 5.35733333 19.1226667 5.40266667 19.104 5.456 19.104L7.328 19.104C7.38133333 19.104 7.42666667 19.1226667 7.464 19.16 7.50133333 19.1973333 7.52 19.2426667 7.52 19.296L7.52 26.592C7.52 27.9893333 7.11733333 28.9866667 6.312 29.584 5.50666667 30.1813333 4.46933333 30.48 3.2 30.48 2.82666667 30.48 2.41066667 30.4533333 1.952 30.4 1.84533333 30.3893333 1.792 30.32 1.792 30.192L1.856 28.544C1.856 28.4053333 1.93066667 28.3466667 2.08 28.368 2.464 28.432 2.816 28.464 3.136 28.464 3.81866667 28.464 4.344 28.3146667 4.712 28.016 5.08 27.7173333 5.264 27.2373333 5.264 26.576 5.264 26.544 5.25333333 26.5253333 5.232 26.52 5.21066667 26.5146667 5.18933333 26.5226667 5.168 26.544 4.76266667 26.9813333 4.17066667 27.2 3.392 27.2 2.69866667 27.2 2.06133333 27.032 1.48 26.696.898666667 26.36.485333333 25.8186667.24 25.072.08 24.5813333 0 23.9466667 0 23.168 0 22.336.096 21.6586667.288 21.136.512 20.4853333.890666667 19.9626667 1.424 19.568 1.95733333 19.1733333 2.576 18.976 3.28 18.976 4.10133333 18.976 4.73066667 19.2213333 5.168 19.712 5.18933333 19.7333333 5.21066667 19.7413333 5.232 19.736 5.25333333 19.7306667 5.264 19.712 5.264 19.68L5.264 19.296ZM5.136 24.464C5.22133333 24.144 5.264 23.7066667 5.264 23.152 5.264 22.8213333 5.25333333 22.5653333 5.232 22.384 5.21066667 22.2026667 5.17333333 22.032 5.12 21.872 5.024 21.584 4.864 21.352 4.64 21.176 4.416 21 4.13866667 20.912 3.808 20.912 3.488 20.912 3.216 21 2.992 21.176 2.768 21.352 2.60266667 21.584 2.496 21.872 2.34666667 22.192 2.272 22.624 2.272 23.168 2.272 23.7653333 2.336 24.192 2.464 24.448 2.56 24.736 2.728 24.968 2.968 25.144 3.208 25.32 3.49333333 25.408 3.824 25.408 4.16533333 25.408 4.448 25.32 4.672 25.144 4.896 24.968 5.05066667 24.7413333 5.136 24.464ZM9.328 27.328C9.27466667 27.328 9.22933333 27.3093333 9.192 27.272 9.15466667 27.2346667 9.136 27.1893333 9.136 27.136L9.136 16.32C9.136 16.2666667 9.15466667 16.2213333 9.192 16.184 9.22933333 16.1466667 9.27466667 16.128 9.328 16.128L11.2 16.128C11.2533333 16.128 11.2986667 16.1466667 11.336 16.184 11.3733333 16.2213333 11.392 16.2666667 11.392 16.32L11.392 27.136C11.392 27.1893333 11.3733333 27.2346667 11.336 27.272 11.2986667 27.3093333 11.2533333 27.328 11.2 27.328L9.328 27.328ZM17.84 19.296C17.84 19.2426667 17.8586667 19.1973333 17.896 19.16 17.9333333 19.1226667 17.9786667 19.104 18.032 19.104L19.904 19.104C19.9573333 19.104 20.0026667 19.1226667 20.04 19.16 20.0773333 19.1973333 20.096 19.2426667 20.096 19.296L20.096 27.136C20.096 27.1893333 20.0773333 27.2346667 20.04 27.272 20.0026667 27.3093333 19.9573333 27.328 19.904 27.328L18.032 27.328C17.9786667 27.328 17.9333333 27.3093333 17.896 27.272 17.8586667 27.2346667 17.84 27.1893333 17.84 27.136L17.84 26.592C17.84 26.56 17.8293333 26.5413333 17.808 26.536 17.7866667 26.5306667 17.7653333 26.544 17.744 26.576 17.3173333 27.152 16.656 27.44 15.76 27.44 14.9493333 27.44 14.2826667 27.1946667 13.76 26.704 13.2373333 26.2133333 12.976 25.5253333 12.976 24.64L12.976 19.296C12.976 19.2426667 12.9946667 19.1973333 13.032 19.16 13.0693333 19.1226667 13.1146667 19.104 13.168 19.104L15.024 19.104C15.0773333 19.104 15.1226667 19.1226667 15.16 19.16 15.1973333 19.1973333 15.216 19.2426667 15.216 19.296L15.216 24.08C15.216 24.5066667 15.3306667 24.8533333 15.56 25.12 15.7893333 25.3866667 16.1066667 25.52 16.512 25.52 16.8746667 25.52 17.1733333 25.4106667 17.408 25.192 17.6426667 24.9733333 17.7866667 24.688 17.84 24.336L17.84 19.296ZM26.48 20.72C26.48 20.7733333 26.4613333 20.8186667 26.424 20.856 26.3866667 20.8933333 26.3413333 20.912 26.288 20.912L24.752 20.912C24.6986667 20.912 24.672 20.9386667 24.672 20.992L24.672 24.384C24.672 24.736 24.744 24.9973333 24.888 25.168 25.032 25.3386667 25.264 25.424 25.584 25.424L26.112 25.424C26.1653333 25.424 26.2106667 25.4426667 26.248 25.48 26.2853333 25.5173333 26.304 25.5626667 26.304 25.616L26.304 27.136C26.304 27.2533333 26.24 27.3226667 26.112 27.344 25.664 27.3653333 25.344 27.376 25.152 27.376 24.2666667 27.376 23.6053333 27.2293333 23.168 26.936 22.7306667 26.6426667 22.5066667 26.0906667 22.496 25.28L22.496 20.992C22.496 20.9386667 22.4693333 20.912 22.416 20.912L21.504 20.912C21.4506667 20.912 21.4053333 20.8933333 21.368 20.856 21.3306667 20.8186667 21.312 20.7733333 21.312 20.72L21.312 19.296C21.312 19.2426667 21.3306667 19.1973333 21.368 19.16 21.4053333 19.1226667 21.4506667 19.104 21.504 19.104L22.416 19.104C22.4693333 19.104 22.496 19.0773333 22.496 19.024L22.496 17.12C22.496 17.0666667 22.5146667 17.0213333 22.552 16.984 22.5893333 16.9466667 22.6346667 16.928 22.688 16.928L24.48 16.928C24.5333333 16.928 24.5786667 16.9466667 24.616 16.984 24.6533333 17.0213333 24.672 17.0666667 24.672 17.12L24.672 19.024C24.672 19.0773333 24.6986667 19.104 24.752 19.104L26.288 19.104C26.3413333 19.104 26.3866667 19.1226667 26.424 19.16 26.4613333 19.1973333 26.48 19.2426667 26.48 19.296L26.48 20.72ZM35.12 22.368C35.184 22.7733333 35.2053333 23.2266667 35.184 23.728 35.1733333 23.856 35.104 23.92 34.976 23.92L30.032 23.92C29.968 23.92 29.9466667 23.9466667 29.968 24 30 24.2133333 30.0586667 24.4266667 30.144 24.64 30.4213333 25.2373333 30.9866667 25.536 31.84 25.536 32.5226667 25.5253333 33.0613333 25.248 33.456 24.704 33.4986667 24.64 33.5466667 24.608 33.6 24.608 33.632 24.608 33.6693333 24.6293333 33.712 24.672L34.864 25.808C34.9173333 25.8613333 34.944 25.9093333 34.944 25.952 34.944 25.9733333 34.9226667 26.016 34.88 26.08 34.528 26.5173333 34.0746667 26.856 33.52 27.096 32.9653333 27.336 32.3573333 27.456 31.696 27.456 30.7786667 27.456 30.0026667 27.248 29.368 26.832 28.7333333 26.416 28.2773333 25.8346667 28 25.088 27.776 24.5546667 27.664 23.856 27.664 22.992 27.664 22.4053333 27.744 21.888 27.904 21.44 28.1493333 20.6826667 28.5786667 20.08 29.192 19.632 29.8053333 19.184 30.5333333 18.96 31.376 18.96 32.4426667 18.96 33.2986667 19.2693333 33.944 19.888 34.5893333 20.5066667 34.9813333 21.3333333 35.12 22.368ZM31.392 20.912C30.72 20.912 30.2773333 21.2266667 30.064 21.856 30.0213333 21.9946667 29.984 22.1653333 29.952 22.368 29.952 22.4213333 29.9786667 22.448 30.032 22.448L32.8 22.448C32.864 22.448 32.8853333 22.4213333 32.864 22.368 32.8106667 22.0586667 32.784 21.9093333 32.784 21.92 32.688 21.6 32.52 21.352 32.28 21.176 32.04 21 31.744 20.912 31.392 20.912ZM40.864 18.976C41.7173333 18.976 42.4053333 19.2373333 42.928 19.76 43.4506667 20.2826667 43.712 20.992 43.712 21.888L43.712 27.136C43.712 27.1893333 43.6933333 27.2346667 43.656 27.272 43.6186667 27.3093333 43.5733333 27.328 43.52 27.328L41.648 27.328C41.5946667 27.328 41.5493333 27.3093333 41.512 27.272 41.4746667 27.2346667 41.456 27.1893333 41.456 27.136L41.456 22.352C41.456 21.9253333 41.336 21.5786667 41.096 21.312 40.856 21.0453333 40.5386667 20.912 40.144 20.912 39.7493333 20.912 39.432 21.0453333 39.192 21.312 38.952 21.5786667 38.832 21.9253333 38.832 22.352L38.832 27.136C38.832 27.1893333 38.8133333 27.2346667 38.776 27.272 38.7386667 27.3093333 38.6933333 27.328 38.64 27.328L36.768 27.328C36.7146667 27.328 36.6693333 27.3093333 36.632 27.272 36.5946667 27.2346667 36.576 27.1893333 36.576 27.136L36.576 19.296C36.576 19.2426667 36.5946667 19.1973333 36.632 19.16 36.6693333 19.1226667 36.7146667 19.104 36.768 19.104L38.64 19.104C38.6933333 19.104 38.7386667 19.1226667 38.776 19.16 38.8133333 19.1973333 38.832 19.2426667 38.832 19.296L38.832 19.856C38.832 19.888 38.8426667 19.9093333 38.864 19.92 38.8853333 19.9306667 38.9013333 19.9253333 38.912 19.904 39.3493333 19.2853333 40 18.976 40.864 18.976Z" transform="translate(3.048 63.672)"/><g transform="translate(120)"><mask id="d" fill="#fff"><use xlink:href="#c"/></mask><path fill="#273271" d="M3.36897256,16.4266417 C6.98472294,7.30281487 15.7613627,1.73218215 25.0290689,1.73218215 C27.8753776,1.73218215 30.7686035,2.25765452 33.5711228,3.36802769 C39.1918005,5.59502966 43.4424967,9.79255303 45.8947011,14.8470968 L34.0152721,19.9829637 C33.6117844,18.5504259 33.0143723,17.3211959 32.3231259,15.9981315 C31.5818345,14.5812328 29.8427712,10.590145 29.8427712,10.590145 C31.9477885,10.0678005 31.7288417,8.63213487 31.7288417,8.63213487 C31.7288417,7.6030848 30.6841526,6.76795906 29.3954941,6.76795906 L20.6063431,6.76795906 C19.3145569,6.76795906 18.2698677,7.64687417 18.2698677,8.63213487 C18.2698677,9.61739557 18.8047235,10.2711082 20.0026754,10.5401 C19.3145569,12.7233126 18.4200027,14.5812328 17.6755835,15.9981315 C16.4901429,18.2657951 15.4986265,20.1581212 15.4986265,23.5142632 L15.4986265,27.9901618 L3.29077727,33.269908 C1.28897775,28.0214399 1.1419706,22.0473195 3.36897256,16.4266417 M46.6297369,33.5701779 C41.9036133,45.4965241 28.3570606,51.3549156 16.4275866,46.628792 C10.7005633,44.3580007 6.39356652,40.0478761 3.96638461,34.865092 L15.4986265,29.8793601 L15.4986265,39.7976511 C15.4986265,41.6931051 17.4253586,43.2288606 19.7993677,43.2288606 L30.2024696,43.2288606 C32.5764787,43.2288606 34.5000829,41.6931051 34.5000829,39.7976511 L34.5000829,23.5142632 C34.5000829,22.8511671 34.4343989,22.2819053 34.3624592,21.722027 L46.5953309,16.4297696 C48.7066039,21.7501773 48.9005282,27.8431546 46.6297369,33.5701779 M15.789513,48.2396151 C18.8015957,49.4344391 21.9106406,49.9974453 24.9696405,49.9974453 C34.9254653,49.9974453 44.3558177,44.0108136 48.2405599,34.2082515 C53.3201262,21.390479 47.0238412,6.83364311 34.2091964,1.75407683 C21.3976795,-3.31923383 6.83771579,2.97392341 1.75814951,15.7885681 C-3.31828896,28.6032129 2.97486828,43.1631766 15.789513,48.2396151" mask="url(#d)"/></g><path fill="#273271" fill-rule="nonzero" d="M18.008 11.456C17.1546667 11.456 16.408 11.32 15.768 11.048 15.128 10.776 14.6346667 10.3866667 14.288 9.88 13.9413333 9.37333333 13.768 8.784 13.768 8.112L13.768 7.76C13.768 7.70666667 13.7866667 7.66133333 13.824 7.624 13.8613333 7.58666667 13.9066667 7.568 13.96 7.568L15.784 7.568C15.8373333 7.568 15.8826667 7.58666667 15.92 7.624 15.9573333 7.66133333 15.976 7.70666667 15.976 7.76L15.976 8C15.976 8.42666667 16.1733333 8.78666667 16.568 9.08 16.9626667 9.37333333 17.496 9.52 18.168 9.52 18.7333333 9.52 19.1546667 9.4 19.432 9.16 19.7093333 8.92 19.848 8.624 19.848 8.272 19.848 8.016 19.7626667 7.8 19.592 7.624 19.4213333 7.448 19.1893333 7.29333333 18.896 7.16 18.6026667 7.02666667 18.136 6.84266667 17.496 6.608 16.7813333 6.36266667 16.176 6.112 15.68 5.856 15.184 5.6 14.768 5.25066667 14.432 4.808 14.096 4.36533333 13.928 3.81866667 13.928 3.168 13.928 2.528 14.0933333 1.968 14.424 1.488 14.7546667 1.008 15.2133333.64 15.8.384 16.3866667.128 17.064 0 17.832 0 18.6426667 0 19.3653333.144 20 .432 20.6346667.72 21.1306667 1.12266667 21.488 1.64 21.8453333 2.15733333 22.024 2.75733333 22.024 3.44L22.024 3.68C22.024 3.73333333 22.0053333 3.77866667 21.968 3.816 21.9306667 3.85333333 21.8853333 3.872 21.832 3.872L19.992 3.872C19.9386667 3.872 19.8933333 3.85333333 19.856 3.816 19.8186667 3.77866667 19.8 3.73333333 19.8 3.68L19.8 3.552C19.8 3.104 19.616 2.72266667 19.248 2.408 18.88 2.09333333 18.376 1.936 17.736 1.936 17.2346667 1.936 16.8426667 2.04266667 16.56 2.256 16.2773333 2.46933333 16.136 2.76266667 16.136 3.136 16.136 3.40266667 16.2186667 3.62666667 16.384 3.808 16.5493333 3.98933333 16.7946667 4.152 17.12 4.296 17.4453333 4.44 17.9493333 4.63466667 18.632 4.88 19.3893333 5.15733333 19.984 5.40266667 20.416 5.616 20.848 5.82933333 21.2373333 6.14666667 21.584 6.568 21.9306667 6.98933333 22.104 7.536 22.104 8.208 22.104 9.21066667 21.736 10.0026667 21 10.584 20.264 11.1653333 19.2666667 11.456 18.008 11.456ZM23.88 11.328C23.8266667 11.328 23.7813333 11.3093333 23.744 11.272 23.7066667 11.2346667 23.688 11.1893333 23.688 11.136L23.688.32C23.688.266666667 23.7066667.221333333 23.744.184 23.7813333.146666667 23.8266667.128 23.88.128L25.752.128C25.8053333.128 25.8506667.146666667 25.888.184 25.9253333.221333333 25.944.266666667 25.944.32L25.944 11.136C25.944 11.1893333 25.9253333 11.2346667 25.888 11.272 25.8506667 11.3093333 25.8053333 11.328 25.752 11.328L23.88 11.328ZM34.328.32C34.328.266666667 34.3466667.221333333 34.384.184 34.4213333.146666667 34.4666667.128 34.52.128L36.392.128C36.4453333.128 36.4906667.146666667 36.528.184 36.5653333.221333333 36.584.266666667 36.584.32L36.584 11.136C36.584 11.1893333 36.5653333 11.2346667 36.528 11.272 36.4906667 11.3093333 36.4453333 11.328 36.392 11.328L34.584 11.328C34.4773333 11.328 34.4026667 11.2853333 34.36 11.2L30.216 4.352C30.1946667 4.32 30.1733333 4.30666667 30.152 4.312 30.1306667 4.31733333 30.12 4.34133333 30.12 4.384L30.152 11.136C30.152 11.1893333 30.1333333 11.2346667 30.096 11.272 30.0586667 11.3093333 30.0133333 11.328 29.96 11.328L28.088 11.328C28.0346667 11.328 27.9893333 11.3093333 27.952 11.272 27.9146667 11.2346667 27.896 11.1893333 27.896 11.136L27.896.32C27.896.266666667 27.9146667.221333333 27.952.184 27.9893333.146666667 28.0346667.128 28.088.128L29.896.128C30.0026667.128 30.0773333.170666667 30.12.256L34.248 7.072C34.2693333 7.104 34.2906667 7.11733333 34.312 7.112 34.3333333 7.10666667 34.344 7.08266667 34.344 7.04L34.328.32ZM.192 27.328C.138666667 27.328.0933333333 27.3093333.056 27.272.0186666667 27.2346667 0 27.1893333 0 27.136L0 16.32C0 16.2666667.0186666667 16.2213333.056 16.184.0933333333 16.1466667.138666667 16.128.192 16.128L2.064 16.128C2.11733333 16.128 2.16266667 16.1466667 2.2 16.184 2.23733333 16.2213333 2.256 16.2666667 2.256 16.32L2.256 27.136C2.256 27.1893333 2.23733333 27.2346667 2.2 27.272 2.16266667 27.3093333 2.11733333 27.328 2.064 27.328L.192 27.328ZM7.184 18.976C7.87733333 18.976 8.496 19.096 9.04 19.336 9.584 19.576 10.008 19.904 10.312 20.32 10.616 20.736 10.768 21.2 10.768 21.712L10.768 27.136C10.768 27.1893333 10.7493333 27.2346667 10.712 27.272 10.6746667 27.3093333 10.6293333 27.328 10.576 27.328L8.704 27.328C8.65066667 27.328 8.60533333 27.3093333 8.568 27.272 8.53066667 27.2346667 8.512 27.1893333 8.512 27.136L8.512 26.608C8.512 26.576 8.50133333 26.5546667 8.48 26.544 8.45866667 26.5333333 8.43733333 26.544 8.416 26.576 7.968 27.1626667 7.248 27.456 6.256 27.456 5.424 27.456 4.752 27.2533333 4.24 26.848 3.728 26.4426667 3.472 25.8453333 3.472 25.056 3.472 24.2346667 3.76 23.5973333 4.336 23.144 4.912 22.6906667 5.73333333 22.464 6.8 22.464L8.432 22.464C8.48533333 22.464 8.512 22.4373333 8.512 22.384L8.512 22.032C8.512 21.68 8.40533333 21.4053333 8.192 21.208 7.97866667 21.0106667 7.65866667 20.912 7.232 20.912 6.90133333 20.912 6.62666667 20.9706667 6.408 21.088 6.18933333 21.2053333 6.048 21.3706667 5.984 21.584 5.952 21.7013333 5.88266667 21.7546667 5.776 21.744L3.84 21.488C3.712 21.4666667 3.65333333 21.4186667 3.664 21.344 3.70666667 20.896 3.88533333 20.4906667 4.2 20.128 4.51466667 19.7653333 4.93066667 19.4826667 5.448 19.28 5.96533333 19.0773333 6.544 18.976 7.184 18.976ZM6.864 25.776C7.32266667 25.776 7.712 25.6533333 8.032 25.408 8.352 25.1626667 8.512 24.848 8.512 24.464L8.512 23.888C8.512 23.8346667 8.48533333 23.808 8.432 23.808L7.28 23.808C6.8 23.808 6.424 23.8986667 6.152 24.08 5.88 24.2613333 5.744 24.5173333 5.744 24.848 5.744 25.136 5.84533333 25.3626667 6.048 25.528 6.25066667 25.6933333 6.52266667 25.776 6.864 25.776ZM15.968 27.456C15.1146667 27.456 14.376 27.2426667 13.752 26.816 13.128 26.3893333 12.6826667 25.8026667 12.416 25.056 12.2346667 24.5226667 12.144 23.8933333 12.144 23.168 12.144 22.4533333 12.2346667 21.8346667 12.416 21.312 12.672 20.5866667 13.1146667 20.016 13.744 19.6 14.3733333 19.184 15.1146667 18.976 15.968 18.976 16.8213333 18.976 17.5706667 19.1893333 18.216 19.616 18.8613333 20.0426667 19.2906667 20.5813333 19.504 21.232 19.5893333 21.488 19.632 21.68 19.632 21.808L19.632 21.84C19.632 21.936 19.5786667 21.9946667 19.472 22.016L17.632 22.288 17.6 22.288C17.504 22.288 17.44 22.2346667 17.408 22.128L17.36 21.872C17.2853333 21.5946667 17.12 21.3653333 16.864 21.184 16.608 21.0026667 16.304 20.912 15.952 20.912 15.6106667 20.912 15.3226667 20.9973333 15.088 21.168 14.8533333 21.3386667 14.688 21.5733333 14.592 21.872 14.4746667 22.192 14.416 22.6293333 14.416 23.184 14.416 23.7386667 14.4693333 24.176 14.576 24.496 14.672 24.816 14.84 25.0666667 15.08 25.248 15.32 25.4293333 15.6106667 25.52 15.952 25.52 16.2826667 25.52 16.5733333 25.432 16.824 25.256 17.0746667 25.08 17.248 24.8373333 17.344 24.528 17.3546667 24.5066667 17.36 24.4746667 17.36 24.432 17.3706667 24.4213333 17.376 24.4053333 17.376 24.384 17.3866667 24.256 17.4613333 24.2026667 17.6 24.224L19.44 24.512C19.5466667 24.5333333 19.6 24.592 19.6 24.688 19.6 24.7733333 19.568 24.9333333 19.504 25.168 19.28 25.8826667 18.8453333 26.4426667 18.2 26.848 17.5546667 27.2533333 16.8106667 27.456 15.968 27.456ZM25.664 20.72C25.664 20.7733333 25.6453333 20.8186667 25.608 20.856 25.5706667 20.8933333 25.5253333 20.912 25.472 20.912L23.936 20.912C23.8826667 20.912 23.856 20.9386667 23.856 20.992L23.856 24.384C23.856 24.736 23.928 24.9973333 24.072 25.168 24.216 25.3386667 24.448 25.424 24.768 25.424L25.296 25.424C25.3493333 25.424 25.3946667 25.4426667 25.432 25.48 25.4693333 25.5173333 25.488 25.5626667 25.488 25.616L25.488 27.136C25.488 27.2533333 25.424 27.3226667 25.296 27.344 24.848 27.3653333 24.528 27.376 24.336 27.376 23.4506667 27.376 22.7893333 27.2293333 22.352 26.936 21.9146667 26.6426667 21.6906667 26.0906667 21.68 25.28L21.68 20.992C21.68 20.9386667 21.6533333 20.912 21.6 20.912L20.688 20.912C20.6346667 20.912 20.5893333 20.8933333 20.552 20.856 20.5146667 20.8186667 20.496 20.7733333 20.496 20.72L20.496 19.296C20.496 19.2426667 20.5146667 19.1973333 20.552 19.16 20.5893333 19.1226667 20.6346667 19.104 20.688 19.104L21.6 19.104C21.6533333 19.104 21.68 19.0773333 21.68 19.024L21.68 17.12C21.68 17.0666667 21.6986667 17.0213333 21.736 16.984 21.7733333 16.9466667 21.8186667 16.928 21.872 16.928L23.664 16.928C23.7173333 16.928 23.7626667 16.9466667 23.8 16.984 23.8373333 17.0213333 23.856 17.0666667 23.856 17.12L23.856 19.024C23.856 19.0773333 23.8826667 19.104 23.936 19.104L25.472 19.104C25.5253333 19.104 25.5706667 19.1226667 25.608 19.16 25.6453333 19.1973333 25.664 19.2426667 25.664 19.296L25.664 20.72ZM30.656 27.456C29.76 27.456 28.992 27.2213333 28.352 26.752 27.712 26.2826667 27.2746667 25.6426667 27.04 24.832 26.8906667 24.3306667 26.816 23.7866667 26.816 23.2 26.816 22.5706667 26.8906667 22.0053333 27.04 21.504 27.2853333 20.7146667 27.728 20.096 28.368 19.648 29.008 19.2 29.776 18.976 30.672 18.976 31.5466667 18.976 32.2933333 19.1973333 32.912 19.64 33.5306667 20.0826667 33.968 20.6986667 34.224 21.488 34.3946667 22.0213333 34.48 22.5813333 34.48 23.168 34.48 23.744 34.4053333 24.2826667 34.256 24.784 34.0213333 25.616 33.5866667 26.2693333 32.952 26.744 32.3173333 27.2186667 31.552 27.456 30.656 27.456ZM30.656 25.52C31.008 25.52 31.3066667 25.4133333 31.552 25.2 31.7973333 24.9866667 31.9733333 24.6933333 32.08 24.32 32.1653333 23.9786667 32.208 23.6053333 32.208 23.2 32.208 22.752 32.1653333 22.3733333 32.08 22.064 31.9626667 21.7013333 31.7813333 21.4186667 31.536 21.216 31.2906667 21.0133333 30.992 20.912 30.64 20.912 30.2773333 20.912 29.976 21.0133333 29.736 21.216 29.496 21.4186667 29.3226667 21.7013333 29.216 22.064 29.1306667 22.32 29.088 22.6986667 29.088 23.2 29.088 23.68 29.1253333 24.0533333 29.2 24.32 29.3066667 24.6933333 29.4853333 24.9866667 29.736 25.2 29.9866667 25.4133333 30.2933333 25.52 30.656 25.52ZM39.216 27.44C38.5013333 27.44 37.8773333 27.3386667 37.344 27.136 36.8106667 26.9333333 36.3973333 26.6506667 36.104 26.288 35.8106667 25.9253333 35.664 25.5146667 35.664 25.056L35.664 24.896C35.664 24.8426667 35.6826667 24.7973333 35.72 24.76 35.7573333 24.7226667 35.8026667 24.704 35.856 24.704L37.632 24.704C37.6853333 24.704 37.7306667 24.7226667 37.768 24.76 37.8053333 24.7973333 37.824 24.8426667 37.824 24.896L37.824 24.912C37.824 25.1466667 37.9546667 25.3466667 38.216 25.512 38.4773333 25.6773333 38.8053333 25.76 39.2 25.76 39.5626667 25.76 39.856 25.688 40.08 25.544 40.304 25.4 40.416 25.2213333 40.416 25.008 40.416 24.816 40.32 24.672 40.128 24.576 39.936 24.48 39.6213333 24.3786667 39.184 24.272 38.6826667 24.144 38.288 24.0213333 38 23.904 37.3173333 23.6693333 36.7733333 23.3813333 36.368 23.04 35.9626667 22.6986667 35.76 22.208 35.76 21.568 35.76 20.7786667 36.0666667 20.152 36.68 19.688 37.2933333 19.224 38.1066667 18.992 39.12 18.992 39.8026667 18.992 40.4 19.1013333 40.912 19.32 41.424 19.5386667 41.8213333 19.8453333 42.104 20.24 42.3866667 20.6346667 42.528 21.0826667 42.528 21.584 42.528 21.6373333 42.5093333 21.6826667 42.472 21.72 42.4346667 21.7573333 42.3893333 21.776 42.336 21.776L40.624 21.776C40.5706667 21.776 40.5253333 21.7573333 40.488 21.72 40.4506667 21.6826667 40.432 21.6373333 40.432 21.584 40.432 21.3493333 40.312 21.152 40.072 20.992 39.832 20.832 39.5146667 20.752 39.12 20.752 38.768 20.752 38.48 20.816 38.256 20.944 38.032 21.072 37.92 21.248 37.92 21.472 37.92 21.6853333 38.0293333 21.8453333 38.248 21.952 38.4666667 22.0586667 38.832 22.1706667 39.344 22.288 39.4613333 22.32 39.5946667 22.3546667 39.744 22.392 39.8933333 22.4293333 40.0533333 22.4746667 40.224 22.528 40.9813333 22.752 41.5786667 23.04 42.016 23.392 42.4533333 23.744 42.672 24.256 42.672 24.928 42.672 25.7173333 42.36 26.3333333 41.736 26.776 41.112 27.2186667 40.272 27.44 39.216 27.44ZM47.248 18.976C47.9413333 18.976 48.56 19.096 49.104 19.336 49.648 19.576 50.072 19.904 50.376 20.32 50.68 20.736 50.832 21.2 50.832 21.712L50.832 27.136C50.832 27.1893333 50.8133333 27.2346667 50.776 27.272 50.7386667 27.3093333 50.6933333 27.328 50.64 27.328L48.768 27.328C48.7146667 27.328 48.6693333 27.3093333 48.632 27.272 48.5946667 27.2346667 48.576 27.1893333 48.576 27.136L48.576 26.608C48.576 26.576 48.5653333 26.5546667 48.544 26.544 48.5226667 26.5333333 48.5013333 26.544 48.48 26.576 48.032 27.1626667 47.312 27.456 46.32 27.456 45.488 27.456 44.816 27.2533333 44.304 26.848 43.792 26.4426667 43.536 25.8453333 43.536 25.056 43.536 24.2346667 43.824 23.5973333 44.4 23.144 44.976 22.6906667 45.7973333 22.464 46.864 22.464L48.496 22.464C48.5493333 22.464 48.576 22.4373333 48.576 22.384L48.576 22.032C48.576 21.68 48.4693333 21.4053333 48.256 21.208 48.0426667 21.0106667 47.7226667 20.912 47.296 20.912 46.9653333 20.912 46.6906667 20.9706667 46.472 21.088 46.2533333 21.2053333 46.112 21.3706667 46.048 21.584 46.016 21.7013333 45.9466667 21.7546667 45.84 21.744L43.904 21.488C43.776 21.4666667 43.7173333 21.4186667 43.728 21.344 43.7706667 20.896 43.9493333 20.4906667 44.264 20.128 44.5786667 19.7653333 44.9946667 19.4826667 45.512 19.28 46.0293333 19.0773333 46.608 18.976 47.248 18.976ZM46.928 25.776C47.3866667 25.776 47.776 25.6533333 48.096 25.408 48.416 25.1626667 48.576 24.848 48.576 24.464L48.576 23.888C48.576 23.8346667 48.5493333 23.808 48.496 23.808L47.344 23.808C46.864 23.808 46.488 23.8986667 46.216 24.08 45.944 24.2613333 45.808 24.5173333 45.808 24.848 45.808 25.136 45.9093333 25.3626667 46.112 25.528 46.3146667 25.6933333 46.5866667 25.776 46.928 25.776Z" transform="translate(119.624 63.672)"/><path fill="#273271" fill-rule="nonzero" d="M4.24 11.456C3.38666667 11.456 2.64 11.32 2 11.048 1.36 10.776.866666667 10.3866667.52 9.88.173333333 9.37333333-1.13686838e-13 8.784-1.13686838e-13 8.112L-1.13686838e-13 7.76C-1.13686838e-13 7.70666667.0186666667 7.66133333.056 7.624.0933333333 7.58666667.138666667 7.568.192 7.568L2.016 7.568C2.06933333 7.568 2.11466667 7.58666667 2.152 7.624 2.18933333 7.66133333 2.208 7.70666667 2.208 7.76L2.208 8C2.208 8.42666667 2.40533333 8.78666667 2.8 9.08 3.19466667 9.37333333 3.728 9.52 4.4 9.52 4.96533333 9.52 5.38666667 9.4 5.664 9.16 5.94133333 8.92 6.08 8.624 6.08 8.272 6.08 8.016 5.99466667 7.8 5.824 7.624 5.65333333 7.448 5.42133333 7.29333333 5.128 7.16 4.83466667 7.02666667 4.368 6.84266667 3.728 6.608 3.01333333 6.36266667 2.408 6.112 1.912 5.856 1.416 5.6 1 5.25066667.664 4.808.328 4.36533333.16 3.81866667.16 3.168.16 2.528.325333333 1.968.656 1.488.986666667 1.008 1.44533333.64 2.032.384 2.61866667.128 3.296 0 4.064 0 4.87466667 0 5.59733333.144 6.232.432 6.86666667.72 7.36266667 1.12266667 7.72 1.64 8.07733333 2.15733333 8.256 2.75733333 8.256 3.44L8.256 3.68C8.256 3.73333333 8.23733333 3.77866667 8.2 3.816 8.16266667 3.85333333 8.11733333 3.872 8.064 3.872L6.224 3.872C6.17066667 3.872 6.12533333 3.85333333 6.088 3.816 6.05066667 3.77866667 6.032 3.73333333 6.032 3.68L6.032 3.552C6.032 3.104 5.848 2.72266667 5.48 2.408 5.112 2.09333333 4.608 1.936 3.968 1.936 3.46666667 1.936 3.07466667 2.04266667 2.792 2.256 2.50933333 2.46933333 2.368 2.76266667 2.368 3.136 2.368 3.40266667 2.45066667 3.62666667 2.616 3.808 2.78133333 3.98933333 3.02666667 4.152 3.352 4.296 3.67733333 4.44 4.18133333 4.63466667 4.864 4.88 5.62133333 5.15733333 6.216 5.40266667 6.648 5.616 7.08 5.82933333 7.46933333 6.14666667 7.816 6.568 8.16266667 6.98933333 8.336 7.536 8.336 8.208 8.336 9.21066667 7.968 10.0026667 7.232 10.584 6.496 11.1653333 5.49866667 11.456 4.24 11.456ZM10.112 11.328C10.0586667 11.328 10.0133333 11.3093333 9.976 11.272 9.93866667 11.2346667 9.92 11.1893333 9.92 11.136L9.92.32C9.92.266666667 9.93866667.221333333 9.976.184 10.0133333.146666667 10.0586667.128 10.112.128L11.984.128C12.0373333.128 12.0826667.146666667 12.12.184 12.1573333.221333333 12.176.266666667 12.176.32L12.176 11.136C12.176 11.1893333 12.1573333 11.2346667 12.12 11.272 12.0826667 11.3093333 12.0373333 11.328 11.984 11.328L10.112 11.328ZM20.56.32C20.56.266666667 20.5786667.221333333 20.616.184 20.6533333.146666667 20.6986667.128 20.752.128L22.624.128C22.6773333.128 22.7226667.146666667 22.76.184 22.7973333.221333333 22.816.266666667 22.816.32L22.816 11.136C22.816 11.1893333 22.7973333 11.2346667 22.76 11.272 22.7226667 11.3093333 22.6773333 11.328 22.624 11.328L20.816 11.328C20.7093333 11.328 20.6346667 11.2853333 20.592 11.2L16.448 4.352C16.4266667 4.32 16.4053333 4.30666667 16.384 4.312 16.3626667 4.31733333 16.352 4.34133333 16.352 4.384L16.384 11.136C16.384 11.1893333 16.3653333 11.2346667 16.328 11.272 16.2906667 11.3093333 16.2453333 11.328 16.192 11.328L14.32 11.328C14.2666667 11.328 14.2213333 11.3093333 14.184 11.272 14.1466667 11.2346667 14.128 11.1893333 14.128 11.136L14.128.32C14.128.266666667 14.1466667.221333333 14.184.184 14.2213333.146666667 14.2666667.128 14.32.128L16.128.128C16.2346667.128 16.3093333.170666667 16.352.256L20.48 7.072C20.5013333 7.104 20.5226667 7.11733333 20.544 7.112 20.5653333 7.10666667 20.576 7.08266667 20.576 7.04L20.56.32ZM31.104 2.976C31.7973333 2.976 32.416 3.096 32.96 3.336 33.504 3.576 33.928 3.904 34.232 4.32 34.536 4.736 34.688 5.2 34.688 5.712L34.688 11.136C34.688 11.1893333 34.6693333 11.2346667 34.632 11.272 34.5946667 11.3093333 34.5493333 11.328 34.496 11.328L32.624 11.328C32.5706667 11.328 32.5253333 11.3093333 32.488 11.272 32.4506667 11.2346667 32.432 11.1893333 32.432 11.136L32.432 10.608C32.432 10.576 32.4213333 10.5546667 32.4 10.544 32.3786667 10.5333333 32.3573333 10.544 32.336 10.576 31.888 11.1626667 31.168 11.456 30.176 11.456 29.344 11.456 28.672 11.2533333 28.16 10.848 27.648 10.4426667 27.392 9.84533333 27.392 9.056 27.392 8.23466667 27.68 7.59733333 28.256 7.144 28.832 6.69066667 29.6533333 6.464 30.72 6.464L32.352 6.464C32.4053333 6.464 32.432 6.43733333 32.432 6.384L32.432 6.032C32.432 5.68 32.3253333 5.40533333 32.112 5.208 31.8986667 5.01066667 31.5786667 4.912 31.152 4.912 30.8213333 4.912 30.5466667 4.97066667 30.328 5.088 30.1093333 5.20533333 29.968 5.37066667 29.904 5.584 29.872 5.70133333 29.8026667 5.75466667 29.696 5.744L27.76 5.488C27.632 5.46666667 27.5733333 5.41866667 27.584 5.344 27.6266667 4.896 27.8053333 4.49066667 28.12 4.128 28.4346667 3.76533333 28.8506667 3.48266667 29.368 3.28 29.8853333 3.07733333 30.464 2.976 31.104 2.976ZM30.784 9.776C31.2426667 9.776 31.632 9.65333333 31.952 9.408 32.272 9.16266667 32.432 8.848 32.432 8.464L32.432 7.888C32.432 7.83466667 32.4053333 7.808 32.352 7.808L31.2 7.808C30.72 7.808 30.344 7.89866667 30.072 8.08 29.8 8.26133333 29.664 8.51733333 29.664 8.848 29.664 9.136 29.7653333 9.36266667 29.968 9.528 30.1706667 9.69333333 30.4426667 9.776 30.784 9.776ZM36.016 11.328C35.9626667 11.328 35.9173333 11.3093333 35.88 11.272 35.8426667 11.2346667 35.824 11.1893333 35.824 11.136L35.824 9.424C35.824 9.33866667 35.856 9.25866667 35.92 9.184L39.52 5.232C39.5733333 5.168 39.5626667 5.136 39.488 5.136L36.112 5.136C36.0586667 5.136 36.0133333 5.11733333 35.976 5.08 35.9386667 5.04266667 35.92 4.99733333 35.92 4.944L35.92 3.296C35.92 3.24266667 35.9386667 3.19733333 35.976 3.16 36.0133333 3.12266667 36.0586667 3.104 36.112 3.104L42.096 3.104C42.1493333 3.104 42.1946667 3.12266667 42.232 3.16 42.2693333 3.19733333 42.288 3.24266667 42.288 3.296L42.288 4.992C42.288 5.06666667 42.256 5.14666667 42.192 5.232L38.48 9.184C38.4373333 9.248 38.448 9.28 38.512 9.28L42.176 9.28C42.2293333 9.28 42.2746667 9.29866667 42.312 9.336 42.3493333 9.37333333 42.368 9.41866667 42.368 9.472L42.368 11.136C42.368 11.1893333 42.3493333 11.2346667 42.312 11.272 42.2746667 11.3093333 42.2293333 11.328 42.176 11.328L36.016 11.328ZM48.432 3.296C48.432 3.24266667 48.4506667 3.19733333 48.488 3.16 48.5253333 3.12266667 48.5706667 3.104 48.624 3.104L50.496 3.104C50.5493333 3.104 50.5946667 3.12266667 50.632 3.16 50.6693333 3.19733333 50.688 3.24266667 50.688 3.296L50.688 11.136C50.688 11.1893333 50.6693333 11.2346667 50.632 11.272 50.5946667 11.3093333 50.5493333 11.328 50.496 11.328L48.624 11.328C48.5706667 11.328 48.5253333 11.3093333 48.488 11.272 48.4506667 11.2346667 48.432 11.1893333 48.432 11.136L48.432 10.592C48.432 10.56 48.4213333 10.5413333 48.4 10.536 48.3786667 10.5306667 48.3573333 10.544 48.336 10.576 47.9093333 11.152 47.248 11.44 46.352 11.44 45.5413333 11.44 44.8746667 11.1946667 44.352 10.704 43.8293333 10.2133333 43.568 9.52533333 43.568 8.64L43.568 3.296C43.568 3.24266667 43.5866667 3.19733333 43.624 3.16 43.6613333 3.12266667 43.7066667 3.104 43.76 3.104L45.616 3.104C45.6693333 3.104 45.7146667 3.12266667 45.752 3.16 45.7893333 3.19733333 45.808 3.24266667 45.808 3.296L45.808 8.08C45.808 8.50666667 45.9226667 8.85333333 46.152 9.12 46.3813333 9.38666667 46.6986667 9.52 47.104 9.52 47.4666667 9.52 47.7653333 9.41066667 48 9.192 48.2346667 8.97333333 48.3786667 8.688 48.432 8.336L48.432 3.296ZM46.272 2.112C46.1973333 2.112 46.1493333 2.09066667 46.128 2.048 46.1066667 2.00533333 46.112 1.952 46.144 1.888L46.992.272C47.0346667.176 47.1146667.128 47.232.128L48.848.128C48.9226667.128 48.9733333.152 49 .2 49.0266667.248 49.0186667.304 48.976.368L47.84 1.984C47.7866667 2.06933333 47.712 2.112 47.616 2.112L46.272 2.112ZM56 11.456C55.1466667 11.456 54.408 11.2426667 53.784 10.816 53.16 10.3893333 52.7146667 9.80266667 52.448 9.056 52.2666667 8.52266667 52.176 7.89333333 52.176 7.168 52.176 6.45333333 52.2666667 5.83466667 52.448 5.312 52.704 4.58666667 53.1466667 4.016 53.776 3.6 54.4053333 3.184 55.1466667 2.976 56 2.976 56.8533333 2.976 57.6026667 3.18933333 58.248 3.616 58.8933333 4.04266667 59.3226667 4.58133333 59.536 5.232 59.6213333 5.488 59.664 5.68 59.664 5.808L59.664 5.84C59.664 5.936 59.6106667 5.99466667 59.504 6.016L57.664 6.288 57.632 6.288C57.536 6.288 57.472 6.23466667 57.44 6.128L57.392 5.872C57.3173333 5.59466667 57.152 5.36533333 56.896 5.184 56.64 5.00266667 56.336 4.912 55.984 4.912 55.6426667 4.912 55.3546667 4.99733333 55.12 5.168 54.8853333 5.33866667 54.72 5.57333333 54.624 5.872 54.5066667 6.192 54.448 6.62933333 54.448 7.184 54.448 7.73866667 54.5013333 8.176 54.608 8.496 54.704 8.816 54.872 9.06666667 55.112 9.248 55.352 9.42933333 55.6426667 9.52 55.984 9.52 56.3146667 9.52 56.6053333 9.432 56.856 9.256 57.1066667 9.08 57.28 8.83733333 57.376 8.528 57.3866667 8.50666667 57.392 8.47466667 57.392 8.432 57.4026667 8.42133333 57.408 8.40533333 57.408 8.384 57.4186667 8.256 57.4933333 8.20266667 57.632 8.224L59.472 8.512C59.5786667 8.53333333 59.632 8.592 59.632 8.688 59.632 8.77333333 59.6 8.93333333 59.536 9.168 59.312 9.88266667 58.8773333 10.4426667 58.232 10.848 57.5866667 11.2533333 56.8426667 11.456 56 11.456ZM64.256 2.976C64.9493333 2.976 65.568 3.096 66.112 3.336 66.656 3.576 67.08 3.904 67.384 4.32 67.688 4.736 67.84 5.2 67.84 5.712L67.84 11.136C67.84 11.1893333 67.8213333 11.2346667 67.784 11.272 67.7466667 11.3093333 67.7013333 11.328 67.648 11.328L65.776 11.328C65.7226667 11.328 65.6773333 11.3093333 65.64 11.272 65.6026667 11.2346667 65.584 11.1893333 65.584 11.136L65.584 10.608C65.584 10.576 65.5733333 10.5546667 65.552 10.544 65.5306667 10.5333333 65.5093333 10.544 65.488 10.576 65.04 11.1626667 64.32 11.456 63.328 11.456 62.496 11.456 61.824 11.2533333 61.312 10.848 60.8 10.4426667 60.544 9.84533333 60.544 9.056 60.544 8.23466667 60.832 7.59733333 61.408 7.144 61.984 6.69066667 62.8053333 6.464 63.872 6.464L65.504 6.464C65.5573333 6.464 65.584 6.43733333 65.584 6.384L65.584 6.032C65.584 5.68 65.4773333 5.40533333 65.264 5.208 65.0506667 5.01066667 64.7306667 4.912 64.304 4.912 63.9733333 4.912 63.6986667 4.97066667 63.48 5.088 63.2613333 5.20533333 63.12 5.37066667 63.056 5.584 63.024 5.70133333 62.9546667 5.75466667 62.848 5.744L60.912 5.488C60.784 5.46666667 60.7253333 5.41866667 60.736 5.344 60.7786667 4.896 60.9573333 4.49066667 61.272 4.128 61.5866667 3.76533333 62.0026667 3.48266667 62.52 3.28 63.0373333 3.07733333 63.616 2.976 64.256 2.976ZM63.936 9.776C64.3946667 9.776 64.784 9.65333333 65.104 9.408 65.424 9.16266667 65.584 8.848 65.584 8.464L65.584 7.888C65.584 7.83466667 65.5573333 7.808 65.504 7.808L64.352 7.808C63.872 7.808 63.496 7.89866667 63.224 8.08 62.952 8.26133333 62.816 8.51733333 62.816 8.848 62.816 9.136 62.9173333 9.36266667 63.12 9.528 63.3226667 9.69333333 63.5946667 9.776 63.936 9.776ZM73.52 2.992C73.904 2.992 74.208 3.06666667 74.432 3.216 74.5173333 3.25866667 74.5493333 3.33866667 74.528 3.456L74.192 5.28C74.1813333 5.408 74.1066667 5.44533333 73.968 5.392 73.808 5.33866667 73.6213333 5.312 73.408 5.312 73.3226667 5.312 73.2053333 5.32266667 73.056 5.344 72.672 5.376 72.3466667 5.51733333 72.08 5.768 71.8133333 6.01866667 71.68 6.352 71.68 6.768L71.68 11.136C71.68 11.1893333 71.6613333 11.2346667 71.624 11.272 71.5866667 11.3093333 71.5413333 11.328 71.488 11.328L69.616 11.328C69.5626667 11.328 69.5173333 11.3093333 69.48 11.272 69.4426667 11.2346667 69.424 11.1893333 69.424 11.136L69.424 3.296C69.424 3.24266667 69.4426667 3.19733333 69.48 3.16 69.5173333 3.12266667 69.5626667 3.104 69.616 3.104L71.488 3.104C71.5413333 3.104 71.5866667 3.12266667 71.624 3.16 71.6613333 3.19733333 71.68 3.24266667 71.68 3.296L71.68 3.904C71.68 3.936 71.6906667 3.95733333 71.712 3.968 71.7333333 3.97866667 71.7493333 3.97333333 71.76 3.952 72.1973333 3.312 72.784 2.992 73.52 2.992ZM82.832 6.368C82.896 6.77333333 82.9173333 7.22666667 82.896 7.728 82.8853333 7.856 82.816 7.92 82.688 7.92L77.744 7.92C77.68 7.92 77.6586667 7.94666667 77.68 8 77.712 8.21333333 77.7706667 8.42666667 77.856 8.64 78.1333333 9.23733333 78.6986667 9.536 79.552 9.536 80.2346667 9.52533333 80.7733333 9.248 81.168 8.704 81.2106667 8.64 81.2586667 8.608 81.312 8.608 81.344 8.608 81.3813333 8.62933333 81.424 8.672L82.576 9.808C82.6293333 9.86133333 82.656 9.90933333 82.656 9.952 82.656 9.97333333 82.6346667 10.016 82.592 10.08 82.24 10.5173333 81.7866667 10.856 81.232 11.096 80.6773333 11.336 80.0693333 11.456 79.408 11.456 78.4906667 11.456 77.7146667 11.248 77.08 10.832 76.4453333 10.416 75.9893333 9.83466667 75.712 9.088 75.488 8.55466667 75.376 7.856 75.376 6.992 75.376 6.40533333 75.456 5.888 75.616 5.44 75.8613333 4.68266667 76.2906667 4.08 76.904 3.632 77.5173333 3.184 78.2453333 2.96 79.088 2.96 80.1546667 2.96 81.0106667 3.26933333 81.656 3.888 82.3013333 4.50666667 82.6933333 5.33333333 82.832 6.368ZM79.104 4.912C78.432 4.912 77.9893333 5.22666667 77.776 5.856 77.7333333 5.99466667 77.696 6.16533333 77.664 6.368 77.664 6.42133333 77.6906667 6.448 77.744 6.448L80.512 6.448C80.576 6.448 80.5973333 6.42133333 80.576 6.368 80.5226667 6.05866667 80.496 5.90933333 80.496 5.92 80.4 5.6 80.232 5.352 79.992 5.176 79.752 5 79.456 4.912 79.104 4.912ZM87.568 11.44C86.8533333 11.44 86.2293333 11.3386667 85.696 11.136 85.1626667 10.9333333 84.7493333 10.6506667 84.456 10.288 84.1626667 9.92533333 84.016 9.51466667 84.016 9.056L84.016 8.896C84.016 8.84266667 84.0346667 8.79733333 84.072 8.76 84.1093333 8.72266667 84.1546667 8.704 84.208 8.704L85.984 8.704C86.0373333 8.704 86.0826667 8.72266667 86.12 8.76 86.1573333 8.79733333 86.176 8.84266667 86.176 8.896L86.176 8.912C86.176 9.14666667 86.3066667 9.34666667 86.568 9.512 86.8293333 9.67733333 87.1573333 9.76 87.552 9.76 87.9146667 9.76 88.208 9.688 88.432 9.544 88.656 9.4 88.768 9.22133333 88.768 9.008 88.768 8.816 88.672 8.672 88.48 8.576 88.288 8.48 87.9733333 8.37866667 87.536 8.272 87.0346667 8.144 86.64 8.02133333 86.352 7.904 85.6693333 7.66933333 85.1253333 7.38133333 84.72 7.04 84.3146667 6.69866667 84.112 6.208 84.112 5.568 84.112 4.77866667 84.4186667 4.152 85.032 3.688 85.6453333 3.224 86.4586667 2.992 87.472 2.992 88.1546667 2.992 88.752 3.10133333 89.264 3.32 89.776 3.53866667 90.1733333 3.84533333 90.456 4.24 90.7386667 4.63466667 90.88 5.08266667 90.88 5.584 90.88 5.63733333 90.8613333 5.68266667 90.824 5.72 90.7866667 5.75733333 90.7413333 5.776 90.688 5.776L88.976 5.776C88.9226667 5.776 88.8773333 5.75733333 88.84 5.72 88.8026667 5.68266667 88.784 5.63733333 88.784 5.584 88.784 5.34933333 88.664 5.152 88.424 4.992 88.184 4.832 87.8666667 4.752 87.472 4.752 87.12 4.752 86.832 4.816 86.608 4.944 86.384 5.072 86.272 5.248 86.272 5.472 86.272 5.68533333 86.3813333 5.84533333 86.6 5.952 86.8186667 6.05866667 87.184 6.17066667 87.696 6.288 87.8133333 6.32 87.9466667 6.35466667 88.096 6.392 88.2453333 6.42933333 88.4053333 6.47466667 88.576 6.528 89.3333333 6.752 89.9306667 7.04 90.368 7.392 90.8053333 7.744 91.024 8.256 91.024 8.928 91.024 9.71733333 90.712 10.3333333 90.088 10.776 89.464 11.2186667 88.624 11.44 87.568 11.44ZM17.176 18.976C17.8693333 18.976 18.488 19.096 19.032 19.336 19.576 19.576 20 19.904 20.304 20.32 20.608 20.736 20.76 21.2 20.76 21.712L20.76 27.136C20.76 27.1893333 20.7413333 27.2346667 20.704 27.272 20.6666667 27.3093333 20.6213333 27.328 20.568 27.328L18.696 27.328C18.6426667 27.328 18.5973333 27.3093333 18.56 27.272 18.5226667 27.2346667 18.504 27.1893333 18.504 27.136L18.504 26.608C18.504 26.576 18.4933333 26.5546667 18.472 26.544 18.4506667 26.5333333 18.4293333 26.544 18.408 26.576 17.96 27.1626667 17.24 27.456 16.248 27.456 15.416 27.456 14.744 27.2533333 14.232 26.848 13.72 26.4426667 13.464 25.8453333 13.464 25.056 13.464 24.2346667 13.752 23.5973333 14.328 23.144 14.904 22.6906667 15.7253333 22.464 16.792 22.464L18.424 22.464C18.4773333 22.464 18.504 22.4373333 18.504 22.384L18.504 22.032C18.504 21.68 18.3973333 21.4053333 18.184 21.208 17.9706667 21.0106667 17.6506667 20.912 17.224 20.912 16.8933333 20.912 16.6186667 20.9706667 16.4 21.088 16.1813333 21.2053333 16.04 21.3706667 15.976 21.584 15.944 21.7013333 15.8746667 21.7546667 15.768 21.744L13.832 21.488C13.704 21.4666667 13.6453333 21.4186667 13.656 21.344 13.6986667 20.896 13.8773333 20.4906667 14.192 20.128 14.5066667 19.7653333 14.9226667 19.4826667 15.44 19.28 15.9573333 19.0773333 16.536 18.976 17.176 18.976ZM16.856 25.776C17.3146667 25.776 17.704 25.6533333 18.024 25.408 18.344 25.1626667 18.504 24.848 18.504 24.464L18.504 23.888C18.504 23.8346667 18.4773333 23.808 18.424 23.808L17.272 23.808C16.792 23.808 16.416 23.8986667 16.144 24.08 15.872 24.2613333 15.736 24.5173333 15.736 24.848 15.736 25.136 15.8373333 25.3626667 16.04 25.528 16.2426667 25.6933333 16.5146667 25.776 16.856 25.776ZM26.632 18.976C27.4853333 18.976 28.1733333 19.2373333 28.696 19.76 29.2186667 20.2826667 29.48 20.992 29.48 21.888L29.48 27.136C29.48 27.1893333 29.4613333 27.2346667 29.424 27.272 29.3866667 27.3093333 29.3413333 27.328 29.288 27.328L27.416 27.328C27.3626667 27.328 27.3173333 27.3093333 27.28 27.272 27.2426667 27.2346667 27.224 27.1893333 27.224 27.136L27.224 22.352C27.224 21.9253333 27.104 21.5786667 26.864 21.312 26.624 21.0453333 26.3066667 20.912 25.912 20.912 25.5173333 20.912 25.2 21.0453333 24.96 21.312 24.72 21.5786667 24.6 21.9253333 24.6 22.352L24.6 27.136C24.6 27.1893333 24.5813333 27.2346667 24.544 27.272 24.5066667 27.3093333 24.4613333 27.328 24.408 27.328L22.536 27.328C22.4826667 27.328 22.4373333 27.3093333 22.4 27.272 22.3626667 27.2346667 22.344 27.1893333 22.344 27.136L22.344 19.296C22.344 19.2426667 22.3626667 19.1973333 22.4 19.16 22.4373333 19.1226667 22.4826667 19.104 22.536 19.104L24.408 19.104C24.4613333 19.104 24.5066667 19.1226667 24.544 19.16 24.5813333 19.1973333 24.6 19.2426667 24.6 19.296L24.6 19.856C24.6 19.888 24.6106667 19.9093333 24.632 19.92 24.6533333 19.9306667 24.6693333 19.9253333 24.68 19.904 25.1173333 19.2853333 25.768 18.976 26.632 18.976ZM27 18.16C26.776 18.16 26.5893333 18.136 26.44 18.088 26.2906667 18.04 26.12 17.968 25.928 17.872 25.704 17.7653333 25.5413333 17.6933333 25.44 17.656 25.3386667 17.6186667 25.2293333 17.6 25.112 17.6 24.7813333 17.6 24.4986667 17.7173333 24.264 17.952 24.2106667 18.0053333 24.1626667 18.032 24.12 18.032 24.0666667 18.032 24.024 18.0106667 23.992 17.968L23.336 17.264C23.2613333 17.168 23.2506667 17.0773333 23.304 16.992 23.4746667 16.6933333 23.7093333 16.4533333 24.008 16.272 24.3066667 16.0906667 24.6373333 16 25 16 25.2026667 16 25.3813333 16.0266667 25.536 16.08 25.6906667 16.1333333 25.8293333 16.1893333 25.952 16.248 26.0746667 16.3066667 26.1573333 16.3466667 26.2 16.368 26.4026667 16.4746667 26.5573333 16.5493333 26.664 16.592 26.7706667 16.6346667 26.8826667 16.656 27 16.656 27.3306667 16.656 27.5866667 16.528 27.768 16.272 27.8106667 16.2186667 27.8586667 16.192 27.912 16.192 27.9653333 16.192 28.008 16.2133333 28.04 16.256L28.632 16.976C28.696 17.0506667 28.712 17.1253333 28.68 17.2 28.5413333 17.488 28.3253333 17.72 28.032 17.896 27.7386667 18.072 27.3946667 18.16 27 18.16ZM34.376 18.976C35.0693333 18.976 35.688 19.096 36.232 19.336 36.776 19.576 37.2 19.904 37.504 20.32 37.808 20.736 37.96 21.2 37.96 21.712L37.96 27.136C37.96 27.1893333 37.9413333 27.2346667 37.904 27.272 37.8666667 27.3093333 37.8213333 27.328 37.768 27.328L35.896 27.328C35.8426667 27.328 35.7973333 27.3093333 35.76 27.272 35.7226667 27.2346667 35.704 27.1893333 35.704 27.136L35.704 26.608C35.704 26.576 35.6933333 26.5546667 35.672 26.544 35.6506667 26.5333333 35.6293333 26.544 35.608 26.576 35.16 27.1626667 34.44 27.456 33.448 27.456 32.616 27.456 31.944 27.2533333 31.432 26.848 30.92 26.4426667 30.664 25.8453333 30.664 25.056 30.664 24.2346667 30.952 23.5973333 31.528 23.144 32.104 22.6906667 32.9253333 22.464 33.992 22.464L35.624 22.464C35.6773333 22.464 35.704 22.4373333 35.704 22.384L35.704 22.032C35.704 21.68 35.5973333 21.4053333 35.384 21.208 35.1706667 21.0106667 34.8506667 20.912 34.424 20.912 34.0933333 20.912 33.8186667 20.9706667 33.6 21.088 33.3813333 21.2053333 33.24 21.3706667 33.176 21.584 33.144 21.7013333 33.0746667 21.7546667 32.968 21.744L31.032 21.488C30.904 21.4666667 30.8453333 21.4186667 30.856 21.344 30.8986667 20.896 31.0773333 20.4906667 31.392 20.128 31.7066667 19.7653333 32.1226667 19.4826667 32.64 19.28 33.1573333 19.0773333 33.736 18.976 34.376 18.976ZM34.056 25.776C34.5146667 25.776 34.904 25.6533333 35.224 25.408 35.544 25.1626667 35.704 24.848 35.704 24.464L35.704 23.888C35.704 23.8346667 35.6773333 23.808 35.624 23.808L34.472 23.808C33.992 23.808 33.616 23.8986667 33.344 24.08 33.072 24.2613333 32.936 24.5173333 32.936 24.848 32.936 25.136 33.0373333 25.3626667 33.24 25.528 33.4426667 25.6933333 33.7146667 25.776 34.056 25.776ZM44.648 16.32C44.648 16.2666667 44.6666667 16.2213333 44.704 16.184 44.7413333 16.1466667 44.7866667 16.128 44.84 16.128L46.712 16.128C46.7653333 16.128 46.8106667 16.1466667 46.848 16.184 46.8853333 16.2213333 46.904 16.2666667 46.904 16.32L46.904 27.136C46.904 27.1893333 46.8853333 27.2346667 46.848 27.272 46.8106667 27.3093333 46.7653333 27.328 46.712 27.328L44.84 27.328C44.7866667 27.328 44.7413333 27.3093333 44.704 27.272 44.6666667 27.2346667 44.648 27.1893333 44.648 27.136L44.648 26.608C44.648 26.576 44.6373333 26.5573333 44.616 26.552 44.5946667 26.5466667 44.5733333 26.5546667 44.552 26.576 44.104 27.1626667 43.4906667 27.456 42.712 27.456 41.9653333 27.456 41.3226667 27.248 40.784 26.832 40.2453333 26.416 39.8586667 25.8453333 39.624 25.12 39.4426667 24.5653333 39.352 23.92 39.352 23.184 39.352 22.4266667 39.448 21.7653333 39.64 21.2 39.8853333 20.5173333 40.272 19.976 40.8 19.576 41.328 19.176 41.9813333 18.976 42.76 18.976 43.528 18.976 44.1253333 19.2426667 44.552 19.776 44.5733333 19.808 44.5946667 19.8186667 44.616 19.808 44.6373333 19.7973333 44.648 19.776 44.648 19.744L44.648 16.32ZM44.312 24.832C44.5253333 24.4373333 44.632 23.8986667 44.632 23.216 44.632 22.5013333 44.5146667 21.9413333 44.28 21.536 44.0346667 21.12 43.6773333 20.912 43.208 20.912 42.7066667 20.912 42.328 21.12 42.072 21.536 41.8053333 21.952 41.672 22.5173333 41.672 23.232 41.672 23.872 41.784 24.4053333 42.008 24.832 42.2746667 25.2906667 42.6693333 25.52 43.192 25.52 43.672 25.52 44.0453333 25.2906667 44.312 24.832ZM49.816 18.176C49.4533333 18.176 49.152 18.056 48.912 17.816 48.672 17.576 48.552 17.2746667 48.552 16.912 48.552 16.5386667 48.6693333 16.2346667 48.904 16 49.1386667 15.7653333 49.4426667 15.648 49.816 15.648 50.1893333 15.648 50.4933333 15.7653333 50.728 16 50.9626667 16.2346667 51.08 16.5386667 51.08 16.912 51.08 17.2746667 50.96 17.576 50.72 17.816 50.48 18.056 50.1786667 18.176 49.816 18.176ZM48.856 27.328C48.8026667 27.328 48.7573333 27.3093333 48.72 27.272 48.6826667 27.2346667 48.664 27.1893333 48.664 27.136L48.664 19.28C48.664 19.2266667 48.6826667 19.1813333 48.72 19.144 48.7573333 19.1066667 48.8026667 19.088 48.856 19.088L50.728 19.088C50.7813333 19.088 50.8266667 19.1066667 50.864 19.144 50.9013333 19.1813333 50.92 19.2266667 50.92 19.28L50.92 27.136C50.92 27.1893333 50.9013333 27.2346667 50.864 27.272 50.8266667 27.3093333 50.7813333 27.328 50.728 27.328L48.856 27.328ZM57.784 16.32C57.784 16.2666667 57.8026667 16.2213333 57.84 16.184 57.8773333 16.1466667 57.9226667 16.128 57.976 16.128L59.848 16.128C59.9013333 16.128 59.9466667 16.1466667 59.984 16.184 60.0213333 16.2213333 60.04 16.2666667 60.04 16.32L60.04 27.136C60.04 27.1893333 60.0213333 27.2346667 59.984 27.272 59.9466667 27.3093333 59.9013333 27.328 59.848 27.328L57.976 27.328C57.9226667 27.328 57.8773333 27.3093333 57.84 27.272 57.8026667 27.2346667 57.784 27.1893333 57.784 27.136L57.784 26.608C57.784 26.576 57.7733333 26.5573333 57.752 26.552 57.7306667 26.5466667 57.7093333 26.5546667 57.688 26.576 57.24 27.1626667 56.6266667 27.456 55.848 27.456 55.1013333 27.456 54.4586667 27.248 53.92 26.832 53.3813333 26.416 52.9946667 25.8453333 52.76 25.12 52.5786667 24.5653333 52.488 23.92 52.488 23.184 52.488 22.4266667 52.584 21.7653333 52.776 21.2 53.0213333 20.5173333 53.408 19.976 53.936 19.576 54.464 19.176 55.1173333 18.976 55.896 18.976 56.664 18.976 57.2613333 19.2426667 57.688 19.776 57.7093333 19.808 57.7306667 19.8186667 57.752 19.808 57.7733333 19.7973333 57.784 19.776 57.784 19.744L57.784 16.32ZM57.448 24.832C57.6613333 24.4373333 57.768 23.8986667 57.768 23.216 57.768 22.5013333 57.6506667 21.9413333 57.416 21.536 57.1706667 21.12 56.8133333 20.912 56.344 20.912 55.8426667 20.912 55.464 21.12 55.208 21.536 54.9413333 21.952 54.808 22.5173333 54.808 23.232 54.808 23.872 54.92 24.4053333 55.144 24.832 55.4106667 25.2906667 55.8053333 25.52 56.328 25.52 56.808 25.52 57.1813333 25.2906667 57.448 24.832ZM65.368 27.456C64.472 27.456 63.704 27.2213333 63.064 26.752 62.424 26.2826667 61.9866667 25.6426667 61.752 24.832 61.6026667 24.3306667 61.528 23.7866667 61.528 23.2 61.528 22.5706667 61.6026667 22.0053333 61.752 21.504 61.9973333 20.7146667 62.44 20.096 63.08 19.648 63.72 19.2 64.488 18.976 65.384 18.976 66.2586667 18.976 67.0053333 19.1973333 67.624 19.64 68.2426667 20.0826667 68.68 20.6986667 68.936 21.488 69.1066667 22.0213333 69.192 22.5813333 69.192 23.168 69.192 23.744 69.1173333 24.2826667 68.968 24.784 68.7333333 25.616 68.2986667 26.2693333 67.664 26.744 67.0293333 27.2186667 66.264 27.456 65.368 27.456ZM65.368 25.52C65.72 25.52 66.0186667 25.4133333 66.264 25.2 66.5093333 24.9866667 66.6853333 24.6933333 66.792 24.32 66.8773333 23.9786667 66.92 23.6053333 66.92 23.2 66.92 22.752 66.8773333 22.3733333 66.792 22.064 66.6746667 21.7013333 66.4933333 21.4186667 66.248 21.216 66.0026667 21.0133333 65.704 20.912 65.352 20.912 64.9893333 20.912 64.688 21.0133333 64.448 21.216 64.208 21.4186667 64.0346667 21.7013333 63.928 22.064 63.8426667 22.32 63.8 22.6986667 63.8 23.2 63.8 23.68 63.8373333 24.0533333 63.912 24.32 64.0186667 24.6933333 64.1973333 24.9866667 64.448 25.2 64.6986667 25.4133333 65.0053333 25.52 65.368 25.52ZM73.928 27.44C73.2133333 27.44 72.5893333 27.3386667 72.056 27.136 71.5226667 26.9333333 71.1093333 26.6506667 70.816 26.288 70.5226667 25.9253333 70.376 25.5146667 70.376 25.056L70.376 24.896C70.376 24.8426667 70.3946667 24.7973333 70.432 24.76 70.4693333 24.7226667 70.5146667 24.704 70.568 24.704L72.344 24.704C72.3973333 24.704 72.4426667 24.7226667 72.48 24.76 72.5173333 24.7973333 72.536 24.8426667 72.536 24.896L72.536 24.912C72.536 25.1466667 72.6666667 25.3466667 72.928 25.512 73.1893333 25.6773333 73.5173333 25.76 73.912 25.76 74.2746667 25.76 74.568 25.688 74.792 25.544 75.016 25.4 75.128 25.2213333 75.128 25.008 75.128 24.816 75.032 24.672 74.84 24.576 74.648 24.48 74.3333333 24.3786667 73.896 24.272 73.3946667 24.144 73 24.0213333 72.712 23.904 72.0293333 23.6693333 71.4853333 23.3813333 71.08 23.04 70.6746667 22.6986667 70.472 22.208 70.472 21.568 70.472 20.7786667 70.7786667 20.152 71.392 19.688 72.0053333 19.224 72.8186667 18.992 73.832 18.992 74.5146667 18.992 75.112 19.1013333 75.624 19.32 76.136 19.5386667 76.5333333 19.8453333 76.816 20.24 77.0986667 20.6346667 77.24 21.0826667 77.24 21.584 77.24 21.6373333 77.2213333 21.6826667 77.184 21.72 77.1466667 21.7573333 77.1013333 21.776 77.048 21.776L75.336 21.776C75.2826667 21.776 75.2373333 21.7573333 75.2 21.72 75.1626667 21.6826667 75.144 21.6373333 75.144 21.584 75.144 21.3493333 75.024 21.152 74.784 20.992 74.544 20.832 74.2266667 20.752 73.832 20.752 73.48 20.752 73.192 20.816 72.968 20.944 72.744 21.072 72.632 21.248 72.632 21.472 72.632 21.6853333 72.7413333 21.8453333 72.96 21.952 73.1786667 22.0586667 73.544 22.1706667 74.056 22.288 74.1733333 22.32 74.3066667 22.3546667 74.456 22.392 74.6053333 22.4293333 74.7653333 22.4746667 74.936 22.528 75.6933333 22.752 76.2906667 23.04 76.728 23.392 77.1653333 23.744 77.384 24.256 77.384 24.928 77.384 25.7173333 77.072 26.3333333 76.448 26.776 75.824 27.2186667 74.984 27.44 73.928 27.44Z" transform="translate(217.044 63.672)"/><g transform="translate(237)"><mask id="f" fill="#fff"><use xlink:href="#e"/></mask><path fill="#273271" d="M45.7541419,35.4758537 C39.9696947,46.9193887 25.9562892,51.5218746 14.5067848,45.7374273 C9.20885194,43.0601058 5.2361485,38.5501472 3.20054839,33.0074647 L47.3032276,18.5194839 C48.8851456,23.9785933 48.5150365,30.0167443 45.7541419,35.4758537 M4.2452112,14.4900702 C7.04789229,8.94738776 11.8414022,4.82843153 17.7422548,2.89132819 C20.1300555,2.10633871 22.580536,1.71832109 25.0220622,1.71832109 C28.618687,1.71832109 32.1884491,2.56002084 35.4925683,4.23148135 C40.9218302,6.97446742 44.7870826,11.5799381 46.7570182,16.8778709 L2.66329323,31.3598822 C1.04854299,25.7157183 1.57982865,19.764125 4.2452112,14.4900702 M48.7388928,17.1853002 C46.6555367,10.8456893 42.2291511,5.69400929 36.2715883,2.68239563 C23.9773994,-3.52887099 8.91634635,1.4138765 2.69911024,13.7110502 C-0.312503419,19.668613 -0.822895822,26.4410128 1.2604603,32.7806237 C3.34381643,39.1232193 7.77020201,44.2719146 13.7277648,47.2835283 C17.3303591,49.1072111 21.1717335,49.9668193 24.9593824,49.9668193 C34.0927202,49.9668193 42.9066896,44.9494531 47.3002429,36.2548737 C50.3118565,30.3002957 50.8222489,23.5278959 48.7388928,17.1853002" mask="url(#f)"/><path fill="#273271" d="M25.9640496,27.2740567 L32.3782793,30.2020974 L32.3782793,37.7266544 L25.9640496,34.7986138 L25.9640496,27.2740567 Z M9.28227681,27.2740567 L15.7323235,30.2408991 L15.7323235,37.7654561 L9.28227681,34.8374155 L9.28227681,27.2740567 Z M24.999975,9.59239243 L31.0440956,12.3711955 L24.999975,15.1141816 L18.9588392,12.3353785 L24.999975,9.59239243 Z M16.660581,23.0476495 L22.7017168,25.8294373 L16.660581,28.6082404 L10.6164605,25.8294373 L16.660581,23.0476495 Z M24.0359005,16.7826573 L24.0359005,24.3072144 L17.6246556,21.3791737 L17.6246556,13.8546167 L24.0359005,16.7826573 Z M33.3423538,28.5724234 L27.2982332,25.7906356 L33.3423538,23.0118325 L39.3834896,25.7906356 L33.3423538,28.5724234 Z M42.0518569,24.9399815 L34.2676266,21.3791737 L34.2676266,12.3711955 C34.2676266,12.0010864 34.046755,11.6667943 33.7124629,11.5205415 L25.4088859,7.66424335 C25.1492126,7.55380757 24.8507375,7.55380757 24.6298659,7.66424335 L16.2874872,11.4817398 C15.9561798,11.6309773 15.7323235,11.9652694 15.7323235,12.3353785 L15.7323235,21.3433567 L7.94809316,24.9399815 C7.61380106,25.0862343 7.3929295,25.4205264 7.3929295,25.7906356 L7.3929295,35.4283962 C7.3929295,35.8014901 7.61380106,36.1327974 7.94809316,36.282035 L16.2874872,40.0995313 C16.4009077,40.1741501 16.5471605,40.1741501 16.696398,40.1741501 C16.8456356,40.1741501 16.9560714,40.1383331 17.1053089,40.0995313 L24.999975,36.5058913 L32.9334429,40.1383331 C33.0438787,40.2129519 33.1931162,40.2129519 33.3423538,40.2129519 C33.4886066,40.2129519 33.6020271,40.1741501 33.7482799,40.1383331 L42.0518569,36.317852 C42.386149,36.1715992 42.6100053,35.8373071 42.6100053,35.467198 L42.6100053,25.8294373 C42.6100053,25.4205264 42.386149,25.0862343 42.0518569,24.9399815 L42.0518569,24.9399815 Z"/></g></g></svg>