<svg xmlns="http://www.w3.org/2000/svg" xmlns:xlink="http://www.w3.org/1999/xlink" width="375" height="95" viewBox="0 0 375 95"><defs><polygon id="a" points="0 0 49.993 0 49.993 49.96 0 49.96"/><polygon id="g" points="0 0 50 0 50 49.968 0 49.968"/><polygon id="i" points="0 0 49.994 0 49.994 50 0 50"/><path id="c" d="M21.0700768,0.312714992 C14.4767211,1.35718306 8.68682322,4.90649822 4.7633233,10.3070861 L4.7633233,10.3070861 C-3.33378013,21.4585027 -0.857754677,37.1192695 10.2906124,45.2217149 L10.2906124,45.2217149 C14.5673837,48.3301019 19.6038445,49.9718557 24.7872412,50 L24.7872412,50 L25.0623552,50 C26.3316308,49.9937457 27.6102854,49.8905498 28.8858137,49.687285 L28.8858137,49.687285 C35.4791693,48.6428169 41.2690672,45.0903746 45.1956934,39.6897867 L45.1956934,39.6897867 C47.5685511,36.4219151 49.0316571,32.769404 49.6381583,29.0293327 L49.6381583,29.0293327 C51.0950116,20.0106323 47.5466671,10.5040966 39.665278,4.77828507 L39.665278,4.77828507 C35.3478649,1.64175371 30.2613833,0 25.0279659,0 L25.0279659,0 C23.7149221,0 22.3924994,0.103195947 21.0700768,0.312714992 L21.0700768,0.312714992 Z"/><path id="e" d="M21.0700768,0.312714992 C14.4767211,1.35718306 8.68682322,4.90649822 4.7633233,10.3070861 L4.7633233,10.3070861 C-3.33378013,21.4585027 -0.857754677,37.1192695 10.2906124,45.2217149 L10.2906124,45.2217149 C14.5673837,48.3301019 19.6038445,49.9718557 24.7872412,50 L24.7872412,50 L25.0623552,50 C26.3316308,49.9937457 27.6102854,49.8905498 28.8858137,49.687285 L28.8858137,49.687285 C35.4791693,48.6428169 41.2690672,45.0903746 45.1956934,39.6897867 L45.1956934,39.6897867 C47.5685511,36.4219151 49.0316571,32.769404 49.6381583,29.0293327 L49.6381583,29.0293327 C51.0950116,20.0106323 47.5466671,10.5040966 39.665278,4.77828507 L39.665278,4.77828507 C35.3478649,1.64175371 30.2613833,0 25.0279659,0 L25.0279659,0 C23.7149221,0 22.3924994,0.103195947 21.0700768,0.312714992"/></defs><g fill="none" fill-rule="evenodd" transform="translate(0 .5)"><mask id="b" fill="#fff"><use xlink:href="#a"/></mask><path fill="#273271" d="M23.3790439,21.0240468 C23.3790439,21.0240468 23.8573036,17.8137676 21.6254249,15.8038264 C19.3904204,13.7938853 15.295517,13.7438712 15.295517,13.7438712 C15.295517,13.7438712 14.8172573,16.9541504 17.0491359,18.9640916 C19.2810146,20.9740327 23.3790439,21.0240468 23.3790439,21.0240468 M25.0295087,16.1476733 C25.0295087,16.1476733 28.3054315,13.7938853 28.2898578,10.9055718 C28.2741727,8.01413233 24.9732429,5.6822255 24.9732429,5.6822255 C24.9732429,5.6822255 21.6973202,8.03601349 21.7128938,10.9274529 C21.728579,13.8157665 25.0295087,16.1476733 25.0295087,16.1476733 M4.24552956,14.4878308 C7.04631845,8.9456447 11.8382932,4.82573426 17.7399555,2.88768837 C20.1250023,2.10621825 22.5788185,1.7154832 25.0201311,1.7154832 C28.6148936,1.7154832 32.1846491,2.55947092 35.4887048,4.22869109 C40.9152333,6.97321413 44.7819474,11.5776361 46.7512521,16.8728776 L21.9786494,25.0126703 C21.7066978,24.6344387 21.3909839,24.2687107 21.0127524,23.9311156 C18.0212848,21.2366067 12.5291128,21.1709632 12.5291128,21.1709632 C12.5291128,21.1709632 12.0164684,24.8438727 14.3108646,27.529004 L2.66383404,31.3550817 C1.04462796,25.7097416 1.57915352,19.7580652 4.24552956,14.4878308 M45.7478444,35.4718663 C39.9649656,46.9125888 25.9516435,51.5170107 14.5046692,45.731006 C9.20942773,43.0552523 5.23330778,38.5446068 3.1983596,33.0024207 L15.8237908,28.8543774 C18.8965313,30.8549409 23.3665403,30.9268361 23.3665403,30.9268361 C23.3665403,30.9268361 23.6603731,28.7762304 22.7945042,26.5662329 L28.2147809,24.784481 C26.1329445,27.4477312 26.6268337,30.9268361 26.6268337,30.9268361 C26.6268337,30.9268361 32.1190056,30.8611926 35.1135991,28.1666837 C37.4642612,26.0473367 37.5705412,22.9652186 37.5111494,21.7304958 L47.2951553,18.5170907 C48.8799767,23.974878 48.5079969,30.0109531 45.7478444,35.4718663 M1.26031372,32.7773573 C3.3421501,39.1166429 7.76839684,44.2680939 13.726325,47.2783168 C17.3273393,49.1007051 21.1690464,49.9603222 24.9544876,49.9603222 C34.0883103,49.9603222 42.9001673,44.9432841 47.2951553,36.2502105 C50.3053782,30.2954083 50.8148967,23.5247512 48.7330603,17.1823397 C46.6512239,10.8430541 42.2218513,5.69160314 36.267049,2.68138026 C23.9729611,-3.52974422 8.91559497,1.41539867 2.69821873,13.7094865 C-0.312004156,19.6642888 -0.821522672,26.4349459 1.26031372,32.7773573 M11.5350828,31.3800888 C11.5350828,31.3800888 10.8348856,36.0876648 14.1076824,39.03537 C17.3836051,41.9830753 23.3884215,42.0549706 23.3884215,42.0549706 C23.3884215,42.0549706 24.0886187,37.3473946 20.8158219,34.3996893 C17.543025,31.451984 11.5350828,31.3800888 11.5350828,31.3800888 M26.6049525,42.0549706 C26.6049525,42.0549706 32.6097689,41.9830753 35.8825657,39.03537 C39.1584884,36.0876648 38.4582912,31.3800888 38.4582912,31.3800888 C38.4582912,31.3800888 32.450349,31.451984 29.1775521,34.3996893 C25.9047553,37.3473946 26.6049525,42.0549706 26.6049525,42.0549706 M26.6143301,21.0240468 C26.6143301,21.0240468 30.7123594,20.9740327 32.9442381,18.9640916 C35.1761167,16.9541504 34.697857,13.7438712 34.697857,13.7438712 C34.697857,13.7438712 30.6029536,13.7938853 28.3679491,15.8038264 C26.1360704,17.8137676 26.6143301,21.0240468 26.6143301,21.0240468" mask="url(#b)"/><path fill="#273271" fill-rule="nonzero" d="M14.584 11.456C13.7306667 11.456 12.984 11.32 12.344 11.048 11.704 10.776 11.2106667 10.3866667 10.864 9.88 10.5173333 9.37333333 10.344 8.784 10.344 8.112L10.344 7.76C10.344 7.70666667 10.3626667 7.66133333 10.4 7.624 10.4373333 7.58666667 10.4826667 7.568 10.536 7.568L12.36 7.568C12.4133333 7.568 12.4586667 7.58666667 12.496 7.624 12.5333333 7.66133333 12.552 7.70666667 12.552 7.76L12.552 8C12.552 8.42666667 12.7493333 8.78666667 13.144 9.08 13.5386667 9.37333333 14.072 9.52 14.744 9.52 15.3093333 9.52 15.7306667 9.4 16.008 9.16 16.2853333 8.92 16.424 8.624 16.424 8.272 16.424 8.016 16.3386667 7.8 16.168 7.624 15.9973333 7.448 15.7653333 7.29333333 15.472 7.16 15.1786667 7.02666667 14.712 6.84266667 14.072 6.608 13.3573333 6.36266667 12.752 6.112 12.256 5.856 11.76 5.6 11.344 5.25066667 11.008 4.808 10.672 4.36533333 10.504 3.81866667 10.504 3.168 10.504 2.528 10.6693333 1.968 11 1.488 11.3306667 1.008 11.7893333.64 12.376.384 12.9626667.128 13.64 0 14.408 0 15.2186667 0 15.9413333.144 16.576.432 17.2106667.72 17.7066667 1.12266667 18.064 1.64 18.4213333 2.15733333 18.6 2.75733333 18.6 3.44L18.6 3.68C18.6 3.73333333 18.5813333 3.77866667 18.544 3.816 18.5066667 3.85333333 18.4613333 3.872 18.408 3.872L16.568 3.872C16.5146667 3.872 16.4693333 3.85333333 16.432 3.816 16.3946667 3.77866667 16.376 3.73333333 16.376 3.68L16.376 3.552C16.376 3.104 16.192 2.72266667 15.824 2.408 15.456 2.09333333 14.952 1.936 14.312 1.936 13.8106667 1.936 13.4186667 2.04266667 13.136 2.256 12.8533333 2.46933333 12.712 2.76266667 12.712 3.136 12.712 3.40266667 12.7946667 3.62666667 12.96 3.808 13.1253333 3.98933333 13.3706667 4.152 13.696 4.296 14.0213333 4.44 14.5253333 4.63466667 15.208 4.88 15.9653333 5.15733333 16.56 5.40266667 16.992 5.616 17.424 5.82933333 17.8133333 6.14666667 18.16 6.568 18.5066667 6.98933333 18.68 7.536 18.68 8.208 18.68 9.21066667 18.312 10.0026667 17.576 10.584 16.84 11.1653333 15.8426667 11.456 14.584 11.456ZM20.456 11.328C20.4026667 11.328 20.3573333 11.3093333 20.32 11.272 20.2826667 11.2346667 20.264 11.1893333 20.264 11.136L20.264.32C20.264.266666667 20.2826667.221333333 20.32.184 20.3573333.146666667 20.4026667.128 20.456.128L22.328.128C22.3813333.128 22.4266667.146666667 22.464.184 22.5013333.221333333 22.52.266666667 22.52.32L22.52 11.136C22.52 11.1893333 22.5013333 11.2346667 22.464 11.272 22.4266667 11.3093333 22.3813333 11.328 22.328 11.328L20.456 11.328ZM30.904.32C30.904.266666667 30.9226667.221333333 30.96.184 30.9973333.146666667 31.0426667.128 31.096.128L32.968.128C33.0213333.128 33.0666667.146666667 33.104.184 33.1413333.221333333 33.16.266666667 33.16.32L33.16 11.136C33.16 11.1893333 33.1413333 11.2346667 33.104 11.272 33.0666667 11.3093333 33.0213333 11.328 32.968 11.328L31.16 11.328C31.0533333 11.328 30.9786667 11.2853333 30.936 11.2L26.792 4.352C26.7706667 4.32 26.7493333 4.30666667 26.728 4.312 26.7066667 4.31733333 26.696 4.34133333 26.696 4.384L26.728 11.136C26.728 11.1893333 26.7093333 11.2346667 26.672 11.272 26.6346667 11.3093333 26.5893333 11.328 26.536 11.328L24.664 11.328C24.6106667 11.328 24.5653333 11.3093333 24.528 11.272 24.4906667 11.2346667 24.472 11.1893333 24.472 11.136L24.472.32C24.472.266666667 24.4906667.221333333 24.528.184 24.5653333.146666667 24.6106667.128 24.664.128L26.472.128C26.5786667.128 26.6533333.170666667 26.696.256L30.824 7.072C30.8453333 7.104 30.8666667 7.11733333 30.888 7.112 30.9093333 7.10666667 30.92 7.08266667 30.92 7.04L30.904.32ZM5.264 19.296C5.264 19.2426667 5.28266667 19.1973333 5.32 19.16 5.35733333 19.1226667 5.40266667 19.104 5.456 19.104L7.328 19.104C7.38133333 19.104 7.42666667 19.1226667 7.464 19.16 7.50133333 19.1973333 7.52 19.2426667 7.52 19.296L7.52 26.592C7.52 27.9893333 7.11733333 28.9866667 6.312 29.584 5.50666667 30.1813333 4.46933333 30.48 3.2 30.48 2.82666667 30.48 2.41066667 30.4533333 1.952 30.4 1.84533333 30.3893333 1.792 30.32 1.792 30.192L1.856 28.544C1.856 28.4053333 1.93066667 28.3466667 2.08 28.368 2.464 28.432 2.816 28.464 3.136 28.464 3.81866667 28.464 4.344 28.3146667 4.712 28.016 5.08 27.7173333 5.264 27.2373333 5.264 26.576 5.264 26.544 5.25333333 26.5253333 5.232 26.52 5.21066667 26.5146667 5.18933333 26.5226667 5.168 26.544 4.76266667 26.9813333 4.17066667 27.2 3.392 27.2 2.69866667 27.2 2.06133333 27.032 1.48 26.696.898666667 26.36.485333333 25.8186667.24 25.072.08 24.5813333 0 23.9466667 0 23.168 0 22.336.096 21.6586667.288 21.136.512 20.4853333.890666667 19.9626667 1.424 19.568 1.95733333 19.1733333 2.576 18.976 3.28 18.976 4.10133333 18.976 4.73066667 19.2213333 5.168 19.712 5.18933333 19.7333333 5.21066667 19.7413333 5.232 19.736 5.25333333 19.7306667 5.264 19.712 5.264 19.68L5.264 19.296ZM5.136 24.464C5.22133333 24.144 5.264 23.7066667 5.264 23.152 5.264 22.8213333 5.25333333 22.5653333 5.232 22.384 5.21066667 22.2026667 5.17333333 22.032 5.12 21.872 5.024 21.584 4.864 21.352 4.64 21.176 4.416 21 4.13866667 20.912 3.808 20.912 3.488 20.912 3.216 21 2.992 21.176 2.768 21.352 2.60266667 21.584 2.496 21.872 2.34666667 22.192 2.272 22.624 2.272 23.168 2.272 23.7653333 2.336 24.192 2.464 24.448 2.56 24.736 2.728 24.968 2.968 25.144 3.208 25.32 3.49333333 25.408 3.824 25.408 4.16533333 25.408 4.448 25.32 4.672 25.144 4.896 24.968 5.05066667 24.7413333 5.136 24.464ZM9.328 27.328C9.27466667 27.328 9.22933333 27.3093333 9.192 27.272 9.15466667 27.2346667 9.136 27.1893333 9.136 27.136L9.136 16.32C9.136 16.2666667 9.15466667 16.2213333 9.192 16.184 9.22933333 16.1466667 9.27466667 16.128 9.328 16.128L11.2 16.128C11.2533333 16.128 11.2986667 16.1466667 11.336 16.184 11.3733333 16.2213333 11.392 16.2666667 11.392 16.32L11.392 27.136C11.392 27.1893333 11.3733333 27.2346667 11.336 27.272 11.2986667 27.3093333 11.2533333 27.328 11.2 27.328L9.328 27.328ZM17.84 19.296C17.84 19.2426667 17.8586667 19.1973333 17.896 19.16 17.9333333 19.1226667 17.9786667 19.104 18.032 19.104L19.904 19.104C19.9573333 19.104 20.0026667 19.1226667 20.04 19.16 20.0773333 19.1973333 20.096 19.2426667 20.096 19.296L20.096 27.136C20.096 27.1893333 20.0773333 27.2346667 20.04 27.272 20.0026667 27.3093333 19.9573333 27.328 19.904 27.328L18.032 27.328C17.9786667 27.328 17.9333333 27.3093333 17.896 27.272 17.8586667 27.2346667 17.84 27.1893333 17.84 27.136L17.84 26.592C17.84 26.56 17.8293333 26.5413333 17.808 26.536 17.7866667 26.5306667 17.7653333 26.544 17.744 26.576 17.3173333 27.152 16.656 27.44 15.76 27.44 14.9493333 27.44 14.2826667 27.1946667 13.76 26.704 13.2373333 26.2133333 12.976 25.5253333 12.976 24.64L12.976 19.296C12.976 19.2426667 12.9946667 19.1973333 13.032 19.16 13.0693333 19.1226667 13.1146667 19.104 13.168 19.104L15.024 19.104C15.0773333 19.104 15.1226667 19.1226667 15.16 19.16 15.1973333 19.1973333 15.216 19.2426667 15.216 19.296L15.216 24.08C15.216 24.5066667 15.3306667 24.8533333 15.56 25.12 15.7893333 25.3866667 16.1066667 25.52 16.512 25.52 16.8746667 25.52 17.1733333 25.4106667 17.408 25.192 17.6426667 24.9733333 17.7866667 24.688 17.84 24.336L17.84 19.296ZM26.48 20.72C26.48 20.7733333 26.4613333 20.8186667 26.424 20.856 26.3866667 20.8933333 26.3413333 20.912 26.288 20.912L24.752 20.912C24.6986667 20.912 24.672 20.9386667 24.672 20.992L24.672 24.384C24.672 24.736 24.744 24.9973333 24.888 25.168 25.032 25.3386667 25.264 25.424 25.584 25.424L26.112 25.424C26.1653333 25.424 26.2106667 25.4426667 26.248 25.48 26.2853333 25.5173333 26.304 25.5626667 26.304 25.616L26.304 27.136C26.304 27.2533333 26.24 27.3226667 26.112 27.344 25.664 27.3653333 25.344 27.376 25.152 27.376 24.2666667 27.376 23.6053333 27.2293333 23.168 26.936 22.7306667 26.6426667 22.5066667 26.0906667 22.496 25.28L22.496 20.992C22.496 20.9386667 22.4693333 20.912 22.416 20.912L21.504 20.912C21.4506667 20.912 21.4053333 20.8933333 21.368 20.856 21.3306667 20.8186667 21.312 20.7733333 21.312 20.72L21.312 19.296C21.312 19.2426667 21.3306667 19.1973333 21.368 19.16 21.4053333 19.1226667 21.4506667 19.104 21.504 19.104L22.416 19.104C22.4693333 19.104 22.496 19.0773333 22.496 19.024L22.496 17.12C22.496 17.0666667 22.5146667 17.0213333 22.552 16.984 22.5893333 16.9466667 22.6346667 16.928 22.688 16.928L24.48 16.928C24.5333333 16.928 24.5786667 16.9466667 24.616 16.984 24.6533333 17.0213333 24.672 17.0666667 24.672 17.12L24.672 19.024C24.672 19.0773333 24.6986667 19.104 24.752 19.104L26.288 19.104C26.3413333 19.104 26.3866667 19.1226667 26.424 19.16 26.4613333 19.1973333 26.48 19.2426667 26.48 19.296L26.48 20.72ZM35.12 22.368C35.184 22.7733333 35.2053333 23.2266667 35.184 23.728 35.1733333 23.856 35.104 23.92 34.976 23.92L30.032 23.92C29.968 23.92 29.9466667 23.9466667 29.968 24 30 24.2133333 30.0586667 24.4266667 30.144 24.64 30.4213333 25.2373333 30.9866667 25.536 31.84 25.536 32.5226667 25.5253333 33.0613333 25.248 33.456 24.704 33.4986667 24.64 33.5466667 24.608 33.6 24.608 33.632 24.608 33.6693333 24.6293333 33.712 24.672L34.864 25.808C34.9173333 25.8613333 34.944 25.9093333 34.944 25.952 34.944 25.9733333 34.9226667 26.016 34.88 26.08 34.528 26.5173333 34.0746667 26.856 33.52 27.096 32.9653333 27.336 32.3573333 27.456 31.696 27.456 30.7786667 27.456 30.0026667 27.248 29.368 26.832 28.7333333 26.416 28.2773333 25.8346667 28 25.088 27.776 24.5546667 27.664 23.856 27.664 22.992 27.664 22.4053333 27.744 21.888 27.904 21.44 28.1493333 20.6826667 28.5786667 20.08 29.192 19.632 29.8053333 19.184 30.5333333 18.96 31.376 18.96 32.4426667 18.96 33.2986667 19.2693333 33.944 19.888 34.5893333 20.5066667 34.9813333 21.3333333 35.12 22.368ZM31.392 20.912C30.72 20.912 30.2773333 21.2266667 30.064 21.856 30.0213333 21.9946667 29.984 22.1653333 29.952 22.368 29.952 22.4213333 29.9786667 22.448 30.032 22.448L32.8 22.448C32.864 22.448 32.8853333 22.4213333 32.864 22.368 32.8106667 22.0586667 32.784 21.9093333 32.784 21.92 32.688 21.6 32.52 21.352 32.28 21.176 32.04 21 31.744 20.912 31.392 20.912ZM40.864 18.976C41.7173333 18.976 42.4053333 19.2373333 42.928 19.76 43.4506667 20.2826667 43.712 20.992 43.712 21.888L43.712 27.136C43.712 27.1893333 43.6933333 27.2346667 43.656 27.272 43.6186667 27.3093333 43.5733333 27.328 43.52 27.328L41.648 27.328C41.5946667 27.328 41.5493333 27.3093333 41.512 27.272 41.4746667 27.2346667 41.456 27.1893333 41.456 27.136L41.456 22.352C41.456 21.9253333 41.336 21.5786667 41.096 21.312 40.856 21.0453333 40.5386667 20.912 40.144 20.912 39.7493333 20.912 39.432 21.0453333 39.192 21.312 38.952 21.5786667 38.832 21.9253333 38.832 22.352L38.832 27.136C38.832 27.1893333 38.8133333 27.2346667 38.776 27.272 38.7386667 27.3093333 38.6933333 27.328 38.64 27.328L36.768 27.328C36.7146667 27.328 36.6693333 27.3093333 36.632 27.272 36.5946667 27.2346667 36.576 27.1893333 36.576 27.136L36.576 19.296C36.576 19.2426667 36.5946667 19.1973333 36.632 19.16 36.6693333 19.1226667 36.7146667 19.104 36.768 19.104L38.64 19.104C38.6933333 19.104 38.7386667 19.1226667 38.776 19.16 38.8133333 19.1973333 38.832 19.2426667 38.832 19.296L38.832 19.856C38.832 19.888 38.8426667 19.9093333 38.864 19.92 38.8853333 19.9306667 38.9013333 19.9253333 38.912 19.904 39.3493333 19.2853333 40 18.976 40.864 18.976Z" transform="translate(3.048 63.672)"/><path fill="#273271" fill-rule="nonzero" d="M11.952.32C11.952.266666667 11.9706667.221333333 12.008.184 12.0453333.146666667 12.0906667.128 12.144.128L14.016.128C14.0693333.128 14.1146667.146666667 14.152.184 14.1893333.221333333 14.208.266666667 14.208.32L14.208 11.136C14.208 11.1893333 14.1893333 11.2346667 14.152 11.272 14.1146667 11.3093333 14.0693333 11.328 14.016 11.328L12.208 11.328C12.1013333 11.328 12.0266667 11.2853333 11.984 11.2L7.84 4.352C7.81866667 4.32 7.79733333 4.30666667 7.776 4.312 7.75466667 4.31733333 7.744 4.34133333 7.744 4.384L7.776 11.136C7.776 11.1893333 7.75733333 11.2346667 7.72 11.272 7.68266667 11.3093333 7.63733333 11.328 7.584 11.328L5.712 11.328C5.65866667 11.328 5.61333333 11.3093333 5.576 11.272 5.53866667 11.2346667 5.52 11.1893333 5.52 11.136L5.52.32C5.52.266666667 5.53866667.221333333 5.576.184 5.61333333.146666667 5.65866667.128 5.712.128L7.52.128C7.62666667.128 7.70133333.170666667 7.744.256L11.872 7.072C11.8933333 7.104 11.9146667 7.11733333 11.936 7.112 11.9573333 7.10666667 11.968 7.08266667 11.968 7.04L11.952.32ZM20.144 11.504C19.312 11.504 18.5786667 11.3333333 17.944 10.992 17.3093333 10.6506667 16.816 10.1733333 16.464 9.56 16.112 8.94666667 15.936 8.24 15.936 7.44L15.936 4.016C15.936 3.22666667 16.112 2.528 16.464 1.92 16.816 1.312 17.3093333.84 17.944.504 18.5786667.168 19.312 0 20.144 0 20.9866667 0 21.7253333.168 22.36.504 22.9946667.84 23.488 1.312 23.84 1.92 24.192 2.528 24.368 3.22666667 24.368 4.016L24.368 7.44C24.368 8.24 24.192 8.94933333 23.84 9.568 23.488 10.1866667 22.9946667 10.664 22.36 11 21.7253333 11.336 20.9866667 11.504 20.144 11.504ZM20.144 9.568C20.7306667 9.568 21.2053333 9.38133333 21.568 9.008 21.9306667 8.63466667 22.112 8.13866667 22.112 7.52L22.112 4C22.112 3.38133333 21.9333333 2.88266667 21.576 2.504 21.2186667 2.12533333 20.7413333 1.936 20.144 1.936 19.5573333 1.936 19.0853333 2.12533333 18.728 2.504 18.3706667 2.88266667 18.192 3.38133333 18.192 4L18.192 7.52C18.192 8.13866667 18.3706667 8.63466667 18.728 9.008 19.0853333 9.38133333 19.5573333 9.568 20.144 9.568ZM4.16 27.456C3.33866667 27.456 2.61333333 27.2906667 1.984 26.96 1.35466667 26.6293333.866666667 26.168.52 25.576.173333333 24.984 0 24.2986667 0 23.52L0 19.936C0 19.1573333.173333333 18.4693333.52 17.872.866666667 17.2746667 1.35466667 16.8133333 1.984 16.488 2.61333333 16.1626667 3.33866667 16 4.16 16 4.97066667 16 5.688 16.16 6.312 16.48 6.936 16.8 7.42133333 17.2346667 7.768 17.784 8.11466667 18.3333333 8.288 18.944 8.288 19.616L8.288 19.728C8.288 19.7813333 8.26933333 19.8266667 8.232 19.864 8.19466667 19.9013333 8.14933333 19.92 8.096 19.92L6.224 19.92C6.17066667 19.92 6.12533333 19.9013333 6.088 19.864 6.05066667 19.8266667 6.032 19.7813333 6.032 19.728L6.032 19.68C6.032 19.1893333 5.86133333 18.776 5.52 18.44 5.17866667 18.104 4.72533333 17.936 4.16 17.936 3.584 17.936 3.12266667 18.1146667 2.776 18.472 2.42933333 18.8293333 2.256 19.296 2.256 19.872L2.256 23.584C2.256 24.16 2.44266667 24.6266667 2.816 24.984 3.18933333 25.3413333 3.664 25.52 4.24 25.52 4.79466667 25.52 5.23733333 25.3733333 5.568 25.08 5.89866667 24.7866667 6.064 24.3786667 6.064 23.856L6.064 23.136C6.064 23.0826667 6.03733333 23.056 5.984 23.056L4.192 23.056C4.13866667 23.056 4.09333333 23.0373333 4.056 23 4.01866667 22.9626667 4 22.9173333 4 22.864L4 21.392C4 21.3386667 4.01866667 21.2933333 4.056 21.256 4.09333333 21.2186667 4.13866667 21.2 4.192 21.2L8.096 21.2C8.14933333 21.2 8.19466667 21.2186667 8.232 21.256 8.26933333 21.2933333 8.288 21.3386667 8.288 21.392L8.288 23.504C8.288 24.3146667 8.11733333 25.0186667 7.776 25.616 7.43466667 26.2133333 6.952 26.6693333 6.328 26.984 5.704 27.2986667 4.98133333 27.456 4.16 27.456ZM17.216 16.256C17.2693333 16.1706667 17.344 16.128 17.44 16.128L19.312 16.128C19.3653333 16.128 19.4106667 16.1466667 19.448 16.184 19.4853333 16.2213333 19.504 16.2666667 19.504 16.32L19.504 27.136C19.504 27.1893333 19.4853333 27.2346667 19.448 27.272 19.4106667 27.3093333 19.3653333 27.328 19.312 27.328L17.44 27.328C17.3866667 27.328 17.3413333 27.3093333 17.304 27.272 17.2666667 27.2346667 17.248 27.1893333 17.248 27.136L17.248 20.08C17.248 20.0373333 17.2373333 20.016 17.216 20.016 17.1946667 20.016 17.1733333 20.032 17.152 20.064L15.456 22.72C15.4026667 22.8053333 15.328 22.848 15.232 22.848L14.288 22.848C14.192 22.848 14.1173333 22.8053333 14.064 22.72L12.368 20.064C12.3466667 20.032 12.3253333 20.0186667 12.304 20.024 12.2826667 20.0293333 12.272 20.0533333 12.272 20.096L12.272 27.136C12.272 27.1893333 12.2533333 27.2346667 12.216 27.272 12.1786667 27.3093333 12.1333333 27.328 12.08 27.328L10.208 27.328C10.1546667 27.328 10.1093333 27.3093333 10.072 27.272 10.0346667 27.2346667 10.016 27.1893333 10.016 27.136L10.016 16.32C10.016 16.2666667 10.0346667 16.2213333 10.072 16.184 10.1093333 16.1466667 10.1546667 16.128 10.208 16.128L12.08 16.128C12.176 16.128 12.2506667 16.1706667 12.304 16.256L14.704 19.984C14.736 20.048 14.768 20.048 14.8 19.984L17.216 16.256ZM25.44 27.504C24.608 27.504 23.8746667 27.3333333 23.24 26.992 22.6053333 26.6506667 22.112 26.1733333 21.76 25.56 21.408 24.9466667 21.232 24.24 21.232 23.44L21.232 20.016C21.232 19.2266667 21.408 18.528 21.76 17.92 22.112 17.312 22.6053333 16.84 23.24 16.504 23.8746667 16.168 24.608 16 25.44 16 26.2826667 16 27.0213333 16.168 27.656 16.504 28.2906667 16.84 28.784 17.312 29.136 17.92 29.488 18.528 29.664 19.2266667 29.664 20.016L29.664 23.44C29.664 24.24 29.488 24.9493333 29.136 25.568 28.784 26.1866667 28.2906667 26.664 27.656 27 27.0213333 27.336 26.2826667 27.504 25.44 27.504ZM25.44 25.568C26.0266667 25.568 26.5013333 25.3813333 26.864 25.008 27.2266667 24.6346667 27.408 24.1386667 27.408 23.52L27.408 20C27.408 19.3813333 27.2293333 18.8826667 26.872 18.504 26.5146667 18.1253333 26.0373333 17.936 25.44 17.936 24.8533333 17.936 24.3813333 18.1253333 24.024 18.504 23.6666667 18.8826667 23.488 19.3813333 23.488 20L23.488 23.52C23.488 24.1386667 23.6666667 24.6346667 24.024 25.008 24.3813333 25.3813333 24.8533333 25.568 25.44 25.568Z" transform="translate(122.668 63.672)"/><g transform="translate(112)"><path fill="#273271" d="M45.7539078,35.4944024 C39.9702624,46.9397711 25.955083,51.5460629 14.5065916,45.7577084 C9.20752203,43.0808681 5.23400139,38.5715179 3.1987835,33.023954 L47.3014237,18.5327413 C48.8864551,23.992745 48.514426,30.0343986 45.7539078,35.4944024 M4.24609225,14.5049722 C7.04725235,8.95740822 11.8398622,4.83895178 17.7423067,2.90011883 C20.1276696,2.1152042 22.581811,1.72431046 25.0234472,1.72431046 C28.6155599,1.72431046 32.1889148,2.56864094 35.4902821,4.238539 C40.9206561,6.98417662 44.7878827,11.5935956 46.7574484,16.8909876 L2.6641871,31.3790731 C1.04789271,25.7314404 1.57936282,19.7773469 4.24609225,14.5049722 M48.7395192,17.2005754 C46.6574069,10.8555882 42.2274473,5.70517231 36.2718558,2.69372694 C23.9761385,-3.52304709 8.91677662,1.42410407 2.69857634,13.7231847 C-0.312045509,19.6804053 -0.821631554,26.4569391 1.26048075,32.7987992 C3.34259306,39.1437864 7.76942644,44.2942023 13.725018,47.3056476 C17.3296358,49.128776 21.1718521,49.9918694 24.957795,49.9918694 C34.0928283,49.9918694 42.9058532,44.9696666 47.3014237,36.2761899 C50.3120455,30.3158421 50.8216316,23.5424354 48.7395192,17.2005754"/><g transform="translate(.02)"><mask id="d" fill="#fff"><use xlink:href="#c"/></mask><path fill="#273271" d="M33.8347383,49.7757834 C30.2488782,46.2890112 32.5779678,40.7383201 34.8257737,35.3721308 C36.6702876,30.9691038 38.5804537,26.4191006 36.5202255,24.4177247 C34.4599972,22.4132216 29.9706379,24.4552505 25.6250882,26.4222278 C20.319766,28.8270061 14.8456239,31.3130902 11.2535112,27.8231909 C7.67077742,24.3364188 9.99674072,18.7888548 12.2476729,13.4226656 C14.0921869,9.0196385 15.9992267,4.46650822 13.9421247,2.46513228 L16.1211522,0.222965789 C19.7070122,3.70973794 17.3779226,9.26042904 15.1301167,14.6297454 C13.2856028,19.0296454 11.3754367,23.5827757 13.435665,25.5810245 C15.4927669,27.5824004 19.9852525,25.5434987 24.3339285,23.5765214 C29.6267455,21.1748702 35.1071402,18.6794046 38.7023792,22.1755582 C42.2882393,25.6623304 39.9591497,31.2098943 37.7082175,36.5792107 C35.8637036,40.9822378 33.9566637,45.5322409 36.0137657,47.5336169 L33.8347383,49.7757834 Z" mask="url(#d)"/><mask id="f" fill="#fff"><use xlink:href="#e"/></mask><path fill="#273271" d="M27.0050347,40.5269248 C25.3418459,40.5269248 23.8224667,40.0422165 22.5438121,38.800738 C18.957952,35.3139659 21.2870416,29.7632748 23.5379738,24.3939583 C25.3793615,19.9940584 27.2895275,15.4440553 25.2324256,13.4395522 C23.1721974,11.4381762 18.6797118,13.477078 14.3341621,15.4471824 C9.03821875,17.8519607 3.56095033,20.3349178 -0.031162343,16.8481456 L2.1478651,14.6059791 C4.20496705,16.6104822 8.69745262,14.5715805 13.0430023,12.5983489 C18.342072,10.1966977 23.8193404,7.7074864 27.411453,11.2005129 C30.9973131,14.6841579 28.6682235,20.234849 26.4204176,25.6041654 C24.5759037,30.0071924 22.6657376,34.5571956 24.7259658,36.5585715 C26.7893204,38.5630746 31.2755534,36.5210457 35.6242294,34.5509413 C40.9170464,32.146163 46.3911885,29.6569517 49.9926801,33.1499781 L47.8105263,35.3921446 C45.7565507,33.3907687 41.2609388,35.4296704 36.9122628,37.3997748 C33.5014752,38.9477141 30.0156566,40.5269248 27.0050347,40.5269248" mask="url(#f)"/></g></g><path fill="#273271" fill-rule="nonzero" d="M27.504 11.456C26.6506667 11.456 25.904 11.32 25.264 11.048 24.624 10.776 24.1306667 10.3866667 23.784 9.88 23.4373333 9.37333333 23.264 8.784 23.264 8.112L23.264 7.76C23.264 7.70666667 23.2826667 7.66133333 23.32 7.624 23.3573333 7.58666667 23.4026667 7.568 23.456 7.568L25.28 7.568C25.3333333 7.568 25.3786667 7.58666667 25.416 7.624 25.4533333 7.66133333 25.472 7.70666667 25.472 7.76L25.472 8C25.472 8.42666667 25.6693333 8.78666667 26.064 9.08 26.4586667 9.37333333 26.992 9.52 27.664 9.52 28.2293333 9.52 28.6506667 9.4 28.928 9.16 29.2053333 8.92 29.344 8.624 29.344 8.272 29.344 8.016 29.2586667 7.8 29.088 7.624 28.9173333 7.448 28.6853333 7.29333333 28.392 7.16 28.0986667 7.02666667 27.632 6.84266667 26.992 6.608 26.2773333 6.36266667 25.672 6.112 25.176 5.856 24.68 5.6 24.264 5.25066667 23.928 4.808 23.592 4.36533333 23.424 3.81866667 23.424 3.168 23.424 2.528 23.5893333 1.968 23.92 1.488 24.2506667 1.008 24.7093333.64 25.296.384 25.8826667.128 26.56 0 27.328 0 28.1386667 0 28.8613333.144 29.496.432 30.1306667.72 30.6266667 1.12266667 30.984 1.64 31.3413333 2.15733333 31.52 2.75733333 31.52 3.44L31.52 3.68C31.52 3.73333333 31.5013333 3.77866667 31.464 3.816 31.4266667 3.85333333 31.3813333 3.872 31.328 3.872L29.488 3.872C29.4346667 3.872 29.3893333 3.85333333 29.352 3.816 29.3146667 3.77866667 29.296 3.73333333 29.296 3.68L29.296 3.552C29.296 3.104 29.112 2.72266667 28.744 2.408 28.376 2.09333333 27.872 1.936 27.232 1.936 26.7306667 1.936 26.3386667 2.04266667 26.056 2.256 25.7733333 2.46933333 25.632 2.76266667 25.632 3.136 25.632 3.40266667 25.7146667 3.62666667 25.88 3.808 26.0453333 3.98933333 26.2906667 4.152 26.616 4.296 26.9413333 4.44 27.4453333 4.63466667 28.128 4.88 28.8853333 5.15733333 29.48 5.40266667 29.912 5.616 30.344 5.82933333 30.7333333 6.14666667 31.08 6.568 31.4266667 6.98933333 31.6 7.536 31.6 8.208 31.6 9.21066667 31.232 10.0026667 30.496 10.584 29.76 11.1653333 28.7626667 11.456 27.504 11.456ZM33.376 11.328C33.3226667 11.328 33.2773333 11.3093333 33.24 11.272 33.2026667 11.2346667 33.184 11.1893333 33.184 11.136L33.184.32C33.184.266666667 33.2026667.221333333 33.24.184 33.2773333.146666667 33.3226667.128 33.376.128L35.248.128C35.3013333.128 35.3466667.146666667 35.384.184 35.4213333.221333333 35.44.266666667 35.44.32L35.44 11.136C35.44 11.1893333 35.4213333 11.2346667 35.384 11.272 35.3466667 11.3093333 35.3013333 11.328 35.248 11.328L33.376 11.328ZM43.824.32C43.824.266666667 43.8426667.221333333 43.88.184 43.9173333.146666667 43.9626667.128 44.016.128L45.888.128C45.9413333.128 45.9866667.146666667 46.024.184 46.0613333.221333333 46.08.266666667 46.08.32L46.08 11.136C46.08 11.1893333 46.0613333 11.2346667 46.024 11.272 45.9866667 11.3093333 45.9413333 11.328 45.888 11.328L44.08 11.328C43.9733333 11.328 43.8986667 11.2853333 43.856 11.2L39.712 4.352C39.6906667 4.32 39.6693333 4.30666667 39.648 4.312 39.6266667 4.31733333 39.616 4.34133333 39.616 4.384L39.648 11.136C39.648 11.1893333 39.6293333 11.2346667 39.592 11.272 39.5546667 11.3093333 39.5093333 11.328 39.456 11.328L37.584 11.328C37.5306667 11.328 37.4853333 11.3093333 37.448 11.272 37.4106667 11.2346667 37.392 11.1893333 37.392 11.136L37.392.32C37.392.266666667 37.4106667.221333333 37.448.184 37.4853333.146666667 37.5306667.128 37.584.128L39.392.128C39.4986667.128 39.5733333.170666667 39.616.256L43.744 7.072C43.7653333 7.104 43.7866667 7.11733333 43.808 7.112 43.8293333 7.10666667 43.84 7.08266667 43.84 7.04L43.824.32ZM3.712 18.976C4.40533333 18.976 5.024 19.096 5.568 19.336 6.112 19.576 6.536 19.904 6.84 20.32 7.144 20.736 7.296 21.2 7.296 21.712L7.296 27.136C7.296 27.1893333 7.27733333 27.2346667 7.24 27.272 7.20266667 27.3093333 7.15733333 27.328 7.104 27.328L5.232 27.328C5.17866667 27.328 5.13333333 27.3093333 5.096 27.272 5.05866667 27.2346667 5.04 27.1893333 5.04 27.136L5.04 26.608C5.04 26.576 5.02933333 26.5546667 5.008 26.544 4.98666667 26.5333333 4.96533333 26.544 4.944 26.576 4.496 27.1626667 3.776 27.456 2.784 27.456 1.952 27.456 1.28 27.2533333.768 26.848.256 26.4426667-1.13686838e-13 25.8453333-1.13686838e-13 25.056-1.13686838e-13 24.2346667.288 23.5973333.864 23.144 1.44 22.6906667 2.26133333 22.464 3.328 22.464L4.96 22.464C5.01333333 22.464 5.04 22.4373333 5.04 22.384L5.04 22.032C5.04 21.68 4.93333333 21.4053333 4.72 21.208 4.50666667 21.0106667 4.18666667 20.912 3.76 20.912 3.42933333 20.912 3.15466667 20.9706667 2.936 21.088 2.71733333 21.2053333 2.576 21.3706667 2.512 21.584 2.48 21.7013333 2.41066667 21.7546667 2.304 21.744L.368 21.488C.24 21.4666667.181333333 21.4186667.192 21.344.234666667 20.896.413333333 20.4906667.728 20.128 1.04266667 19.7653333 1.45866667 19.4826667 1.976 19.28 2.49333333 19.0773333 3.072 18.976 3.712 18.976ZM3.392 25.776C3.85066667 25.776 4.24 25.6533333 4.56 25.408 4.88 25.1626667 5.04 24.848 5.04 24.464L5.04 23.888C5.04 23.8346667 5.01333333 23.808 4.96 23.808L3.808 23.808C3.328 23.808 2.952 23.8986667 2.68 24.08 2.408 24.2613333 2.272 24.5173333 2.272 24.848 2.272 25.136 2.37333333 25.3626667 2.576 25.528 2.77866667 25.6933333 3.05066667 25.776 3.392 25.776ZM9.072 27.328C9.01866667 27.328 8.97333333 27.3093333 8.936 27.272 8.89866667 27.2346667 8.88 27.1893333 8.88 27.136L8.88 16.32C8.88 16.2666667 8.89866667 16.2213333 8.936 16.184 8.97333333 16.1466667 9.01866667 16.128 9.072 16.128L10.944 16.128C10.9973333 16.128 11.0426667 16.1466667 11.08 16.184 11.1173333 16.2213333 11.136 16.2666667 11.136 16.32L11.136 27.136C11.136 27.1893333 11.1173333 27.2346667 11.08 27.272 11.0426667 27.3093333 10.9973333 27.328 10.944 27.328L9.072 27.328ZM20.064 22.368C20.128 22.7733333 20.1493333 23.2266667 20.128 23.728 20.1173333 23.856 20.048 23.92 19.92 23.92L14.976 23.92C14.912 23.92 14.8906667 23.9466667 14.912 24 14.944 24.2133333 15.0026667 24.4266667 15.088 24.64 15.3653333 25.2373333 15.9306667 25.536 16.784 25.536 17.4666667 25.5253333 18.0053333 25.248 18.4 24.704 18.4426667 24.64 18.4906667 24.608 18.544 24.608 18.576 24.608 18.6133333 24.6293333 18.656 24.672L19.808 25.808C19.8613333 25.8613333 19.888 25.9093333 19.888 25.952 19.888 25.9733333 19.8666667 26.016 19.824 26.08 19.472 26.5173333 19.0186667 26.856 18.464 27.096 17.9093333 27.336 17.3013333 27.456 16.64 27.456 15.7226667 27.456 14.9466667 27.248 14.312 26.832 13.6773333 26.416 13.2213333 25.8346667 12.944 25.088 12.72 24.5546667 12.608 23.856 12.608 22.992 12.608 22.4053333 12.688 21.888 12.848 21.44 13.0933333 20.6826667 13.5226667 20.08 14.136 19.632 14.7493333 19.184 15.4773333 18.96 16.32 18.96 17.3866667 18.96 18.2426667 19.2693333 18.888 19.888 19.5333333 20.5066667 19.9253333 21.3333333 20.064 22.368ZM16.336 20.912C15.664 20.912 15.2213333 21.2266667 15.008 21.856 14.9653333 21.9946667 14.928 22.1653333 14.896 22.368 14.896 22.4213333 14.9226667 22.448 14.976 22.448L17.744 22.448C17.808 22.448 17.8293333 22.4213333 17.808 22.368 17.7546667 22.0586667 17.728 21.9093333 17.728 21.92 17.632 21.6 17.464 21.352 17.224 21.176 16.984 21 16.688 20.912 16.336 20.912ZM25.616 18.992C26 18.992 26.304 19.0666667 26.528 19.216 26.6133333 19.2586667 26.6453333 19.3386667 26.624 19.456L26.288 21.28C26.2773333 21.408 26.2026667 21.4453333 26.064 21.392 25.904 21.3386667 25.7173333 21.312 25.504 21.312 25.4186667 21.312 25.3013333 21.3226667 25.152 21.344 24.768 21.376 24.4426667 21.5173333 24.176 21.768 23.9093333 22.0186667 23.776 22.352 23.776 22.768L23.776 27.136C23.776 27.1893333 23.7573333 27.2346667 23.72 27.272 23.6826667 27.3093333 23.6373333 27.328 23.584 27.328L21.712 27.328C21.6586667 27.328 21.6133333 27.3093333 21.576 27.272 21.5386667 27.2346667 21.52 27.1893333 21.52 27.136L21.52 19.296C21.52 19.2426667 21.5386667 19.1973333 21.576 19.16 21.6133333 19.1226667 21.6586667 19.104 21.712 19.104L23.584 19.104C23.6373333 19.104 23.6826667 19.1226667 23.72 19.16 23.7573333 19.1973333 23.776 19.2426667 23.776 19.296L23.776 19.904C23.776 19.936 23.7866667 19.9573333 23.808 19.968 23.8293333 19.9786667 23.8453333 19.9733333 23.856 19.952 24.2933333 19.312 24.88 18.992 25.616 18.992ZM32.672 19.296C32.672 19.2426667 32.6906667 19.1973333 32.728 19.16 32.7653333 19.1226667 32.8106667 19.104 32.864 19.104L34.736 19.104C34.7893333 19.104 34.8346667 19.1226667 34.872 19.16 34.9093333 19.1973333 34.928 19.2426667 34.928 19.296L34.928 26.592C34.928 27.9893333 34.5253333 28.9866667 33.72 29.584 32.9146667 30.1813333 31.8773333 30.48 30.608 30.48 30.2346667 30.48 29.8186667 30.4533333 29.36 30.4 29.2533333 30.3893333 29.2 30.32 29.2 30.192L29.264 28.544C29.264 28.4053333 29.3386667 28.3466667 29.488 28.368 29.872 28.432 30.224 28.464 30.544 28.464 31.2266667 28.464 31.752 28.3146667 32.12 28.016 32.488 27.7173333 32.672 27.2373333 32.672 26.576 32.672 26.544 32.6613333 26.5253333 32.64 26.52 32.6186667 26.5146667 32.5973333 26.5226667 32.576 26.544 32.1706667 26.9813333 31.5786667 27.2 30.8 27.2 30.1066667 27.2 29.4693333 27.032 28.888 26.696 28.3066667 26.36 27.8933333 25.8186667 27.648 25.072 27.488 24.5813333 27.408 23.9466667 27.408 23.168 27.408 22.336 27.504 21.6586667 27.696 21.136 27.92 20.4853333 28.2986667 19.9626667 28.832 19.568 29.3653333 19.1733333 29.984 18.976 30.688 18.976 31.5093333 18.976 32.1386667 19.2213333 32.576 19.712 32.5973333 19.7333333 32.6186667 19.7413333 32.64 19.736 32.6613333 19.7306667 32.672 19.712 32.672 19.68L32.672 19.296ZM32.544 24.464C32.6293333 24.144 32.672 23.7066667 32.672 23.152 32.672 22.8213333 32.6613333 22.5653333 32.64 22.384 32.6186667 22.2026667 32.5813333 22.032 32.528 21.872 32.432 21.584 32.272 21.352 32.048 21.176 31.824 21 31.5466667 20.912 31.216 20.912 30.896 20.912 30.624 21 30.4 21.176 30.176 21.352 30.0106667 21.584 29.904 21.872 29.7546667 22.192 29.68 22.624 29.68 23.168 29.68 23.7653333 29.744 24.192 29.872 24.448 29.968 24.736 30.136 24.968 30.376 25.144 30.616 25.32 30.9013333 25.408 31.232 25.408 31.5733333 25.408 31.856 25.32 32.08 25.144 32.304 24.968 32.4586667 24.7413333 32.544 24.464ZM43.824 22.368C43.888 22.7733333 43.9093333 23.2266667 43.888 23.728 43.8773333 23.856 43.808 23.92 43.68 23.92L38.736 23.92C38.672 23.92 38.6506667 23.9466667 38.672 24 38.704 24.2133333 38.7626667 24.4266667 38.848 24.64 39.1253333 25.2373333 39.6906667 25.536 40.544 25.536 41.2266667 25.5253333 41.7653333 25.248 42.16 24.704 42.2026667 24.64 42.2506667 24.608 42.304 24.608 42.336 24.608 42.3733333 24.6293333 42.416 24.672L43.568 25.808C43.6213333 25.8613333 43.648 25.9093333 43.648 25.952 43.648 25.9733333 43.6266667 26.016 43.584 26.08 43.232 26.5173333 42.7786667 26.856 42.224 27.096 41.6693333 27.336 41.0613333 27.456 40.4 27.456 39.4826667 27.456 38.7066667 27.248 38.072 26.832 37.4373333 26.416 36.9813333 25.8346667 36.704 25.088 36.48 24.5546667 36.368 23.856 36.368 22.992 36.368 22.4053333 36.448 21.888 36.608 21.44 36.8533333 20.6826667 37.2826667 20.08 37.896 19.632 38.5093333 19.184 39.2373333 18.96 40.08 18.96 41.1466667 18.96 42.0026667 19.2693333 42.648 19.888 43.2933333 20.5066667 43.6853333 21.3333333 43.824 22.368ZM40.096 20.912C39.424 20.912 38.9813333 21.2266667 38.768 21.856 38.7253333 21.9946667 38.688 22.1653333 38.656 22.368 38.656 22.4213333 38.6826667 22.448 38.736 22.448L41.504 22.448C41.568 22.448 41.5893333 22.4213333 41.568 22.368 41.5146667 22.0586667 41.488 21.9093333 41.488 21.92 41.392 21.6 41.224 21.352 40.984 21.176 40.744 21 40.448 20.912 40.096 20.912ZM49.568 18.976C50.4213333 18.976 51.1093333 19.2373333 51.632 19.76 52.1546667 20.2826667 52.416 20.992 52.416 21.888L52.416 27.136C52.416 27.1893333 52.3973333 27.2346667 52.36 27.272 52.3226667 27.3093333 52.2773333 27.328 52.224 27.328L50.352 27.328C50.2986667 27.328 50.2533333 27.3093333 50.216 27.272 50.1786667 27.2346667 50.16 27.1893333 50.16 27.136L50.16 22.352C50.16 21.9253333 50.04 21.5786667 49.8 21.312 49.56 21.0453333 49.2426667 20.912 48.848 20.912 48.4533333 20.912 48.136 21.0453333 47.896 21.312 47.656 21.5786667 47.536 21.9253333 47.536 22.352L47.536 27.136C47.536 27.1893333 47.5173333 27.2346667 47.48 27.272 47.4426667 27.3093333 47.3973333 27.328 47.344 27.328L45.472 27.328C45.4186667 27.328 45.3733333 27.3093333 45.336 27.272 45.2986667 27.2346667 45.28 27.1893333 45.28 27.136L45.28 19.296C45.28 19.2426667 45.2986667 19.1973333 45.336 19.16 45.3733333 19.1226667 45.4186667 19.104 45.472 19.104L47.344 19.104C47.3973333 19.104 47.4426667 19.1226667 47.48 19.16 47.5173333 19.1973333 47.536 19.2426667 47.536 19.296L47.536 19.856C47.536 19.888 47.5466667 19.9093333 47.568 19.92 47.5893333 19.9306667 47.6053333 19.9253333 47.616 19.904 48.0533333 19.2853333 48.704 18.976 49.568 18.976ZM57.664 27.456C56.768 27.456 56 27.2213333 55.36 26.752 54.72 26.2826667 54.2826667 25.6426667 54.048 24.832 53.8986667 24.3306667 53.824 23.7866667 53.824 23.2 53.824 22.5706667 53.8986667 22.0053333 54.048 21.504 54.2933333 20.7146667 54.736 20.096 55.376 19.648 56.016 19.2 56.784 18.976 57.68 18.976 58.5546667 18.976 59.3013333 19.1973333 59.92 19.64 60.5386667 20.0826667 60.976 20.6986667 61.232 21.488 61.4026667 22.0213333 61.488 22.5813333 61.488 23.168 61.488 23.744 61.4133333 24.2826667 61.264 24.784 61.0293333 25.616 60.5946667 26.2693333 59.96 26.744 59.3253333 27.2186667 58.56 27.456 57.664 27.456ZM57.664 25.52C58.016 25.52 58.3146667 25.4133333 58.56 25.2 58.8053333 24.9866667 58.9813333 24.6933333 59.088 24.32 59.1733333 23.9786667 59.216 23.6053333 59.216 23.2 59.216 22.752 59.1733333 22.3733333 59.088 22.064 58.9706667 21.7013333 58.7893333 21.4186667 58.544 21.216 58.2986667 21.0133333 58 20.912 57.648 20.912 57.2853333 20.912 56.984 21.0133333 56.744 21.216 56.504 21.4186667 56.3306667 21.7013333 56.224 22.064 56.1386667 22.32 56.096 22.6986667 56.096 23.2 56.096 23.68 56.1333333 24.0533333 56.208 24.32 56.3146667 24.6933333 56.4933333 24.9866667 56.744 25.2 56.9946667 25.4133333 57.3013333 25.52 57.664 25.52ZM66.224 27.44C65.5093333 27.44 64.8853333 27.3386667 64.352 27.136 63.8186667 26.9333333 63.4053333 26.6506667 63.112 26.288 62.8186667 25.9253333 62.672 25.5146667 62.672 25.056L62.672 24.896C62.672 24.8426667 62.6906667 24.7973333 62.728 24.76 62.7653333 24.7226667 62.8106667 24.704 62.864 24.704L64.64 24.704C64.6933333 24.704 64.7386667 24.7226667 64.776 24.76 64.8133333 24.7973333 64.832 24.8426667 64.832 24.896L64.832 24.912C64.832 25.1466667 64.9626667 25.3466667 65.224 25.512 65.4853333 25.6773333 65.8133333 25.76 66.208 25.76 66.5706667 25.76 66.864 25.688 67.088 25.544 67.312 25.4 67.424 25.2213333 67.424 25.008 67.424 24.816 67.328 24.672 67.136 24.576 66.944 24.48 66.6293333 24.3786667 66.192 24.272 65.6906667 24.144 65.296 24.0213333 65.008 23.904 64.3253333 23.6693333 63.7813333 23.3813333 63.376 23.04 62.9706667 22.6986667 62.768 22.208 62.768 21.568 62.768 20.7786667 63.0746667 20.152 63.688 19.688 64.3013333 19.224 65.1146667 18.992 66.128 18.992 66.8106667 18.992 67.408 19.1013333 67.92 19.32 68.432 19.5386667 68.8293333 19.8453333 69.112 20.24 69.3946667 20.6346667 69.536 21.0826667 69.536 21.584 69.536 21.6373333 69.5173333 21.6826667 69.48 21.72 69.4426667 21.7573333 69.3973333 21.776 69.344 21.776L67.632 21.776C67.5786667 21.776 67.5333333 21.7573333 67.496 21.72 67.4586667 21.6826667 67.44 21.6373333 67.44 21.584 67.44 21.3493333 67.32 21.152 67.08 20.992 66.84 20.832 66.5226667 20.752 66.128 20.752 65.776 20.752 65.488 20.816 65.264 20.944 65.04 21.072 64.928 21.248 64.928 21.472 64.928 21.6853333 65.0373333 21.8453333 65.256 21.952 65.4746667 22.0586667 65.84 22.1706667 66.352 22.288 66.4693333 22.32 66.6026667 22.3546667 66.752 22.392 66.9013333 22.4293333 67.0613333 22.4746667 67.232 22.528 67.9893333 22.752 68.5866667 23.04 69.024 23.392 69.4613333 23.744 69.68 24.256 69.68 24.928 69.68 25.7173333 69.368 26.3333333 68.744 26.776 68.12 27.2186667 67.28 27.44 66.224 27.44Z" transform="translate(202.628 63.672)"/><g transform="translate(212)"><mask id="h" fill="#fff"><use xlink:href="#g"/></mask><path fill="#273271" d="M45.7539078,35.4753171 C39.9702624,46.917556 25.955083,51.5225881 14.5065916,45.7358165 C9.20752203,43.0597082 5.23400139,38.5515912 3.1987835,33.0055443 L47.3014237,18.5182944 C48.8864551,23.976805 48.514426,30.0168065 45.7539078,35.4753171 M4.24609225,14.4916267 C7.04725235,8.94557982 11.8398622,4.82824962 17.7423067,2.88994687 C20.1276696,2.10524689 22.581811,1.71446005 25.0234472,1.71446005 C28.6155599,1.71446005 32.1889148,2.55855963 35.4902821,4.22800103 C40.9206561,6.97288783 44.7878827,11.5810463 46.7574484,16.8769896 L2.6641871,31.3611132 C1.04789271,25.7150249 1.57936282,19.7625597 4.24609225,14.4916267 M48.7395192,17.1864928 C46.6574069,10.8432407 42.2274473,5.69423327 36.2718558,2.68361142 C23.9761385,-3.53146256 8.91677662,1.41433575 2.69857634,13.710053 C-0.312045509,19.6656445 -0.821631554,26.4403253 1.26048075,32.7804511 C3.34259306,39.1237031 7.76942644,44.2727106 13.725018,47.2833324 C17.3296358,49.1059623 21.1718521,49.9688196 24.957795,49.9688196 C34.0928283,49.9688196 42.9058532,44.9479903 47.3014237,36.2568908 C50.3120455,30.298173 50.8216316,23.5266186 48.7395192,17.1864928" mask="url(#h)"/><path fill="#273271" d="M21.1784173,28.8338166 L24.9674865,16.7350558 L24.9987495,16.7350558 L28.7878187,28.8338166 L21.1784173,28.8338166 Z M27.04022,11.0139364 L22.9072583,11.0139364 L13.6065314,38.9536327 L18.0271122,38.9536327 L19.8903838,32.9417679 L30.0727259,32.9417679 L31.9547553,38.9536327 L36.3940939,38.9536327 L27.04022,11.0139364 Z"/></g><path fill="#273271" fill-rule="nonzero" d="M7.76 2.224C7.76 2.27733333 7.74133333 2.32266667 7.704 2.36 7.66666667 2.39733333 7.62133333 2.416 7.568 2.416L2.336 2.416C2.28266667 2.416 2.256 2.44266667 2.256 2.496L2.256 4.976C2.256 5.02933333 2.28266667 5.056 2.336 5.056L5.776 5.056C5.82933333 5.056 5.87466667 5.07466667 5.912 5.112 5.94933333 5.14933333 5.968 5.19466667 5.968 5.248L5.968 6.8C5.968 6.85333333 5.94933333 6.89866667 5.912 6.936 5.87466667 6.97333333 5.82933333 6.992 5.776 6.992L2.336 6.992C2.28266667 6.992 2.256 7.01866667 2.256 7.072L2.256 11.488C2.256 11.5413333 2.23733333 11.5866667 2.2 11.624 2.16266667 11.6613333 2.11733333 11.68 2.064 11.68L.192 11.68C.138666667 11.68.0933333333 11.6613333.056 11.624.0186666667 11.5866667 0 11.5413333 0 11.488L0 .672C0 .618666667.0186666667.573333333.056.536.0933333333.498666667.138666667.48.192.48L7.568.48C7.62133333.48 7.66666667.498666667 7.704.536 7.74133333.573333333 7.76.618666667 7.76.672L7.76 2.224ZM12.096 3.328C12.7893333 3.328 13.408 3.448 13.952 3.688 14.496 3.928 14.92 4.256 15.224 4.672 15.528 5.088 15.68 5.552 15.68 6.064L15.68 11.488C15.68 11.5413333 15.6613333 11.5866667 15.624 11.624 15.5866667 11.6613333 15.5413333 11.68 15.488 11.68L13.616 11.68C13.5626667 11.68 13.5173333 11.6613333 13.48 11.624 13.4426667 11.5866667 13.424 11.5413333 13.424 11.488L13.424 10.96C13.424 10.928 13.4133333 10.9066667 13.392 10.896 13.3706667 10.8853333 13.3493333 10.896 13.328 10.928 12.88 11.5146667 12.16 11.808 11.168 11.808 10.336 11.808 9.664 11.6053333 9.152 11.2 8.64 10.7946667 8.384 10.1973333 8.384 9.408 8.384 8.58666667 8.672 7.94933333 9.248 7.496 9.824 7.04266667 10.6453333 6.816 11.712 6.816L13.344 6.816C13.3973333 6.816 13.424 6.78933333 13.424 6.736L13.424 6.384C13.424 6.032 13.3173333 5.75733333 13.104 5.56 12.8906667 5.36266667 12.5706667 5.264 12.144 5.264 11.8133333 5.264 11.5386667 5.32266667 11.32 5.44 11.1013333 5.55733333 10.96 5.72266667 10.896 5.936 10.864 6.05333333 10.7946667 6.10666667 10.688 6.096L8.752 5.84C8.624 5.81866667 8.56533333 5.77066667 8.576 5.696 8.61866667 5.248 8.79733333 4.84266667 9.112 4.48 9.42666667 4.11733333 9.84266667 3.83466667 10.36 3.632 10.8773333 3.42933333 11.456 3.328 12.096 3.328ZM11.776 10.128C12.2346667 10.128 12.624 10.0053333 12.944 9.76 13.264 9.51466667 13.424 9.2 13.424 8.816L13.424 8.24C13.424 8.18666667 13.3973333 8.16 13.344 8.16L12.192 8.16C11.712 8.16 11.336 8.25066667 11.064 8.432 10.792 8.61333333 10.656 8.86933333 10.656 9.2 10.656 9.488 10.7573333 9.71466667 10.96 9.88 11.1626667 10.0453333 11.4346667 10.128 11.776 10.128ZM24.544 5.552C24.7466667 6.10666667 24.848 6.768 24.848 7.536 24.848 8.272 24.7573333 8.91733333 24.576 9.472 24.3306667 10.1973333 23.9386667 10.768 23.4 11.184 22.8613333 11.6 22.224 11.808 21.488 11.808 20.7093333 11.808 20.096 11.5146667 19.648 10.928 19.6266667 10.9066667 19.6053333 10.8986667 19.584 10.904 19.5626667 10.9093333 19.552 10.928 19.552 10.96L19.552 11.488C19.552 11.5413333 19.5333333 11.5866667 19.496 11.624 19.4586667 11.6613333 19.4133333 11.68 19.36 11.68L17.488 11.68C17.4346667 11.68 17.3893333 11.6613333 17.352 11.624 17.3146667 11.5866667 17.296 11.5413333 17.296 11.488L17.296.672C17.296.618666667 17.3146667.573333333 17.352.536 17.3893333.498666667 17.4346667.48 17.488.48L19.36.48C19.4133333.48 19.4586667.498666667 19.496.536 19.5333333.573333333 19.552.618666667 19.552.672L19.552 4.096C19.552 4.128 19.5626667 4.14933333 19.584 4.16 19.6053333 4.17066667 19.6266667 4.16 19.648 4.128 20.064 3.59466667 20.656 3.328 21.424 3.328 22.2026667 3.328 22.856 3.528 23.384 3.928 23.912 4.328 24.2986667 4.86933333 24.544 5.552ZM22.176 9.184C22.4 8.77866667 22.512 8.24533333 22.512 7.584 22.512 6.848 22.384 6.28266667 22.128 5.888 21.872 5.472 21.4933333 5.264 20.992 5.264 20.5226667 5.264 20.1653333 5.472 19.92 5.888 19.6853333 6.29333333 19.568 6.85333333 19.568 7.568 19.568 8.28266667 19.6746667 8.82133333 19.888 9.184 20.144 9.64266667 20.5173333 9.872 21.008 9.872 21.5306667 9.872 21.92 9.64266667 22.176 9.184ZM30.416 3.344C30.8 3.344 31.104 3.41866667 31.328 3.568 31.4133333 3.61066667 31.4453333 3.69066667 31.424 3.808L31.088 5.632C31.0773333 5.76 31.0026667 5.79733333 30.864 5.744 30.704 5.69066667 30.5173333 5.664 30.304 5.664 30.2186667 5.664 30.1013333 5.67466667 29.952 5.696 29.568 5.728 29.2426667 5.86933333 28.976 6.12 28.7093333 6.37066667 28.576 6.704 28.576 7.12L28.576 11.488C28.576 11.5413333 28.5573333 11.5866667 28.52 11.624 28.4826667 11.6613333 28.4373333 11.68 28.384 11.68L26.512 11.68C26.4586667 11.68 26.4133333 11.6613333 26.376 11.624 26.3386667 11.5866667 26.32 11.5413333 26.32 11.488L26.32 3.648C26.32 3.59466667 26.3386667 3.54933333 26.376 3.512 26.4133333 3.47466667 26.4586667 3.456 26.512 3.456L28.384 3.456C28.4373333 3.456 28.4826667 3.47466667 28.52 3.512 28.5573333 3.54933333 28.576 3.59466667 28.576 3.648L28.576 4.256C28.576 4.288 28.5866667 4.30933333 28.608 4.32 28.6293333 4.33066667 28.6453333 4.32533333 28.656 4.304 29.0933333 3.664 29.68 3.344 30.416 3.344ZM33.664 2.528C33.3013333 2.528 33 2.408 32.76 2.168 32.52 1.928 32.4 1.62666667 32.4 1.264 32.4.890666667 32.5173333.586666667 32.752.352 32.9866667.117333333 33.2906667 0 33.664 0 34.0373333 0 34.3413333.117333333 34.576.352 34.8106667.586666667 34.928.890666667 34.928 1.264 34.928 1.62666667 34.808 1.928 34.568 2.168 34.328 2.408 34.0266667 2.528 33.664 2.528ZM32.704 11.68C32.6506667 11.68 32.6053333 11.6613333 32.568 11.624 32.5306667 11.5866667 32.512 11.5413333 32.512 11.488L32.512 3.632C32.512 3.57866667 32.5306667 3.53333333 32.568 3.496 32.6053333 3.45866667 32.6506667 3.44 32.704 3.44L34.576 3.44C34.6293333 3.44 34.6746667 3.45866667 34.712 3.496 34.7493333 3.53333333 34.768 3.57866667 34.768 3.632L34.768 11.488C34.768 11.5413333 34.7493333 11.5866667 34.712 11.624 34.6746667 11.6613333 34.6293333 11.68 34.576 11.68L32.704 11.68ZM40.144 11.808C39.2906667 11.808 38.552 11.5946667 37.928 11.168 37.304 10.7413333 36.8586667 10.1546667 36.592 9.408 36.4106667 8.87466667 36.32 8.24533333 36.32 7.52 36.32 6.80533333 36.4106667 6.18666667 36.592 5.664 36.848 4.93866667 37.2906667 4.368 37.92 3.952 38.5493333 3.536 39.2906667 3.328 40.144 3.328 40.9973333 3.328 41.7466667 3.54133333 42.392 3.968 43.0373333 4.39466667 43.4666667 4.93333333 43.68 5.584 43.7653333 5.84 43.808 6.032 43.808 6.16L43.808 6.192C43.808 6.288 43.7546667 6.34666667 43.648 6.368L41.808 6.64 41.776 6.64C41.68 6.64 41.616 6.58666667 41.584 6.48L41.536 6.224C41.4613333 5.94666667 41.296 5.71733333 41.04 5.536 40.784 5.35466667 40.48 5.264 40.128 5.264 39.7866667 5.264 39.4986667 5.34933333 39.264 5.52 39.0293333 5.69066667 38.864 5.92533333 38.768 6.224 38.6506667 6.544 38.592 6.98133333 38.592 7.536 38.592 8.09066667 38.6453333 8.528 38.752 8.848 38.848 9.168 39.016 9.41866667 39.256 9.6 39.496 9.78133333 39.7866667 9.872 40.128 9.872 40.4586667 9.872 40.7493333 9.784 41 9.608 41.2506667 9.432 41.424 9.18933333 41.52 8.88 41.5306667 8.85866667 41.536 8.82666667 41.536 8.784 41.5466667 8.77333333 41.552 8.75733333 41.552 8.736 41.5626667 8.608 41.6373333 8.55466667 41.776 8.576L43.616 8.864C43.7226667 8.88533333 43.776 8.944 43.776 9.04 43.776 9.12533333 43.744 9.28533333 43.68 9.52 43.456 10.2346667 43.0213333 10.7946667 42.376 11.2 41.7306667 11.6053333 40.9866667 11.808 40.144 11.808ZM48.4 3.328C49.0933333 3.328 49.712 3.448 50.256 3.688 50.8 3.928 51.224 4.256 51.528 4.672 51.832 5.088 51.984 5.552 51.984 6.064L51.984 11.488C51.984 11.5413333 51.9653333 11.5866667 51.928 11.624 51.8906667 11.6613333 51.8453333 11.68 51.792 11.68L49.92 11.68C49.8666667 11.68 49.8213333 11.6613333 49.784 11.624 49.7466667 11.5866667 49.728 11.5413333 49.728 11.488L49.728 10.96C49.728 10.928 49.7173333 10.9066667 49.696 10.896 49.6746667 10.8853333 49.6533333 10.896 49.632 10.928 49.184 11.5146667 48.464 11.808 47.472 11.808 46.64 11.808 45.968 11.6053333 45.456 11.2 44.944 10.7946667 44.688 10.1973333 44.688 9.408 44.688 8.58666667 44.976 7.94933333 45.552 7.496 46.128 7.04266667 46.9493333 6.816 48.016 6.816L49.648 6.816C49.7013333 6.816 49.728 6.78933333 49.728 6.736L49.728 6.384C49.728 6.032 49.6213333 5.75733333 49.408 5.56 49.1946667 5.36266667 48.8746667 5.264 48.448 5.264 48.1173333 5.264 47.8426667 5.32266667 47.624 5.44 47.4053333 5.55733333 47.264 5.72266667 47.2 5.936 47.168 6.05333333 47.0986667 6.10666667 46.992 6.096L45.056 5.84C44.928 5.81866667 44.8693333 5.77066667 44.88 5.696 44.9226667 5.248 45.1013333 4.84266667 45.416 4.48 45.7306667 4.11733333 46.1466667 3.83466667 46.664 3.632 47.1813333 3.42933333 47.76 3.328 48.4 3.328ZM48.08 10.128C48.5386667 10.128 48.928 10.0053333 49.248 9.76 49.568 9.51466667 49.728 9.2 49.728 8.816L49.728 8.24C49.728 8.18666667 49.7013333 8.16 49.648 8.16L48.496 8.16C48.016 8.16 47.64 8.25066667 47.368 8.432 47.096 8.61333333 46.96 8.86933333 46.96 9.2 46.96 9.488 47.0613333 9.71466667 47.264 9.88 47.4666667 10.0453333 47.7386667 10.128 48.08 10.128ZM58.672.672C58.672.618666667 58.6906667.573333333 58.728.536 58.7653333.498666667 58.8106667.48 58.864.48L60.736.48C60.7893333.48 60.8346667.498666667 60.872.536 60.9093333.573333333 60.928.618666667 60.928.672L60.928 11.488C60.928 11.5413333 60.9093333 11.5866667 60.872 11.624 60.8346667 11.6613333 60.7893333 11.68 60.736 11.68L58.864 11.68C58.8106667 11.68 58.7653333 11.6613333 58.728 11.624 58.6906667 11.5866667 58.672 11.5413333 58.672 11.488L58.672 10.96C58.672 10.928 58.6613333 10.9093333 58.64 10.904 58.6186667 10.8986667 58.5973333 10.9066667 58.576 10.928 58.128 11.5146667 57.5146667 11.808 56.736 11.808 55.9893333 11.808 55.3466667 11.6 54.808 11.184 54.2693333 10.768 53.8826667 10.1973333 53.648 9.472 53.4666667 8.91733333 53.376 8.272 53.376 7.536 53.376 6.77866667 53.472 6.11733333 53.664 5.552 53.9093333 4.86933333 54.296 4.328 54.824 3.928 55.352 3.528 56.0053333 3.328 56.784 3.328 57.552 3.328 58.1493333 3.59466667 58.576 4.128 58.5973333 4.16 58.6186667 4.17066667 58.64 4.16 58.6613333 4.14933333 58.672 4.128 58.672 4.096L58.672.672ZM58.336 9.184C58.5493333 8.78933333 58.656 8.25066667 58.656 7.568 58.656 6.85333333 58.5386667 6.29333333 58.304 5.888 58.0586667 5.472 57.7013333 5.264 57.232 5.264 56.7306667 5.264 56.352 5.472 56.096 5.888 55.8293333 6.304 55.696 6.86933333 55.696 7.584 55.696 8.224 55.808 8.75733333 56.032 9.184 56.2986667 9.64266667 56.6933333 9.872 57.216 9.872 57.696 9.872 58.0693333 9.64266667 58.336 9.184ZM66.256 11.808C65.36 11.808 64.592 11.5733333 63.952 11.104 63.312 10.6346667 62.8746667 9.99466667 62.64 9.184 62.4906667 8.68266667 62.416 8.13866667 62.416 7.552 62.416 6.92266667 62.4906667 6.35733333 62.64 5.856 62.8853333 5.06666667 63.328 4.448 63.968 4 64.608 3.552 65.376 3.328 66.272 3.328 67.1466667 3.328 67.8933333 3.54933333 68.512 3.992 69.1306667 4.43466667 69.568 5.05066667 69.824 5.84 69.9946667 6.37333333 70.08 6.93333333 70.08 7.52 70.08 8.096 70.0053333 8.63466667 69.856 9.136 69.6213333 9.968 69.1866667 10.6213333 68.552 11.096 67.9173333 11.5706667 67.152 11.808 66.256 11.808ZM66.256 9.872C66.608 9.872 66.9066667 9.76533333 67.152 9.552 67.3973333 9.33866667 67.5733333 9.04533333 67.68 8.672 67.7653333 8.33066667 67.808 7.95733333 67.808 7.552 67.808 7.104 67.7653333 6.72533333 67.68 6.416 67.5626667 6.05333333 67.3813333 5.77066667 67.136 5.568 66.8906667 5.36533333 66.592 5.264 66.24 5.264 65.8773333 5.264 65.576 5.36533333 65.336 5.568 65.096 5.77066667 64.9226667 6.05333333 64.816 6.416 64.7306667 6.672 64.688 7.05066667 64.688 7.552 64.688 8.032 64.7253333 8.40533333 64.8 8.672 64.9066667 9.04533333 65.0853333 9.33866667 65.336 9.552 65.5866667 9.76533333 65.8933333 9.872 66.256 9.872Z" transform="translate(304.136 63.32)"/><g transform="translate(314)"><mask id="j" fill="#fff"><use xlink:href="#i"/></mask><path fill="#273271" d="M24.9968695,48.4378913 C12.0742549,48.4378913 1.55897821,37.9257451 1.55897821,25 C1.55897821,12.0773854 12.0742549,1.56210869 24.9968695,1.56210869 C37.9194841,1.56210869 48.4347608,12.0773854 48.4347608,25 C48.4347608,37.9257451 37.9194841,48.4378913 24.9968695,48.4378913 L24.9968695,48.4378913 Z M24.9968695,-5.5608466e-15 C11.2133734,-5.5608466e-15 0,11.2165039 0,25 C0,38.7866266 11.2133734,50 24.9968695,50 C38.7803656,50 49.993739,38.7866266 49.993739,25 C49.993739,11.2165039 38.7803656,-5.5608466e-15 24.9968695,-5.5608466e-15 L24.9968695,-5.5608466e-15 Z M37.9727022,13.3264463 L37.9727022,27.3854245 C37.9727022,30.5127724 36.5264212,32.2220135 33.887428,32.2220135 C31.2484348,32.2220135 29.8021538,30.4814676 29.8021538,27.3854245 L29.8021538,13.3264463 L24.8998247,13.3264463 L24.8998247,27.5137741 C24.8998247,33.2550714 28.2619584,36.6735537 33.887428,36.6735537 C39.5410719,36.6735537 42.8750313,33.2550714 42.8750313,27.5137741 L42.8750313,13.3264463 L37.9727022,13.3264463 Z M12.0210368,26.6435011 L20.5046331,26.6435011 L20.5046331,22.4517906 L12.0210368,22.4517906 L12.0210368,17.7779865 L21.4500376,17.7779865 L21.4500376,13.3264463 L7.11870774,13.3264463 L7.11870774,36.2196344 L21.9509141,36.2196344 L21.9509141,31.7712246 L12.0210368,31.7712246 L12.0210368,26.6435011 Z" mask="url(#j)"/></g></g></svg>