<svg xmlns="http://www.w3.org/2000/svg" xmlns:xlink="http://www.w3.org/1999/xlink" width="274" height="108" viewBox="0 0 274 108"><defs><polygon id="a" points="0 0 49.993 0 49.993 49.96 0 49.96"/><polygon id="c" points="0 0 50 0 50 49.997 0 49.997"/><polygon id="e" points="0 0 25 0 25 33 0 33"/><polygon id="g" points="0 0 50 0 50 49.968 0 49.968"/></defs><g fill="none" fill-rule="evenodd" transform="translate(0 .5)"><mask id="b" fill="#fff"><use xlink:href="#a"/></mask><path fill="#273271" d="M23.3790439,21.0240468 C23.3790439,21.0240468 23.8573036,17.8137676 21.6254249,15.8038264 C19.3904204,13.7938853 15.295517,13.7438712 15.295517,13.7438712 C15.295517,13.7438712 14.8172573,16.9541504 17.0491359,18.9640916 C19.2810146,20.9740327 23.3790439,21.0240468 23.3790439,21.0240468 M25.0295087,16.1476733 C25.0295087,16.1476733 28.3054315,13.7938853 28.2898578,10.9055718 C28.2741727,8.01413233 24.9732429,5.6822255 24.9732429,5.6822255 C24.9732429,5.6822255 21.6973202,8.03601349 21.7128938,10.9274529 C21.728579,13.8157665 25.0295087,16.1476733 25.0295087,16.1476733 M4.24552956,14.4878308 C7.04631845,8.9456447 11.8382932,4.82573426 17.7399555,2.88768837 C20.1250023,2.10621825 22.5788185,1.7154832 25.0201311,1.7154832 C28.6148936,1.7154832 32.1846491,2.55947092 35.4887048,4.22869109 C40.9152333,6.97321413 44.7819474,11.5776361 46.7512521,16.8728776 L21.9786494,25.0126703 C21.7066978,24.6344387 21.3909839,24.2687107 21.0127524,23.9311156 C18.0212848,21.2366067 12.5291128,21.1709632 12.5291128,21.1709632 C12.5291128,21.1709632 12.0164684,24.8438727 14.3108646,27.529004 L2.66383404,31.3550817 C1.04462796,25.7097416 1.57915352,19.7580652 4.24552956,14.4878308 M45.7478444,35.4718663 C39.9649656,46.9125888 25.9516435,51.5170107 14.5046692,45.731006 C9.20942773,43.0552523 5.23330778,38.5446068 3.1983596,33.0024207 L15.8237908,28.8543774 C18.8965313,30.8549409 23.3665403,30.9268361 23.3665403,30.9268361 C23.3665403,30.9268361 23.6603731,28.7762304 22.7945042,26.5662329 L28.2147809,24.784481 C26.1329445,27.4477312 26.6268337,30.9268361 26.6268337,30.9268361 C26.6268337,30.9268361 32.1190056,30.8611926 35.1135991,28.1666837 C37.4642612,26.0473367 37.5705412,22.9652186 37.5111494,21.7304958 L47.2951553,18.5170907 C48.8799767,23.974878 48.5079969,30.0109531 45.7478444,35.4718663 M1.26031372,32.7773573 C3.3421501,39.1166429 7.76839684,44.2680939 13.726325,47.2783168 C17.3273393,49.1007051 21.1690464,49.9603222 24.9544876,49.9603222 C34.0883103,49.9603222 42.9001673,44.9432841 47.2951553,36.2502105 C50.3053782,30.2954083 50.8148967,23.5247512 48.7330603,17.1823397 C46.6512239,10.8430541 42.2218513,5.69160314 36.267049,2.68138026 C23.9729611,-3.52974422 8.91559497,1.41539867 2.69821873,13.7094865 C-0.312004156,19.6642888 -0.821522672,26.4349459 1.26031372,32.7773573 M11.5350828,31.3800888 C11.5350828,31.3800888 10.8348856,36.0876648 14.1076824,39.03537 C17.3836051,41.9830753 23.3884215,42.0549706 23.3884215,42.0549706 C23.3884215,42.0549706 24.0886187,37.3473946 20.8158219,34.3996893 C17.543025,31.451984 11.5350828,31.3800888 11.5350828,31.3800888 M26.6049525,42.0549706 C26.6049525,42.0549706 32.6097689,41.9830753 35.8825657,39.03537 C39.1584884,36.0876648 38.4582912,31.3800888 38.4582912,31.3800888 C38.4582912,31.3800888 32.450349,31.451984 29.1775521,34.3996893 C25.9047553,37.3473946 26.6049525,42.0549706 26.6049525,42.0549706 M26.6143301,21.0240468 C26.6143301,21.0240468 30.7123594,20.9740327 32.9442381,18.9640916 C35.1761167,16.9541504 34.697857,13.7438712 34.697857,13.7438712 C34.697857,13.7438712 30.6029536,13.7938853 28.3679491,15.8038264 C26.1360704,17.8137676 26.6143301,21.0240468 26.6143301,21.0240468" mask="url(#b)"/><path fill="#273271" fill-rule="nonzero" d="M14.584 11.456C13.7306667 11.456 12.984 11.32 12.344 11.048 11.704 10.776 11.2106667 10.3866667 10.864 9.88 10.5173333 9.37333333 10.344 8.784 10.344 8.112L10.344 7.76C10.344 7.70666667 10.3626667 7.66133333 10.4 7.624 10.4373333 7.58666667 10.4826667 7.568 10.536 7.568L12.36 7.568C12.4133333 7.568 12.4586667 7.58666667 12.496 7.624 12.5333333 7.66133333 12.552 7.70666667 12.552 7.76L12.552 8C12.552 8.42666667 12.7493333 8.78666667 13.144 9.08 13.5386667 9.37333333 14.072 9.52 14.744 9.52 15.3093333 9.52 15.7306667 9.4 16.008 9.16 16.2853333 8.92 16.424 8.624 16.424 8.272 16.424 8.016 16.3386667 7.8 16.168 7.624 15.9973333 7.448 15.7653333 7.29333333 15.472 7.16 15.1786667 7.02666667 14.712 6.84266667 14.072 6.608 13.3573333 6.36266667 12.752 6.112 12.256 5.856 11.76 5.6 11.344 5.25066667 11.008 4.808 10.672 4.36533333 10.504 3.81866667 10.504 3.168 10.504 2.528 10.6693333 1.968 11 1.488 11.3306667 1.008 11.7893333.64 12.376.384 12.9626667.128 13.64 0 14.408 0 15.2186667 0 15.9413333.144 16.576.432 17.2106667.72 17.7066667 1.12266667 18.064 1.64 18.4213333 2.15733333 18.6 2.75733333 18.6 3.44L18.6 3.68C18.6 3.73333333 18.5813333 3.77866667 18.544 3.816 18.5066667 3.85333333 18.4613333 3.872 18.408 3.872L16.568 3.872C16.5146667 3.872 16.4693333 3.85333333 16.432 3.816 16.3946667 3.77866667 16.376 3.73333333 16.376 3.68L16.376 3.552C16.376 3.104 16.192 2.72266667 15.824 2.408 15.456 2.09333333 14.952 1.936 14.312 1.936 13.8106667 1.936 13.4186667 2.04266667 13.136 2.256 12.8533333 2.46933333 12.712 2.76266667 12.712 3.136 12.712 3.40266667 12.7946667 3.62666667 12.96 3.808 13.1253333 3.98933333 13.3706667 4.152 13.696 4.296 14.0213333 4.44 14.5253333 4.63466667 15.208 4.88 15.9653333 5.15733333 16.56 5.40266667 16.992 5.616 17.424 5.82933333 17.8133333 6.14666667 18.16 6.568 18.5066667 6.98933333 18.68 7.536 18.68 8.208 18.68 9.21066667 18.312 10.0026667 17.576 10.584 16.84 11.1653333 15.8426667 11.456 14.584 11.456ZM20.456 11.328C20.4026667 11.328 20.3573333 11.3093333 20.32 11.272 20.2826667 11.2346667 20.264 11.1893333 20.264 11.136L20.264.32C20.264.266666667 20.2826667.221333333 20.32.184 20.3573333.146666667 20.4026667.128 20.456.128L22.328.128C22.3813333.128 22.4266667.146666667 22.464.184 22.5013333.221333333 22.52.266666667 22.52.32L22.52 11.136C22.52 11.1893333 22.5013333 11.2346667 22.464 11.272 22.4266667 11.3093333 22.3813333 11.328 22.328 11.328L20.456 11.328ZM30.904.32C30.904.266666667 30.9226667.221333333 30.96.184 30.9973333.146666667 31.0426667.128 31.096.128L32.968.128C33.0213333.128 33.0666667.146666667 33.104.184 33.1413333.221333333 33.16.266666667 33.16.32L33.16 11.136C33.16 11.1893333 33.1413333 11.2346667 33.104 11.272 33.0666667 11.3093333 33.0213333 11.328 32.968 11.328L31.16 11.328C31.0533333 11.328 30.9786667 11.2853333 30.936 11.2L26.792 4.352C26.7706667 4.32 26.7493333 4.30666667 26.728 4.312 26.7066667 4.31733333 26.696 4.34133333 26.696 4.384L26.728 11.136C26.728 11.1893333 26.7093333 11.2346667 26.672 11.272 26.6346667 11.3093333 26.5893333 11.328 26.536 11.328L24.664 11.328C24.6106667 11.328 24.5653333 11.3093333 24.528 11.272 24.4906667 11.2346667 24.472 11.1893333 24.472 11.136L24.472.32C24.472.266666667 24.4906667.221333333 24.528.184 24.5653333.146666667 24.6106667.128 24.664.128L26.472.128C26.5786667.128 26.6533333.170666667 26.696.256L30.824 7.072C30.8453333 7.104 30.8666667 7.11733333 30.888 7.112 30.9093333 7.10666667 30.92 7.08266667 30.92 7.04L30.904.32ZM5.264 19.296C5.264 19.2426667 5.28266667 19.1973333 5.32 19.16 5.35733333 19.1226667 5.40266667 19.104 5.456 19.104L7.328 19.104C7.38133333 19.104 7.42666667 19.1226667 7.464 19.16 7.50133333 19.1973333 7.52 19.2426667 7.52 19.296L7.52 26.592C7.52 27.9893333 7.11733333 28.9866667 6.312 29.584 5.50666667 30.1813333 4.46933333 30.48 3.2 30.48 2.82666667 30.48 2.41066667 30.4533333 1.952 30.4 1.84533333 30.3893333 1.792 30.32 1.792 30.192L1.856 28.544C1.856 28.4053333 1.93066667 28.3466667 2.08 28.368 2.464 28.432 2.816 28.464 3.136 28.464 3.81866667 28.464 4.344 28.3146667 4.712 28.016 5.08 27.7173333 5.264 27.2373333 5.264 26.576 5.264 26.544 5.25333333 26.5253333 5.232 26.52 5.21066667 26.5146667 5.18933333 26.5226667 5.168 26.544 4.76266667 26.9813333 4.17066667 27.2 3.392 27.2 2.69866667 27.2 2.06133333 27.032 1.48 26.696.898666667 26.36.485333333 25.8186667.24 25.072.08 24.5813333 0 23.9466667 0 23.168 0 22.336.096 21.6586667.288 21.136.512 20.4853333.890666667 19.9626667 1.424 19.568 1.95733333 19.1733333 2.576 18.976 3.28 18.976 4.10133333 18.976 4.73066667 19.2213333 5.168 19.712 5.18933333 19.7333333 5.21066667 19.7413333 5.232 19.736 5.25333333 19.7306667 5.264 19.712 5.264 19.68L5.264 19.296ZM5.136 24.464C5.22133333 24.144 5.264 23.7066667 5.264 23.152 5.264 22.8213333 5.25333333 22.5653333 5.232 22.384 5.21066667 22.2026667 5.17333333 22.032 5.12 21.872 5.024 21.584 4.864 21.352 4.64 21.176 4.416 21 4.13866667 20.912 3.808 20.912 3.488 20.912 3.216 21 2.992 21.176 2.768 21.352 2.60266667 21.584 2.496 21.872 2.34666667 22.192 2.272 22.624 2.272 23.168 2.272 23.7653333 2.336 24.192 2.464 24.448 2.56 24.736 2.728 24.968 2.968 25.144 3.208 25.32 3.49333333 25.408 3.824 25.408 4.16533333 25.408 4.448 25.32 4.672 25.144 4.896 24.968 5.05066667 24.7413333 5.136 24.464ZM9.328 27.328C9.27466667 27.328 9.22933333 27.3093333 9.192 27.272 9.15466667 27.2346667 9.136 27.1893333 9.136 27.136L9.136 16.32C9.136 16.2666667 9.15466667 16.2213333 9.192 16.184 9.22933333 16.1466667 9.27466667 16.128 9.328 16.128L11.2 16.128C11.2533333 16.128 11.2986667 16.1466667 11.336 16.184 11.3733333 16.2213333 11.392 16.2666667 11.392 16.32L11.392 27.136C11.392 27.1893333 11.3733333 27.2346667 11.336 27.272 11.2986667 27.3093333 11.2533333 27.328 11.2 27.328L9.328 27.328ZM17.84 19.296C17.84 19.2426667 17.8586667 19.1973333 17.896 19.16 17.9333333 19.1226667 17.9786667 19.104 18.032 19.104L19.904 19.104C19.9573333 19.104 20.0026667 19.1226667 20.04 19.16 20.0773333 19.1973333 20.096 19.2426667 20.096 19.296L20.096 27.136C20.096 27.1893333 20.0773333 27.2346667 20.04 27.272 20.0026667 27.3093333 19.9573333 27.328 19.904 27.328L18.032 27.328C17.9786667 27.328 17.9333333 27.3093333 17.896 27.272 17.8586667 27.2346667 17.84 27.1893333 17.84 27.136L17.84 26.592C17.84 26.56 17.8293333 26.5413333 17.808 26.536 17.7866667 26.5306667 17.7653333 26.544 17.744 26.576 17.3173333 27.152 16.656 27.44 15.76 27.44 14.9493333 27.44 14.2826667 27.1946667 13.76 26.704 13.2373333 26.2133333 12.976 25.5253333 12.976 24.64L12.976 19.296C12.976 19.2426667 12.9946667 19.1973333 13.032 19.16 13.0693333 19.1226667 13.1146667 19.104 13.168 19.104L15.024 19.104C15.0773333 19.104 15.1226667 19.1226667 15.16 19.16 15.1973333 19.1973333 15.216 19.2426667 15.216 19.296L15.216 24.08C15.216 24.5066667 15.3306667 24.8533333 15.56 25.12 15.7893333 25.3866667 16.1066667 25.52 16.512 25.52 16.8746667 25.52 17.1733333 25.4106667 17.408 25.192 17.6426667 24.9733333 17.7866667 24.688 17.84 24.336L17.84 19.296ZM26.48 20.72C26.48 20.7733333 26.4613333 20.8186667 26.424 20.856 26.3866667 20.8933333 26.3413333 20.912 26.288 20.912L24.752 20.912C24.6986667 20.912 24.672 20.9386667 24.672 20.992L24.672 24.384C24.672 24.736 24.744 24.9973333 24.888 25.168 25.032 25.3386667 25.264 25.424 25.584 25.424L26.112 25.424C26.1653333 25.424 26.2106667 25.4426667 26.248 25.48 26.2853333 25.5173333 26.304 25.5626667 26.304 25.616L26.304 27.136C26.304 27.2533333 26.24 27.3226667 26.112 27.344 25.664 27.3653333 25.344 27.376 25.152 27.376 24.2666667 27.376 23.6053333 27.2293333 23.168 26.936 22.7306667 26.6426667 22.5066667 26.0906667 22.496 25.28L22.496 20.992C22.496 20.9386667 22.4693333 20.912 22.416 20.912L21.504 20.912C21.4506667 20.912 21.4053333 20.8933333 21.368 20.856 21.3306667 20.8186667 21.312 20.7733333 21.312 20.72L21.312 19.296C21.312 19.2426667 21.3306667 19.1973333 21.368 19.16 21.4053333 19.1226667 21.4506667 19.104 21.504 19.104L22.416 19.104C22.4693333 19.104 22.496 19.0773333 22.496 19.024L22.496 17.12C22.496 17.0666667 22.5146667 17.0213333 22.552 16.984 22.5893333 16.9466667 22.6346667 16.928 22.688 16.928L24.48 16.928C24.5333333 16.928 24.5786667 16.9466667 24.616 16.984 24.6533333 17.0213333 24.672 17.0666667 24.672 17.12L24.672 19.024C24.672 19.0773333 24.6986667 19.104 24.752 19.104L26.288 19.104C26.3413333 19.104 26.3866667 19.1226667 26.424 19.16 26.4613333 19.1973333 26.48 19.2426667 26.48 19.296L26.48 20.72ZM35.12 22.368C35.184 22.7733333 35.2053333 23.2266667 35.184 23.728 35.1733333 23.856 35.104 23.92 34.976 23.92L30.032 23.92C29.968 23.92 29.9466667 23.9466667 29.968 24 30 24.2133333 30.0586667 24.4266667 30.144 24.64 30.4213333 25.2373333 30.9866667 25.536 31.84 25.536 32.5226667 25.5253333 33.0613333 25.248 33.456 24.704 33.4986667 24.64 33.5466667 24.608 33.6 24.608 33.632 24.608 33.6693333 24.6293333 33.712 24.672L34.864 25.808C34.9173333 25.8613333 34.944 25.9093333 34.944 25.952 34.944 25.9733333 34.9226667 26.016 34.88 26.08 34.528 26.5173333 34.0746667 26.856 33.52 27.096 32.9653333 27.336 32.3573333 27.456 31.696 27.456 30.7786667 27.456 30.0026667 27.248 29.368 26.832 28.7333333 26.416 28.2773333 25.8346667 28 25.088 27.776 24.5546667 27.664 23.856 27.664 22.992 27.664 22.4053333 27.744 21.888 27.904 21.44 28.1493333 20.6826667 28.5786667 20.08 29.192 19.632 29.8053333 19.184 30.5333333 18.96 31.376 18.96 32.4426667 18.96 33.2986667 19.2693333 33.944 19.888 34.5893333 20.5066667 34.9813333 21.3333333 35.12 22.368ZM31.392 20.912C30.72 20.912 30.2773333 21.2266667 30.064 21.856 30.0213333 21.9946667 29.984 22.1653333 29.952 22.368 29.952 22.4213333 29.9786667 22.448 30.032 22.448L32.8 22.448C32.864 22.448 32.8853333 22.4213333 32.864 22.368 32.8106667 22.0586667 32.784 21.9093333 32.784 21.92 32.688 21.6 32.52 21.352 32.28 21.176 32.04 21 31.744 20.912 31.392 20.912ZM40.864 18.976C41.7173333 18.976 42.4053333 19.2373333 42.928 19.76 43.4506667 20.2826667 43.712 20.992 43.712 21.888L43.712 27.136C43.712 27.1893333 43.6933333 27.2346667 43.656 27.272 43.6186667 27.3093333 43.5733333 27.328 43.52 27.328L41.648 27.328C41.5946667 27.328 41.5493333 27.3093333 41.512 27.272 41.4746667 27.2346667 41.456 27.1893333 41.456 27.136L41.456 22.352C41.456 21.9253333 41.336 21.5786667 41.096 21.312 40.856 21.0453333 40.5386667 20.912 40.144 20.912 39.7493333 20.912 39.432 21.0453333 39.192 21.312 38.952 21.5786667 38.832 21.9253333 38.832 22.352L38.832 27.136C38.832 27.1893333 38.8133333 27.2346667 38.776 27.272 38.7386667 27.3093333 38.6933333 27.328 38.64 27.328L36.768 27.328C36.7146667 27.328 36.6693333 27.3093333 36.632 27.272 36.5946667 27.2346667 36.576 27.1893333 36.576 27.136L36.576 19.296C36.576 19.2426667 36.5946667 19.1973333 36.632 19.16 36.6693333 19.1226667 36.7146667 19.104 36.768 19.104L38.64 19.104C38.6933333 19.104 38.7386667 19.1226667 38.776 19.16 38.8133333 19.1973333 38.832 19.2426667 38.832 19.296L38.832 19.856C38.832 19.888 38.8426667 19.9093333 38.864 19.92 38.8853333 19.9306667 38.9013333 19.9253333 38.912 19.904 39.3493333 19.2853333 40 18.976 40.864 18.976Z" transform="translate(3.048 63.672)"/><g transform="translate(108)"><mask id="d" fill="#fff"><use xlink:href="#c"/></mask><path fill="#273271" d="M3.36897256,16.4266417 C6.98472294,7.30281487 15.7613627,1.73218215 25.0290689,1.73218215 C27.8753776,1.73218215 30.7686035,2.25765452 33.5711228,3.36802769 C39.1918005,5.59502966 43.4424967,9.79255303 45.8947011,14.8470968 L34.0152721,19.9829637 C33.6117844,18.5504259 33.0143723,17.3211959 32.3231259,15.9981315 C31.5818345,14.5812328 29.8427712,10.590145 29.8427712,10.590145 C31.9477885,10.0678005 31.7288417,8.63213487 31.7288417,8.63213487 C31.7288417,7.6030848 30.6841526,6.76795906 29.3954941,6.76795906 L20.6063431,6.76795906 C19.3145569,6.76795906 18.2698677,7.64687417 18.2698677,8.63213487 C18.2698677,9.61739557 18.8047235,10.2711082 20.0026754,10.5401 C19.3145569,12.7233126 18.4200027,14.5812328 17.6755835,15.9981315 C16.4901429,18.2657951 15.4986265,20.1581212 15.4986265,23.5142632 L15.4986265,27.9901618 L3.29077727,33.269908 C1.28897775,28.0214399 1.1419706,22.0473195 3.36897256,16.4266417 M46.6297369,33.5701779 C41.9036133,45.4965241 28.3570606,51.3549156 16.4275866,46.628792 C10.7005633,44.3580007 6.39356652,40.0478761 3.96638461,34.865092 L15.4986265,29.8793601 L15.4986265,39.7976511 C15.4986265,41.6931051 17.4253586,43.2288606 19.7993677,43.2288606 L30.2024696,43.2288606 C32.5764787,43.2288606 34.5000829,41.6931051 34.5000829,39.7976511 L34.5000829,23.5142632 C34.5000829,22.8511671 34.4343989,22.2819053 34.3624592,21.722027 L46.5953309,16.4297696 C48.7066039,21.7501773 48.9005282,27.8431546 46.6297369,33.5701779 M15.789513,48.2396151 C18.8015957,49.4344391 21.9106406,49.9974453 24.9696405,49.9974453 C34.9254653,49.9974453 44.3558177,44.0108136 48.2405599,34.2082515 C53.3201262,21.390479 47.0238412,6.83364311 34.2091964,1.75407683 C21.3976795,-3.31923383 6.83771579,2.97392341 1.75814951,15.7885681 C-3.31828896,28.6032129 2.97486828,43.1631766 15.789513,48.2396151" mask="url(#d)"/></g><path fill="#273271" fill-rule="nonzero" d="M18.008 11.456C17.1546667 11.456 16.408 11.32 15.768 11.048 15.128 10.776 14.6346667 10.3866667 14.288 9.88 13.9413333 9.37333333 13.768 8.784 13.768 8.112L13.768 7.76C13.768 7.70666667 13.7866667 7.66133333 13.824 7.624 13.8613333 7.58666667 13.9066667 7.568 13.96 7.568L15.784 7.568C15.8373333 7.568 15.8826667 7.58666667 15.92 7.624 15.9573333 7.66133333 15.976 7.70666667 15.976 7.76L15.976 8C15.976 8.42666667 16.1733333 8.78666667 16.568 9.08 16.9626667 9.37333333 17.496 9.52 18.168 9.52 18.7333333 9.52 19.1546667 9.4 19.432 9.16 19.7093333 8.92 19.848 8.624 19.848 8.272 19.848 8.016 19.7626667 7.8 19.592 7.624 19.4213333 7.448 19.1893333 7.29333333 18.896 7.16 18.6026667 7.02666667 18.136 6.84266667 17.496 6.608 16.7813333 6.36266667 16.176 6.112 15.68 5.856 15.184 5.6 14.768 5.25066667 14.432 4.808 14.096 4.36533333 13.928 3.81866667 13.928 3.168 13.928 2.528 14.0933333 1.968 14.424 1.488 14.7546667 1.008 15.2133333.64 15.8.384 16.3866667.128 17.064 0 17.832 0 18.6426667 0 19.3653333.144 20 .432 20.6346667.72 21.1306667 1.12266667 21.488 1.64 21.8453333 2.15733333 22.024 2.75733333 22.024 3.44L22.024 3.68C22.024 3.73333333 22.0053333 3.77866667 21.968 3.816 21.9306667 3.85333333 21.8853333 3.872 21.832 3.872L19.992 3.872C19.9386667 3.872 19.8933333 3.85333333 19.856 3.816 19.8186667 3.77866667 19.8 3.73333333 19.8 3.68L19.8 3.552C19.8 3.104 19.616 2.72266667 19.248 2.408 18.88 2.09333333 18.376 1.936 17.736 1.936 17.2346667 1.936 16.8426667 2.04266667 16.56 2.256 16.2773333 2.46933333 16.136 2.76266667 16.136 3.136 16.136 3.40266667 16.2186667 3.62666667 16.384 3.808 16.5493333 3.98933333 16.7946667 4.152 17.12 4.296 17.4453333 4.44 17.9493333 4.63466667 18.632 4.88 19.3893333 5.15733333 19.984 5.40266667 20.416 5.616 20.848 5.82933333 21.2373333 6.14666667 21.584 6.568 21.9306667 6.98933333 22.104 7.536 22.104 8.208 22.104 9.21066667 21.736 10.0026667 21 10.584 20.264 11.1653333 19.2666667 11.456 18.008 11.456ZM23.88 11.328C23.8266667 11.328 23.7813333 11.3093333 23.744 11.272 23.7066667 11.2346667 23.688 11.1893333 23.688 11.136L23.688.32C23.688.266666667 23.7066667.221333333 23.744.184 23.7813333.146666667 23.8266667.128 23.88.128L25.752.128C25.8053333.128 25.8506667.146666667 25.888.184 25.9253333.221333333 25.944.266666667 25.944.32L25.944 11.136C25.944 11.1893333 25.9253333 11.2346667 25.888 11.272 25.8506667 11.3093333 25.8053333 11.328 25.752 11.328L23.88 11.328ZM34.328.32C34.328.266666667 34.3466667.221333333 34.384.184 34.4213333.146666667 34.4666667.128 34.52.128L36.392.128C36.4453333.128 36.4906667.146666667 36.528.184 36.5653333.221333333 36.584.266666667 36.584.32L36.584 11.136C36.584 11.1893333 36.5653333 11.2346667 36.528 11.272 36.4906667 11.3093333 36.4453333 11.328 36.392 11.328L34.584 11.328C34.4773333 11.328 34.4026667 11.2853333 34.36 11.2L30.216 4.352C30.1946667 4.32 30.1733333 4.30666667 30.152 4.312 30.1306667 4.31733333 30.12 4.34133333 30.12 4.384L30.152 11.136C30.152 11.1893333 30.1333333 11.2346667 30.096 11.272 30.0586667 11.3093333 30.0133333 11.328 29.96 11.328L28.088 11.328C28.0346667 11.328 27.9893333 11.3093333 27.952 11.272 27.9146667 11.2346667 27.896 11.1893333 27.896 11.136L27.896.32C27.896.266666667 27.9146667.221333333 27.952.184 27.9893333.146666667 28.0346667.128 28.088.128L29.896.128C30.0026667.128 30.0773333.170666667 30.12.256L34.248 7.072C34.2693333 7.104 34.2906667 7.11733333 34.312 7.112 34.3333333 7.10666667 34.344 7.08266667 34.344 7.04L34.328.32ZM.192 27.328C.138666667 27.328.0933333333 27.3093333.056 27.272.0186666667 27.2346667 0 27.1893333 0 27.136L0 16.32C0 16.2666667.0186666667 16.2213333.056 16.184.0933333333 16.1466667.138666667 16.128.192 16.128L2.064 16.128C2.11733333 16.128 2.16266667 16.1466667 2.2 16.184 2.23733333 16.2213333 2.256 16.2666667 2.256 16.32L2.256 27.136C2.256 27.1893333 2.23733333 27.2346667 2.2 27.272 2.16266667 27.3093333 2.11733333 27.328 2.064 27.328L.192 27.328ZM7.184 18.976C7.87733333 18.976 8.496 19.096 9.04 19.336 9.584 19.576 10.008 19.904 10.312 20.32 10.616 20.736 10.768 21.2 10.768 21.712L10.768 27.136C10.768 27.1893333 10.7493333 27.2346667 10.712 27.272 10.6746667 27.3093333 10.6293333 27.328 10.576 27.328L8.704 27.328C8.65066667 27.328 8.60533333 27.3093333 8.568 27.272 8.53066667 27.2346667 8.512 27.1893333 8.512 27.136L8.512 26.608C8.512 26.576 8.50133333 26.5546667 8.48 26.544 8.45866667 26.5333333 8.43733333 26.544 8.416 26.576 7.968 27.1626667 7.248 27.456 6.256 27.456 5.424 27.456 4.752 27.2533333 4.24 26.848 3.728 26.4426667 3.472 25.8453333 3.472 25.056 3.472 24.2346667 3.76 23.5973333 4.336 23.144 4.912 22.6906667 5.73333333 22.464 6.8 22.464L8.432 22.464C8.48533333 22.464 8.512 22.4373333 8.512 22.384L8.512 22.032C8.512 21.68 8.40533333 21.4053333 8.192 21.208 7.97866667 21.0106667 7.65866667 20.912 7.232 20.912 6.90133333 20.912 6.62666667 20.9706667 6.408 21.088 6.18933333 21.2053333 6.048 21.3706667 5.984 21.584 5.952 21.7013333 5.88266667 21.7546667 5.776 21.744L3.84 21.488C3.712 21.4666667 3.65333333 21.4186667 3.664 21.344 3.70666667 20.896 3.88533333 20.4906667 4.2 20.128 4.51466667 19.7653333 4.93066667 19.4826667 5.448 19.28 5.96533333 19.0773333 6.544 18.976 7.184 18.976ZM6.864 25.776C7.32266667 25.776 7.712 25.6533333 8.032 25.408 8.352 25.1626667 8.512 24.848 8.512 24.464L8.512 23.888C8.512 23.8346667 8.48533333 23.808 8.432 23.808L7.28 23.808C6.8 23.808 6.424 23.8986667 6.152 24.08 5.88 24.2613333 5.744 24.5173333 5.744 24.848 5.744 25.136 5.84533333 25.3626667 6.048 25.528 6.25066667 25.6933333 6.52266667 25.776 6.864 25.776ZM15.968 27.456C15.1146667 27.456 14.376 27.2426667 13.752 26.816 13.128 26.3893333 12.6826667 25.8026667 12.416 25.056 12.2346667 24.5226667 12.144 23.8933333 12.144 23.168 12.144 22.4533333 12.2346667 21.8346667 12.416 21.312 12.672 20.5866667 13.1146667 20.016 13.744 19.6 14.3733333 19.184 15.1146667 18.976 15.968 18.976 16.8213333 18.976 17.5706667 19.1893333 18.216 19.616 18.8613333 20.0426667 19.2906667 20.5813333 19.504 21.232 19.5893333 21.488 19.632 21.68 19.632 21.808L19.632 21.84C19.632 21.936 19.5786667 21.9946667 19.472 22.016L17.632 22.288 17.6 22.288C17.504 22.288 17.44 22.2346667 17.408 22.128L17.36 21.872C17.2853333 21.5946667 17.12 21.3653333 16.864 21.184 16.608 21.0026667 16.304 20.912 15.952 20.912 15.6106667 20.912 15.3226667 20.9973333 15.088 21.168 14.8533333 21.3386667 14.688 21.5733333 14.592 21.872 14.4746667 22.192 14.416 22.6293333 14.416 23.184 14.416 23.7386667 14.4693333 24.176 14.576 24.496 14.672 24.816 14.84 25.0666667 15.08 25.248 15.32 25.4293333 15.6106667 25.52 15.952 25.52 16.2826667 25.52 16.5733333 25.432 16.824 25.256 17.0746667 25.08 17.248 24.8373333 17.344 24.528 17.3546667 24.5066667 17.36 24.4746667 17.36 24.432 17.3706667 24.4213333 17.376 24.4053333 17.376 24.384 17.3866667 24.256 17.4613333 24.2026667 17.6 24.224L19.44 24.512C19.5466667 24.5333333 19.6 24.592 19.6 24.688 19.6 24.7733333 19.568 24.9333333 19.504 25.168 19.28 25.8826667 18.8453333 26.4426667 18.2 26.848 17.5546667 27.2533333 16.8106667 27.456 15.968 27.456ZM25.664 20.72C25.664 20.7733333 25.6453333 20.8186667 25.608 20.856 25.5706667 20.8933333 25.5253333 20.912 25.472 20.912L23.936 20.912C23.8826667 20.912 23.856 20.9386667 23.856 20.992L23.856 24.384C23.856 24.736 23.928 24.9973333 24.072 25.168 24.216 25.3386667 24.448 25.424 24.768 25.424L25.296 25.424C25.3493333 25.424 25.3946667 25.4426667 25.432 25.48 25.4693333 25.5173333 25.488 25.5626667 25.488 25.616L25.488 27.136C25.488 27.2533333 25.424 27.3226667 25.296 27.344 24.848 27.3653333 24.528 27.376 24.336 27.376 23.4506667 27.376 22.7893333 27.2293333 22.352 26.936 21.9146667 26.6426667 21.6906667 26.0906667 21.68 25.28L21.68 20.992C21.68 20.9386667 21.6533333 20.912 21.6 20.912L20.688 20.912C20.6346667 20.912 20.5893333 20.8933333 20.552 20.856 20.5146667 20.8186667 20.496 20.7733333 20.496 20.72L20.496 19.296C20.496 19.2426667 20.5146667 19.1973333 20.552 19.16 20.5893333 19.1226667 20.6346667 19.104 20.688 19.104L21.6 19.104C21.6533333 19.104 21.68 19.0773333 21.68 19.024L21.68 17.12C21.68 17.0666667 21.6986667 17.0213333 21.736 16.984 21.7733333 16.9466667 21.8186667 16.928 21.872 16.928L23.664 16.928C23.7173333 16.928 23.7626667 16.9466667 23.8 16.984 23.8373333 17.0213333 23.856 17.0666667 23.856 17.12L23.856 19.024C23.856 19.0773333 23.8826667 19.104 23.936 19.104L25.472 19.104C25.5253333 19.104 25.5706667 19.1226667 25.608 19.16 25.6453333 19.1973333 25.664 19.2426667 25.664 19.296L25.664 20.72ZM30.656 27.456C29.76 27.456 28.992 27.2213333 28.352 26.752 27.712 26.2826667 27.2746667 25.6426667 27.04 24.832 26.8906667 24.3306667 26.816 23.7866667 26.816 23.2 26.816 22.5706667 26.8906667 22.0053333 27.04 21.504 27.2853333 20.7146667 27.728 20.096 28.368 19.648 29.008 19.2 29.776 18.976 30.672 18.976 31.5466667 18.976 32.2933333 19.1973333 32.912 19.64 33.5306667 20.0826667 33.968 20.6986667 34.224 21.488 34.3946667 22.0213333 34.48 22.5813333 34.48 23.168 34.48 23.744 34.4053333 24.2826667 34.256 24.784 34.0213333 25.616 33.5866667 26.2693333 32.952 26.744 32.3173333 27.2186667 31.552 27.456 30.656 27.456ZM30.656 25.52C31.008 25.52 31.3066667 25.4133333 31.552 25.2 31.7973333 24.9866667 31.9733333 24.6933333 32.08 24.32 32.1653333 23.9786667 32.208 23.6053333 32.208 23.2 32.208 22.752 32.1653333 22.3733333 32.08 22.064 31.9626667 21.7013333 31.7813333 21.4186667 31.536 21.216 31.2906667 21.0133333 30.992 20.912 30.64 20.912 30.2773333 20.912 29.976 21.0133333 29.736 21.216 29.496 21.4186667 29.3226667 21.7013333 29.216 22.064 29.1306667 22.32 29.088 22.6986667 29.088 23.2 29.088 23.68 29.1253333 24.0533333 29.2 24.32 29.3066667 24.6933333 29.4853333 24.9866667 29.736 25.2 29.9866667 25.4133333 30.2933333 25.52 30.656 25.52ZM39.216 27.44C38.5013333 27.44 37.8773333 27.3386667 37.344 27.136 36.8106667 26.9333333 36.3973333 26.6506667 36.104 26.288 35.8106667 25.9253333 35.664 25.5146667 35.664 25.056L35.664 24.896C35.664 24.8426667 35.6826667 24.7973333 35.72 24.76 35.7573333 24.7226667 35.8026667 24.704 35.856 24.704L37.632 24.704C37.6853333 24.704 37.7306667 24.7226667 37.768 24.76 37.8053333 24.7973333 37.824 24.8426667 37.824 24.896L37.824 24.912C37.824 25.1466667 37.9546667 25.3466667 38.216 25.512 38.4773333 25.6773333 38.8053333 25.76 39.2 25.76 39.5626667 25.76 39.856 25.688 40.08 25.544 40.304 25.4 40.416 25.2213333 40.416 25.008 40.416 24.816 40.32 24.672 40.128 24.576 39.936 24.48 39.6213333 24.3786667 39.184 24.272 38.6826667 24.144 38.288 24.0213333 38 23.904 37.3173333 23.6693333 36.7733333 23.3813333 36.368 23.04 35.9626667 22.6986667 35.76 22.208 35.76 21.568 35.76 20.7786667 36.0666667 20.152 36.68 19.688 37.2933333 19.224 38.1066667 18.992 39.12 18.992 39.8026667 18.992 40.4 19.1013333 40.912 19.32 41.424 19.5386667 41.8213333 19.8453333 42.104 20.24 42.3866667 20.6346667 42.528 21.0826667 42.528 21.584 42.528 21.6373333 42.5093333 21.6826667 42.472 21.72 42.4346667 21.7573333 42.3893333 21.776 42.336 21.776L40.624 21.776C40.5706667 21.776 40.5253333 21.7573333 40.488 21.72 40.4506667 21.6826667 40.432 21.6373333 40.432 21.584 40.432 21.3493333 40.312 21.152 40.072 20.992 39.832 20.832 39.5146667 20.752 39.12 20.752 38.768 20.752 38.48 20.816 38.256 20.944 38.032 21.072 37.92 21.248 37.92 21.472 37.92 21.6853333 38.0293333 21.8453333 38.248 21.952 38.4666667 22.0586667 38.832 22.1706667 39.344 22.288 39.4613333 22.32 39.5946667 22.3546667 39.744 22.392 39.8933333 22.4293333 40.0533333 22.4746667 40.224 22.528 40.9813333 22.752 41.5786667 23.04 42.016 23.392 42.4533333 23.744 42.672 24.256 42.672 24.928 42.672 25.7173333 42.36 26.3333333 41.736 26.776 41.112 27.2186667 40.272 27.44 39.216 27.44ZM47.248 18.976C47.9413333 18.976 48.56 19.096 49.104 19.336 49.648 19.576 50.072 19.904 50.376 20.32 50.68 20.736 50.832 21.2 50.832 21.712L50.832 27.136C50.832 27.1893333 50.8133333 27.2346667 50.776 27.272 50.7386667 27.3093333 50.6933333 27.328 50.64 27.328L48.768 27.328C48.7146667 27.328 48.6693333 27.3093333 48.632 27.272 48.5946667 27.2346667 48.576 27.1893333 48.576 27.136L48.576 26.608C48.576 26.576 48.5653333 26.5546667 48.544 26.544 48.5226667 26.5333333 48.5013333 26.544 48.48 26.576 48.032 27.1626667 47.312 27.456 46.32 27.456 45.488 27.456 44.816 27.2533333 44.304 26.848 43.792 26.4426667 43.536 25.8453333 43.536 25.056 43.536 24.2346667 43.824 23.5973333 44.4 23.144 44.976 22.6906667 45.7973333 22.464 46.864 22.464L48.496 22.464C48.5493333 22.464 48.576 22.4373333 48.576 22.384L48.576 22.032C48.576 21.68 48.4693333 21.4053333 48.256 21.208 48.0426667 21.0106667 47.7226667 20.912 47.296 20.912 46.9653333 20.912 46.6906667 20.9706667 46.472 21.088 46.2533333 21.2053333 46.112 21.3706667 46.048 21.584 46.016 21.7013333 45.9466667 21.7546667 45.84 21.744L43.904 21.488C43.776 21.4666667 43.7173333 21.4186667 43.728 21.344 43.7706667 20.896 43.9493333 20.4906667 44.264 20.128 44.5786667 19.7653333 44.9946667 19.4826667 45.512 19.28 46.0293333 19.0773333 46.608 18.976 47.248 18.976ZM46.928 25.776C47.3866667 25.776 47.776 25.6533333 48.096 25.408 48.416 25.1626667 48.576 24.848 48.576 24.464L48.576 23.888C48.576 23.8346667 48.5493333 23.808 48.496 23.808L47.344 23.808C46.864 23.808 46.488 23.8986667 46.216 24.08 45.944 24.2613333 45.808 24.5173333 45.808 24.848 45.808 25.136 45.9093333 25.3626667 46.112 25.528 46.3146667 25.6933333 46.5866667 25.776 46.928 25.776Z" transform="translate(107.624 63.672)"/><path fill="#273271" fill-rule="nonzero" d="M30.624 11.456C29.7706667 11.456 29.024 11.32 28.384 11.048 27.744 10.776 27.2506667 10.3866667 26.904 9.88 26.5573333 9.37333333 26.384 8.784 26.384 8.112L26.384 7.76C26.384 7.70666667 26.4026667 7.66133333 26.44 7.624 26.4773333 7.58666667 26.5226667 7.568 26.576 7.568L28.4 7.568C28.4533333 7.568 28.4986667 7.58666667 28.536 7.624 28.5733333 7.66133333 28.592 7.70666667 28.592 7.76L28.592 8C28.592 8.42666667 28.7893333 8.78666667 29.184 9.08 29.5786667 9.37333333 30.112 9.52 30.784 9.52 31.3493333 9.52 31.7706667 9.4 32.048 9.16 32.3253333 8.92 32.464 8.624 32.464 8.272 32.464 8.016 32.3786667 7.8 32.208 7.624 32.0373333 7.448 31.8053333 7.29333333 31.512 7.16 31.2186667 7.02666667 30.752 6.84266667 30.112 6.608 29.3973333 6.36266667 28.792 6.112 28.296 5.856 27.8 5.6 27.384 5.25066667 27.048 4.808 26.712 4.36533333 26.544 3.81866667 26.544 3.168 26.544 2.528 26.7093333 1.968 27.04 1.488 27.3706667 1.008 27.8293333.64 28.416.384 29.0026667.128 29.68 0 30.448 0 31.2586667 0 31.9813333.144 32.616.432 33.2506667.72 33.7466667 1.12266667 34.104 1.64 34.4613333 2.15733333 34.64 2.75733333 34.64 3.44L34.64 3.68C34.64 3.73333333 34.6213333 3.77866667 34.584 3.816 34.5466667 3.85333333 34.5013333 3.872 34.448 3.872L32.608 3.872C32.5546667 3.872 32.5093333 3.85333333 32.472 3.816 32.4346667 3.77866667 32.416 3.73333333 32.416 3.68L32.416 3.552C32.416 3.104 32.232 2.72266667 31.864 2.408 31.496 2.09333333 30.992 1.936 30.352 1.936 29.8506667 1.936 29.4586667 2.04266667 29.176 2.256 28.8933333 2.46933333 28.752 2.76266667 28.752 3.136 28.752 3.40266667 28.8346667 3.62666667 29 3.808 29.1653333 3.98933333 29.4106667 4.152 29.736 4.296 30.0613333 4.44 30.5653333 4.63466667 31.248 4.88 32.0053333 5.15733333 32.6 5.40266667 33.032 5.616 33.464 5.82933333 33.8533333 6.14666667 34.2 6.568 34.5466667 6.98933333 34.72 7.536 34.72 8.208 34.72 9.21066667 34.352 10.0026667 33.616 10.584 32.88 11.1653333 31.8826667 11.456 30.624 11.456ZM36.496 11.328C36.4426667 11.328 36.3973333 11.3093333 36.36 11.272 36.3226667 11.2346667 36.304 11.1893333 36.304 11.136L36.304.32C36.304.266666667 36.3226667.221333333 36.36.184 36.3973333.146666667 36.4426667.128 36.496.128L38.368.128C38.4213333.128 38.4666667.146666667 38.504.184 38.5413333.221333333 38.56.266666667 38.56.32L38.56 11.136C38.56 11.1893333 38.5413333 11.2346667 38.504 11.272 38.4666667 11.3093333 38.4213333 11.328 38.368 11.328L36.496 11.328ZM46.944.32C46.944.266666667 46.9626667.221333333 47 .184 47.0373333.146666667 47.0826667.128 47.136.128L49.008.128C49.0613333.128 49.1066667.146666667 49.144.184 49.1813333.221333333 49.2.266666667 49.2.32L49.2 11.136C49.2 11.1893333 49.1813333 11.2346667 49.144 11.272 49.1066667 11.3093333 49.0613333 11.328 49.008 11.328L47.2 11.328C47.0933333 11.328 47.0186667 11.2853333 46.976 11.2L42.832 4.352C42.8106667 4.32 42.7893333 4.30666667 42.768 4.312 42.7466667 4.31733333 42.736 4.34133333 42.736 4.384L42.768 11.136C42.768 11.1893333 42.7493333 11.2346667 42.712 11.272 42.6746667 11.3093333 42.6293333 11.328 42.576 11.328L40.704 11.328C40.6506667 11.328 40.6053333 11.3093333 40.568 11.272 40.5306667 11.2346667 40.512 11.1893333 40.512 11.136L40.512.32C40.512.266666667 40.5306667.221333333 40.568.184 40.6053333.146666667 40.6506667.128 40.704.128L42.512.128C42.6186667.128 42.6933333.170666667 42.736.256L46.864 7.072C46.8853333 7.104 46.9066667 7.11733333 46.928 7.112 46.9493333 7.10666667 46.96 7.08266667 46.96 7.04L46.944.32ZM4.192 27.456C3.33866667 27.456 2.6 27.2426667 1.976 26.816 1.352 26.3893333.906666667 25.8026667.64 25.056.458666667 24.5226667.368 23.8933333.368 23.168.368 22.4533333.458666667 21.8346667.64 21.312.896 20.5866667 1.33866667 20.016 1.968 19.6 2.59733333 19.184 3.33866667 18.976 4.192 18.976 5.04533333 18.976 5.79466667 19.1893333 6.44 19.616 7.08533333 20.0426667 7.51466667 20.5813333 7.728 21.232 7.81333333 21.488 7.856 21.68 7.856 21.808L7.856 21.84C7.856 21.936 7.80266667 21.9946667 7.696 22.016L5.856 22.288 5.824 22.288C5.728 22.288 5.664 22.2346667 5.632 22.128L5.584 21.872C5.50933333 21.5946667 5.344 21.3653333 5.088 21.184 4.832 21.0026667 4.528 20.912 4.176 20.912 3.83466667 20.912 3.54666667 20.9973333 3.312 21.168 3.07733333 21.3386667 2.912 21.5733333 2.816 21.872 2.69866667 22.192 2.64 22.6293333 2.64 23.184 2.64 23.7386667 2.69333333 24.176 2.8 24.496 2.896 24.816 3.064 25.0666667 3.304 25.248 3.544 25.4293333 3.83466667 25.52 4.176 25.52 4.50666667 25.52 4.79733333 25.432 5.048 25.256 5.29866667 25.08 5.472 24.8373333 5.568 24.528 5.57866667 24.5066667 5.584 24.4746667 5.584 24.432 5.59466667 24.4213333 5.6 24.4053333 5.6 24.384 5.61066667 24.256 5.68533333 24.2026667 5.824 24.224L7.664 24.512C7.77066667 24.5333333 7.824 24.592 7.824 24.688 7.824 24.7733333 7.792 24.9333333 7.728 25.168 7.504 25.8826667 7.06933333 26.4426667 6.424 26.848 5.77866667 27.2533333 5.03466667 27.456 4.192 27.456ZM12.8 27.456C11.904 27.456 11.136 27.2213333 10.496 26.752 9.856 26.2826667 9.41866667 25.6426667 9.184 24.832 9.03466667 24.3306667 8.96 23.7866667 8.96 23.2 8.96 22.5706667 9.03466667 22.0053333 9.184 21.504 9.42933333 20.7146667 9.872 20.096 10.512 19.648 11.152 19.2 11.92 18.976 12.816 18.976 13.6906667 18.976 14.4373333 19.1973333 15.056 19.64 15.6746667 20.0826667 16.112 20.6986667 16.368 21.488 16.5386667 22.0213333 16.624 22.5813333 16.624 23.168 16.624 23.744 16.5493333 24.2826667 16.4 24.784 16.1653333 25.616 15.7306667 26.2693333 15.096 26.744 14.4613333 27.2186667 13.696 27.456 12.8 27.456ZM12.8 25.52C13.152 25.52 13.4506667 25.4133333 13.696 25.2 13.9413333 24.9866667 14.1173333 24.6933333 14.224 24.32 14.3093333 23.9786667 14.352 23.6053333 14.352 23.2 14.352 22.752 14.3093333 22.3733333 14.224 22.064 14.1066667 21.7013333 13.9253333 21.4186667 13.68 21.216 13.4346667 21.0133333 13.136 20.912 12.784 20.912 12.4213333 20.912 12.12 21.0133333 11.88 21.216 11.64 21.4186667 11.4666667 21.7013333 11.36 22.064 11.2746667 22.32 11.232 22.6986667 11.232 23.2 11.232 23.68 11.2693333 24.0533333 11.344 24.32 11.4506667 24.6933333 11.6293333 24.9866667 11.88 25.2 12.1306667 25.4133333 12.4373333 25.52 12.8 25.52ZM18.272 27.328C18.2186667 27.328 18.1733333 27.3093333 18.136 27.272 18.0986667 27.2346667 18.08 27.1893333 18.08 27.136L18.08 16.32C18.08 16.2666667 18.0986667 16.2213333 18.136 16.184 18.1733333 16.1466667 18.2186667 16.128 18.272 16.128L20.144 16.128C20.1973333 16.128 20.2426667 16.1466667 20.28 16.184 20.3173333 16.2213333 20.336 16.2666667 20.336 16.32L20.336 27.136C20.336 27.1893333 20.3173333 27.2346667 20.28 27.272 20.2426667 27.3093333 20.1973333 27.328 20.144 27.328L18.272 27.328ZM25.616 27.456C24.72 27.456 23.952 27.2213333 23.312 26.752 22.672 26.2826667 22.2346667 25.6426667 22 24.832 21.8506667 24.3306667 21.776 23.7866667 21.776 23.2 21.776 22.5706667 21.8506667 22.0053333 22 21.504 22.2453333 20.7146667 22.688 20.096 23.328 19.648 23.968 19.2 24.736 18.976 25.632 18.976 26.5066667 18.976 27.2533333 19.1973333 27.872 19.64 28.4906667 20.0826667 28.928 20.6986667 29.184 21.488 29.3546667 22.0213333 29.44 22.5813333 29.44 23.168 29.44 23.744 29.3653333 24.2826667 29.216 24.784 28.9813333 25.616 28.5466667 26.2693333 27.912 26.744 27.2773333 27.2186667 26.512 27.456 25.616 27.456ZM25.616 25.52C25.968 25.52 26.2666667 25.4133333 26.512 25.2 26.7573333 24.9866667 26.9333333 24.6933333 27.04 24.32 27.1253333 23.9786667 27.168 23.6053333 27.168 23.2 27.168 22.752 27.1253333 22.3733333 27.04 22.064 26.9226667 21.7013333 26.7413333 21.4186667 26.496 21.216 26.2506667 21.0133333 25.952 20.912 25.6 20.912 25.2373333 20.912 24.936 21.0133333 24.696 21.216 24.456 21.4186667 24.2826667 21.7013333 24.176 22.064 24.0906667 22.32 24.048 22.6986667 24.048 23.2 24.048 23.68 24.0853333 24.0533333 24.16 24.32 24.2666667 24.6933333 24.4453333 24.9866667 24.696 25.2 24.9466667 25.4133333 25.2533333 25.52 25.616 25.52ZM34.992 18.992C35.376 18.992 35.68 19.0666667 35.904 19.216 35.9893333 19.2586667 36.0213333 19.3386667 36 19.456L35.664 21.28C35.6533333 21.408 35.5786667 21.4453333 35.44 21.392 35.28 21.3386667 35.0933333 21.312 34.88 21.312 34.7946667 21.312 34.6773333 21.3226667 34.528 21.344 34.144 21.376 33.8186667 21.5173333 33.552 21.768 33.2853333 22.0186667 33.152 22.352 33.152 22.768L33.152 27.136C33.152 27.1893333 33.1333333 27.2346667 33.096 27.272 33.0586667 27.3093333 33.0133333 27.328 32.96 27.328L31.088 27.328C31.0346667 27.328 30.9893333 27.3093333 30.952 27.272 30.9146667 27.2346667 30.896 27.1893333 30.896 27.136L30.896 19.296C30.896 19.2426667 30.9146667 19.1973333 30.952 19.16 30.9893333 19.1226667 31.0346667 19.104 31.088 19.104L32.96 19.104C33.0133333 19.104 33.0586667 19.1226667 33.096 19.16 33.1333333 19.1973333 33.152 19.2426667 33.152 19.296L33.152 19.904C33.152 19.936 33.1626667 19.9573333 33.184 19.968 33.2053333 19.9786667 33.2213333 19.9733333 33.232 19.952 33.6693333 19.312 34.256 18.992 34.992 18.992ZM40.304 18.976C40.9973333 18.976 41.616 19.096 42.16 19.336 42.704 19.576 43.128 19.904 43.432 20.32 43.736 20.736 43.888 21.2 43.888 21.712L43.888 27.136C43.888 27.1893333 43.8693333 27.2346667 43.832 27.272 43.7946667 27.3093333 43.7493333 27.328 43.696 27.328L41.824 27.328C41.7706667 27.328 41.7253333 27.3093333 41.688 27.272 41.6506667 27.2346667 41.632 27.1893333 41.632 27.136L41.632 26.608C41.632 26.576 41.6213333 26.5546667 41.6 26.544 41.5786667 26.5333333 41.5573333 26.544 41.536 26.576 41.088 27.1626667 40.368 27.456 39.376 27.456 38.544 27.456 37.872 27.2533333 37.36 26.848 36.848 26.4426667 36.592 25.8453333 36.592 25.056 36.592 24.2346667 36.88 23.5973333 37.456 23.144 38.032 22.6906667 38.8533333 22.464 39.92 22.464L41.552 22.464C41.6053333 22.464 41.632 22.4373333 41.632 22.384L41.632 22.032C41.632 21.68 41.5253333 21.4053333 41.312 21.208 41.0986667 21.0106667 40.7786667 20.912 40.352 20.912 40.0213333 20.912 39.7466667 20.9706667 39.528 21.088 39.3093333 21.2053333 39.168 21.3706667 39.104 21.584 39.072 21.7013333 39.0026667 21.7546667 38.896 21.744L36.96 21.488C36.832 21.4666667 36.7733333 21.4186667 36.784 21.344 36.8266667 20.896 37.0053333 20.4906667 37.32 20.128 37.6346667 19.7653333 38.0506667 19.4826667 38.568 19.28 39.0853333 19.0773333 39.664 18.976 40.304 18.976ZM39.984 25.776C40.4426667 25.776 40.832 25.6533333 41.152 25.408 41.472 25.1626667 41.632 24.848 41.632 24.464L41.632 23.888C41.632 23.8346667 41.6053333 23.808 41.552 23.808L40.4 23.808C39.92 23.808 39.544 23.8986667 39.272 24.08 39 24.2613333 38.864 24.5173333 38.864 24.848 38.864 25.136 38.9653333 25.3626667 39.168 25.528 39.3706667 25.6933333 39.6426667 25.776 39.984 25.776ZM49.76 18.976C50.6133333 18.976 51.3013333 19.2373333 51.824 19.76 52.3466667 20.2826667 52.608 20.992 52.608 21.888L52.608 27.136C52.608 27.1893333 52.5893333 27.2346667 52.552 27.272 52.5146667 27.3093333 52.4693333 27.328 52.416 27.328L50.544 27.328C50.4906667 27.328 50.4453333 27.3093333 50.408 27.272 50.3706667 27.2346667 50.352 27.1893333 50.352 27.136L50.352 22.352C50.352 21.9253333 50.232 21.5786667 49.992 21.312 49.752 21.0453333 49.4346667 20.912 49.04 20.912 48.6453333 20.912 48.328 21.0453333 48.088 21.312 47.848 21.5786667 47.728 21.9253333 47.728 22.352L47.728 27.136C47.728 27.1893333 47.7093333 27.2346667 47.672 27.272 47.6346667 27.3093333 47.5893333 27.328 47.536 27.328L45.664 27.328C45.6106667 27.328 45.5653333 27.3093333 45.528 27.272 45.4906667 27.2346667 45.472 27.1893333 45.472 27.136L45.472 19.296C45.472 19.2426667 45.4906667 19.1973333 45.528 19.16 45.5653333 19.1226667 45.6106667 19.104 45.664 19.104L47.536 19.104C47.5893333 19.104 47.6346667 19.1226667 47.672 19.16 47.7093333 19.1973333 47.728 19.2426667 47.728 19.296L47.728 19.856C47.728 19.888 47.7386667 19.9093333 47.76 19.92 47.7813333 19.9306667 47.7973333 19.9253333 47.808 19.904 48.2453333 19.2853333 48.896 18.976 49.76 18.976ZM58.944 20.72C58.944 20.7733333 58.9253333 20.8186667 58.888 20.856 58.8506667 20.8933333 58.8053333 20.912 58.752 20.912L57.216 20.912C57.1626667 20.912 57.136 20.9386667 57.136 20.992L57.136 24.384C57.136 24.736 57.208 24.9973333 57.352 25.168 57.496 25.3386667 57.728 25.424 58.048 25.424L58.576 25.424C58.6293333 25.424 58.6746667 25.4426667 58.712 25.48 58.7493333 25.5173333 58.768 25.5626667 58.768 25.616L58.768 27.136C58.768 27.2533333 58.704 27.3226667 58.576 27.344 58.128 27.3653333 57.808 27.376 57.616 27.376 56.7306667 27.376 56.0693333 27.2293333 55.632 26.936 55.1946667 26.6426667 54.9706667 26.0906667 54.96 25.28L54.96 20.992C54.96 20.9386667 54.9333333 20.912 54.88 20.912L53.968 20.912C53.9146667 20.912 53.8693333 20.8933333 53.832 20.856 53.7946667 20.8186667 53.776 20.7733333 53.776 20.72L53.776 19.296C53.776 19.2426667 53.7946667 19.1973333 53.832 19.16 53.8693333 19.1226667 53.9146667 19.104 53.968 19.104L54.88 19.104C54.9333333 19.104 54.96 19.0773333 54.96 19.024L54.96 17.12C54.96 17.0666667 54.9786667 17.0213333 55.016 16.984 55.0533333 16.9466667 55.0986667 16.928 55.152 16.928L56.944 16.928C56.9973333 16.928 57.0426667 16.9466667 57.08 16.984 57.1173333 17.0213333 57.136 17.0666667 57.136 17.12L57.136 19.024C57.136 19.0773333 57.1626667 19.104 57.216 19.104L58.752 19.104C58.8053333 19.104 58.8506667 19.1226667 58.888 19.16 58.9253333 19.1973333 58.944 19.2426667 58.944 19.296L58.944 20.72ZM67.584 22.368C67.648 22.7733333 67.6693333 23.2266667 67.648 23.728 67.6373333 23.856 67.568 23.92 67.44 23.92L62.496 23.92C62.432 23.92 62.4106667 23.9466667 62.432 24 62.464 24.2133333 62.5226667 24.4266667 62.608 24.64 62.8853333 25.2373333 63.4506667 25.536 64.304 25.536 64.9866667 25.5253333 65.5253333 25.248 65.92 24.704 65.9626667 24.64 66.0106667 24.608 66.064 24.608 66.096 24.608 66.1333333 24.6293333 66.176 24.672L67.328 25.808C67.3813333 25.8613333 67.408 25.9093333 67.408 25.952 67.408 25.9733333 67.3866667 26.016 67.344 26.08 66.992 26.5173333 66.5386667 26.856 65.984 27.096 65.4293333 27.336 64.8213333 27.456 64.16 27.456 63.2426667 27.456 62.4666667 27.248 61.832 26.832 61.1973333 26.416 60.7413333 25.8346667 60.464 25.088 60.24 24.5546667 60.128 23.856 60.128 22.992 60.128 22.4053333 60.208 21.888 60.368 21.44 60.6133333 20.6826667 61.0426667 20.08 61.656 19.632 62.2693333 19.184 62.9973333 18.96 63.84 18.96 64.9066667 18.96 65.7626667 19.2693333 66.408 19.888 67.0533333 20.5066667 67.4453333 21.3333333 67.584 22.368ZM63.856 20.912C63.184 20.912 62.7413333 21.2266667 62.528 21.856 62.4853333 21.9946667 62.448 22.1653333 62.416 22.368 62.416 22.4213333 62.4426667 22.448 62.496 22.448L65.264 22.448C65.328 22.448 65.3493333 22.4213333 65.328 22.368 65.2746667 22.0586667 65.248 21.9093333 65.248 21.92 65.152 21.6 64.984 21.352 64.744 21.176 64.504 21 64.208 20.912 63.856 20.912ZM72.32 27.44C71.6053333 27.44 70.9813333 27.3386667 70.448 27.136 69.9146667 26.9333333 69.5013333 26.6506667 69.208 26.288 68.9146667 25.9253333 68.768 25.5146667 68.768 25.056L68.768 24.896C68.768 24.8426667 68.7866667 24.7973333 68.824 24.76 68.8613333 24.7226667 68.9066667 24.704 68.96 24.704L70.736 24.704C70.7893333 24.704 70.8346667 24.7226667 70.872 24.76 70.9093333 24.7973333 70.928 24.8426667 70.928 24.896L70.928 24.912C70.928 25.1466667 71.0586667 25.3466667 71.32 25.512 71.5813333 25.6773333 71.9093333 25.76 72.304 25.76 72.6666667 25.76 72.96 25.688 73.184 25.544 73.408 25.4 73.52 25.2213333 73.52 25.008 73.52 24.816 73.424 24.672 73.232 24.576 73.04 24.48 72.7253333 24.3786667 72.288 24.272 71.7866667 24.144 71.392 24.0213333 71.104 23.904 70.4213333 23.6693333 69.8773333 23.3813333 69.472 23.04 69.0666667 22.6986667 68.864 22.208 68.864 21.568 68.864 20.7786667 69.1706667 20.152 69.784 19.688 70.3973333 19.224 71.2106667 18.992 72.224 18.992 72.9066667 18.992 73.504 19.1013333 74.016 19.32 74.528 19.5386667 74.9253333 19.8453333 75.208 20.24 75.4906667 20.6346667 75.632 21.0826667 75.632 21.584 75.632 21.6373333 75.6133333 21.6826667 75.576 21.72 75.5386667 21.7573333 75.4933333 21.776 75.44 21.776L73.728 21.776C73.6746667 21.776 73.6293333 21.7573333 73.592 21.72 73.5546667 21.6826667 73.536 21.6373333 73.536 21.584 73.536 21.3493333 73.416 21.152 73.176 20.992 72.936 20.832 72.6186667 20.752 72.224 20.752 71.872 20.752 71.584 20.816 71.36 20.944 71.136 21.072 71.024 21.248 71.024 21.472 71.024 21.6853333 71.1333333 21.8453333 71.352 21.952 71.5706667 22.0586667 71.936 22.1706667 72.448 22.288 72.5653333 22.32 72.6986667 22.3546667 72.848 22.392 72.9973333 22.4293333 73.1573333 22.4746667 73.328 22.528 74.0853333 22.752 74.6826667 23.04 75.12 23.392 75.5573333 23.744 75.776 24.256 75.776 24.928 75.776 25.7173333 75.464 26.3333333 74.84 26.776 74.216 27.2186667 73.376 27.44 72.32 27.44ZM3.712 34.976C4.40533333 34.976 5.024 35.096 5.568 35.336 6.112 35.576 6.536 35.904 6.84 36.32 7.144 36.736 7.296 37.2 7.296 37.712L7.296 43.136C7.296 43.1893333 7.27733333 43.2346667 7.24 43.272 7.20266667 43.3093333 7.15733333 43.328 7.104 43.328L5.232 43.328C5.17866667 43.328 5.13333333 43.3093333 5.096 43.272 5.05866667 43.2346667 5.04 43.1893333 5.04 43.136L5.04 42.608C5.04 42.576 5.02933333 42.5546667 5.008 42.544 4.98666667 42.5333333 4.96533333 42.544 4.944 42.576 4.496 43.1626667 3.776 43.456 2.784 43.456 1.952 43.456 1.28 43.2533333.768 42.848.256 42.4426667 5.68434189e-14 41.8453333 5.68434189e-14 41.056 5.68434189e-14 40.2346667.288 39.5973333.864 39.144 1.44 38.6906667 2.26133333 38.464 3.328 38.464L4.96 38.464C5.01333333 38.464 5.04 38.4373333 5.04 38.384L5.04 38.032C5.04 37.68 4.93333333 37.4053333 4.72 37.208 4.50666667 37.0106667 4.18666667 36.912 3.76 36.912 3.42933333 36.912 3.15466667 36.9706667 2.936 37.088 2.71733333 37.2053333 2.576 37.3706667 2.512 37.584 2.48 37.7013333 2.41066667 37.7546667 2.304 37.744L.368 37.488C.24 37.4666667.181333333 37.4186667.192 37.344.234666667 36.896.413333333 36.4906667.728 36.128 1.04266667 35.7653333 1.45866667 35.4826667 1.976 35.28 2.49333333 35.0773333 3.072 34.976 3.712 34.976ZM3.392 41.776C3.85066667 41.776 4.24 41.6533333 4.56 41.408 4.88 41.1626667 5.04 40.848 5.04 40.464L5.04 39.888C5.04 39.8346667 5.01333333 39.808 4.96 39.808L3.808 39.808C3.328 39.808 2.952 39.8986667 2.68 40.08 2.408 40.2613333 2.272 40.5173333 2.272 40.848 2.272 41.136 2.37333333 41.3626667 2.576 41.528 2.77866667 41.6933333 3.05066667 41.776 3.392 41.776ZM12.976 34.992C13.36 34.992 13.664 35.0666667 13.888 35.216 13.9733333 35.2586667 14.0053333 35.3386667 13.984 35.456L13.648 37.28C13.6373333 37.408 13.5626667 37.4453333 13.424 37.392 13.264 37.3386667 13.0773333 37.312 12.864 37.312 12.7786667 37.312 12.6613333 37.3226667 12.512 37.344 12.128 37.376 11.8026667 37.5173333 11.536 37.768 11.2693333 38.0186667 11.136 38.352 11.136 38.768L11.136 43.136C11.136 43.1893333 11.1173333 43.2346667 11.08 43.272 11.0426667 43.3093333 10.9973333 43.328 10.944 43.328L9.072 43.328C9.01866667 43.328 8.97333333 43.3093333 8.936 43.272 8.89866667 43.2346667 8.88 43.1893333 8.88 43.136L8.88 35.296C8.88 35.2426667 8.89866667 35.1973333 8.936 35.16 8.97333333 35.1226667 9.01866667 35.104 9.072 35.104L10.944 35.104C10.9973333 35.104 11.0426667 35.1226667 11.08 35.16 11.1173333 35.1973333 11.136 35.2426667 11.136 35.296L11.136 35.904C11.136 35.936 11.1466667 35.9573333 11.168 35.968 11.1893333 35.9786667 11.2053333 35.9733333 11.216 35.952 11.6533333 35.312 12.24 34.992 12.976 34.992ZM19.728 36.72C19.728 36.7733333 19.7093333 36.8186667 19.672 36.856 19.6346667 36.8933333 19.5893333 36.912 19.536 36.912L18 36.912C17.9466667 36.912 17.92 36.9386667 17.92 36.992L17.92 40.384C17.92 40.736 17.992 40.9973333 18.136 41.168 18.28 41.3386667 18.512 41.424 18.832 41.424L19.36 41.424C19.4133333 41.424 19.4586667 41.4426667 19.496 41.48 19.5333333 41.5173333 19.552 41.5626667 19.552 41.616L19.552 43.136C19.552 43.2533333 19.488 43.3226667 19.36 43.344 18.912 43.3653333 18.592 43.376 18.4 43.376 17.5146667 43.376 16.8533333 43.2293333 16.416 42.936 15.9786667 42.6426667 15.7546667 42.0906667 15.744 41.28L15.744 36.992C15.744 36.9386667 15.7173333 36.912 15.664 36.912L14.752 36.912C14.6986667 36.912 14.6533333 36.8933333 14.616 36.856 14.5786667 36.8186667 14.56 36.7733333 14.56 36.72L14.56 35.296C14.56 35.2426667 14.5786667 35.1973333 14.616 35.16 14.6533333 35.1226667 14.6986667 35.104 14.752 35.104L15.664 35.104C15.7173333 35.104 15.744 35.0773333 15.744 35.024L15.744 33.12C15.744 33.0666667 15.7626667 33.0213333 15.8 32.984 15.8373333 32.9466667 15.8826667 32.928 15.936 32.928L17.728 32.928C17.7813333 32.928 17.8266667 32.9466667 17.864 32.984 17.9013333 33.0213333 17.92 33.0666667 17.92 33.12L17.92 35.024C17.92 35.0773333 17.9466667 35.104 18 35.104L19.536 35.104C19.5893333 35.104 19.6346667 35.1226667 19.672 35.16 19.7093333 35.1973333 19.728 35.2426667 19.728 35.296L19.728 36.72ZM22.304 34.176C21.9413333 34.176 21.64 34.056 21.4 33.816 21.16 33.576 21.04 33.2746667 21.04 32.912 21.04 32.5386667 21.1573333 32.2346667 21.392 32 21.6266667 31.7653333 21.9306667 31.648 22.304 31.648 22.6773333 31.648 22.9813333 31.7653333 23.216 32 23.4506667 32.2346667 23.568 32.5386667 23.568 32.912 23.568 33.2746667 23.448 33.576 23.208 33.816 22.968 34.056 22.6666667 34.176 22.304 34.176ZM21.344 43.328C21.2906667 43.328 21.2453333 43.3093333 21.208 43.272 21.1706667 43.2346667 21.152 43.1893333 21.152 43.136L21.152 35.28C21.152 35.2266667 21.1706667 35.1813333 21.208 35.144 21.2453333 35.1066667 21.2906667 35.088 21.344 35.088L23.216 35.088C23.2693333 35.088 23.3146667 35.1066667 23.352 35.144 23.3893333 35.1813333 23.408 35.2266667 23.408 35.28L23.408 43.136C23.408 43.1893333 23.3893333 43.2346667 23.352 43.272 23.3146667 43.3093333 23.2693333 43.328 23.216 43.328L21.344 43.328ZM29.856 35.088C29.9093333 35.088 29.9546667 35.1066667 29.992 35.144 30.0293333 35.1813333 30.048 35.2266667 30.048 35.28L30.048 36.8C30.048 36.8533333 30.0293333 36.8986667 29.992 36.936 29.9546667 36.9733333 29.9093333 36.992 29.856 36.992L28.304 36.992C28.2506667 36.992 28.224 37.0186667 28.224 37.072L28.224 43.136C28.224 43.1893333 28.2053333 43.2346667 28.168 43.272 28.1306667 43.3093333 28.0853333 43.328 28.032 43.328L26.16 43.328C26.1066667 43.328 26.0613333 43.3093333 26.024 43.272 25.9866667 43.2346667 25.968 43.1893333 25.968 43.136L25.968 37.072C25.968 37.0186667 25.9413333 36.992 25.888 36.992L24.944 36.992C24.8906667 36.992 24.8453333 36.9733333 24.808 36.936 24.7706667 36.8986667 24.752 36.8533333 24.752 36.8L24.752 35.28C24.752 35.2266667 24.7706667 35.1813333 24.808 35.144 24.8453333 35.1066667 24.8906667 35.088 24.944 35.088L25.888 35.088C25.9413333 35.088 25.968 35.0613333 25.968 35.008L25.968 34.656C25.968 33.9946667 26.0693333 33.48 26.272 33.112 26.4746667 32.744 26.8026667 32.4826667 27.256 32.328 27.7093333 32.1733333 28.336 32.1066667 29.136 32.128L29.744 32.128C29.7973333 32.128 29.8426667 32.1466667 29.88 32.184 29.9173333 32.2213333 29.936 32.2666667 29.936 32.32L29.936 33.616C29.936 33.6693333 29.9173333 33.7146667 29.88 33.752 29.8426667 33.7893333 29.7973333 33.808 29.744 33.808L29.216 33.808C28.8426667 33.8186667 28.584 33.896 28.44 34.04 28.296 34.184 28.224 34.448 28.224 34.832L28.224 35.008C28.224 35.0613333 28.2506667 35.088 28.304 35.088L29.856 35.088ZM32.576 34.176C32.2133333 34.176 31.912 34.056 31.672 33.816 31.432 33.576 31.312 33.2746667 31.312 32.912 31.312 32.5386667 31.4293333 32.2346667 31.664 32 31.8986667 31.7653333 32.2026667 31.648 32.576 31.648 32.9493333 31.648 33.2533333 31.7653333 33.488 32 33.7226667 32.2346667 33.84 32.5386667 33.84 32.912 33.84 33.2746667 33.72 33.576 33.48 33.816 33.24 34.056 32.9386667 34.176 32.576 34.176ZM31.616 43.328C31.5626667 43.328 31.5173333 43.3093333 31.48 43.272 31.4426667 43.2346667 31.424 43.1893333 31.424 43.136L31.424 35.28C31.424 35.2266667 31.4426667 35.1813333 31.48 35.144 31.5173333 35.1066667 31.5626667 35.088 31.616 35.088L33.488 35.088C33.5413333 35.088 33.5866667 35.1066667 33.624 35.144 33.6613333 35.1813333 33.68 35.2266667 33.68 35.28L33.68 43.136C33.68 43.1893333 33.6613333 43.2346667 33.624 43.272 33.5866667 43.3093333 33.5413333 43.328 33.488 43.328L31.616 43.328ZM39.04 43.456C38.1866667 43.456 37.448 43.2426667 36.824 42.816 36.2 42.3893333 35.7546667 41.8026667 35.488 41.056 35.3066667 40.5226667 35.216 39.8933333 35.216 39.168 35.216 38.4533333 35.3066667 37.8346667 35.488 37.312 35.744 36.5866667 36.1866667 36.016 36.816 35.6 37.4453333 35.184 38.1866667 34.976 39.04 34.976 39.8933333 34.976 40.6426667 35.1893333 41.288 35.616 41.9333333 36.0426667 42.3626667 36.5813333 42.576 37.232 42.6613333 37.488 42.704 37.68 42.704 37.808L42.704 37.84C42.704 37.936 42.6506667 37.9946667 42.544 38.016L40.704 38.288 40.672 38.288C40.576 38.288 40.512 38.2346667 40.48 38.128L40.432 37.872C40.3573333 37.5946667 40.192 37.3653333 39.936 37.184 39.68 37.0026667 39.376 36.912 39.024 36.912 38.6826667 36.912 38.3946667 36.9973333 38.16 37.168 37.9253333 37.3386667 37.76 37.5733333 37.664 37.872 37.5466667 38.192 37.488 38.6293333 37.488 39.184 37.488 39.7386667 37.5413333 40.176 37.648 40.496 37.744 40.816 37.912 41.0666667 38.152 41.248 38.392 41.4293333 38.6826667 41.52 39.024 41.52 39.3546667 41.52 39.6453333 41.432 39.896 41.256 40.1466667 41.08 40.32 40.8373333 40.416 40.528 40.4266667 40.5066667 40.432 40.4746667 40.432 40.432 40.4426667 40.4213333 40.448 40.4053333 40.448 40.384 40.4586667 40.256 40.5333333 40.2026667 40.672 40.224L42.512 40.512C42.6186667 40.5333333 42.672 40.592 42.672 40.688 42.672 40.7733333 42.64 40.9333333 42.576 41.168 42.352 41.8826667 41.9173333 42.4426667 41.272 42.848 40.6266667 43.2533333 39.8826667 43.456 39.04 43.456ZM45.232 34.176C44.8693333 34.176 44.568 34.056 44.328 33.816 44.088 33.576 43.968 33.2746667 43.968 32.912 43.968 32.5386667 44.0853333 32.2346667 44.32 32 44.5546667 31.7653333 44.8586667 31.648 45.232 31.648 45.6053333 31.648 45.9093333 31.7653333 46.144 32 46.3786667 32.2346667 46.496 32.5386667 46.496 32.912 46.496 33.2746667 46.376 33.576 46.136 33.816 45.896 34.056 45.5946667 34.176 45.232 34.176ZM44.272 43.328C44.2186667 43.328 44.1733333 43.3093333 44.136 43.272 44.0986667 43.2346667 44.08 43.1893333 44.08 43.136L44.08 35.28C44.08 35.2266667 44.0986667 35.1813333 44.136 35.144 44.1733333 35.1066667 44.2186667 35.088 44.272 35.088L46.144 35.088C46.1973333 35.088 46.2426667 35.1066667 46.28 35.144 46.3173333 35.1813333 46.336 35.2266667 46.336 35.28L46.336 43.136C46.336 43.1893333 46.3173333 43.2346667 46.28 43.272 46.2426667 43.3093333 46.1973333 43.328 46.144 43.328L44.272 43.328ZM51.376 34.976C52.0693333 34.976 52.688 35.096 53.232 35.336 53.776 35.576 54.2 35.904 54.504 36.32 54.808 36.736 54.96 37.2 54.96 37.712L54.96 43.136C54.96 43.1893333 54.9413333 43.2346667 54.904 43.272 54.8666667 43.3093333 54.8213333 43.328 54.768 43.328L52.896 43.328C52.8426667 43.328 52.7973333 43.3093333 52.76 43.272 52.7226667 43.2346667 52.704 43.1893333 52.704 43.136L52.704 42.608C52.704 42.576 52.6933333 42.5546667 52.672 42.544 52.6506667 42.5333333 52.6293333 42.544 52.608 42.576 52.16 43.1626667 51.44 43.456 50.448 43.456 49.616 43.456 48.944 43.2533333 48.432 42.848 47.92 42.4426667 47.664 41.8453333 47.664 41.056 47.664 40.2346667 47.952 39.5973333 48.528 39.144 49.104 38.6906667 49.9253333 38.464 50.992 38.464L52.624 38.464C52.6773333 38.464 52.704 38.4373333 52.704 38.384L52.704 38.032C52.704 37.68 52.5973333 37.4053333 52.384 37.208 52.1706667 37.0106667 51.8506667 36.912 51.424 36.912 51.0933333 36.912 50.8186667 36.9706667 50.6 37.088 50.3813333 37.2053333 50.24 37.3706667 50.176 37.584 50.144 37.7013333 50.0746667 37.7546667 49.968 37.744L48.032 37.488C47.904 37.4666667 47.8453333 37.4186667 47.856 37.344 47.8986667 36.896 48.0773333 36.4906667 48.392 36.128 48.7066667 35.7653333 49.1226667 35.4826667 49.64 35.28 50.1573333 35.0773333 50.736 34.976 51.376 34.976ZM51.056 41.776C51.5146667 41.776 51.904 41.6533333 52.224 41.408 52.544 41.1626667 52.704 40.848 52.704 40.464L52.704 39.888C52.704 39.8346667 52.6773333 39.808 52.624 39.808L51.472 39.808C50.992 39.808 50.616 39.8986667 50.344 40.08 50.072 40.2613333 49.936 40.5173333 49.936 40.848 49.936 41.136 50.0373333 41.3626667 50.24 41.528 50.4426667 41.6933333 50.7146667 41.776 51.056 41.776ZM56.736 43.328C56.6826667 43.328 56.6373333 43.3093333 56.6 43.272 56.5626667 43.2346667 56.544 43.1893333 56.544 43.136L56.544 32.32C56.544 32.2666667 56.5626667 32.2213333 56.6 32.184 56.6373333 32.1466667 56.6826667 32.128 56.736 32.128L58.608 32.128C58.6613333 32.128 58.7066667 32.1466667 58.744 32.184 58.7813333 32.2213333 58.8 32.2666667 58.8 32.32L58.8 43.136C58.8 43.1893333 58.7813333 43.2346667 58.744 43.272 58.7066667 43.3093333 58.6613333 43.328 58.608 43.328L56.736 43.328ZM67.728 38.368C67.792 38.7733333 67.8133333 39.2266667 67.792 39.728 67.7813333 39.856 67.712 39.92 67.584 39.92L62.64 39.92C62.576 39.92 62.5546667 39.9466667 62.576 40 62.608 40.2133333 62.6666667 40.4266667 62.752 40.64 63.0293333 41.2373333 63.5946667 41.536 64.448 41.536 65.1306667 41.5253333 65.6693333 41.248 66.064 40.704 66.1066667 40.64 66.1546667 40.608 66.208 40.608 66.24 40.608 66.2773333 40.6293333 66.32 40.672L67.472 41.808C67.5253333 41.8613333 67.552 41.9093333 67.552 41.952 67.552 41.9733333 67.5306667 42.016 67.488 42.08 67.136 42.5173333 66.6826667 42.856 66.128 43.096 65.5733333 43.336 64.9653333 43.456 64.304 43.456 63.3866667 43.456 62.6106667 43.248 61.976 42.832 61.3413333 42.416 60.8853333 41.8346667 60.608 41.088 60.384 40.5546667 60.272 39.856 60.272 38.992 60.272 38.4053333 60.352 37.888 60.512 37.44 60.7573333 36.6826667 61.1866667 36.08 61.8 35.632 62.4133333 35.184 63.1413333 34.96 63.984 34.96 65.0506667 34.96 65.9066667 35.2693333 66.552 35.888 67.1973333 36.5066667 67.5893333 37.3333333 67.728 38.368ZM64 36.912C63.328 36.912 62.8853333 37.2266667 62.672 37.856 62.6293333 37.9946667 62.592 38.1653333 62.56 38.368 62.56 38.4213333 62.5866667 38.448 62.64 38.448L65.408 38.448C65.472 38.448 65.4933333 38.4213333 65.472 38.368 65.4186667 38.0586667 65.392 37.9093333 65.392 37.92 65.296 37.6 65.128 37.352 64.888 37.176 64.648 37 64.352 36.912 64 36.912ZM72.464 43.44C71.7493333 43.44 71.1253333 43.3386667 70.592 43.136 70.0586667 42.9333333 69.6453333 42.6506667 69.352 42.288 69.0586667 41.9253333 68.912 41.5146667 68.912 41.056L68.912 40.896C68.912 40.8426667 68.9306667 40.7973333 68.968 40.76 69.0053333 40.7226667 69.0506667 40.704 69.104 40.704L70.88 40.704C70.9333333 40.704 70.9786667 40.7226667 71.016 40.76 71.0533333 40.7973333 71.072 40.8426667 71.072 40.896L71.072 40.912C71.072 41.1466667 71.2026667 41.3466667 71.464 41.512 71.7253333 41.6773333 72.0533333 41.76 72.448 41.76 72.8106667 41.76 73.104 41.688 73.328 41.544 73.552 41.4 73.664 41.2213333 73.664 41.008 73.664 40.816 73.568 40.672 73.376 40.576 73.184 40.48 72.8693333 40.3786667 72.432 40.272 71.9306667 40.144 71.536 40.0213333 71.248 39.904 70.5653333 39.6693333 70.0213333 39.3813333 69.616 39.04 69.2106667 38.6986667 69.008 38.208 69.008 37.568 69.008 36.7786667 69.3146667 36.152 69.928 35.688 70.5413333 35.224 71.3546667 34.992 72.368 34.992 73.0506667 34.992 73.648 35.1013333 74.16 35.32 74.672 35.5386667 75.0693333 35.8453333 75.352 36.24 75.6346667 36.6346667 75.776 37.0826667 75.776 37.584 75.776 37.6373333 75.7573333 37.6826667 75.72 37.72 75.6826667 37.7573333 75.6373333 37.776 75.584 37.776L73.872 37.776C73.8186667 37.776 73.7733333 37.7573333 73.736 37.72 73.6986667 37.6826667 73.68 37.6373333 73.68 37.584 73.68 37.3493333 73.56 37.152 73.32 36.992 73.08 36.832 72.7626667 36.752 72.368 36.752 72.016 36.752 71.728 36.816 71.504 36.944 71.28 37.072 71.168 37.248 71.168 37.472 71.168 37.6853333 71.2773333 37.8453333 71.496 37.952 71.7146667 38.0586667 72.08 38.1706667 72.592 38.288 72.7093333 38.32 72.8426667 38.3546667 72.992 38.392 73.1413333 38.4293333 73.3013333 38.4746667 73.472 38.528 74.2293333 38.752 74.8266667 39.04 75.264 39.392 75.7013333 39.744 75.92 40.256 75.92 40.928 75.92 41.7173333 75.608 42.3333333 74.984 42.776 74.36 43.2186667 73.52 43.44 72.464 43.44Z" transform="translate(198.008 63.672)"/><g transform="translate(211)"><g transform="translate(13 9)"><mask id="f" fill="#fff"><use xlink:href="#e"/></mask><path fill="#273271" d="M3.96857753,33 C6.15692264,33 7.93745301,31.2214045 7.93745301,29.0339069 C7.93745301,27.3198826 5.55655974,23.7085782 4.62663039,22.3622569 C4.86096558,22.2934801 5.08643686,22.1871886 5.27302608,22.0002109 L6.90417334,20.2428662 L8.68295327,19.4759748 C8.72615556,19.4575524 8.76507487,19.4306818 8.79799799,19.3981543 L12.0900872,16.0574539 C12.0904596,16.0569328 12.0904596,16.0564118 12.0907948,16.0558908 L15.399867,12.7505464 L16.7949286,14.1444681 C17.1021863,14.4515075 17.5107087,14.621291 17.9450407,14.621291 C18.3793727,14.621291 18.7878951,14.4515075 19.095488,14.1444681 L19.3440129,13.8954126 C19.6508982,13.5883732 19.8204672,13.1808854 19.8204672,12.7464898 C19.8204672,12.3135084 19.6512706,11.9046063 19.3443481,11.5975669 L19.3440129,11.5975669 L18.661156,10.9153812 L20.2505534,9.32659183 C20.6261527,8.95304582 20.8863348,8.48042844 21.0027947,7.96255531 L21.128789,7.40366915 C21.2941123,6.67071957 21.8456119,6.08209711 22.5667177,5.86988636 L22.9709571,5.75242983 C23.9136237,5.47367527 24.6562935,4.70395539 24.9093993,3.74320117 C25.1458574,2.84612506 24.9129374,1.9235926 24.2870628,1.276949 C24.2856476,1.27553476 24.2545121,1.24442143 24.2530969,1.24300719 L23.7214107,0.71240588 C23.0746799,0.0870131295 22.1514543,-0.14644847 21.2534053,0.0912558558 C20.291968,0.343102603 19.5224086,1.08595188 19.2448711,2.02828374 L19.1259531,2.43156604 C18.913219,3.15316447 18.3252209,3.70360239 17.5910426,3.86772891 L17.0306791,3.99367089 C16.5128102,4.1110902 16.0409369,4.37145962 15.6664177,4.74500562 L14.0766851,6.33398108 L13.3942006,5.65198142 C12.7793128,5.03790261 11.7077842,5.03790261 11.093604,5.65198142 L10.8451163,5.90099969 C10.5378586,6.20803909 10.368662,6.61556412 10.368662,7.04992254 C10.368662,7.48290393 10.5378586,7.89180598 10.8451163,8.19888261 L12.2408856,9.5934742 L6.28291692,15.546652 C6.28079405,15.5488105 6.28079405,15.5521601 6.27867117,15.5542814 C6.27762836,15.5556957 6.27513306,15.5551746 6.27371781,15.5565889 L5.62698693,16.2527309 C5.59868198,16.28243 5.57603802,16.3178233 5.55972543,16.3560078 L4.78733547,18.1459173 L3.15615096,19.9047135 C2.57526634,20.4848133 2.57526634,21.4300108 3.15615096,22.0101478 C3.23685732,22.0906107 3.33670675,22.1334102 3.42944271,22.1914313 C2.60640178,23.3695322 0,27.2399407 0,29.0339069 C0,31.2214045 1.78023242,33 3.96857753,33 L3.96857753,33 Z M12.7527582,10.1062114 L14.8872867,12.2385163 L11.6816021,15.4405466 L7.41425834,15.4405466 L12.7527582,10.1062114 Z" mask="url(#f)"/></g><mask id="h" fill="#fff"><use xlink:href="#g"/></mask><path fill="#273271" d="M45.7539078,35.4753171 C39.9702624,46.917556 25.955083,51.5225881 14.5065916,45.7358165 C9.20752203,43.0597082 5.23400139,38.5515912 3.1987835,33.0055443 L47.3014237,18.5182944 C48.8864551,23.976805 48.514426,30.0168065 45.7539078,35.4753171 M4.24609225,14.4916267 C7.04725235,8.94557982 11.8398622,4.82824962 17.7423067,2.88994687 C20.1276696,2.10524689 22.581811,1.71446005 25.0234472,1.71446005 C28.6155599,1.71446005 32.1889148,2.55855963 35.4902821,4.22800103 C40.9206561,6.97288783 44.7878827,11.5810463 46.7574484,16.8769896 L2.6641871,31.3611132 C1.04789271,25.7150249 1.57936282,19.7625597 4.24609225,14.4916267 M48.7395192,17.1864928 C46.6574069,10.8432407 42.2274473,5.69423327 36.2718558,2.68361142 C23.9761385,-3.53146256 8.91677662,1.41433575 2.69857634,13.710053 C-0.312045509,19.6656445 -0.821631554,26.4403253 1.26048075,32.7804511 C3.34259306,39.1237031 7.76942644,44.2727106 13.725018,47.2833324 C17.3296358,49.1059623 21.1718521,49.9688196 24.957795,49.9688196 C34.0928283,49.9688196 42.9058532,44.9479903 47.3014237,36.2568908 C50.3120455,30.298173 50.8216316,23.5266186 48.7395192,17.1864928" mask="url(#h)"/></g></g></svg>