<svg xmlns="http://www.w3.org/2000/svg" width="124" height="550" viewBox="0 0 124 550"><g fill="none" fill-rule="evenodd" transform="translate(1 1)"><g stroke="#00A8E2" stroke-linecap="round" stroke-linejoin="round" stroke-width="1.67" transform="translate(41)"><path d="M38 46.847619C38 47.47619 37.4610778 48 36.8143713 48L3.18562874 48C2.53892216 48 2 47.47619 2 46.847619L2 37.838095C2 37.209524 2.43113772 37 3.18562874 37L36.8143713 37C37.6766467 37 38 37.209524 38 37.838095L38 46.847619 38 46.847619ZM38 31.027027C38 31.5675676 37.4610778 32 36.8143713 32 36.8143713 32 25.6047904 32 19.8922156 32 14.2874251 32 3.18562874 32 3.18562874 32 2.53892216 32 2 31.5675676 2 31.027027L2 24.972973C2 24.4324324 2.53892216 24 3.18562874 24L36.8143713 24C37.4610778 24 38 24.4324324 38 24.972973L38 31.027027 38 31.027027ZM38.893733 103.900702C38.893733 106.679704 36.9809264 108.17609 33.8991826 108.924283 33.8991826 108.924283 28.373297 109.779361 19.9782016 109.99313 11.5831063 110.100015 4.99455041 108.924283 4.99455041 108.924283 1.59400545 108.38986 0 106.679704 0 103.900702L0 53.023581C0 50.244579 2.23160763 48 4.99455041 48L34.0054496 48C36.7683924 48 39 50.244579 39 53.023581L39 103.900702 38.893733 103.900702Z"/><line x1="35" x2="4" y1="20.5" y2="20.5"/><polyline points="37 24 35.191 21.146 35.191 6 3.702 6 3.702 21.146 2 24"/><path d="M38,33.2840532 C38,34.5299003 37.7829912,35.568106 35.3958944,35.775748 C32.7917889,36.087209 24.5454545,35.983389 19.3372434,35.983389 C14.1290323,35.983389 6.09970674,35.983389 3.92961877,35.775748 C1.75953079,35.464286 1,34.5299003 1,33.2840532 C1,31 1,31 1,31 L37.8914956,31 C37.8914956,31 38,31.1038206 38,33.2840532 Z"/><polyline points="9 6 14.355 0 24.75 0 30 5.654"/><path d="M38 46.847619C38 47.47619 37.4610778 48 36.8143713 48L3.18562874 48C2.53892216 48 2 47.47619 2 46.847619L2 37.838095C2 37.209524 2.43113772 37 3.18562874 37L36.8143713 37C37.6766467 37 38 37.209524 38 37.838095L38 46.847619 38 46.847619ZM38 31.027027C38 31.5675676 37.4610778 32 36.8143713 32 36.8143713 32 25.6047904 32 19.8922156 32 14.2874251 32 3.18562874 32 3.18562874 32 2.53892216 32 2 31.5675676 2 31.027027L2 24.972973C2 24.4324324 2.53892216 24 3.18562874 24L36.8143713 24C37.4610778 24 38 24.4324324 38 24.972973L38 31.027027 38 31.027027ZM38.893733 103.900702C38.893733 106.679704 36.9809264 108.17609 33.8991826 108.924283 33.8991826 108.924283 28.373297 109.779361 19.9782016 109.99313 11.5831063 110.100015 4.99455041 108.924283 4.99455041 108.924283 1.59400545 108.38986 0 106.679704 0 103.900702L0 53.023581C0 50.244579 2.23160763 48 4.99455041 48L34.0054496 48C36.7683924 48 39 50.244579 39 53.023581L39 103.900702 38.893733 103.900702Z"/><line x1="35" x2="4" y1="20.5" y2="20.5"/><polyline points="37 24 35.191 21.146 35.191 6 3.702 6 3.702 21.146 2 24"/><path d="M38,33.2840532 C38,34.5299003 37.7829912,35.568106 35.3958944,35.775748 C32.7917889,36.087209 24.5454545,35.983389 19.3372434,35.983389 C14.1290323,35.983389 6.09970674,35.983389 3.92961877,35.775748 C1.75953079,35.464286 1,34.5299003 1,33.2840532 C1,31 1,31 1,31 L37.8914956,31 C37.8914956,31 38,31.1038206 38,33.2840532 Z"/><polyline points="9 6 14.355 0 24.75 0 30 5.654"/></g><g stroke="#00A8E2" stroke-linecap="round" stroke-linejoin="round" transform="translate(16 387)"><path stroke-width="1.595" d="M31.5936408,143 C31.5936408,143 30.7654578,145.524115 28.0738618,151.230808 C25.4857898,156.60827 27.8668158,161.107778 32.1112548,160.998034 C36.3556938,160.88829 38.6331978,155.949805 35.6310338,151.01132 C32.4218238,145.41437 31.5936408,143 31.5936408,143 Z"/><path stroke-width="1.67" d="M20.9999998 101.152381C20.9999998 100.52381 21.5389218 100 22.1856288 100L55.8143708 100C56.4610778 100 56.9999998 100.52381 56.9999998 101.152381L56.9999998 110.161905C56.9999998 110.790476 56.5688618 111 55.8143708 111L22.1856288 111C21.3233528 111 20.9999998 110.790476 20.9999998 110.161905L20.9999998 101.152381ZM58.9999998 57.615326 58.9999998 94.969496C58.9999998 97.752328 56.7683918 100 54.0054498 100L24.9945498 100C22.2316078 100 19.9999998 97.752328 19.9999998 94.969496L19.9999998 44.1292933C19.9999998 41.3464612 21.9128068 39.8480131 24.9945498 39.0987891 24.9945498 39.0987891 30.5204358 38.2425331 38.9155308 38.028469 42.4223428 37.921437 45.6103538 38.1355011 48.1607628 38.3495651M20.9999998 114.605578C20.9999998 113.410359 21.2170088 112.414343 23.6041058 112.215139 26.2082108 111.916335 34.4545448 112.015936 39.6627568 112.015936 44.8709678 112.015936 52.9002928 112.015936 55.0703808 112.215139 57.2404688 112.513944 57.9999998 113.410359 57.9999998 114.605578 57.9999998 116 57.9999998 116 57.9999998 116L21.1085038 116C21.1085038 115.900398 20.9999998 115.900398 20.9999998 114.605578Z"/><line x1="34" x2="46" y1="141.5" y2="141.5" stroke-width="1.67"/><polyline stroke-width="1.67" points="46 141 53.2 141 53.2 129.923 55 117"/><polyline stroke-width="1.67" points="24 117 25.205 129.923 25.205 141 32 141"/><polyline stroke-width="1.67" points="46 141 53.2 141 53.2 129.923 55 117"/><polyline stroke-width="1.67" points="24 117 25.205 129.923 25.205 141 32 141"/><path stroke-width="1.67" d="M42.9999998,142 C42.9999998,142 41.2857138,143.779553 40.7142858,144.491374 C40.1428568,145.084558 37.8571428,145.203195 37.1714288,144.610011 C36.4857138,144.016826 34.9999998,142.237274 34.9999998,142.237274"/><line x1="53" x2="26" y1="130.5" y2="130.5" stroke-width="1.67"/><line x1="56" x2="37" y1="124" y2="126" stroke-width="1.67"/><line x1="55" x2="23" y1="121" y2="124" stroke-width="1.67"/><line x1="36" x2="23" y1="120" y2="121" stroke-width="1.67"/><line x1="56" x2="37" y1="124" y2="126" stroke-width="1.67"/><line x1="55" x2="23" y1="121" y2="124" stroke-width="1.67"/><line x1="36" x2="23" y1="120" y2="121" stroke-width="1.67"/><path stroke-width="1.67" d="M19.9999998,62.75 C19.1923078,61.95 16.9999998,62.35 16.9999998,62.35"/><path stroke-width="1.67" d="M32,0 C28.8599748,0.3211587 22.3633718,10.0629723 19.3316238,13.1675063 C16.2998758,16.2720403 2.65700979,31.5806045 0.599752792,35.8627204 C-1.24095121,39.7166247 1.68251979,42.9282116 2.33217979,46.7821159 C2.87356379,50.1007557 5.25565179,62.4118388 6.33841879,64.0176322 C7.96256879,66.4798489 11.2108708,70.5478589 13.5929588,74.8299748 C15.9750458,79.112091 19.4399008,85 19.4399008,85"/><path stroke-width="1.67" d="M19.9999998 49C17.8787878 43.8360656 12.9999998 42 12.9999998 42M21.9999998 40C27.2972968 36.313253 29.3513508 31.4337349 29.9999998 31M54.0953848 23C54.0953848 23 56.5604778 26.1871505 52.3805368 33.4113583 49.0580208 39.0419908 44.9852578 45.6287685 40.4837838 49.5595875 37.2684448 52.3217845 30.9449458 61.7769977 30.1946998 65.3891016 29.4444538 69.0012055 30.8377678 72.9320244 34.8033518 74.8443147 37.8043348 76.3316516 41.9842748 76.43789 43.3775888 74.8443147 46.4857498 71.6571642 47.9862408 69.9573506 50.8800458 66.9826768 54.9528078 62.8393812 58.2753248 57.7399404 62.2409088 52.4280229 68.3500528 44.7788617 76.2812218 40.8480428 76.2812218 40.8480428 76.2812218 40.8480428 84.4267458 37.2359389 89.9999996 32.9864049"/><path stroke-width="1.67" d="M24.9999998 29C24.9999998 29 32.6756758 29 41.2162158 30 46.6216218 31 52.9999998 31 52.9999998 31M19.9999998 62.75C19.1923078 61.95 16.9999998 62.35 16.9999998 62.35"/><path stroke-width="1.67" d="M32,0 C28.8599748,0.3211587 22.3633718,10.0629723 19.3316238,13.1675063 C16.2998758,16.2720403 2.65700979,31.5806045 0.599752792,35.8627204 C-1.24095121,39.7166247 1.68251979,42.9282116 2.33217979,46.7821159 C2.87356379,50.1007557 5.25565179,62.4118388 6.33841879,64.0176322 C7.96256879,66.4798489 11.2108708,70.5478589 13.5929588,74.8299748 C15.9750458,79.112091 19.4399008,85 19.4399008,85"/><path stroke-width="1.67" d="M19.9999998 49C17.8787878 43.8360656 12.9999998 42 12.9999998 42M21.9999998 40C27.2972968 36.313253 29.3513508 31.4337349 29.9999998 31M54.0953848 23C54.0953848 23 56.5604778 26.1871505 52.3805368 33.4113583 49.0580208 39.0419908 44.9852578 45.6287685 40.4837838 49.5595875 37.2684448 52.3217845 30.9449458 61.7769977 30.1946998 65.3891016 29.4444538 69.0012055 30.8377678 72.9320244 34.8033518 74.8443147 37.8043348 76.3316516 41.9842748 76.43789 43.3775888 74.8443147 46.4857498 71.6571642 47.9862408 69.9573506 50.8800458 66.9826768 54.9528078 62.8393812 58.2753248 57.7399404 62.2409088 52.4280229 68.3500528 44.7788617 76.2812218 40.8480428 76.2812218 40.8480428 76.2812218 40.8480428 84.4267458 37.2359389 89.9999996 32.9864049"/><path stroke-width="1.67" d="M24.9999998 29C24.9999998 29 32.6756758 29 41.2162158 30 46.6216218 31 52.9999998 31 52.9999998 31M29.9999998 67.7292218C29.9999998 67.7292218 33.7132288 61.999028 36.0066938 60.2691581 36.9896068 59.5123401 40.7028358 60.377275 43.1055128 62.5396123 44.5252768 63.8370147 46.6003168 65.999352 45.8358288 67.2967544 44.6344898 69.4590917 42.0133868 72.5944808 40.5936228 74M45.9999998 50C45.9999998 50 49.3142858 51.137931 51.5999998 53.1034483 53.7714288 54.7586207 53.9999998 56 53.9999998 56"/></g><g transform="translate(0 146)"><path stroke="#00A8E2" stroke-linecap="round" stroke-linejoin="round" stroke-width="1.67" d="M76,73.027027 C76,73.5675676 75.461078,74 74.814371,74 C74.814371,74 63.60479,74 57.892216,74 C52.287425,74 41.185629,74 41.185629,74 C40.538922,74 40,73.5675676 40,73.027027 L40,66.972973 C40,66.4324324 40.538922,66 41.185629,66 L74.814371,66 C75.461078,66 76,66.4324324 76,66.972973 L76,73.027027 Z"/><line x1="74" x2="43" y1="63.5" y2="63.5" stroke="#00A8E2" stroke-linecap="round" stroke-linejoin="round" stroke-width="1.67"/><polyline stroke="#00A8E2" stroke-linecap="round" stroke-linejoin="round" stroke-width="1.67" points="61 49 42.749 49 42.749 64.146 41 67"/><polyline stroke="#00A8E2" stroke-linecap="round" stroke-linejoin="round" stroke-width="1.67" points="76 67 74 64.156 74 60"/><polyline stroke="#00A8E2" stroke-linecap="round" stroke-linejoin="round" stroke-width="1.67" points="48 49 53.474 44 63.789 44 66 45.961"/><path stroke="#00A8E2" stroke-linecap="round" stroke-linejoin="round" stroke-width="1.67" d="M76,73.027027 C76,73.5675676 75.461078,74 74.814371,74 C74.814371,74 63.60479,74 57.892216,74 C52.287425,74 41.185629,74 41.185629,74 C40.538922,74 40,73.5675676 40,73.027027 L40,66.972973 C40,66.4324324 40.538922,66 41.185629,66 L74.814371,66 C75.461078,66 76,66.4324324 76,66.972973 L76,73.027027 Z"/><line x1="74" x2="43" y1="63.5" y2="63.5" stroke="#00A8E2" stroke-linecap="round" stroke-linejoin="round" stroke-width="1.67"/><polyline stroke="#00A8E2" stroke-linecap="round" stroke-linejoin="round" stroke-width="1.67" points="61 49 42.749 49 42.749 64.146 41 67"/><polyline stroke="#00A8E2" stroke-linecap="round" stroke-linejoin="round" stroke-width="1.67" points="76 67 74 64.156 74 60"/><polyline stroke="#00A8E2" stroke-linecap="round" stroke-linejoin="round" stroke-width="1.67" points="48 49 53.474 44 63.789 44 66 45.961"/><path stroke="#00A8E2" stroke-linecap="round" stroke-linejoin="round" stroke-width="1.67" d="M77 121.847619C77 122.47619 76.461078 123 75.814371 123L42.185629 123C41.538922 123 41 122.47619 41 121.847619L41 112.838095C41 112.209524 41.431138 112 42.185629 112L75.814371 112C76.676647 112 77 112.209524 77 112.838095L77 121.847619ZM39 169.201761 39 129.022418C39 126.244059 41.231608 124 43.99455 124L73.00545 124C75.768392 124 78 126.244059 78 129.022418L78 179.887757C78 182.666116 76.087193 184.162155 73.00545 184.910175 73.00545 184.910175 67.479564 185.765055 59.084469 185.978774 54.940054 186.085634 51.220708 185.765055 48.457766 185.551335"/><path stroke="#00A8E2" stroke-linecap="round" stroke-linejoin="round" stroke-width="1.67" d="M77,109.394422 C77,110.589641 76.782991,111.585657 74.395894,111.784861 C71.791789,112.083665 63.545455,111.984064 58.337243,111.984064 C53.129032,111.984064 45.099707,111.984064 42.929619,111.784861 C40.759531,111.486056 40,110.589641 40,109.394422 C40,108 40,108 40,108 L76.891496,108 C76.891496,108 77,108 77,109.394422 Z"/><line x1="65" x2="53" y1="81.5" y2="81.5" stroke="#00A8E2" stroke-linecap="round" stroke-linejoin="round" stroke-width="1.67"/><polyline stroke="#00A8E2" stroke-linecap="round" stroke-linejoin="round" stroke-width="1.67" points="52 83 44.8 83 44.8 94.018 43 107"/><polyline stroke="#00A8E2" stroke-linecap="round" stroke-linejoin="round" stroke-width="1.67" points="74 107 72.795 94.018 72.795 83 66 83"/><polyline stroke="#00A8E2" stroke-linecap="round" stroke-linejoin="round" stroke-width="1.67" points="52 83 44.8 83 44.8 94.018 43 107"/><polyline stroke="#00A8E2" stroke-linecap="round" stroke-linejoin="round" stroke-width="1.67" points="74 107 72.795 94.018 72.795 83 66 83"/><path stroke="#00A8E2" stroke-linecap="round" stroke-linejoin="round" stroke-width="1.67" d="M55,82 C55,82 56.714286,80.2204473 57.285714,79.5086263 C57.857143,78.915442 60.142857,78.7968052 60.828571,79.3899894 C61.514286,79.9831736 63,81.7627263 63,81.7627263"/><line x1="45" x2="72" y1="93.5" y2="93.5" stroke="#00A8E2" stroke-linecap="round" stroke-linejoin="round" stroke-width="1.67"/><line x1="42" x2="61" y1="100" y2="98" stroke="#00A8E2" stroke-linecap="round" stroke-linejoin="round" stroke-width="1.67"/><line x1="42" x2="74" y1="103" y2="100" stroke="#00A8E2" stroke-linecap="round" stroke-linejoin="round" stroke-width="1.67"/><line x1="62" x2="75" y1="104" y2="103" stroke="#00A8E2" stroke-linecap="round" stroke-linejoin="round" stroke-width="1.67"/><line x1="42" x2="61" y1="100" y2="98" stroke="#00A8E2" stroke-linecap="round" stroke-linejoin="round" stroke-width="1.67"/><line x1="42" x2="74" y1="103" y2="100" stroke="#00A8E2" stroke-linecap="round" stroke-linejoin="round" stroke-width="1.67"/><line x1="62" x2="75" y1="104" y2="103" stroke="#00A8E2" stroke-linecap="round" stroke-linejoin="round" stroke-width="1.67"/><path stroke="#00A8E2" stroke-width="2.412" d="M39.764878 78C30.505087 78 24.331894 76.7107438 24.012591 74.2396694 23.693287 71.661157 29.440744 67.9008264 42.0000004 65M74 62.0490106C84.924158 61.7237337 92.560463 63.0248413 92.984702 65.7354823 93.302881 68.0124207 88.636251 70.614636 80.999946 73"/><polygon fill="#00A8E2" fill-rule="nonzero" points="34.211 79.5 34.316 73 50 79.825 34 86"/><polygon stroke="#00A8E2" stroke-width="2.438" points="34.211 79.5 34.316 73 50 79.825 34 86"/><path stroke="#00A8E2" stroke-linecap="round" stroke-linejoin="round" stroke-width="1.8" d="M72,0 C70,1.82004556 60.421053,9.84965831 57.789474,12.3120729 C55.157895,14.7744875 49.894737,18.3075171 49.157895,19.5922551 C48.421053,20.8769932 46.526316,39.1845103 46,47"/><path stroke="#00A8E2" stroke-width="1.183" d="M122,42.3045056 C117.513436,41.5517112 112.279112,42.0894215 108.860778,43.0573 C105.549267,44.0251786 96.682962,47.7891507 94.546503,49.7249078 C92.410045,51.6606648 85.35973,55.3170949 81.300458,57.360394 C75.638842,59.6187773 65.917955,60.3715717 64.529256,59.8338614 C63.140558,59.2961511 59.829047,56.5000576 60.042693,52.5210013 C59.93587,51.3380387 59.401755,49.4022816 68.588528,45.1005992 C70.511341,44.2402627 74.036498,41.7667953 77.988947,38.1103653 C80.97999,35.4218138 83.54374,33.9162249 86.748429,32.6257202 C89.953117,31.3352155 99.674005,27.6787854 103.305985,24.7751498 C106.297027,23.0544768 109.929007,20.5810094 111.85182,18"/><path stroke="#00A8E2" stroke-width="1.183" d="M90 31C90 31 84.822034 26.7454545 81.40678 23.0363636 79.864407 20.2 77 13 77 13M59 24C59 24 67.410191 27.6 66.984358 29.1272727 66.34561 31.5272727 66.239151 33.4909091 65.068112 35.8909091 63.897073 38.2909091 61.554995 42 61.448537 42M78 38C78 38 74.830189 37 72 34M81 23C81 23 77.970149 25.2887896 73.686567 26.7814785 69.402985 28.2741673 67 27.9756296 67 27.9756296M83 38C83 38 85.594595 41.4461538 87 45"/><path stroke="#00A8E2" stroke-width="1.168" d="M69.5,46 C69.5,46 72.7,47.8514851 73,52.0990099 C71.9,54.4950495 69.3,56.2376238 67,57"/><path stroke="#00A8E2" stroke-linecap="round" stroke-linejoin="round" stroke-width="1.67" d="M72 0C70 1.82004556 60.421053 9.84965831 57.789474 12.3120729 55.157895 14.7744875 49.894737 18.3075171 49.157895 19.5922551 48.421053 20.8769932 46.526316 39.1845103 46 47M122 42.3045056C117.513436 41.5517112 112.279112 42.0894215 108.860778 43.0573 105.549267 44.0251786 96.682962 47.7891507 94.546503 49.7249078 92.410045 51.6606648 85.35973 55.3170949 81.300458 57.360394 75.638842 59.6187773 65.917955 60.3715717 64.529256 59.8338614 63.140558 59.2961511 59.829047 56.5000576 60.042693 52.5210013 59.93587 51.3380387 59.401755 49.4022816 68.588528 45.1005992 70.511341 44.2402627 74.036498 41.7667953 77.988947 38.1103653 80.97999 35.4218138 83.54374 33.9162249 86.748429 32.6257202 89.953117 31.3352155 99.674005 27.6787854 103.305985 24.7751498 106.297027 23.0544768 109.929007 20.5810094 111.85182 18"/><path stroke="#00A8E2" stroke-linecap="round" stroke-linejoin="round" stroke-width="1.67" d="M90 31C90 31 84.822034 26.7454545 81.40678 23.0363636 79.864407 20.2 77 13 77 13M59 24C59 24 67.410191 27.6 66.984358 29.1272727 66.34561 31.5272727 66.239151 33.4909091 65.068112 35.8909091 63.897073 38.2909091 61.554995 42 61.448537 42M78 38C78 38 74.830189 37 72 34M81 23C81 23 77.970149 25.2887896 73.686567 26.7814785 69.402985 28.2741673 67 27.9756296 67 27.9756296M83 38C83 38 85.594595 41.4461538 87 45M69.5 46C69.5 46 72.7 47.8514851 73 52.0990099 71.9 54.4950495 69.3 56.2376238 67 57M0 151C4.763231 149.459656 8.785515 147.589238 12.913649 144.838624 17.359331 142.08801 26.250696 136.366733 29.743733 135.376511 33.236769 134.276266 36.518106 135.926634 38 136.036659M20.616722 211C22.327464 206.848666 28.742746 201.313553 31.308859 198.971775 33.874972 196.629996 42.214839 189.178884 45.101716 187.475772 48.095514 185.666216 53.334661 183.217993 57.290752 180.663326 61.246843 178.108659 69.052103 171.296213 68.945181 167.570656 69.586709 165.015989 64.454484 157.032653 61.033 158.097098 58.466887 158.842209 57.18383 159.587321 53.334661 161.503321 49.913177 163.206433 39.541804 168.635101 32.271151 174.276658 29.491195 176.405547 22.541306 180.76977 18.15753 182.366437 13.987597 183.643771 10.886877 184.81466 8 186.091994"/><path stroke="#00A8E2" stroke-linecap="round" stroke-linejoin="round" stroke-width="1.67" d="M26 178C26 178 24.522727 174.606965 25.659091 167.930348 26.909091 160.925373 21 156 21 156M36 150C36 150 37.857143 153.444444 38 156"/><path stroke="#00A8E2" stroke-linecap="round" stroke-linejoin="round" stroke-width="1.67" d="M26,164 C26,164 31.346774,162.8 34.91129,160.1 C38.475806,157.4 39,157 39,157"/><path stroke="#00A8E2" stroke-linecap="round" stroke-linejoin="round" stroke-width="1.595" d="M41,164 C41,164 42.6,168.064516 45,171"/><path stroke="#00A8E2" stroke-linecap="round" stroke-linejoin="round" stroke-width="1.67" d="M66,169.49914 C64.011517,171.195971 60.034552,173.529113 57.27277,172.892801 C52.964391,170.877815 51.638736,167.165998 52.080621,165.469167 C52.743449,163.242077 55.50523,160.908935 58.708897,159"/></g></g></svg>