<svg xmlns="http://www.w3.org/2000/svg" width="462" height="213" viewBox="0 0 462 213"><g fill="none" fill-rule="evenodd" transform="translate(1 1)"><path stroke="#00A8E2" stroke-linecap="round" stroke-linejoin="round" stroke-width="1.67" d="M38 111.847619C38 112.47619 37.4610778 113 36.8143713 113L3.18562874 113C2.53892216 113 2 112.47619 2 111.847619L2 102.838095C2 102.209524 2.43113772 102 3.18562874 102L36.8143713 102C37.6766467 102 38 102.209524 38 102.838095L38 111.847619 38 111.847619ZM38 96.027027C38 96.5675676 37.4610778 97 36.8143713 97 36.8143713 97 25.6047904 97 19.8922156 97 14.2874251 97 3.18562874 97 3.18562874 97 2.53892216 97 2 96.5675676 2 96.027027L2 89.972973C2 89.4324324 2.53892216 89 3.18562874 89L36.8143713 89C37.4610778 89 38 89.4324324 38 89.972973L38 96.027027 38 96.027027ZM38.893733 168.900702C38.893733 171.679704 36.9809264 173.17609 33.8991826 173.924283 33.8991826 173.924283 28.373297 174.779361 19.9782016 174.99313 11.5831063 175.100015 4.99455041 173.924283 4.99455041 173.924283 1.59400545 173.38986 0 171.679704 0 168.900702L0 118.023581C0 115.244579 2.23160763 113 4.99455041 113L34.0054496 113C36.7683924 113 39 115.244579 39 118.023581L39 168.900702 38.893733 168.900702Z"/><line x1="35" x2="4" y1="85.5" y2="85.5" stroke="#00A8E2" stroke-linecap="round" stroke-linejoin="round" stroke-width="1.67"/><polyline stroke="#00A8E2" stroke-linecap="round" stroke-linejoin="round" stroke-width="1.67" points="37 89 35.191 86.146 35.191 71 3.702 71 3.702 86.146 2 89"/><path stroke="#00A8E2" stroke-linecap="round" stroke-linejoin="round" stroke-width="1.67" d="M38,98.2840532 C38,99.5299003 37.7829912,100.568106 35.3958944,100.775748 C32.7917889,101.087209 24.5454545,100.983389 19.3372434,100.983389 C14.1290323,100.983389 6.09970674,100.983389 3.92961877,100.775748 C1.75953079,100.464286 1,99.5299003 1,98.2840532 C1,96 1,96 1,96 L37.8914956,96 C37.8914956,96 38,96.1038206 38,98.2840532 Z"/><polyline stroke="#00A8E2" stroke-linecap="round" stroke-linejoin="round" stroke-width="1.67" points="9 71 14.355 65 24.75 65 30 70.654"/><path stroke="#00A8E2" stroke-linecap="round" stroke-linejoin="round" stroke-width="1.67" d="M38 111.847619C38 112.47619 37.4610778 113 36.8143713 113L3.18562874 113C2.53892216 113 2 112.47619 2 111.847619L2 102.838095C2 102.209524 2.43113772 102 3.18562874 102L36.8143713 102C37.6766467 102 38 102.209524 38 102.838095L38 111.847619 38 111.847619ZM38 96.027027C38 96.5675676 37.4610778 97 36.8143713 97 36.8143713 97 25.6047904 97 19.8922156 97 14.2874251 97 3.18562874 97 3.18562874 97 2.53892216 97 2 96.5675676 2 96.027027L2 89.972973C2 89.4324324 2.53892216 89 3.18562874 89L36.8143713 89C37.4610778 89 38 89.4324324 38 89.972973L38 96.027027 38 96.027027ZM38.893733 168.900702C38.893733 171.679704 36.9809264 173.17609 33.8991826 173.924283 33.8991826 173.924283 28.373297 174.779361 19.9782016 174.99313 11.5831063 175.100015 4.99455041 173.924283 4.99455041 173.924283 1.59400545 173.38986 0 171.679704 0 168.900702L0 118.023581C0 115.244579 2.23160763 113 4.99455041 113L34.0054496 113C36.7683924 113 39 115.244579 39 118.023581L39 168.900702 38.893733 168.900702Z"/><line x1="35" x2="4" y1="85.5" y2="85.5" stroke="#00A8E2" stroke-linecap="round" stroke-linejoin="round" stroke-width="1.67"/><polyline stroke="#00A8E2" stroke-linecap="round" stroke-linejoin="round" stroke-width="1.67" points="37 89 35.191 86.146 35.191 71 3.702 71 3.702 86.146 2 89"/><path stroke="#00A8E2" stroke-linecap="round" stroke-linejoin="round" stroke-width="1.67" d="M38,98.2840532 C38,99.5299003 37.7829912,100.568106 35.3958944,100.775748 C32.7917889,101.087209 24.5454545,100.983389 19.3372434,100.983389 C14.1290323,100.983389 6.09970674,100.983389 3.92961877,100.775748 C1.75953079,100.464286 1,99.5299003 1,98.2840532 C1,96 1,96 1,96 L37.8914956,96 C37.8914956,96 38,96.1038206 38,98.2840532 Z"/><polyline stroke="#00A8E2" stroke-linecap="round" stroke-linejoin="round" stroke-width="1.67" points="9 71 14.355 65 24.75 65 30 70.654"/><path stroke="#00A8E2" stroke-linecap="round" stroke-linejoin="round" stroke-width="1.595" d="M401.593641,166 C401.593641,166 400.765458,168.524115 398.073862,174.230808 C395.48579,179.60827 397.866816,184.107778 402.111255,183.998034 C406.355694,183.88829 408.633198,178.949805 405.631034,174.01132 C402.421824,168.41437 401.593641,166 401.593641,166 Z"/><path stroke="#00A8E2" stroke-linecap="round" stroke-linejoin="round" stroke-width="1.67" d="M391 124.152381C391 123.52381 391.538922 123 392.185629 123L425.814371 123C426.461078 123 427 123.52381 427 124.152381L427 133.161905C427 133.790476 426.568862 134 425.814371 134L392.185629 134C391.323353 134 391 133.790476 391 133.161905L391 124.152381ZM429 80.615326 429 117.969496C429 120.752328 426.768392 123 424.00545 123L394.99455 123C392.231608 123 390 120.752328 390 117.969496L390 67.1292933C390 64.3464612 391.912807 62.8480131 394.99455 62.0987891 394.99455 62.0987891 400.520436 61.2425331 408.915531 61.028469 412.422343 60.921437 415.610354 61.1355011 418.160763 61.3495651M391 137.605578C391 136.410359 391.217009 135.414343 393.604106 135.215139 396.208211 134.916335 404.454545 135.015936 409.662757 135.015936 414.870968 135.015936 422.900293 135.015936 425.070381 135.215139 427.240469 135.513944 428 136.410359 428 137.605578 428 139 428 139 428 139L391.108504 139C391.108504 138.900398 391 138.900398 391 137.605578Z"/><line x1="404" x2="416" y1="164.5" y2="164.5" stroke="#00A8E2" stroke-linecap="round" stroke-linejoin="round" stroke-width="1.67"/><polyline stroke="#00A8E2" stroke-linecap="round" stroke-linejoin="round" stroke-width="1.67" points="416 164 423.2 164 423.2 152.923 425 140"/><polyline stroke="#00A8E2" stroke-linecap="round" stroke-linejoin="round" stroke-width="1.67" points="394 140 395.205 152.923 395.205 164 402 164"/><polyline stroke="#00A8E2" stroke-linecap="round" stroke-linejoin="round" stroke-width="1.67" points="416 164 423.2 164 423.2 152.923 425 140"/><polyline stroke="#00A8E2" stroke-linecap="round" stroke-linejoin="round" stroke-width="1.67" points="394 140 395.205 152.923 395.205 164 402 164"/><path stroke="#00A8E2" stroke-linecap="round" stroke-linejoin="round" stroke-width="1.67" d="M413,165 C413,165 411.285714,166.779553 410.714286,167.491374 C410.142857,168.084558 407.857143,168.203195 407.171429,167.610011 C406.485714,167.016826 405,165.237274 405,165.237274"/><line x1="423" x2="396" y1="153.5" y2="153.5" stroke="#00A8E2" stroke-linecap="round" stroke-linejoin="round" stroke-width="1.67"/><line x1="426" x2="407" y1="147" y2="149" stroke="#00A8E2" stroke-linecap="round" stroke-linejoin="round" stroke-width="1.67"/><line x1="425" x2="393" y1="144" y2="147" stroke="#00A8E2" stroke-linecap="round" stroke-linejoin="round" stroke-width="1.67"/><line x1="406" x2="393" y1="143" y2="144" stroke="#00A8E2" stroke-linecap="round" stroke-linejoin="round" stroke-width="1.67"/><line x1="426" x2="407" y1="147" y2="149" stroke="#00A8E2" stroke-linecap="round" stroke-linejoin="round" stroke-width="1.67"/><line x1="425" x2="393" y1="144" y2="147" stroke="#00A8E2" stroke-linecap="round" stroke-linejoin="round" stroke-width="1.67"/><line x1="406" x2="393" y1="143" y2="144" stroke="#00A8E2" stroke-linecap="round" stroke-linejoin="round" stroke-width="1.67"/><path stroke="#00A8E2" stroke-linecap="round" stroke-linejoin="round" stroke-width="1.67" d="M390,85.75 C389.192308,84.95 387,85.35 387,85.35"/><path stroke="#00A8E2" stroke-linecap="round" stroke-linejoin="round" stroke-width="1.67" d="M402,23 C398.859975,23.3211587 392.363372,33.0629723 389.331624,36.1675063 C386.299876,39.2720403 372.65701,54.5806045 370.599753,58.8627204 C368.759049,62.7166247 371.68252,65.9282116 372.33218,69.7821159 C372.873564,73.1007557 375.255652,85.4118388 376.338419,87.0176322 C377.962569,89.4798489 381.210871,93.5478589 383.592959,97.8299748 C385.975046,102.112091 389.439901,108 389.439901,108"/><path stroke="#00A8E2" stroke-linecap="round" stroke-linejoin="round" stroke-width="1.67" d="M390 72C387.878788 66.8360656 383 65 383 65M392 63C397.297297 59.313253 399.351351 54.4337349 400 54M424.095385 46C424.095385 46 426.560478 49.1871505 422.380537 56.4113583 419.058021 62.0419908 414.985258 68.6287685 410.483784 72.5595875 407.268445 75.3217845 400.944946 84.7769977 400.1947 88.3891016 399.444454 92.0012055 400.837768 95.9320244 404.803352 97.8443147 407.804335 99.3316516 411.984275 99.43789 413.377589 97.8443147 416.48575 94.6571642 417.986241 92.9573506 420.880046 89.9826768 424.952808 85.8393812 428.275325 80.7399404 432.240909 75.4280229 438.350053 67.7788617 446.281222 63.8480428 446.281222 63.8480428 446.281222 63.8480428 454.426746 60.2359389 460 55.9864049"/><path stroke="#00A8E2" stroke-linecap="round" stroke-linejoin="round" stroke-width="1.67" d="M395 52C395 52 402.675676 52 411.216216 53 416.621622 54 423 54 423 54M390 85.75C389.192308 84.95 387 85.35 387 85.35"/><path stroke="#00A8E2" stroke-linecap="round" stroke-linejoin="round" stroke-width="1.67" d="M402,23 C398.859975,23.3211587 392.363372,33.0629723 389.331624,36.1675063 C386.299876,39.2720403 372.65701,54.5806045 370.599753,58.8627204 C368.759049,62.7166247 371.68252,65.9282116 372.33218,69.7821159 C372.873564,73.1007557 375.255652,85.4118388 376.338419,87.0176322 C377.962569,89.4798489 381.210871,93.5478589 383.592959,97.8299748 C385.975046,102.112091 389.439901,108 389.439901,108"/><path stroke="#00A8E2" stroke-linecap="round" stroke-linejoin="round" stroke-width="1.67" d="M390 72C387.878788 66.8360656 383 65 383 65M392 63C397.297297 59.313253 399.351351 54.4337349 400 54M424.095385 46C424.095385 46 426.560478 49.1871505 422.380537 56.4113583 419.058021 62.0419908 414.985258 68.6287685 410.483784 72.5595875 407.268445 75.3217845 400.944946 84.7769977 400.1947 88.3891016 399.444454 92.0012055 400.837768 95.9320244 404.803352 97.8443147 407.804335 99.3316516 411.984275 99.43789 413.377589 97.8443147 416.48575 94.6571642 417.986241 92.9573506 420.880046 89.9826768 424.952808 85.8393812 428.275325 80.7399404 432.240909 75.4280229 438.350053 67.7788617 446.281222 63.8480428 446.281222 63.8480428 446.281222 63.8480428 454.426746 60.2359389 460 55.9864049"/><path stroke="#00A8E2" stroke-linecap="round" stroke-linejoin="round" stroke-width="1.67" d="M395 52C395 52 402.675676 52 411.216216 53 416.621622 54 423 54 423 54M400 90.7292218C400 90.7292218 403.713229 84.999028 406.006694 83.2691581 406.989607 82.5123401 410.702836 83.377275 413.105513 85.5396123 414.525277 86.8370147 416.600317 88.999352 415.835829 90.2967544 414.63449 92.4590917 412.013387 95.5944808 410.593623 97M416 73C416 73 419.314286 74.137931 421.6 76.1034483 423.771429 77.7586207 424 79 424 79M230 73.027027C230 73.5675676 229.461078 74 228.814371 74 228.814371 74 217.60479 74 211.892216 74 206.287425 74 195.185629 74 195.185629 74 194.538922 74 194 73.5675676 194 73.027027L194 66.972973C194 66.4324324 194.538922 66 195.185629 66L228.814371 66C229.461078 66 230 66.4324324 230 66.972973L230 73.027027Z"/><line x1="228" x2="197" y1="63.5" y2="63.5" stroke="#00A8E2" stroke-linecap="round" stroke-linejoin="round" stroke-width="1.67"/><polyline stroke="#00A8E2" stroke-linecap="round" stroke-linejoin="round" stroke-width="1.67" points="215 49 196.749 49 196.749 64.146 195 67"/><polyline stroke="#00A8E2" stroke-linecap="round" stroke-linejoin="round" stroke-width="1.67" points="230 67 228 64.156 228 60"/><polyline stroke="#00A8E2" stroke-linecap="round" stroke-linejoin="round" stroke-width="1.67" points="202 49 207.474 44 217.789 44 220 45.961"/><path stroke="#00A8E2" stroke-linecap="round" stroke-linejoin="round" stroke-width="1.67" d="M230,73.027027 C230,73.5675676 229.461078,74 228.814371,74 C228.814371,74 217.60479,74 211.892216,74 C206.287425,74 195.185629,74 195.185629,74 C194.538922,74 194,73.5675676 194,73.027027 L194,66.972973 C194,66.4324324 194.538922,66 195.185629,66 L228.814371,66 C229.461078,66 230,66.4324324 230,66.972973 L230,73.027027 Z"/><line x1="228" x2="197" y1="63.5" y2="63.5" stroke="#00A8E2" stroke-linecap="round" stroke-linejoin="round" stroke-width="1.67"/><polyline stroke="#00A8E2" stroke-linecap="round" stroke-linejoin="round" stroke-width="1.67" points="215 49 196.749 49 196.749 64.146 195 67"/><polyline stroke="#00A8E2" stroke-linecap="round" stroke-linejoin="round" stroke-width="1.67" points="230 67 228 64.156 228 60"/><polyline stroke="#00A8E2" stroke-linecap="round" stroke-linejoin="round" stroke-width="1.67" points="202 49 207.474 44 217.789 44 220 45.961"/><path stroke="#00A8E2" stroke-linecap="round" stroke-linejoin="round" stroke-width="1.67" d="M231 121.847619C231 122.47619 230.461078 123 229.814371 123L196.185629 123C195.538922 123 195 122.47619 195 121.847619L195 112.838095C195 112.209524 195.431138 112 196.185629 112L229.814371 112C230.676647 112 231 112.209524 231 112.838095L231 121.847619ZM193 169.201761 193 129.022418C193 126.244059 195.231608 124 197.99455 124L227.00545 124C229.768392 124 232 126.244059 232 129.022418L232 179.887757C232 182.666116 230.087193 184.162155 227.00545 184.910175 227.00545 184.910175 221.479564 185.765055 213.084469 185.978774 208.940054 186.085634 205.220708 185.765055 202.457766 185.551335"/><path stroke="#00A8E2" stroke-linecap="round" stroke-linejoin="round" stroke-width="1.67" d="M231,109.394422 C231,110.589641 230.782991,111.585657 228.395894,111.784861 C225.791789,112.083665 217.545455,111.984064 212.337243,111.984064 C207.129032,111.984064 199.099707,111.984064 196.929619,111.784861 C194.759531,111.486056 194,110.589641 194,109.394422 C194,108 194,108 194,108 L230.891496,108 C230.891496,108 231,108 231,109.394422 Z"/><line x1="219" x2="207" y1="81.5" y2="81.5" stroke="#00A8E2" stroke-linecap="round" stroke-linejoin="round" stroke-width="1.67"/><polyline stroke="#00A8E2" stroke-linecap="round" stroke-linejoin="round" stroke-width="1.67" points="206 83 198.8 83 198.8 94.018 197 107"/><polyline stroke="#00A8E2" stroke-linecap="round" stroke-linejoin="round" stroke-width="1.67" points="228 107 226.795 94.018 226.795 83 220 83"/><polyline stroke="#00A8E2" stroke-linecap="round" stroke-linejoin="round" stroke-width="1.67" points="206 83 198.8 83 198.8 94.018 197 107"/><polyline stroke="#00A8E2" stroke-linecap="round" stroke-linejoin="round" stroke-width="1.67" points="228 107 226.795 94.018 226.795 83 220 83"/><path stroke="#00A8E2" stroke-linecap="round" stroke-linejoin="round" stroke-width="1.67" d="M209,82 C209,82 210.714286,80.2204473 211.285714,79.5086263 C211.857143,78.915442 214.142857,78.7968052 214.828571,79.3899894 C215.514286,79.9831736 217,81.7627263 217,81.7627263"/><line x1="199" x2="226" y1="93.5" y2="93.5" stroke="#00A8E2" stroke-linecap="round" stroke-linejoin="round" stroke-width="1.67"/><line x1="196" x2="215" y1="100" y2="98" stroke="#00A8E2" stroke-linecap="round" stroke-linejoin="round" stroke-width="1.67"/><line x1="196" x2="228" y1="103" y2="100" stroke="#00A8E2" stroke-linecap="round" stroke-linejoin="round" stroke-width="1.67"/><line x1="216" x2="229" y1="104" y2="103" stroke="#00A8E2" stroke-linecap="round" stroke-linejoin="round" stroke-width="1.67"/><line x1="196" x2="215" y1="100" y2="98" stroke="#00A8E2" stroke-linecap="round" stroke-linejoin="round" stroke-width="1.67"/><line x1="196" x2="228" y1="103" y2="100" stroke="#00A8E2" stroke-linecap="round" stroke-linejoin="round" stroke-width="1.67"/><line x1="216" x2="229" y1="104" y2="103" stroke="#00A8E2" stroke-linecap="round" stroke-linejoin="round" stroke-width="1.67"/><path stroke="#00A8E2" stroke-width="2.412" d="M193.764878 78C184.505087 78 178.331894 76.7107438 178.012591 74.2396694 177.693287 71.661157 183.440744 67.9008264 196 65M228 62.0490106C238.924158 61.7237337 246.560463 63.0248413 246.984702 65.7354823 247.302881 68.0124207 242.636251 70.614636 234.999946 73"/><polygon fill="#00A8E2" fill-rule="nonzero" points="188.211 79.5 188.316 73 204 79.825 188 86"/><polygon stroke="#00A8E2" stroke-width="2.438" points="188.211 79.5 188.316 73 204 79.825 188 86"/><path stroke="#00A8E2" stroke-linecap="round" stroke-linejoin="round" stroke-width="1.8" d="M226,0 C224,1.82004556 214.421053,9.84965831 211.789474,12.3120729 C209.157895,14.7744875 203.894737,18.3075171 203.157895,19.5922551 C202.421053,20.8769932 200.526316,39.1845103 200,47"/><path stroke="#00A8E2" stroke-width="1.183" d="M276,42.3045056 C271.513436,41.5517112 266.279112,42.0894215 262.860778,43.0573 C259.549267,44.0251786 250.682962,47.7891507 248.546503,49.7249078 C246.410045,51.6606648 239.35973,55.3170949 235.300458,57.360394 C229.638842,59.6187773 219.917955,60.3715717 218.529256,59.8338614 C217.140558,59.2961511 213.829047,56.5000576 214.042693,52.5210013 C213.93587,51.3380387 213.401755,49.4022816 222.588528,45.1005992 C224.511341,44.2402627 228.036498,41.7667953 231.988947,38.1103653 C234.97999,35.4218138 237.54374,33.9162249 240.748429,32.6257202 C243.953117,31.3352155 253.674005,27.6787854 257.305985,24.7751498 C260.297027,23.0544768 263.929007,20.5810094 265.85182,18"/><path stroke="#00A8E2" stroke-width="1.183" d="M244 31C244 31 238.822034 26.7454545 235.40678 23.0363636 233.864407 20.2 231 13 231 13M213 24C213 24 221.410191 27.6 220.984358 29.1272727 220.34561 31.5272727 220.239151 33.4909091 219.068112 35.8909091 217.897073 38.2909091 215.554995 42 215.448537 42M232 38C232 38 228.830189 37 226 34M235 23C235 23 231.970149 25.2887896 227.686567 26.7814785 223.402985 28.2741673 221 27.9756296 221 27.9756296M237 38C237 38 239.594595 41.4461538 241 45"/><path stroke="#00A8E2" stroke-width="1.168" d="M223.5,46 C223.5,46 226.7,47.8514851 227,52.0990099 C225.9,54.4950495 223.3,56.2376238 221,57"/><path stroke="#00A8E2" stroke-linecap="round" stroke-linejoin="round" stroke-width="1.67" d="M226 0C224 1.82004556 214.421053 9.84965831 211.789474 12.3120729 209.157895 14.7744875 203.894737 18.3075171 203.157895 19.5922551 202.421053 20.8769932 200.526316 39.1845103 200 47M276 42.3045056C271.513436 41.5517112 266.279112 42.0894215 262.860778 43.0573 259.549267 44.0251786 250.682962 47.7891507 248.546503 49.7249078 246.410045 51.6606648 239.35973 55.3170949 235.300458 57.360394 229.638842 59.6187773 219.917955 60.3715717 218.529256 59.8338614 217.140558 59.2961511 213.829047 56.5000576 214.042693 52.5210013 213.93587 51.3380387 213.401755 49.4022816 222.588528 45.1005992 224.511341 44.2402627 228.036498 41.7667953 231.988947 38.1103653 234.97999 35.4218138 237.54374 33.9162249 240.748429 32.6257202 243.953117 31.3352155 253.674005 27.6787854 257.305985 24.7751498 260.297027 23.0544768 263.929007 20.5810094 265.85182 18"/><path stroke="#00A8E2" stroke-linecap="round" stroke-linejoin="round" stroke-width="1.67" d="M244 31C244 31 238.822034 26.7454545 235.40678 23.0363636 233.864407 20.2 231 13 231 13M213 24C213 24 221.410191 27.6 220.984358 29.1272727 220.34561 31.5272727 220.239151 33.4909091 219.068112 35.8909091 217.897073 38.2909091 215.554995 42 215.448537 42M232 38C232 38 228.830189 37 226 34M235 23C235 23 231.970149 25.2887896 227.686567 26.7814785 223.402985 28.2741673 221 27.9756296 221 27.9756296M237 38C237 38 239.594595 41.4461538 241 45M223.5 46C223.5 46 226.7 47.8514851 227 52.0990099 225.9 54.4950495 223.3 56.2376238 221 57M154 151C158.763231 149.459656 162.785515 147.589238 166.913649 144.838624 171.359331 142.08801 180.250696 136.366733 183.743733 135.376511 187.236769 134.276266 190.518106 135.926634 192 136.036659M174.616722 211C176.327464 206.848666 182.742746 201.313553 185.308859 198.971775 187.874972 196.629996 196.214839 189.178884 199.101716 187.475772 202.095514 185.666216 207.334661 183.217993 211.290752 180.663326 215.246843 178.108659 223.052103 171.296213 222.945181 167.570656 223.586709 165.015989 218.454484 157.032653 215.033 158.097098 212.466887 158.842209 211.18383 159.587321 207.334661 161.503321 203.913177 163.206433 193.541804 168.635101 186.271151 174.276658 183.491195 176.405547 176.541306 180.76977 172.15753 182.366437 167.987597 183.643771 164.886877 184.81466 162 186.091994"/><path stroke="#00A8E2" stroke-linecap="round" stroke-linejoin="round" stroke-width="1.67" d="M180 178C180 178 178.522727 174.606965 179.659091 167.930348 180.909091 160.925373 175 156 175 156M190 150C190 150 191.857143 153.444444 192 156"/><path stroke="#00A8E2" stroke-linecap="round" stroke-linejoin="round" stroke-width="1.67" d="M180,164 C180,164 185.346774,162.8 188.91129,160.1 C192.475806,157.4 193,157 193,157"/><path stroke="#00A8E2" stroke-linecap="round" stroke-linejoin="round" stroke-width="1.595" d="M195,164 C195,164 196.6,168.064516 199,171"/><path stroke="#00A8E2" stroke-linecap="round" stroke-linejoin="round" stroke-width="1.67" d="M220,169.49914 C218.011517,171.195971 214.034552,173.529113 211.27277,172.892801 C206.964391,170.877815 205.638736,167.165998 206.080621,165.469167 C206.743449,163.242077 209.50523,160.908935 212.708897,159"/></g></svg>