<svg xmlns="http://www.w3.org/2000/svg" xmlns:xlink="http://www.w3.org/1999/xlink" width="63" height="63" viewBox="0 0 63 63"><defs><polygon id="a" points="0 0 62.914 0 62.914 62.901 0 62.901"/></defs><g fill="none" fill-rule="evenodd"><path fill="#FEFEFE" d="M31.4582 9.9423C19.5812 9.9423 9.9562 19.5683 9.9562 31.4453 9.9562 43.3193 19.5812 52.9453 31.4582 52.9453 43.3332 52.9453 52.9582 43.3193 52.9582 31.4453 52.9582 19.5683 43.3332 9.9423 31.4582 9.9423M29.8392 42.7873 29.8312 42.8033C29.4932 43.5733 29.1072 44.3793 28.7392 45.1373L28.7352 45.1413 28.7352 45.1433 28.6022 45.4183C28.2482 46.1483 27.8422 46.9903 27.5002 47.7563L27.3922 47.8243 26.0102 47.8243 25.9132 47.7753 25.9022 47.6703C26.2492 46.8493 26.6722 45.9623 27.1952 44.8813 26.6532 43.9843 25.6522 42.7843 24.5952 41.5173 22.0562 38.4813 20.4142 36.3823 20.7002 34.9313 20.8462 34.1973 21.9462 32.6863 25.0302 28.9923 24.4512 29.0963 23.9622 29.1213 23.6362 29.1213 23.4932 29.1213 23.2812 29.1153 23.0732 29.0943 22.8582 29.0663 22.6762 28.9673 22.5532 28.8123 22.4362 28.6643 22.3842 28.4803 22.4112 28.2983 22.4682 27.9093 22.8472 27.6283 23.2682 27.6933 23.4062 27.7083 26.7312 28.0643 29.1622 24.7313 29.3952 24.4123 29.8692 24.3253 30.2142 24.5433 30.3852 24.6473 30.5002 24.8083 30.5382 24.9963 30.5762 25.1823 30.5352 25.3683 30.4212 25.5253 29.6452 26.5893 28.7122 27.4353 27.6482 28.0413 27.6482 28.0413 22.2972 34.2963 22.1942 35.1873 22.0792 36.1923 24.2832 38.8413 25.7842 40.6393 26.5582 41.5643 27.3472 42.5073 27.9422 43.3263 28.0562 43.0873 28.9322 41.0223 28.9322 41.0223 29.5902 39.2473 29.5202 38.5213 29.3362 38.2273 28.3222 36.5853 27.4402 35.1283 26.9602 34.3303L26.7482 34.5713 26.7362 34.5483 25.5492 35.9343C25.5492 35.9343 24.8892 36.1313 24.6922 35.7353 24.5202 35.3923 24.4212 35.0903 24.6962 34.6733L26.4922 32.6313C26.6512 32.4513 26.9012 32.3603 27.1502 32.3773 27.4002 32.3943 27.6242 32.5303 27.7452 32.7373 27.7552 32.7543 29.0742 34.9693 30.6562 37.5213 31.2682 38.5133 31.0242 40.0873 29.8392 42.7873M30.2162 15.4353C29.0742 16.2523 28.3362 17.4453 28.1932 18.7063 28.1512 19.0513 28.1562 19.3773 28.2082 19.6693 28.4012 20.8093 27.1592 21.9373 24.2942 23.2253 22.6422 23.9643 21.1992 24.8923 20.0042 25.9843 18.8832 27.0043 18.1332 27.9263 17.8272 28.6543 17.7212 28.9063 17.6302 29.1703 17.5542 29.4433 17.3972 29.9973 17.3102 30.5753 17.2962 31.1613 17.2642 32.4863 17.6562 33.8563 18.4302 35.1173L20.1652 37.9523C20.2642 38.1153 20.2902 38.3043 20.2392 38.4853 20.1842 38.6703 20.0572 38.8223 19.8772 38.9173 19.7632 38.9783 19.6342 39.0083 19.5052 39.0083 19.2322 39.0083 18.9782 38.8693 18.8442 38.6523L17.1092 35.8163C16.1982 34.3323 15.7392 32.7103 15.7752 31.1293 15.7912 30.4333 15.8952 29.7443 16.0832 29.0833 16.1762 28.7573 16.2852 28.4403 16.4102 28.1403 16.7982 27.2163 17.6492 26.1513 18.9382 24.9733 20.2522 23.7783 21.8302 22.7603 23.6322 21.9523 26.2522 20.7773 26.7232 20.0283 26.7062 19.8913 26.6342 19.4763 26.6262 19.0263 26.6792 18.5563 26.8692 16.9103 27.8212 15.3673 29.2912 14.3163 33.4472 11.3443 37.3422 14.4713 37.5072 14.6063 37.6592 14.7333 37.7482 14.9083 37.7552 15.0973 37.7652 15.2873 37.6972 15.4693 37.5582 15.6073 37.2762 15.8923 36.7982 15.9143 36.4892 15.6553 36.3652 15.5523 33.4182 13.1503 30.2162 15.4353M42.4832 47.7713 42.3852 47.8243 40.8622 47.8243 40.7582 47.7653 40.7652 47.6493C42.2582 45.5673 42.8362 43.5953 42.4832 41.7923 41.7552 38.0603 37.2682 36.0253 37.2232 36.0043 36.9612 35.8863 36.7942 35.6473 36.7892 35.3803 36.7852 35.1093 36.9402 34.8643 37.1952 34.7413 38.1082 34.2943 38.6642 33.7973 38.7572 33.3473 38.8012 33.1393 38.7322 32.9373 38.5582 32.7463 38.3042 32.4693 37.9602 32.2303 37.5342 32.0353 35.5392 31.1363 33.4272 29.3573 33.2862 29.2403 32.4502 28.6543 31.9782 27.9223 31.8832 27.0653 31.6872 25.3333 33.1912 23.7733 33.2052 23.7583 33.3492 23.6083 33.5562 23.5223 33.7742 23.5223L33.7892 23.5223C34.0092 23.5243 34.2192 23.6193 34.3612 23.7803 34.6612 24.1203 35.2392 24.6773 35.7912 24.6003 35.9852 24.5733 36.1682 24.4403 36.2942 24.2393 38.0422 21.4213 37.5192 18.9353 37.0522 17.7063 36.9842 17.5283 36.9952 17.3373 37.0832 17.1683 37.1702 16.9953 37.3252 16.8643 37.5202 16.8043 37.9152 16.6773 38.3492 16.8683 38.4862 17.2363 39.0402 18.6963 39.6622 21.6373 37.6132 24.9453 37.2552 25.5213 36.6772 25.9023 36.0242 25.9953 35.5162 26.0693 34.7372 26.0103 33.8662 25.3283 33.5992 25.7543 33.3282 26.3483 33.3942 26.9243 33.4482 27.3853 33.7182 27.7803 34.2252 28.1273L34.2912 28.1783C34.5052 28.3603 36.4492 29.9773 38.1992 30.7663 38.8162 31.0473 39.3262 31.4033 39.7152 31.8283 40.1912 32.3463 40.3802 32.9773 40.2512 33.6113 40.1622 34.0413 39.8722 34.6773 39.0092 35.3253 40.6612 36.3053 43.3522 38.3503 43.9782 41.5303 44.3662 43.5063 43.8642 45.6053 42.4832 47.7713M19.4457 8.6515 20.2917 8.2245C20.3107 8.2155 20.3117 8.2025 20.2967 8.1865L19.1437 6.9775C19.1337 6.9665 19.1267 6.9635 19.1207 6.9675 19.1147 6.9725 19.1127 6.9815 19.1147 6.9925L19.4117 8.6325C19.4187 8.6535 19.4297 8.6595 19.4457 8.6515M21.1387 9.0685 20.7577 8.6715C20.7447 8.6615 20.7337 8.6585 20.7237 8.6635L19.5417 9.2595C19.5317 9.2645 19.5277 9.2755 19.5277 9.2915L19.6257 9.8325C19.6327 9.8695 19.6197 9.8965 19.5877 9.9125L18.9777 10.2195C18.9587 10.2295 18.9407 10.2315 18.9257 10.2255 18.9107 10.2185 18.9007 10.2025 18.8957 10.1765L18.2947 6.4055C18.2877 6.3685 18.3007 6.3415 18.3327 6.3255L19.0867 5.9455C19.1187 5.9295 19.1477 5.9345 19.1737 5.9625L21.8497 8.6865C21.8567 8.6915 21.8627 8.6975 21.8667 8.7075 21.8817 8.7365 21.8717 8.7595 21.8357 8.7775L21.2257 9.0855C21.1937 9.1015 21.1647 9.0965 21.1387 9.0685M23.3622 5.9044C23.4262 5.7824 23.4342 5.6484 23.3842 5.5024 23.3332 5.3524 23.2452 5.2484 23.1182 5.1884 22.9922 5.1294 22.8512 5.1264 22.6952 5.1794L22.0482 5.3994C22.0302 5.4054 22.0252 5.4164 22.0312 5.4334L22.3492 6.3714C22.3552 6.3874 22.3672 6.3934 22.3832 6.3874L23.0312 6.1674C23.1872 6.1144 23.2982 6.0274 23.3622 5.9044M23.2282 4.4584C23.4292 4.4914 23.6052 4.5774 23.7562 4.7134 23.9062 4.8494 24.0182 5.0264 24.0922 5.2434 24.1652 5.4584 24.1812 5.6624 24.1392 5.8594 24.0982 6.0544 24.0052 6.2274 23.8612 6.3774 23.7162 6.5264 23.5302 6.6404 23.3032 6.7174L22.5792 6.9634C22.5632 6.9694 22.5572 6.9804 22.5632 6.9974L23.0052 8.2974C23.0102 8.3144 23.0092 8.3304 23.0022 8.3464 22.9932 8.3624 22.9812 8.3734 22.9642 8.3784L22.3682 8.5814C22.3512 8.5874 22.3352 8.5864 22.3192 8.5784 22.3032 8.5704 22.2922 8.5584 22.2862 8.5414L21.1132 5.0924C21.1072 5.0744 21.1082 5.0584 21.1162 5.0424 21.1242 5.0264 21.1362 5.0154 21.1542 5.0094L22.5902 4.5214C22.8142 4.4454 23.0272 4.4244 23.2282 4.4584M27.2138 3.4132C27.2288 3.4232 27.2378 3.4362 27.2408 3.4542L27.3448 3.9712C27.3488 3.9892 27.3458 4.0052 27.3358 4.0192 27.3258 4.0352 27.3128 4.0432 27.2948 4.0472L26.3508 4.2372C26.3328 4.2412 26.3258 4.2512 26.3298 4.2692L26.9248 7.2282C26.9288 7.2462 26.9258 7.2622 26.9158 7.2772 26.9058 7.2922 26.8928 7.3012 26.8748 7.3052L26.2578 7.4292C26.2398 7.4332 26.2238 7.4292 26.2088 7.4192 26.1938 7.4102 26.1848 7.3962 26.1818 7.3782L25.5858 4.4192C25.5818 4.4012 25.5708 4.3942 25.5538 4.3972L24.6358 4.5822C24.6178 4.5862 24.6018 4.5832 24.5878 4.5732 24.5728 4.5632 24.5638 4.5502 24.5598 4.5322L24.4558 4.0152C24.4518 3.9972 24.4558 3.9812 24.4648 3.9662 24.4748 3.9522 24.4888 3.9422 24.5058 3.9392L27.1648 3.4032C27.1828 3.4002 27.1988 3.4032 27.2138 3.4132M30.0639 6.132C30.1759 5.998 30.2249 5.827 30.2099 5.62L30.1239 4.439C30.1079 4.232 30.0369 4.069 29.9069 3.95 29.7779 3.832 29.6129 3.78 29.4129 3.795 29.2159 3.809 29.0629 3.884 28.9519 4.02 28.8409 4.155 28.7929 4.327 28.8089 4.535L28.8949 5.715C28.9099 5.923 28.9819 6.085 29.1109 6.202 29.2399 6.318 29.4029 6.369 29.5999 6.355 29.7959 6.34 29.9509 6.266 30.0639 6.132M28.8969 6.886C28.6749 6.787 28.4979 6.639 28.3649 6.442 28.2319 6.245 28.1559 6.012 28.1359 5.744L28.0519 4.595C28.0329 4.331 28.0749 4.092 28.1779 3.88 28.2809 3.667 28.4359 3.496 28.6399 3.368 28.8449 3.24 29.0859 3.166 29.3659 3.145 29.6479 3.125 29.8999 3.163 30.1219 3.26 30.3419 3.357 30.5199 3.504 30.6519 3.699 30.7859 3.894 30.8619 4.124 30.8809 4.389L30.9649 5.538C30.9839 5.806 30.9419 6.049 30.8399 6.264 30.7369 6.481 30.5829 6.653 30.3779 6.781 30.1729 6.909 29.9299 6.984 29.6469 7.004 29.3679 7.025 29.1179 6.986 28.8969 6.886M33.6483 6.3165 34.2953 6.3865C34.4603 6.4035 34.5993 6.3635 34.7123 6.2635 34.8263 6.1645 34.8943 6.0215 34.9183 5.8365L35.0513 4.6065C35.0713 4.4205 35.0363 4.2675 34.9463 4.1455 34.8563 4.0245 34.7263 3.9535 34.5553 3.9355L33.9133 3.8655C33.8953 3.8645 33.8853 3.8725 33.8833 3.8895L33.6243 6.2865C33.6233 6.3045 33.6303 6.3145 33.6483 6.3165M32.8183 6.8625C32.8073 6.8495 32.8023 6.8335 32.8043 6.8155L33.1943 3.1985C33.1963 3.1805 33.2043 3.1665 33.2183 3.1545 33.2323 3.1445 33.2483 3.1395 33.2663 3.1415L34.6033 3.2855C34.8713 3.3145 35.1003 3.3875 35.2923 3.5035 35.4833 3.6195 35.6253 3.7695 35.7173 3.9525 35.8093 4.1355 35.8433 4.3395 35.8183 4.5645L35.6593 6.0415C35.6353 6.2655 35.5583 6.4575 35.4293 6.6165 35.3003 6.7765 35.1293 6.8925 34.9183 6.9645 34.7063 7.0375 34.4663 7.0595 34.1993 7.0305L32.8613 6.8865C32.8433 6.8845 32.8293 6.8765 32.8183 6.8625M36.7167 7.3116C36.5387 7.1566 36.4177 6.9706 36.3507 6.7526 36.2847 6.5346 36.2827 6.3016 36.3437 6.0546L36.9347 3.6726C36.9397 3.6556 36.9487 3.6426 36.9647 3.6336 36.9797 3.6236 36.9957 3.6216 37.0127 3.6256L37.6247 3.7776C37.6417 3.7816 37.6547 3.7916 37.6637 3.8066 37.6737 3.8226 37.6757 3.8386 37.6717 3.8556L37.0787 6.2426C37.0337 6.4276 37.0527 6.5906 37.1377 6.7316 37.2227 6.8726 37.3577 6.9666 37.5427 7.0116 37.7267 7.0576 37.8897 7.0386 38.0307 6.9536 38.1727 6.8676 38.2657 6.7326 38.3117 6.5486L38.9047 4.1616C38.9087 4.1446 38.9187 4.1306 38.9337 4.1216 38.9487 4.1126 38.9647 4.1096 38.9827 4.1146L39.5937 4.2666C39.6107 4.2706 39.6237 4.2806 39.6337 4.2956 39.6427 4.3106 39.6447 4.3276 39.6407 4.3446L39.0497 6.7266C38.9877 6.9736 38.8777 7.1776 38.7167 7.3396 38.5567 7.5006 38.3627 7.6086 38.1327 7.6626 37.9027 7.7166 37.6537 7.7106 37.3857 7.6446 37.1177 7.5776 36.8947 7.4666 36.7167 7.3116M41.1908 5.5465 40.8498 6.4005C40.8428 6.4175 40.8478 6.4295 40.8638 6.4355L41.5188 6.6975C41.6588 6.7535 41.7898 6.7575 41.9108 6.7095 42.0328 6.6615 42.1198 6.5705 42.1728 6.4375 42.2268 6.3045 42.2258 6.1775 42.1718 6.0575 42.1178 5.9375 42.0208 5.8485 41.8798 5.7935L41.2258 5.5315C41.2088 5.5245 41.1978 5.5295 41.1908 5.5465M41.2068 8.8275 41.1348 7.1935C41.1338 7.1775 41.1268 7.1665 41.1128 7.1615L40.6488 6.9755C40.6318 6.9685 40.6208 6.9735 40.6138 6.9905L40.0678 8.3545C40.0618 8.3715 40.0498 8.3835 40.0338 8.3905 40.0178 8.3975 40.0018 8.3975 39.9838 8.3905L39.3998 8.1575C39.3828 8.1505 39.3718 8.1395 39.3638 8.1225 39.3578 8.1065 39.3578 8.0895 39.3638 8.0735L40.7138 4.6945C40.7208 4.6785 40.7318 4.6665 40.7488 4.6595 40.7648 4.6525 40.7808 4.6525 40.7978 4.6595L42.2268 5.2305C42.4408 5.3155 42.6098 5.4335 42.7368 5.5855 42.8638 5.7355 42.9398 5.9095 42.9638 6.1045 42.9888 6.2995 42.9588 6.5025 42.8748 6.7125 42.7848 6.9385 42.6498 7.1095 42.4728 7.2265 42.2948 7.3425 42.0908 7.3935 41.8608 7.3795 41.8418 7.3795 41.8318 7.3885 41.8318 7.4075L41.9458 9.0935C41.9478 9.1095 41.9468 9.1215 41.9438 9.1275 41.9338 9.1545 41.9098 9.1605 41.8738 9.1455L41.2588 8.9005C41.2258 8.8865 41.2078 8.8625 41.2068 8.8275M43.8983 8.8849 44.7183 9.3579C44.7373 9.3689 44.7493 9.3629 44.7533 9.3409L45.1323 7.7149C45.1363 7.6999 45.1353 7.6919 45.1283 7.6899 45.1213 7.6879 45.1133 7.6909 45.1053 7.6979L43.8963 8.8459C43.8823 8.8629 43.8823 8.8759 43.8983 8.8849M44.4773 10.5299 44.6013 9.9919C44.6023 9.9759 44.5983 9.9659 44.5883 9.9599L43.4423 9.2989C43.4333 9.2939 43.4213 9.2949 43.4083 9.3039L43.0093 9.6829C42.9813 9.7089 42.9533 9.7119 42.9213 9.6949L42.3303 9.3529C42.3113 9.3419 42.3003 9.3289 42.2973 9.3119 42.2943 9.2959 42.3023 9.2789 42.3203 9.2609L45.1463 6.6909C45.1733 6.6649 45.2023 6.6609 45.2333 6.6789L45.9653 7.1009C45.9963 7.1189 46.0073 7.1459 45.9993 7.1829L45.1873 10.9149C45.1873 10.9229 45.1843 10.9309 45.1783 10.9409 45.1623 10.9679 45.1373 10.9729 45.1033 10.9529L44.5113 10.6119C44.4803 10.5929 44.4693 10.5669 44.4773 10.5299M49.5556 9.6583C49.5736 9.6563 49.5886 9.6603 49.6026 9.6713L50.0976 10.0613C50.1116 10.0733 50.1196 10.0873 50.1216 10.1053 50.1236 10.1223 50.1186 10.1383 50.1076 10.1523L47.8536 13.0083C47.8426 13.0223 47.8286 13.0303 47.8106 13.0323 47.7926 13.0343 47.7776 13.0303 47.7636 13.0183L47.2856 12.6413C47.2576 12.6193 47.2466 12.5933 47.2536 12.5613L47.5866 9.8893C47.5876 9.8773 47.5846 9.8683 47.5776 9.8663 47.5716 9.8633 47.5636 9.8673 47.5546 9.8783L46.1556 11.6673C46.1446 11.6813 46.1306 11.6893 46.1126 11.6913 46.0956 11.6943 46.0786 11.6893 46.0656 11.6783L45.5706 11.2883C45.5566 11.2773 45.5486 11.2623 45.5466 11.2443 45.5446 11.2273 45.5496 11.2113 45.5606 11.1973L47.8146 8.3423C47.8256 8.3273 47.8396 8.3203 47.8576 8.3173 47.8746 8.3153 47.8906 8.3203 47.9056 8.3313L48.3826 8.7083C48.4106 8.7303 48.4216 8.7573 48.4146 8.7883L48.0836 11.4483C48.0826 11.4613 48.0856 11.4693 48.0926 11.4723 48.0996 11.4753 48.1076 11.4703 48.1166 11.4593L49.5126 9.6823C49.5236 9.6683 49.5376 9.6603 49.5556 9.6583M52.8065 12.7941C52.8065 12.8121 52.7995 12.8271 52.7865 12.8391L52.4075 13.2061C52.3945 13.2181 52.3785 13.2241 52.3615 13.2241 52.3435 13.2231 52.3285 13.2171 52.3155 13.2041L51.6465 12.5111C51.6345 12.4981 51.6215 12.4981 51.6095 12.5101L49.4365 14.6061C49.4235 14.6191 49.4085 14.6251 49.3905 14.6251 49.3725 14.6241 49.3575 14.6171 49.3455 14.6051L48.9085 14.1511C48.8955 14.1391 48.8895 14.1231 48.8895 14.1061 48.8895 14.0881 48.8965 14.0731 48.9095 14.0601L51.0825 11.9641C51.0955 11.9521 51.0955 11.9391 51.0825 11.9261L50.4325 11.2521C50.4205 11.2391 50.4135 11.2241 50.4145 11.2061 50.4145 11.1881 50.4215 11.1731 50.4345 11.1611L50.8135 10.7941C50.8265 10.7821 50.8425 10.7761 50.8595 10.7761 50.8775 10.7761 50.8925 10.7831 50.9055 10.7961L52.7885 12.7481C52.8005 12.7611 52.8065 12.7761 52.8065 12.7941M54.4867 15.9879C54.4687 15.9859 54.4547 15.9769 54.4447 15.9629L53.3897 14.5479C53.3787 14.5329 53.3657 14.5309 53.3517 14.5419L52.6827 15.0409C52.6687 15.0509 52.6667 15.0639 52.6777 15.0779L53.3687 16.0059C53.3797 16.0199 53.3837 16.0359 53.3817 16.0539 53.3787 16.0709 53.3697 16.0859 53.3557 16.0959L52.9377 16.4079C52.9227 16.4189 52.9067 16.4229 52.8897 16.4209 52.8717 16.4179 52.8577 16.4089 52.8467 16.3949L52.1557 15.4669C52.1447 15.4529 52.1327 15.4509 52.1177 15.4619L51.4187 15.9829C51.4037 15.9939 51.4027 16.0059 51.4137 16.0209L52.4677 17.4359C52.4787 17.4499 52.4837 17.4659 52.4807 17.4839 52.4777 17.5009 52.4697 17.5149 52.4557 17.5259L52.0367 17.8379C52.0227 17.8489 52.0067 17.8529 51.9887 17.8499 51.9707 17.8479 51.9567 17.8399 51.9457 17.8249L50.4607 15.8319C50.4497 15.8169 50.4447 15.8009 50.4477 15.7839 50.4507 15.7659 50.4587 15.7519 50.4737 15.7409L53.3897 13.5669C53.4037 13.5559 53.4207 13.5519 53.4377 13.5549 53.4557 13.5569 53.4697 13.5659 53.4807 13.5799L54.9657 15.5729C54.9767 15.5879 54.9817 15.6039 54.9787 15.6209 54.9757 15.6389 54.9677 15.6529 54.9527 15.6639L54.5347 15.9759C54.5207 15.9869 54.5047 15.9899 54.4867 15.9879M56.828 20.2286C56.811 20.2226 56.799 20.2116 56.791 20.1956L55.998 18.6186C55.99 18.6026 55.978 18.5986 55.962 18.6066L55.217 18.9816C55.201 18.9896 55.197 19.0016 55.204 19.0176L55.724 20.0516C55.732 20.0676 55.733 20.0836 55.728 20.1006 55.723 20.1176 55.712 20.1296 55.696 20.1386L55.229 20.3726C55.213 20.3806 55.197 20.3816 55.18 20.3766 55.163 20.3706 55.151 20.3596 55.142 20.3436L54.623 19.3106C54.615 19.2936 54.603 19.2906 54.587 19.2986L53.808 19.6896C53.792 19.6976 53.788 19.7096 53.796 19.7256L54.589 21.3026C54.597 21.3186 54.598 21.3356 54.592 21.3526 54.587 21.3696 54.576 21.3816 54.56 21.3896L54.094 21.6246C54.078 21.6326 54.061 21.6336 54.044 21.6276 54.027 21.6226 54.015 21.6116 54.007 21.5956L52.89 19.3746C52.882 19.3576 52.881 19.3416 52.887 19.3246 52.892 19.3076 52.903 19.2956 52.919 19.2876L56.169 17.6536C56.185 17.6456 56.202 17.6446 56.219 17.6496 56.235 17.6556 56.248 17.6656 56.256 17.6826L57.372 19.9036C57.381 19.9196 57.382 19.9366 57.376 19.9526 57.37 19.9696 57.36 19.9816 57.344 19.9906L56.877 20.2246C56.861 20.2326 56.845 20.2336 56.828 20.2286M54.2558 22.1505C54.2628 22.1345 54.2758 22.1235 54.2928 22.1175L57.7238 20.9085C57.7408 20.9025 57.7568 20.9035 57.7728 20.9115 57.7888 20.9195 57.7998 20.9315 57.8058 20.9485L58.0148 21.5425C58.0218 21.5595 58.0208 21.5755 58.0128 21.5915 58.0048 21.6075 57.9928 21.6185 57.9758 21.6245L55.1228 22.6295C55.1068 22.6355 55.1008 22.6465 55.1068 22.6635L55.6918 24.3235C55.6968 24.3405 55.6958 24.3565 55.6888 24.3725 55.6808 24.3885 55.6688 24.3995 55.6518 24.4055L55.1598 24.5795C55.1428 24.5855 55.1258 24.5845 55.1098 24.5765 55.0938 24.5685 55.0828 24.5565 55.0768 24.5395L54.2528 22.1995C54.2468 22.1825 54.2478 22.1665 54.2558 22.1505M59.0043 28.2213C58.9893 28.2113 58.9813 28.1973 58.9783 28.1793L58.6893 26.4373C58.6863 26.4203 58.6763 26.4123 58.6583 26.4153L57.8363 26.5523C57.8173 26.5543 57.8103 26.5653 57.8133 26.5833L58.0033 27.7243C58.0053 27.7423 58.0023 27.7583 57.9913 27.7723 57.9813 27.7873 57.9673 27.7953 57.9493 27.7983L57.4343 27.8843C57.4173 27.8873 57.4003 27.8833 57.3863 27.8723 57.3723 27.8623 57.3633 27.8483 57.3603 27.8303L57.1713 26.6893C57.1683 26.6713 57.1583 26.6643 57.1403 26.6673L56.2803 26.8093C56.2623 26.8123 56.2553 26.8233 56.2583 26.8413L56.5463 28.5823C56.5493 28.5993 56.5463 28.6163 56.5353 28.6303 56.5253 28.6443 56.5113 28.6533 56.4933 28.6563L55.9783 28.7423C55.9613 28.7443 55.9443 28.7413 55.9303 28.7303 55.9163 28.7203 55.9073 28.7063 55.9043 28.6883L55.4983 26.2363C55.4953 26.2183 55.4983 26.2023 55.5083 26.1873 55.5193 26.1733 55.5333 26.1643 55.5503 26.1613L59.1393 25.5663C59.1573 25.5633 59.1733 25.5673 59.1883 25.5773 59.2023 25.5883 59.2113 25.6023 59.2143 25.6193L59.6203 28.0733C59.6233 28.0903 59.6193 28.1063 59.6093 28.1203 59.5993 28.1353 59.5853 28.1443 59.5673 28.1473L59.0523 28.2323C59.0343 28.2353 59.0183 28.2313 59.0043 28.2213M59.8021 31.6608 59.8171 32.2898C59.8181 32.3078 59.8111 32.3238 59.7991 32.3368 59.7871 32.3488 59.7721 32.3558 59.7541 32.3568L56.1171 32.4428C56.0991 32.4438 56.0841 32.4368 56.0711 32.4248 56.0581 32.4128 56.0521 32.3978 56.0511 32.3798L56.0361 31.7498C56.0351 31.7328 56.0411 31.7168 56.0541 31.7038 56.0661 31.6908 56.0811 31.6848 56.0991 31.6838L58.4711 31.6278C58.4861 31.6278 58.4931 31.6238 58.4931 31.6168 58.4931 31.6098 58.4871 31.6028 58.4761 31.5958L57.5701 31.0468C57.5401 31.0288 57.5261 31.0048 57.5251 30.9728L57.5171 30.6548C57.5161 30.6228 57.5301 30.5968 57.5581 30.5778L58.4381 29.9868C58.4481 29.9798 58.4531 29.9728 58.4511 29.9648 58.4491 29.9578 58.4411 29.9548 58.4271 29.9548L56.0591 30.0118C56.0411 30.0118 56.0261 30.0058 56.0131 29.9938 56.0001 29.9808 55.9941 29.9658 55.9931 29.9478L55.9781 29.3188C55.9781 29.3008 55.9841 29.2858 55.9961 29.2728 56.0081 29.2598 56.0231 29.2528 56.0411 29.2528L59.6781 29.1658C59.6961 29.1658 59.7121 29.1718 59.7241 29.1838 59.7371 29.1958 59.7441 29.2108 59.7441 29.2288L59.7591 29.8588C59.7601 29.8908 59.7461 29.9158 59.7181 29.9348L58.4841 30.7718C58.4621 30.7828 58.4631 30.7938 58.4841 30.8038L59.7571 31.5868C59.7861 31.6038 59.8011 31.6288 59.8021 31.6608M58.9809 34.212 58.1479 34.111C58.1289 34.109 58.1199 34.117 58.1169 34.135L58.0419 34.76C58.0219 34.927 58.0449 35.062 58.1119 35.164 58.1799 35.266 58.2809 35.325 58.4159 35.341 58.5549 35.358 58.6699 35.325 58.7619 35.242 58.8529 35.159 58.9089 35.034 58.9289 34.867L59.0039 34.242C59.0059 34.224 58.9989 34.214 58.9809 34.212M56.5609 35.015C56.6339 35.117 56.7429 35.177 56.8889 35.195 57.0349 35.212 57.1549 35.18 57.2509 35.098 57.3449 35.015 57.4029 34.89 57.4229 34.723L57.5029 34.061C57.5049 34.043 57.4969 34.033 57.4799 34.03L56.5929 33.923C56.5749 33.921 56.5649 33.929 56.5629 33.947L56.4819 34.615C56.4619 34.778 56.4889 34.912 56.5609 35.015M57.6549 35.537C57.4399 35.854 57.1289 35.988 56.7229 35.94 56.3779 35.898 56.1309 35.749 55.9829 35.492 55.8349 35.236 55.7839 34.917 55.8299 34.536L55.9979 33.152C55.9999 33.134 56.0069 33.12 56.0219 33.109 56.0359 33.098 56.0509 33.094 56.0689 33.096L59.6809 33.532C59.6989 33.534 59.7129 33.542 59.7239 33.556 59.7349 33.57 59.7389 33.586 59.7369 33.604L59.5749 34.945C59.4729 35.789 59.0809 36.17 58.3969 36.087 58.0409 36.044 57.8039 35.862 57.6879 35.541 57.6789 35.518 57.6689 35.517 57.6549 35.537M56.515 37.4376 56.278 38.3546C56.273 38.3746 56.282 38.3846 56.304 38.3836L57.973 38.3136C57.988 38.3136 57.995 38.3106 57.995 38.3026 57.995 38.2956 57.991 38.2886 57.981 38.2826L56.552 37.4246C56.532 37.4156 56.519 37.4196 56.515 37.4376M55.085 38.4356 55.636 38.4106C55.651 38.4076 55.661 38.4006 55.663 38.3906L55.994 37.1086C55.997 37.0986 55.992 37.0876 55.98 37.0766L55.508 36.7936C55.476 36.7746 55.465 36.7476 55.473 36.7126L55.644 36.0516C55.65 36.0306 55.66 36.0166 55.675 36.0086 55.69 36.0016 55.708 36.0046 55.731 36.0176L58.963 38.0526C58.995 38.0716 59.006 38.0996 58.997 38.1336L58.786 38.9516C58.777 38.9866 58.754 39.0046 58.717 39.0056L54.904 39.2226C54.896 39.2246 54.887 39.2236 54.876 39.2206 54.845 39.2126 54.834 39.1896 54.844 39.1516L55.015 38.4896C55.024 38.4556 55.047 38.4376 55.085 38.4356M57.2191 41.5319 56.3691 41.1789C56.3521 41.1719 56.3411 41.1769 56.3341 41.1939L56.0631 41.8439C56.0061 41.9839 56.0001 42.1139 56.0461 42.2369 56.0931 42.3589 56.1821 42.4469 56.3141 42.5019 56.4471 42.5569 56.5731 42.5589 56.6951 42.5059 56.8161 42.4529 56.9051 42.3579 56.9631 42.2189L57.2331 41.5669C57.2401 41.5509 57.2361 41.5389 57.2191 41.5319M53.9381 41.5029 55.5731 41.4539C55.5891 41.4529 55.6001 41.4459 55.6051 41.4319L55.7971 40.9699C55.8041 40.9539 55.8001 40.9419 55.7831 40.9349L54.4261 40.3709C54.4091 40.3639 54.3981 40.3519 54.3911 40.3359 54.3851 40.3199 54.3851 40.3029 54.3911 40.2869L54.6331 39.7049C54.6401 39.6889 54.6521 39.6769 54.6681 39.6699 54.6841 39.6629 54.7011 39.6629 54.7181 39.6709L58.0761 41.0669C58.0931 41.0739 58.1051 41.0859 58.1121 41.1019 58.1181 41.1179 58.1181 41.1349 58.1121 41.1519L57.5211 42.5729C57.4321 42.7839 57.3121 42.9529 57.1591 43.0779 57.0061 43.2029 56.8321 43.2759 56.6361 43.2979 56.4411 43.3199 56.2391 43.2869 56.0301 43.1999 55.8041 43.1059 55.6351 42.9699 55.5211 42.7899 55.4071 42.6109 55.3601 42.4069 55.3771 42.1769 55.3781 42.1569 55.3681 42.1479 55.3481 42.1479L53.6611 42.2389C53.6451 42.2399 53.6341 42.2389 53.6281 42.2359 53.6011 42.2249 53.5951 42.2009 53.6111 42.1649L53.8651 41.5539C53.8781 41.5209 53.9031 41.5039 53.9381 41.5029M53.8461 44.1906 53.3611 45.0046C53.3501 45.0236 53.3561 45.0346 53.3781 45.0396L54.9991 45.4406C55.0131 45.4446 55.0211 45.4436 55.0241 45.4366 55.0261 45.4296 55.0231 45.4216 55.0151 45.4136L53.8851 44.1886C53.8681 44.1746 53.8551 44.1746 53.8461 44.1906M52.1931 44.7476 52.7291 44.8786C52.7441 44.8796 52.7551 44.8756 52.7611 44.8666L53.4381 43.7286C53.4441 43.7196 53.4421 43.7086 53.4331 43.6946L53.0601 43.2906C53.0341 43.2636 53.0311 43.2336 53.0501 43.2036L53.3991 42.6156C53.4101 42.5976 53.4241 42.5866 53.4401 42.5836 53.4561 42.5816 53.4731 42.5886 53.4921 42.6076L56.0231 45.4676C56.0481 45.4956 56.0521 45.5246 56.0331 45.5556L55.6011 46.2816C55.5831 46.3126 55.5551 46.3226 55.5191 46.3146L51.7991 45.4516C51.7901 45.4516 51.7821 45.4486 51.7731 45.4426 51.7451 45.4266 51.7411 45.4006 51.7621 45.3676L52.1111 44.7796C52.1291 44.7496 52.1571 44.7386 52.1931 44.7476M51.5209 45.714C51.5389 45.712 51.5539 45.716 51.5679 45.728L52.0229 46.089C52.0449 46.108 52.0609 46.131 52.0689 46.161L52.8319 48.989C52.8329 48.999 52.8379 49.004 52.8469 49.004 52.8559 49.005 52.8639 49.001 52.8709 48.992L53.9159 47.678C53.9269 47.664 53.9409 47.656 53.9589 47.654 53.9769 47.652 53.9929 47.656 54.0069 47.668L54.4149 47.993C54.4289 48.004 54.4369 48.018 54.4389 48.036 54.4409 48.053 54.4369 48.069 54.4249 48.084L52.8739 50.033C52.8629 50.047 52.8489 50.055 52.8309 50.057 52.8129 50.059 52.7969 50.055 52.7839 50.044L52.3289 49.682C52.3059 49.664 52.2909 49.64 52.2819 49.61L51.5199 46.783C51.5169 46.776 51.5109 46.771 51.5029 46.769 51.4949 46.768 51.4879 46.771 51.4809 46.779L50.4359 48.093C50.4249 48.108 50.4099 48.115 50.3929 48.117 50.3749 48.119 50.3589 48.115 50.3449 48.104L49.9369 47.779C49.9219 47.768 49.9149 47.753 49.9129 47.735 49.9109 47.718 49.9149 47.702 49.9259 47.688L51.4779 45.738C51.4889 45.724 51.5029 45.716 51.5209 45.714M48.7675 49.9645C48.7675 50.1395 48.8395 50.3015 48.9845 50.4515L49.8095 51.3005C49.9545 51.4505 50.1145 51.5285 50.2885 51.5365 50.4635 51.5445 50.6235 51.4775 50.7675 51.3385 50.9095 51.2005 50.9785 51.0445 50.9765 50.8695 50.9745 50.6935 50.9005 50.5315 50.7555 50.3825L49.9305 49.5325C49.7855 49.3835 49.6265 49.3055 49.4525 49.2995 49.2795 49.2935 49.1215 49.3585 48.9795 49.4965 48.8385 49.6335 48.7675 49.7895 48.7675 49.9645M49.1775 48.6365C49.4105 48.5705 49.6415 48.5705 49.8705 48.6355 50.0985 48.7015 50.3065 48.8305 50.4945 49.0245L51.2955 49.8505C51.4805 50.0405 51.6015 50.2505 51.6595 50.4795 51.7175 50.7095 51.7085 50.9385 51.6345 51.1685 51.5595 51.3985 51.4215 51.6105 51.2215 51.8055 51.0175 52.0025 50.8005 52.1345 50.5685 52.2025 50.3365 52.2705 50.1065 52.2725 49.8795 52.2075 49.6515 52.1435 49.4455 52.0155 49.2605 51.8255L48.4585 50.9995C48.2715 50.8055 48.1475 50.5935 48.0875 50.3615 48.0275 50.1305 48.0355 49.8995 48.1095 49.6695 48.1845 49.4395 48.3225 49.2265 48.5265 49.0285 48.7265 48.8335 48.9445 48.7035 49.1775 48.6365M46.9013 52.1422C47.0143 52.1602 47.1063 52.2182 47.1783 52.3162 47.2523 52.4172 47.2803 52.5232 47.2633 52.6342 47.2463 52.7442 47.1873 52.8362 47.0853 52.9102 46.9843 52.9842 46.8783 53.0132 46.7673 52.9952 46.6573 52.9782 46.5653 52.9182 46.4913 52.8172 46.4193 52.7192 46.3923 52.6132 46.4103 52.5002 46.4273 52.3872 46.4853 52.2952 46.5843 52.2232 46.6823 52.1512 46.7883 52.1242 46.9013 52.1422M43.83 54.0421 42.991 54.4821C42.972 54.4921 42.971 54.5051 42.987 54.5211L44.159 55.7111C44.168 55.7221 44.176 55.7251 44.182 55.7201 44.187 55.7151 44.189 55.7071 44.187 55.6961L43.864 54.0611C43.857 54.0401 43.846 54.0341 43.83 54.0421M42.13 53.6511 42.518 54.0431C42.531 54.0531 42.542 54.0551 42.552 54.0501L43.725 53.4351C43.734 53.4301 43.738 53.4191 43.738 53.4031L43.631 52.8641C43.624 52.8271 43.637 52.8001 43.668 52.7841L44.273 52.4661C44.292 52.4561 44.309 52.4541 44.325 52.4601 44.34 52.4661 44.351 52.4821 44.356 52.5081L45.017 56.2691C45.024 56.3061 45.012 56.3331 44.98 56.3501L44.232 56.7421C44.2 56.7591 44.171 56.7531 44.145 56.7271L41.425 54.0451C41.419 54.0411 41.413 54.0341 41.408 54.0241 41.393 53.9961 41.403 53.9721 41.438 53.9541L42.043 53.6361C42.075 53.6201 42.104 53.6251 42.13 53.6511M39.9818 56.8439C39.9198 56.9669 39.9138 57.1009 39.9658 57.2469 40.0198 57.3949 40.1098 57.4979 40.2368 57.5549 40.3648 57.6129 40.5058 57.6139 40.6608 57.5569L41.3048 57.3259C41.3208 57.3209 41.3268 57.3089 41.3208 57.2919L40.9858 56.3599C40.9798 56.3429 40.9688 56.3379 40.9518 56.3439L40.3088 56.5749C40.1528 56.6309 40.0438 56.7199 39.9818 56.8439M40.1398 58.2879C39.9388 58.2579 39.7618 58.1749 39.6078 58.0409 39.4558 57.9069 39.3398 57.7329 39.2628 57.5159 39.1868 57.3039 39.1678 57.0989 39.2048 56.9029 39.2428 56.7059 39.3328 56.5319 39.4748 56.3799 39.6168 56.2279 39.8008 56.1109 40.0268 56.0299L40.7458 55.7719C40.7628 55.7649 40.7688 55.7539 40.7618 55.7369L40.2978 54.4459C40.2928 54.4289 40.2928 54.4119 40.3008 54.3959 40.3088 54.3799 40.3208 54.3689 40.3368 54.3629L40.9298 54.1499C40.9468 54.1439 40.9628 54.1449 40.9798 54.1529 40.9958 54.1599 41.0058 54.1719 41.0128 54.1889L42.2438 57.6179C42.2498 57.6349 42.2498 57.6509 42.2418 57.6669 42.2338 57.6829 42.2218 57.6949 42.2048 57.6999L40.7768 58.2139C40.5538 58.2939 40.3418 58.3189 40.1398 58.2879M36.1371 59.4073C36.1221 59.3973 36.1131 59.3843 36.1091 59.3663L35.9971 58.8513C35.9931 58.8333 35.9961 58.8173 36.0051 58.8023 36.0151 58.7873 36.0291 58.7783 36.0461 58.7743L36.9871 58.5693C37.0051 58.5653 37.0121 58.5543 37.0081 58.5373L36.3661 55.5873C36.3621 55.5703 36.3651 55.5533 36.3741 55.5383 36.3841 55.5243 36.3981 55.5143 36.4151 55.5113L37.0301 55.3773C37.0481 55.3733 37.0641 55.3763 37.0791 55.3853 37.0941 55.3953 37.1031 55.4083 37.1071 55.4263L37.7491 58.3763C37.7531 58.3933 37.7641 58.4003 37.7811 58.3963L38.6961 58.1973C38.7141 58.1933 38.7301 58.1963 38.7451 58.2063 38.7601 58.2163 38.7691 58.2293 38.7731 58.2463L38.8851 58.7623C38.8891 58.7803 38.8861 58.7963 38.8771 58.8103 38.8671 58.8253 38.8531 58.8353 38.8361 58.8393L36.1861 59.4163C36.1681 59.4193 36.1521 59.4163 36.1371 59.4073M33.2533 56.7316C33.1433 56.8676 33.0973 57.0386 33.1153 57.2466L33.2203 58.4256C33.2383 58.6326 33.3133 58.7946 33.4443 58.9106 33.5753 59.0266 33.7403 59.0766 33.9403 59.0586 34.1373 59.0416 34.2903 58.9636 34.3983 58.8256 34.5063 58.6886 34.5513 58.5166 34.5333 58.3086L34.4283 57.1296C34.4103 56.9226 34.3363 56.7616 34.2053 56.6476 34.0743 56.5326 33.9103 56.4836 33.7133 56.5016 33.5173 56.5196 33.3633 56.5956 33.2533 56.7316M34.4083 55.9596C34.6313 56.0546 34.8113 56.1996 34.9463 56.3946 35.0833 56.5896 35.1633 56.8216 35.1873 57.0886L35.2893 58.2366C35.3123 58.5006 35.2743 58.7396 35.1743 58.9546 35.0743 59.1686 34.9233 59.3416 34.7203 59.4726 34.5183 59.6046 34.2773 59.6826 33.9983 59.7076 33.7163 59.7316 33.4633 59.6976 33.2413 59.6046 33.0183 59.5106 32.8393 59.3666 32.7033 59.1736 32.5673 58.9806 32.4873 58.7516 32.4633 58.4876L32.3623 57.3396C32.3383 57.0716 32.3763 56.8296 32.4753 56.6116 32.5753 56.3936 32.7263 56.2196 32.9283 56.0876 33.1313 55.9566 33.3743 55.8776 33.6563 55.8526 33.9353 55.8286 34.1863 55.8636 34.4083 55.9596M29.685 56.6051 29.037 56.5461C28.872 56.5311 28.734 56.5741 28.622 56.6751 28.51 56.7771 28.444 56.9201 28.423 57.1061L28.311 58.3381C28.294 58.5241 28.331 58.6771 28.423 58.7971 28.515 58.9181 28.646 58.9851 28.818 59.0011L29.461 59.0601C29.479 59.0611 29.489 59.0531 29.49 59.0351L29.709 56.6341C29.711 56.6161 29.703 56.6061 29.685 56.6051M30.506 56.0451C30.518 56.0591 30.522 56.0741 30.52 56.0921L30.19 59.7151C30.189 59.7331 30.181 59.7481 30.167 59.7591 30.154 59.7701 30.138 59.7751 30.12 59.7731L28.78 59.6511C28.512 59.6271 28.282 59.5581 28.088 59.4451 27.895 59.3321 27.751 59.1851 27.656 59.0031 27.561 58.8211 27.523 58.6181 27.544 58.3931L27.679 56.9141C27.7 56.6881 27.773 56.4961 27.899 56.3341 28.026 56.1731 28.194 56.0541 28.405 55.9781 28.615 55.9011 28.854 55.8761 29.123 55.9001L30.462 56.0221C30.48 56.0231 30.495 56.0311 30.506 56.0451M26.5912 55.6583C26.7712 55.8103 26.8962 55.9943 26.9662 56.2113 27.0352 56.4283 27.0422 56.6603 26.9852 56.9093L26.4322 59.3003C26.4282 59.3173 26.4192 59.3313 26.4042 59.3403 26.3892 59.3493 26.3732 59.3523 26.3552 59.3483L25.7412 59.2073C25.7242 59.2023 25.7112 59.1933 25.7012 59.1783 25.6922 59.1633 25.6892 59.1473 25.6932 59.1293L26.2462 56.7333C26.2892 56.5483 26.2672 56.3853 26.1792 56.2453 26.0922 56.1053 25.9562 56.0143 25.7702 55.9713 25.5852 55.9293 25.4232 55.9513 25.2822 56.0383 25.1432 56.1263 25.0512 56.2623 25.0082 56.4473L24.4562 58.8443C24.4512 58.8613 24.4422 58.8743 24.4272 58.8843 24.4122 58.8933 24.3962 58.8963 24.3782 58.8923L23.7652 58.7503C23.7472 58.7463 23.7342 58.7373 23.7242 58.7213 23.7152 58.7073 23.7122 58.6903 23.7162 58.6733L24.2682 56.2823C24.3252 56.0333 24.4332 55.8273 24.5912 55.6633 24.7482 55.4993 24.9412 55.3883 25.1702 55.3303 25.3992 55.2723 25.6482 55.2753 25.9172 55.3373 26.1862 55.3993 26.4112 55.5063 26.5912 55.6583M22.1605 57.5011 22.4875 56.6411C22.4935 56.6241 22.4885 56.6131 22.4725 56.6061L21.8125 56.3551C21.6725 56.3021 21.5415 56.3001 21.4205 56.3511 21.2995 56.4001 21.2145 56.4931 21.1625 56.6261 21.1125 56.7611 21.1145 56.8881 21.1715 57.0071 21.2275 57.1261 21.3265 57.2121 21.4665 57.2661L22.1255 57.5171C22.1425 57.5231 22.1545 57.5181 22.1605 57.5011M22.0895 54.2211 22.1885 55.8541C22.1895 55.8701 22.1975 55.8801 22.2105 55.8851L22.6785 56.0631C22.6955 56.0691 22.7065 56.0641 22.7135 56.0471L23.2355 54.6741C23.2415 54.6571 23.2525 54.6451 23.2685 54.6381 23.2855 54.6311 23.3015 54.6301 23.3185 54.6371L23.9075 54.8601C23.9235 54.8671 23.9355 54.8781 23.9435 54.8941 23.9505 54.9111 23.9515 54.9271 23.9445 54.9441L22.6515 58.3441C22.6455 58.3611 22.6345 58.3731 22.6185 58.3801 22.6015 58.3871 22.5855 58.3881 22.5685 58.3811L21.1295 57.8341C20.9155 57.7531 20.7435 57.6381 20.6135 57.4891 20.4845 57.3401 20.4055 57.1681 20.3775 56.9731 20.3505 56.7781 20.3765 56.5751 20.4565 56.3641 20.5435 56.1361 20.6745 55.9621 20.8505 55.8431 21.0265 55.7241 21.2295 55.6691 21.4595 55.6801 21.4785 55.6801 21.4885 55.6701 21.4885 55.6501L21.3455 53.9671C21.3435 53.9511 21.3445 53.9391 21.3465 53.9331 21.3565 53.9061 21.3805 53.9001 21.4175 53.9141L22.0355 54.1491C22.0695 54.1621 22.0875 54.1861 22.0895 54.2211M19.392 54.2076 18.564 53.7486C18.545 53.7376 18.534 53.7436 18.529 53.7656L18.177 55.3986C18.173 55.4126 18.175 55.4206 18.182 55.4226 18.189 55.4246 18.197 55.4216 18.205 55.4146L19.395 54.2466C19.409 54.2296 19.408 54.2166 19.392 54.2076M18.786 52.5726 18.671 53.1116C18.67 53.1276 18.674 53.1386 18.684 53.1436L19.841 53.7866C19.85 53.7916 19.862 53.7896 19.875 53.7806L20.267 53.3956C20.294 53.3696 20.324 53.3646 20.355 53.3816L20.953 53.7136C20.971 53.7246 20.982 53.7376 20.986 53.7536 20.989 53.7706 20.981 53.7876 20.963 53.8056L18.181 56.4226C18.154 56.4486 18.125 56.4526 18.094 56.4356L17.355 56.0256C17.324 56.0076 17.312 55.9806 17.32 55.9446L18.069 52.1996C18.07 52.1916 18.072 52.1826 18.078 52.1736 18.093 52.1446 18.119 52.1406 18.153 52.1596L18.75 52.4916C18.782 52.5086 18.793 52.5356 18.786 52.5726M13.7045 53.5133C13.6865 53.5153 13.6705 53.5113 13.6565 53.5003L13.1565 53.1173C13.1425 53.1073 13.1335 53.0933 13.1315 53.0753 13.1295 53.0573 13.1335 53.0413 13.1445 53.0273L15.3535 50.1373C15.3645 50.1223 15.3785 50.1143 15.3955 50.1123 15.4135 50.1103 15.4295 50.1143 15.4435 50.1253L15.9275 50.4943C15.9555 50.5163 15.9665 50.5423 15.9605 50.5743L15.6695 53.2503C15.6685 53.2633 15.6715 53.2713 15.6785 53.2743 15.6845 53.2773 15.6925 53.2733 15.7015 53.2623L17.0725 51.4503C17.0825 51.4363 17.0975 51.4283 17.1145 51.4263 17.1325 51.4233 17.1485 51.4283 17.1625 51.4383L17.6625 51.8213C17.6775 51.8323 17.6855 51.8463 17.6875 51.8643 17.6905 51.8813 17.6855 51.8973 17.6755 51.9113L15.4655 54.8023C15.4545 54.8163 15.4405 54.8243 15.4235 54.8263 15.4055 54.8293 15.3895 54.8253 15.3755 54.8143L14.8915 54.4453C14.8635 54.4233 14.8525 54.3963 14.8585 54.3653L15.1475 51.7003C15.1485 51.6873 15.1455 51.6793 15.1385 51.6763 15.1315 51.6733 15.1235 51.6783 15.1155 51.6893L13.7465 53.4883C13.7365 53.5023 13.7225 53.5113 13.7045 53.5133M10.4057 50.4279C10.4057 50.4099 10.4117 50.3949 10.4247 50.3829L10.7987 50.0109C10.8117 49.9979 10.8267 49.9909 10.8437 49.9909 10.8627 49.9909 10.8777 49.9979 10.8897 50.0109L11.5697 50.6929C11.5817 50.7059 11.5947 50.7059 11.6077 50.6939L13.7467 48.5629C13.7597 48.5509 13.7747 48.5449 13.7927 48.5449 13.8107 48.5449 13.8257 48.5509 13.8387 48.5639L14.2827 49.0099C14.2957 49.0229 14.3017 49.0379 14.3017 49.0549 14.3017 49.0739 14.2957 49.0889 14.2817 49.1009L12.1427 51.2309C12.1307 51.2439 12.1307 51.2569 12.1427 51.2689L12.8027 51.9329C12.8157 51.9459 12.8227 51.9609 12.8227 51.9779 12.8227 51.9959 12.8157 52.0109 12.8027 52.0239L12.4297 52.3959C12.4167 52.4089 12.4017 52.4149 12.3837 52.4149 12.3657 52.4149 12.3507 52.4089 12.3377 52.3959L10.4247 50.4739C10.4117 50.4609 10.4057 50.4459 10.4057 50.4279M8.6635 47.2438C8.6815 47.2458 8.6955 47.2548 8.7065 47.2688L9.7825 48.6678C9.7935 48.6818 9.8065 48.6838 9.8205 48.6728L10.4815 48.1638C10.4955 48.1538 10.4975 48.1408 10.4865 48.1268L9.7815 47.2098C9.7695 47.1948 9.7665 47.1798 9.7675 47.1618 9.7705 47.1438 9.7785 47.1298 9.7925 47.1188L10.2065 46.8008C10.2215 46.7898 10.2365 46.7858 10.2545 46.7878 10.2725 46.7898 10.2865 46.7988 10.2975 46.8128L11.0025 47.7298C11.0135 47.7438 11.0265 47.7448 11.0405 47.7348L11.7315 47.2028C11.7455 47.1918 11.7475 47.1798 11.7365 47.1648L10.6605 45.7658C10.6495 45.7518 10.6445 45.7358 10.6475 45.7188 10.6495 45.7008 10.6585 45.6868 10.6725 45.6758L11.0855 45.3578C11.1005 45.3468 11.1165 45.3418 11.1335 45.3448 11.1515 45.3468 11.1655 45.3548 11.1765 45.3688L12.6925 47.3398C12.7035 47.3538 12.7075 47.3698 12.7055 47.3878 12.7025 47.4058 12.6945 47.4198 12.6805 47.4308L9.7965 49.6478C9.7825 49.6598 9.7665 49.6638 9.7485 49.6608 9.7315 49.6588 9.7165 49.6508 9.7055 49.6368L8.1905 47.6658C8.1795 47.6518 8.1755 47.6358 8.1775 47.6178 8.1795 47.5998 8.1875 47.5858 8.2025 47.5748L8.6165 47.2568C8.6305 47.2458 8.6455 47.2418 8.6635 47.2438M6.2777 43.0807C6.2947 43.0857 6.3067 43.0967 6.3157 43.1127L7.1347 44.6767C7.1427 44.6917 7.1547 44.6957 7.1707 44.6877L7.9097 44.3007C7.9257 44.2917 7.9297 44.2807 7.9217 44.2647L7.3837 43.2397C7.3757 43.2237 7.3747 43.2067 7.3797 43.1897 7.3847 43.1727 7.3957 43.1607 7.4117 43.1517L7.8737 42.9097C7.8897 42.9017 7.9057 42.8997 7.9237 42.9057 7.9407 42.9107 7.9527 42.9217 7.9617 42.9367L8.4977 43.9617C8.5067 43.9777 8.5187 43.9817 8.5337 43.9737L9.3067 43.5687C9.3227 43.5607 9.3257 43.5487 9.3177 43.5327L8.4987 41.9687C8.4907 41.9537 8.4887 41.9367 8.4947 41.9197 8.4997 41.9027 8.5097 41.8907 8.5267 41.8817L8.9887 41.6397C9.0047 41.6317 9.0207 41.6297 9.0377 41.6357 9.0547 41.6407 9.0677 41.6507 9.0757 41.6667L10.2297 43.8697C10.2377 43.8857 10.2387 43.9017 10.2337 43.9187 10.2287 43.9357 10.2177 43.9487 10.2017 43.9567L6.9797 45.6437C6.9637 45.6527 6.9467 45.6547 6.9297 45.6487 6.9127 45.6437 6.9007 45.6327 6.8917 45.6177L5.7387 43.4147C5.7307 43.3987 5.7287 43.3827 5.7347 43.3657 5.7397 43.3487 5.7497 43.3357 5.7657 43.3277L6.2287 43.0857C6.2447 43.0767 6.2607 43.0757 6.2777 43.0807M8.8124 41.1027C8.8054 41.1187 8.7924 41.1297 8.7754 41.1367L5.3644 42.3997C5.3484 42.4067 5.3314 42.4057 5.3154 42.3977 5.2994 42.3907 5.2884 42.3787 5.2814 42.3617L5.0624 41.7717C5.0564 41.7547 5.0574 41.7387 5.0644 41.7217 5.0724 41.7057 5.0844 41.6947 5.1014 41.6887L7.9374 40.6377C7.9544 40.6317 7.9594 40.6207 7.9534 40.6027L7.3414 38.9537C7.3354 38.9357 7.3354 38.9197 7.3434 38.9037 7.3514 38.8877 7.3634 38.8757 7.3794 38.8707L7.8694 38.6887C7.8864 38.6827 7.9024 38.6837 7.9184 38.6907 7.9354 38.6977 7.9464 38.7097 7.9524 38.7267L8.8134 41.0537C8.8204 41.0697 8.8194 41.0867 8.8124 41.1027M3.9667 35.1188C3.9817 35.1288 3.9907 35.1428 3.9937 35.1608L4.3107 36.8968C4.3137 36.9138 4.3247 36.9218 4.3417 36.9178L5.1627 36.7688C5.1807 36.7648 5.1877 36.7548 5.1847 36.7368L4.9767 35.5988C4.9727 35.5808 4.9767 35.5648 4.9867 35.5508 4.9967 35.5358 5.0107 35.5268 5.0287 35.5238L5.5417 35.4308C5.5597 35.4268 5.5757 35.4308 5.5907 35.4408 5.6047 35.4508 5.6137 35.4648 5.6167 35.4818L5.8247 36.6198C5.8277 36.6378 5.8387 36.6448 5.8567 36.6418L6.7137 36.4848C6.7317 36.4818 6.7387 36.4718 6.7357 36.4538L6.4187 34.7178C6.4147 34.6998 6.4187 34.6838 6.4287 34.6688 6.4387 34.6548 6.4527 34.6458 6.4697 34.6418L6.9837 34.5488C7.0017 34.5458 7.0177 34.5488 7.0317 34.5588 7.0467 34.5688 7.0557 34.5828 7.0587 34.6008L7.5057 37.0468C7.5087 37.0638 7.5057 37.0798 7.4947 37.0948 7.4857 37.1098 7.4707 37.1188 7.4537 37.1208L3.8747 37.7748C3.8577 37.7778 3.8417 37.7748 3.8267 37.7648 3.8117 37.7548 3.8027 37.7408 3.7997 37.7228L3.3527 35.2778C3.3497 35.2598 3.3537 35.2438 3.3637 35.2288 3.3737 35.2148 3.3877 35.2048 3.4047 35.2018L3.9187 35.1088C3.9367 35.1048 3.9527 35.1088 3.9667 35.1188M3.1127 31.6813 3.0877 31.0523C3.0877 31.0343 3.0927 31.0183 3.1047 31.0053 3.1167 30.9923 3.1317 30.9853 3.1497 30.9853L6.7847 30.8413C6.8027 30.8403 6.8187 30.8463 6.8317 30.8583 6.8447 30.8703 6.8517 30.8853 6.8517 30.9033L6.8767 31.5323C6.8777 31.5503 6.8717 31.5653 6.8597 31.5783 6.8477 31.5913 6.8327 31.5983 6.8147 31.5993L4.4437 31.6933C4.4287 31.6933 4.4227 31.6973 4.4227 31.7043 4.4227 31.7123 4.4287 31.7193 4.4397 31.7253L5.3547 32.2603C5.3837 32.2773 5.3997 32.3013 5.4007 32.3333L5.4127 32.6513C5.4147 32.6833 5.4017 32.7093 5.3727 32.7283L4.5037 33.3333C4.4927 33.3413 4.4887 33.3483 4.4907 33.3553 4.4927 33.3623 4.5007 33.3663 4.5147 33.3653L6.8817 33.2713C6.8997 33.2703 6.9147 33.2763 6.9277 33.2883 6.9407 33.3003 6.9477 33.3153 6.9477 33.3333L6.9727 33.9623C6.9737 33.9803 6.9677 33.9963 6.9557 34.0093 6.9447 34.0223 6.9287 34.0293 6.9107 34.0293L3.2767 34.1733C3.2587 34.1743 3.2427 34.1683 3.2297 34.1573 3.2167 34.1443 3.2097 34.1293 3.2087 34.1113L3.1837 33.4823C3.1827 33.4503 3.1957 33.4243 3.2237 33.4053L4.4457 32.5493C4.4667 32.5373 4.4657 32.5273 4.4437 32.5173L3.1587 31.7543C3.1297 31.7383 3.1137 31.7133 3.1127 31.6813M6.2992 28.2897C6.2252 28.1887 6.1152 28.1297 5.9682 28.1147 5.8222 28.0997 5.7022 28.1337 5.6092 28.2177 5.5152 28.3027 5.4602 28.4287 5.4422 28.5957L5.3732 29.2597C5.3712 29.2777 5.3802 29.2877 5.3972 29.2897L6.2862 29.3817C6.3042 29.3837 6.3142 29.3747 6.3162 29.3577L6.3852 28.6887C6.4022 28.5237 6.3732 28.3917 6.2992 28.2897M3.8932 29.1327 4.7282 29.2197C4.7462 29.2217 4.7562 29.2137 4.7582 29.1957L4.8232 28.5697C4.8412 28.4017 4.8152 28.2677 4.7462 28.1657 4.6772 28.0657 4.5752 28.0077 4.4392 27.9937 4.3002 27.9787 4.1852 28.0147 4.0952 28.0987 4.0062 28.1837 3.9522 28.3097 3.9342 28.4767L3.8692 29.1027C3.8672 29.1217 3.8752 29.1307 3.8932 29.1327M5.1962 27.7857C5.4062 27.4647 5.7152 27.3257 6.1222 27.3677 6.4682 27.4037 6.7172 27.5487 6.8692 27.8027 7.0212 28.0567 7.0782 28.3747 7.0382 28.7567L6.8942 30.1427C6.8922 30.1607 6.8842 30.1747 6.8702 30.1857 6.8572 30.1977 6.8412 30.2017 6.8232 30.2007L3.2052 29.8237C3.1872 29.8227 3.1722 29.8147 3.1612 29.8007 3.1502 29.7867 3.1452 29.7707 3.1472 29.7527L3.2872 28.4097C3.3752 27.5637 3.7612 27.1767 4.4462 27.2477 4.8032 27.2847 5.0432 27.4627 5.1642 27.7827 5.1732 27.8047 5.1842 27.8057 5.1962 27.7857M6.3065 25.8585 6.5285 24.9375C6.5335 24.9175 6.5245 24.9075 6.5015 24.9095L4.8345 25.0055C4.8195 25.0065 4.8125 25.0095 4.8125 25.0175 4.8125 25.0255 4.8175 25.0315 4.8275 25.0375L6.2695 25.8725C6.2905 25.8805 6.3025 25.8765 6.3065 25.8585M7.7205 24.8375 7.1695 24.8705C7.1545 24.8745 7.1445 24.8815 7.1425 24.8925L6.8325 26.1795C6.8305 26.1895 6.8355 26.1995 6.8475 26.2105L7.3235 26.4855C7.3555 26.5045 7.3685 26.5315 7.3595 26.5665L7.1995 27.2305C7.1945 27.2515 7.1845 27.2655 7.1695 27.2735 7.1555 27.2805 7.1365 27.2775 7.1135 27.2655L3.8485 25.2835C3.8165 25.2645 3.8045 25.2375 3.8125 25.2035L4.0105 24.3815C4.0185 24.3465 4.0415 24.3285 4.0795 24.3265L7.8885 24.0475C7.8965 24.0465 7.9055 24.0465 7.9155 24.0485 7.9475 24.0565 7.9585 24.0795 7.9495 24.1175L7.7885 24.7815C7.7805 24.8165 7.7575 24.8355 7.7205 24.8375M5.5307 21.7897 6.3857 22.1287C6.4037 22.1347 6.4147 22.1297 6.4217 22.1137L6.6807 21.4577C6.7367 21.3177 6.7397 21.1867 6.6917 21.0657 6.6427 20.9437 6.5517 20.8567 6.4187 20.8047 6.2857 20.7507 6.1587 20.7517 6.0387 20.8067 5.9187 20.8617 5.8307 20.9587 5.7757 21.0997L5.5157 21.7547C5.5097 21.7707 5.5137 21.7827 5.5307 21.7897M8.8117 21.7637 7.1777 21.8397C7.1617 21.8417 7.1517 21.8487 7.1457 21.8617L6.9617 22.3277C6.9547 22.3437 6.9597 22.3557 6.9767 22.3617L8.3427 22.9027C8.3597 22.9097 8.3707 22.9217 8.3787 22.9377 8.3847 22.9537 8.3857 22.9707 8.3787 22.9867L8.1467 23.5727C8.1407 23.5887 8.1287 23.6017 8.1127 23.6077 8.0967 23.6147 8.0797 23.6157 8.0637 23.6087L4.6807 22.2687C4.6647 22.2627 4.6527 22.2507 4.6457 22.2347 4.6387 22.2187 4.6377 22.2017 4.6447 22.1857L5.2117 20.7537C5.2957 20.5407 5.4137 20.3707 5.5647 20.2427 5.7157 20.1157 5.8877 20.0397 6.0837 20.0147 6.2787 19.9897 6.4817 20.0187 6.6917 20.1017 6.9187 20.1917 7.0897 20.3257 7.2067 20.5027 7.3237 20.6807 7.3747 20.8837 7.3617 21.1137 7.3617 21.1327 7.3707 21.1427 7.3907 21.1427L9.0757 21.0227C9.0917 21.0217 9.1027 21.0217 9.1097 21.0247 9.1367 21.0357 9.1427 21.0597 9.1277 21.0957L8.8847 21.7107C8.8707 21.7447 8.8467 21.7617 8.8117 21.7637M8.8603 19.0714 9.3313 18.2494C9.3413 18.2314 9.3363 18.2194 9.3143 18.2154L7.6863 17.8404C7.6723 17.8364 7.6643 17.8384 7.6623 17.8454 7.6603 17.8524 7.6623 17.8604 7.6703 17.8684L8.8213 19.0734C8.8383 19.0884 8.8513 19.0874 8.8603 19.0714M10.5043 18.4874 9.9653 18.3654C9.9493 18.3644 9.9393 18.3684 9.9343 18.3784L9.2763 19.5264C9.2703 19.5354 9.2723 19.5474 9.2813 19.5604L9.6613 19.9584C9.6873 19.9854 9.6913 20.0144 9.6723 20.0454L9.3333 20.6384C9.3223 20.6574 9.3093 20.6684 9.2923 20.6714 9.2763 20.6744 9.2593 20.6664 9.2413 20.6484L6.6623 17.8304C6.6363 17.8034 6.6323 17.7744 6.6503 17.7434L7.0703 17.0094C7.0883 16.9794 7.1153 16.9674 7.1523 16.9764L10.8863 17.7764C10.8943 17.7774 10.9033 17.7794 10.9123 17.7844 10.9403 17.8004 10.9443 17.8264 10.9253 17.8604L10.5853 18.4534C10.5673 18.4844 10.5403 18.4954 10.5043 18.4874M11.1615 17.5074C11.1435 17.5094 11.1275 17.5054 11.1135 17.4944L10.6535 17.1404C10.6305 17.1224 10.6145 17.0994 10.6055 17.0704L9.7965 14.2554C9.7955 14.2454 9.7895 14.2394 9.7815 14.2394 9.7725 14.2394 9.7645 14.2434 9.7575 14.2524L8.7345 15.5834C8.7235 15.5974 8.7095 15.6064 8.6915 15.6084 8.6735 15.6104 8.6585 15.6064 8.6435 15.5954L8.2295 15.2774C8.2155 15.2664 8.2075 15.2524 8.2045 15.2344 8.2035 15.2164 8.2065 15.2004 8.2185 15.1864L9.7375 13.2114C9.7475 13.1974 9.7625 13.1894 9.7795 13.1864 9.7975 13.1844 9.8135 13.1884 9.8275 13.1994L10.2885 13.5534C10.3105 13.5714 10.3275 13.5944 10.3355 13.6244L11.1445 16.4394C11.1485 16.4464 11.1535 16.4504 11.1615 16.4524 11.1695 16.4534 11.1775 16.4504 11.1835 16.4414L12.2065 15.1114C12.2175 15.0964 12.2325 15.0884 12.2495 15.0864 12.2675 15.0834 12.2835 15.0884 12.2975 15.0984L12.7115 15.4174C12.7255 15.4284 12.7335 15.4424 12.7365 15.4604 12.7385 15.4774 12.7345 15.4934 12.7235 15.5074L11.2045 17.4834C11.1935 17.4974 11.1795 17.5054 11.1615 17.5074M13.8451 13.2125C13.8421 13.0375 13.7671 12.8765 13.6201 12.7295L12.7821 11.8935C12.6341 11.7465 12.4731 11.6705 12.2981 11.6665 12.1231 11.6615 11.9641 11.7295 11.8231 11.8725 11.6831 12.0115 11.6161 12.1695 11.6211 12.3445 11.6271 12.5195 11.7031 12.6805 11.8501 12.8275L12.6891 13.6635C12.8361 13.8105 12.9971 13.8855 13.1711 13.8885 13.3451 13.8925 13.5011 13.8245 13.6401 13.6845 13.7801 13.5445 13.8481 13.3875 13.8451 13.2125M13.4571 14.5465C13.2251 14.6165 12.9941 14.6205 12.7641 14.5595 12.5351 14.4975 12.3241 14.3715 12.1341 14.1815L11.3191 13.3685C11.1311 13.1805 11.0061 12.9735 10.9451 12.7445 10.8841 12.5165 10.8881 12.2875 10.9591 12.0565 11.0301 11.8255 11.1641 11.6105 11.3611 11.4125 11.5611 11.2115 11.7771 11.0755 12.0081 11.0045 12.2381 10.9325 12.4681 10.9275 12.6961 10.9875 12.9251 11.0485 13.1331 11.1725 13.3211 11.3595L14.1371 12.1725C14.3271 12.3625 14.4541 12.5735 14.5181 12.8045 14.5821 13.0345 14.5781 13.2655 14.5081 13.4965 14.4371 13.7275 14.3021 13.9435 14.1011 14.1445 13.9041 14.3425 13.6891 14.4765 13.4571 14.5465M15.6894 10.9928C15.5764 10.9768 15.4834 10.9198 15.4104 10.8228 15.3344 10.7228 15.3044 10.6178 15.3194 10.5068 15.3354 10.3958 15.3934 10.3028 15.4934 10.2278 15.5934 10.1518 15.6994 10.1218 15.8094 10.1378 15.9204 10.1528 16.0134 10.2108 16.0884 10.3108 16.1624 10.4088 16.1904 10.5138 16.1754 10.6268 16.1594 10.7398 16.1024 10.8328 16.0054 10.9068 15.9074 10.9798 15.8024 11.0088 15.6894 10.9928"/><mask id="b" fill="#fff"><use xlink:href="#a"/></mask><path fill="#FEFEFE" d="M34.308,0.8673 C33.659,0.8073 33.004,0.7683 32.344,0.7493 L32.365,-0.0007 C33.033,0.0183 33.709,0.0593 34.376,0.1203 L34.308,0.8673 Z M28.413,0.8863 L28.34,0.1393 C28.998,0.0753 29.674,0.0303 30.35,0.0063 L30.376,0.7553 C29.716,0.7793 29.061,0.8223 28.413,0.8863 L28.413,0.8863 Z M38.192,1.4773 C37.558,1.3353 36.908,1.2113 36.259,1.1103 L36.375,0.3683 C37.04,0.4733 37.706,0.6003 38.356,0.7453 L38.192,1.4773 Z M24.532,1.5203 L24.364,0.7903 C25.015,0.6393 25.681,0.5093 26.342,0.4003 L26.463,1.1403 C25.818,1.2463 25.168,1.3743 24.532,1.5203 L24.532,1.5203 Z M41.966,2.5823 C41.354,2.3593 40.725,2.1533 40.096,1.9693 L40.307,1.2493 C40.951,1.4373 41.596,1.6493 42.223,1.8783 L41.966,2.5823 Z M20.766,2.6493 L20.504,1.9463 C21.126,1.7153 21.769,1.4993 22.415,1.3053 L22.631,2.0243 C22,2.2133 21.373,2.4243 20.766,2.6493 L20.766,2.6493 Z M45.571,4.1653 C44.987,3.8633 44.389,3.5763 43.794,3.3153 L44.096,2.6293 C44.705,2.8963 45.317,3.1893 45.916,3.4993 L45.571,4.1653 Z M17.18,4.2513 L16.83,3.5873 C17.423,3.2753 18.032,2.9793 18.641,2.7073 L18.947,3.3923 C18.352,3.6583 17.758,3.9473 17.18,4.2513 L17.18,4.2513 Z M48.942,6.1973 C48.402,5.8233 47.846,5.4633 47.289,5.1273 L47.677,4.4853 C48.247,4.8293 48.816,5.1983 49.369,5.5813 L48.942,6.1973 Z M13.827,6.3003 L13.396,5.6853 C13.946,5.2993 14.513,4.9283 15.08,4.5813 L15.471,5.2223 C14.917,5.5603 14.364,5.9223 13.827,6.3003 L13.827,6.3003 Z M52.025,8.6413 C51.54,8.2053 51.035,7.7773 50.522,7.3703 L50.988,6.7833 C51.514,7.2003 52.031,7.6383 52.527,8.0853 L52.025,8.6413 Z M10.76,8.7603 L10.254,8.2063 C10.75,7.7533 11.265,7.3123 11.785,6.8953 L12.254,7.4803 C11.747,7.8883 11.244,8.3183 10.76,8.7603 L10.76,8.7603 Z M54.77,11.4573 C54.346,10.9633 53.9,10.4753 53.442,10.0063 L53.979,9.4833 C54.448,9.9633 54.905,10.4633 55.339,10.9693 L54.77,11.4573 Z M8.03,11.5923 L7.457,11.1063 C7.889,10.5973 8.344,10.0953 8.809,9.6123 L9.35,10.1323 C8.895,10.6033 8.451,11.0953 8.03,11.5923 L8.03,11.5923 Z M57.134,14.5983 C56.777,14.0543 56.396,13.5133 56.002,12.9913 L56.602,12.5393 C57.005,13.0753 57.395,13.6293 57.761,14.1863 L57.134,14.5983 Z M5.681,14.7483 L5.052,14.3403 C5.417,13.7783 5.804,13.2213 6.204,12.6853 L6.805,13.1323 C6.415,13.6573 6.037,14.2003 5.681,14.7483 L5.681,14.7483 Z M59.079,18.0123 C58.792,17.4253 58.484,16.8403 58.162,16.2753 L58.813,15.9043 C59.143,16.4833 59.46,17.0823 59.752,17.6843 L59.079,18.0123 Z M3.754,18.1813 L3.078,17.8573 C3.368,17.2513 3.681,16.6493 4.008,16.0673 L4.662,16.4343 C4.343,17.0023 4.037,17.5903 3.754,18.1813 L3.754,18.1813 Z M60.569,21.6493 C60.361,21.0303 60.13,20.4103 59.882,19.8053 L60.576,19.5213 C60.829,20.1403 61.066,20.7763 61.28,21.4103 L60.569,21.6493 Z M2.284,21.8343 L1.571,21.5993 C1.78,20.9653 2.014,20.3263 2.265,19.7033 L2.96,19.9843 C2.715,20.5923 2.488,21.2143 2.284,21.8343 L2.284,21.8343 Z M61.579,25.4503 C61.452,24.8073 61.303,24.1623 61.135,23.5333 L61.86,23.3403 C62.032,23.9853 62.184,24.6463 62.314,25.3043 L61.579,25.4503 Z M1.298,25.6403 L0.561,25.5003 C0.687,24.8433 0.836,24.1813 1.003,23.5343 L1.73,23.7213 C1.566,24.3543 1.421,25.0003 1.298,25.6403 L1.298,25.6403 Z M62.094,29.3483 C62.05,28.6953 61.984,28.0363 61.899,27.3903 L62.642,27.2923 C62.73,27.9533 62.797,28.6283 62.842,29.2973 L62.094,29.3483 Z M0.808,29.5423 L0.059,29.4963 C0.1,28.8243 0.163,28.1493 0.246,27.4903 L0.991,27.5833 C0.91,28.2273 0.848,28.8863 0.808,29.5423 L0.808,29.5423 Z M62.85,33.4583 L62.102,33.4103 C62.143,32.7633 62.164,32.1013 62.164,31.4443 L62.164,31.3123 L62.914,31.3123 L62.914,31.4443 C62.914,32.1173 62.892,32.7953 62.85,33.4583 L62.85,33.4583 Z M0.068,33.5243 C0.024,32.8593 0.001,32.1813 0,31.5113 L0.75,31.5093 C0.751,32.1643 0.773,32.8253 0.816,33.4753 L0.068,33.5243 Z M62.341,37.4533 L61.604,37.3103 C61.728,36.6693 61.833,36.0153 61.916,35.3683 L62.66,35.4633 C62.576,36.1263 62.468,36.7953 62.341,37.4533 L62.341,37.4533 Z M0.586,37.5193 C0.459,36.8663 0.35,36.1973 0.263,35.5303 L1.007,35.4333 C1.092,36.0853 1.198,36.7383 1.323,37.3743 L0.586,37.5193 Z M61.322,41.3523 L60.61,41.1163 C60.814,40.4993 61.002,39.8643 61.168,39.2293 L61.894,39.4193 C61.724,40.0703 61.532,40.7203 61.322,41.3523 L61.322,41.3523 Z M1.614,41.4143 C1.402,40.7803 1.208,40.1303 1.037,39.4833 L1.763,39.2913 C1.929,39.9243 2.118,40.5583 2.325,41.1773 L1.614,41.4143 Z M59.808,45.0903 L59.133,44.7653 C59.418,44.1733 59.686,43.5673 59.93,42.9643 L60.625,43.2453 C60.375,43.8643 60.1,44.4843 59.808,45.0903 L59.808,45.0903 Z M3.132,45.1433 C2.841,44.5423 2.565,43.9243 2.313,43.3053 L3.008,43.0223 C3.254,43.6263 3.522,44.2293 3.807,44.8163 L3.132,45.1433 Z M57.827,48.6023 L57.198,48.1933 C57.557,47.6423 57.9,47.0763 58.22,46.5103 L58.873,46.8793 C58.546,47.4583 58.194,48.0383 57.827,48.6023 L57.827,48.6023 Z M5.116,48.6463 C4.747,48.0823 4.394,47.5043 4.068,46.9263 L4.721,46.5573 C5.039,47.1203 5.384,47.6853 5.744,48.2353 L5.116,48.6463 Z M55.414,51.8313 L54.843,51.3453 C55.267,50.8463 55.681,50.3283 56.071,49.8073 L56.671,50.2563 C56.272,50.7903 55.849,51.3203 55.414,51.8313 L55.414,51.8313 Z M7.532,51.8683 C7.097,51.3583 6.673,50.8293 6.273,50.2963 L6.873,49.8463 C7.264,50.3673 7.677,50.8833 8.102,51.3813 L7.532,51.8683 Z M52.611,54.7263 L52.107,54.1713 C52.588,53.7343 53.064,53.2733 53.519,52.8033 L54.058,53.3243 C53.591,53.8063 53.104,54.2783 52.611,54.7263 L52.611,54.7263 Z M10.338,54.7583 C9.843,54.3083 9.355,53.8373 8.889,53.3573 L9.427,52.8353 C9.882,53.3043 10.358,53.7633 10.842,54.2023 L10.338,54.7583 Z M49.464,57.2403 L49.035,56.6253 C49.572,56.2493 50.101,55.8533 50.609,55.4483 L51.077,56.0343 C50.557,56.4493 50.015,56.8553 49.464,57.2403 L49.464,57.2403 Z M13.491,57.2683 C12.938,56.8843 12.395,56.4783 11.874,56.0633 L12.342,55.4763 C12.85,55.8823 13.381,56.2773 13.919,56.6533 L13.491,57.2683 Z M46.025,59.3313 L45.677,58.6663 C46.252,58.3663 46.828,58.0413 47.388,57.7003 L47.778,58.3413 C47.204,58.6903 46.614,59.0233 46.025,59.3313 L46.025,59.3313 Z M16.94,59.3573 C16.35,59.0503 15.759,58.7173 15.182,58.3683 L15.571,57.7273 C16.133,58.0673 16.71,58.3923 17.287,58.6923 L16.94,59.3573 Z M42.349,60.9643 L42.089,60.2603 C42.7,60.0353 43.312,59.7863 43.908,59.5223 L44.213,60.2073 C43.601,60.4793 42.974,60.7333 42.349,60.9643 L42.349,60.9643 Z M20.63,60.9873 C20.001,60.7573 19.372,60.5033 18.758,60.2323 L19.061,59.5463 C19.66,59.8103 20.275,60.0583 20.888,60.2833 L20.63,60.9873 Z M38.486,62.1133 L38.319,61.3823 C38.954,61.2373 39.594,61.0693 40.222,60.8823 L40.435,61.6013 C39.792,61.7923 39.136,61.9653 38.486,62.1133 L38.486,62.1133 Z M24.494,62.1273 C23.843,61.9803 23.186,61.8093 22.543,61.6203 L22.755,60.9003 C23.383,61.0853 24.024,61.2523 24.659,61.3963 L24.494,62.1273 Z M34.509,62.7553 L34.437,62.0093 C35.089,61.9463 35.745,61.8613 36.389,61.7583 L36.508,62.4983 C35.849,62.6043 35.177,62.6913 34.509,62.7553 L34.509,62.7553 Z M28.472,62.7613 C27.802,62.6983 27.129,62.6133 26.473,62.5073 L26.591,61.7673 C27.232,61.8693 27.889,61.9523 28.542,62.0143 L28.472,62.7613 Z M31.457,62.9013 C31.131,62.9013 30.807,62.8963 30.483,62.8863 L30.506,62.1363 C31.161,62.1573 31.821,62.1563 32.474,62.1343 L32.498,62.8843 C32.153,62.8953 31.806,62.9013 31.457,62.9013 L31.457,62.9013 Z" mask="url(#b)"/></g></svg>