<svg xmlns="http://www.w3.org/2000/svg" xmlns:xlink="http://www.w3.org/1999/xlink" width="99" height="99" viewBox="0 0 99 99"><defs><polygon id="a" points="0 51.636 41.536 51.636 41.536 0 0 0"/></defs><g fill="none" fill-rule="evenodd"><circle cx="49.5" cy="49.5" r="48.5" fill="#FFF" stroke="#267137" stroke-width="2"/><g transform="translate(29 24)"><path fill="#267137" d="M40.6567,28.8048 L30.0887,30.2428 L30.0887,11.6618 L12.3437,11.6618 L12.3437,30.3648 L0.8787,28.8048 C0.1587,28.7068 -0.2863,29.5688 0.2117,30.0988 L20.2047,51.3918 C20.5097,51.7168 21.0257,51.7168 21.3307,51.3918 L41.3237,30.0988 C41.8217,29.5688 41.3777,28.7068 40.6567,28.8048"/><mask id="b" fill="#fff"><use xlink:href="#a"/></mask><polygon fill="#267137" points="12.344 8.912 30.089 8.912 30.089 4.263 12.344 4.263" mask="url(#b)"/><polygon fill="#267137" points="12.344 2.324 30.089 2.324 30.089 0 12.344 0" mask="url(#b)"/></g></g></svg>