<svg xmlns="http://www.w3.org/2000/svg" xmlns:xlink="http://www.w3.org/1999/xlink" width="99" height="99" viewBox="0 0 99 99"><defs><polygon id="a" points="0 0 32.672 0 32.672 20.791 0 20.791"/><polygon id="c" points="0 0 25.978 0 25.978 24.26 0 24.26"/><polygon id="e" points="0 0 22.772 0 22.772 32.3 0 32.3"/></defs><g fill="none" fill-rule="evenodd"><circle cx="49.5" cy="49.5" r="48.5" fill="#FFF" stroke="#267137" stroke-width="2"/><g transform="translate(24 23)"><g transform="translate(9.46)"><mask id="b" fill="#fff"><use xlink:href="#a"/></mask><path fill="#267137" d="M0,18.7752932 L5.23510191,10.1757088 C7.35250486,6.69935103 9.52255496,1.31453376 14.2377662,0.289559377 C17.6993169,-0.463953092 20.7857566,0.157941478 22.7698964,3.23615508 L28.4492088,12.9660082 L32.6724981,10.5606911 L29.1072983,17.552892 L20.5291017,17.4969544 L24.8412331,15.0225379 C23.082489,12.0265855 21.7893431,9.73314359 20.1967665,6.92639191 C19.2474724,5.25648982 18.0859445,4.08838097 16.0261244,4.36806901 C13.4135091,4.72343733 11.5725037,7.59764319 10.4833656,9.38600139 L3.56519983,20.7906923 L0,18.7752932 Z" mask="url(#b)"/></g><g transform="translate(0 22.135)"><mask id="d" fill="#fff"><use xlink:href="#c"/></mask><path fill="#267137" d="M25.9780827,24.0202665 L15.8846351,24.1041729 C11.7962542,24.1453035 6.059359,25.112695 2.71297393,21.6626609 C0.240202665,19.1306615 -0.840709327,16.192292 0.743641127,12.8919732 L6.08239213,2.97620973 L1.79987476,0.654799045 L9.66568942,0 L14.1127292,7.29821247 L9.7199818,4.95047821 C8.07969374,8.0138848 6.8145167,10.3106171 5.24661848,13.1387567 C4.30719573,14.8218206 3.93537517,16.4045258 5.25155415,18.0151999 C6.91487534,20.038825 10.3435216,20.0832461 12.4477628,20.0667939 L25.8267221,19.9450473 L25.9780827,24.0202665 Z" mask="url(#d)"/></g><g transform="translate(28.225 18.59)"><mask id="f" fill="#fff"><use xlink:href="#e"/></mask><path fill="#267137" d="M13.4184448,-5.84500885e-15 L18.3096949,8.79372084 C20.2888991,12.3523398 23.8837129,16.9096095 22.4392065,21.4816863 C21.3747467,24.8461688 19.3099909,27.200484 15.6296254,27.3929751 L4.32693841,27.4439771 L4.31706707,32.3006775 L0,25.7510418 L4.3121314,18.3672777 L4.32693841,23.3177559 C7.8197484,23.2897871 10.4537516,23.3177559 13.699778,23.3342082 C15.6296254,23.3523056 17.2123307,22.9261927 17.9971024,21.0127975 C18.9973984,18.5745759 17.4048219,15.5572356 16.3798475,13.7178755 L9.87627806,2.07462713 L13.4184448,-5.84500885e-15 Z" mask="url(#f)"/></g></g></g></svg>