<svg width="143px" height="143px" viewBox="0 0 143 143" version="1.1" xmlns="http://www.w3.org/2000/svg" xmlns:xlink="http://www.w3.org/1999/xlink">
    <g id="Home" stroke="none" stroke-width="1" fill="none" fill-rule="evenodd">
        <g id="Artboard" transform="translate(-645.000000, -971.000000)">
            <g id="Group-3" transform="translate(645.000000, 971.000000)">
                <circle id="Oval-Copy-6" fill="#6D2280" cx="71.5" cy="71.5" r="71.5"></circle>
                <g id="Group" transform="translate(38.148100, 33.291380)" fill="#FFFFFF">
                    <g id="Grupo-21" transform="translate(0.000000, -0.000000)">
                        <path d="M44.909648,0.000772564541 C44.2062448,0.000772564541 43.4926141,0.136646337 42.809989,0.410711575 C42.809989,0.410711575 39.1177886,1.89658902 39.1177886,1.89658902 C36.7806106,2.83372608 35.3313441,5.21704702 35.6427972,7.60590604 C30.9792824,15.3612342 20.7631143,25.3653839 11.536286,29.0693185 C11.536286,29.0693185 4.59042831,31.8614969 4.59042831,31.8614969 C2.1107341,32.8594226 0.67384241,35.3226023 0.198344217,38.0612297 C-0.276548554,40.7986292 0.0993618072,43.9658185 1.3474588,47.1077816 C2.59448217,50.2551201 4.48594867,52.8181721 6.70306747,54.4730216 C8.92033964,56.128481 11.6441237,56.9212786 14.123818,55.9247354 C14.123818,55.9247354 15.2588787,55.4677079 17.5290001,54.5536529 C23.4892824,63.5761442 26.4694236,68.0873898 26.4694236,68.0873898 C27.1573925,69.120707 28.0375223,70.0427669 29.2009975,70.6258254 C30.3597342,71.2041184 31.8603163,71.3590705 33.2362622,70.8049465 C33.2362622,70.8049465 37.2506035,69.1951904 37.2506035,69.1951904 C38.6212055,68.6462955 39.6808065,67.5992835 40.2798834,66.291901 C40.8742218,64.9857627 40.9530316,63.2442803 40.0221917,61.8394977 C40.0221917,61.8394977 32.5566884,50.5538098 32.5566884,50.5538098 C39.8838004,49.839643 47.6893246,50.4539457 53.2340347,51.9795248 C54.6397673,53.9307463 57.3278073,54.6526063 59.6588827,53.716689 C59.6588827,53.716689 63.352294,52.2308116 63.352294,52.2308116 C66.080203,51.1387144 67.6131711,48.062159 66.5307982,45.318758 C66.5307982,45.318758 61.4281428,32.4462551 61.4281428,32.4462551 C65.2975219,30.3369993 67.1048267,25.5600539 65.4377457,21.3510816 C63.7676052,17.1470375 59.1954445,14.9385275 54.9470875,16.0944874 C54.9470875,16.0944874 49.844424,3.22305794 49.844424,3.22305794 C49.0275325,1.16242501 47.0126488,-0.00368391302 44.9093251,8.1322583e-06 C44.9093251,8.1322583e-06 44.909648,0.000772564541 44.909648,0.000772564541 Z M44.9240005,3.60146819 C45.666199,3.57605488 46.2706198,3.97645475 46.5081388,4.56489683 C46.5081388,4.56489683 63.1942063,46.6576774 63.1942063,46.6576774 C63.5056594,47.4420174 63.0999623,48.4386989 62.0258473,48.8721889 C62.0258473,48.8721889 58.3276976,50.3533008 58.3276976,50.3533008 C57.327662,50.7566283 56.4267623,50.3983861 56.0549769,49.7148454 C56.0257955,49.6391341 55.992352,49.5712785 55.9459122,49.5051063 C55.9459122,49.5051063 39.2888646,7.48157194 39.2888646,7.48157194 C39.2792424,7.45094586 39.2738986,7.41663586 39.2632028,7.38662783 C39.0006273,6.61306302 39.402813,5.67115233 40.447448,5.25213772 C40.447448,5.25213772 44.1456058,3.77164383 44.1456058,3.77164383 C44.4124514,3.66223242 44.6748735,3.60745353 44.9230883,3.60146819 C44.9230883,3.60146819 44.9240005,3.60146819 44.9240005,3.60146819 Z M37.1714951,11.8898171 C46.6649161,35.8399576 51.4116266,47.8150278 51.4116266,47.8150278 C41.9669837,45.8241046 29.1625169,45.9792193 19.7365048,49.7644034 C19.7365048,49.7644034 12.791866,52.5565817 12.791866,52.5565817 C11.7560864,52.9719043 10.399853,52.7261556 8.84198193,51.5598921 C7.28105952,50.3974671 5.71311422,48.352375 4.68741687,45.7653247 C3.66294651,43.1770383 3.40037108,40.6090581 3.73152867,38.6836891 C4.06864361,36.758938 4.89026542,35.6414437 5.92008771,35.2279672 C5.92008771,35.2279672 12.8694569,32.4353253 12.8694569,32.4353253 C22.2908839,28.6453758 31.6756546,19.8782727 37.171487,11.8890526 C37.171487,11.8890526 37.1714897,11.8893075 37.1714951,11.8898171 Z M57.3646251,19.3909308 C59.3986078,19.425249 61.2996965,20.6623037 62.1016139,22.6921561 C63.0472664,25.076095 62.1558354,27.7131587 60.0818383,29.0499312 C60.0818383,29.0499312 56.2894446,19.4906486 56.2894446,19.4906486 C56.6509863,19.4197109 57.0072002,19.3847747 57.3646251,19.3909308 Z M28.5947524,51.087473 C34.2213371,59.5950784 37.0346294,63.8488811 37.0346294,63.8488811 C37.2017339,64.1084791 37.21716,64.3477626 37.0196634,64.7823261 C36.8221667,65.2114979 36.3573563,65.6642126 35.9212589,65.8396498 C35.9212589,65.8396498 31.9056987,67.4500159 31.9056987,67.4500159 C31.4653311,67.6249814 31.212838,67.5955833 30.8024105,67.3858524 C30.3901425,67.1819604 29.8811928,66.7221544 29.4605296,66.089237 C29.4605296,66.089237 26.620405,61.78676 20.9401558,53.181806 C21.0264055,53.1492878 21.0695304,53.1330287 21.0695304,53.1330287 C23.3260581,52.2242001 25.8917464,51.549735 28.5947524,51.0874811 C28.5947524,51.0874811 28.5947524,51.0874784 28.5947524,51.087473 Z" id="Trazado-292"></path>
                    </g>
                </g>
            </g>
        </g>
    </g>
</svg>