<svg width="143px" height="143px" viewBox="0 0 143 143" version="1.1" xmlns="http://www.w3.org/2000/svg" xmlns:xlink="http://www.w3.org/1999/xlink">
    <defs>
        <polygon id="path-oif6vlsubn-1" points="0 0 49.8757035 0 49.8757035 49.8959466 0 49.8959466"></polygon>
    </defs>
    <g id="Home" stroke="none" stroke-width="1" fill="none" fill-rule="evenodd">
        <g id="Artboard" transform="translate(-859.000000, -971.000000)">
            <g id="Group-4" transform="translate(859.000000, 971.000000)">
                <circle id="Oval-Copy-7" fill="#C4004B" cx="71.5" cy="71.5" r="71.5"></circle>
                <g id="Group" transform="translate(41.148100, 29.291380)">
                    <g id="Group-8" transform="translate(0.879518, 1.759036)">
                        <g id="Group-3" transform="translate(21.365260, 0.000000)">
                            <mask id="mask-oif6vlsubn-2" fill="white">
                                <use xlink:href="#path-oif6vlsubn-1"></use>
                            </mask>
                            <g id="Clip-2"></g>
                            <path d="M32.0482843,17.8267128 L32.6231738,17.8267128 C37.7127947,17.8267128 42.8036083,17.8317818 47.8932292,17.8216437 C48.7385673,17.8201529 49.3611655,18.1386082 49.7168933,18.9067179 C50.0454868,19.6193662 49.8597211,20.3436435 49.2052178,20.998445 C44.3991653,25.8021121 39.5919201,30.6027973 34.7858676,35.4061662 C33.736575,36.4554588 32.6887732,37.505646 31.6487241,38.5626913 C31.2196443,39.0007166 30.7234741,39.204373 30.1020686,39.2031803 C24.6116948,39.192744 19.121321,39.1993039 13.6309473,39.1903585 C13.3229282,39.1888677 13.1103264,39.2765323 12.8977246,39.4956941 C12.0908517,40.325825 11.2723497,41.1440287 10.4410261,41.948218 C10.2260389,42.1584344 10.2039736,42.3260111 10.3083364,42.6057032 C11.4566245,45.6626365 9.78771546,48.8874446 6.64162663,49.7187682 C2.76112241,50.743312 -0.806591819,47.157707 0.160105175,43.2605047 C0.939843805,40.1132232 4.35131213,38.3900456 7.2874828,39.5717298 C7.55017868,39.6775834 7.71000274,39.6516418 7.90471376,39.4518617 C8.73484468,38.6026473 9.58912811,37.7775855 10.40763,36.9194257 C10.5585087,36.7619871 10.6667478,36.4900476 10.6667478,36.2711841 C10.6807622,30.7664977 10.6807622,25.2606186 10.6730095,19.7547396 C10.6718168,19.1530139 10.8704042,18.6681745 11.294415,18.2456546 C17.171229,12.3724187 23.0444649,6.49530651 28.9203844,0.620877921 C29.5143574,0.0254140411 30.2747143,-0.161544323 30.9477048,0.1464748 C31.6937492,0.48938089 32.0521606,1.08216116 32.0521606,1.91497569 C32.0444079,6.98760038 32.0482843,12.061716 32.0482843,17.1358316 L32.0482843,17.8267128 Z M36.664993,28.5137538 L36.0847362,28.5137538 C31.8419443,28.5137538 27.5991523,28.5137538 23.3563603,28.5122629 C22.0649462,28.5122629 21.3627342,27.8046836 21.3627342,26.5043241 C21.3612433,22.2460268 21.3612433,17.9877296 21.3612433,13.7309232 C21.3612433,13.5943571 21.3484216,13.4563001 21.3394762,13.2592037 C18.984755,15.6112413 16.6854951,17.9039412 14.3990569,20.209761 C14.2857488,20.3230691 14.2457928,20.5511762 14.2457928,20.7265056 C14.2368474,25.5480634 14.2392329,30.3696212 14.2392329,35.191179 L14.2392329,35.6086299 C14.3489628,35.6229425 14.3927952,35.6342733 14.4366275,35.6342733 C19.3765625,35.6342733 24.3179883,35.6381496 29.2567305,35.6268188 C29.4216236,35.6268188 29.6225964,35.5209652 29.7439554,35.4010972 C31.0121115,34.1535154 32.2659551,32.8904282 33.5266568,31.633901 C34.5422552,30.6209863 35.560239,29.6116497 36.664993,28.5137538 L36.664993,28.5137538 Z M43.806385,21.3902525 L43.2377573,21.3902525 C38.951133,21.3890598 34.6659995,21.3902525 30.3793752,21.3878671 C29.2307889,21.3878671 28.4886209,20.6427172 28.48713,19.500989 C28.4847446,17.6785177 28.4859373,15.8548537 28.4859373,14.0311896 C28.4859373,11.5399024 28.4859373,9.04980779 28.4847446,6.55971322 C28.4847446,6.43865246 28.4692392,6.3175917 28.4564175,6.12675701 C27.3272129,7.2583471 26.2510841,8.32046144 25.2008969,9.4082192 C25.0473346,9.56535964 24.9379029,9.83610636 24.936412,10.0564608 C24.9223976,14.875335 24.9262739,19.6942092 24.9262739,24.5145743 L24.9262739,24.9487232 L25.5771991,24.9487232 C29.9526808,24.9487232 34.3281625,24.9138362 38.7024515,24.9746648 C39.7761948,24.9898719 40.5711406,24.7540122 41.2775271,23.9164268 C42.0146261,23.0412708 42.8951493,22.2874738 43.806385,21.3902525 L43.806385,21.3902525 Z" id="Fill-1" fill="#FFFFFF" mask="url(#mask-oif6vlsubn-2)"></path>
                        </g>
                        <path d="M26.6933777,71.2797192 C17.6600386,71.0012198 10.3293028,67.3887787 4.95342981,60.0464138 C2.49196044,56.6862323 0.942621276,52.9100908 0.335528407,48.7794143 C-0.902809846,40.3570443 1.28284375,32.9192622 6.95510684,26.5728159 C11.0121331,22.0324411 16.1238193,19.2832288 22.1127487,18.2276744 C23.6221319,17.9622949 25.1750492,17.9172698 26.7127594,17.8385505 C27.7077834,17.7884564 28.4821548,18.6248491 28.4797694,19.6145059 C28.4770858,20.5990936 27.7012235,21.3737632 26.6972541,21.3865849 C20.0481559,21.4718642 14.3979581,23.8960611 9.82001267,28.7137426 C6.63784416,32.0646805 4.65584696,36.0522311 3.89280637,40.6224238 C2.89897506,46.5818335 4.02817973,52.1276686 7.31590368,57.1838934 C10.2532671,61.6998176 14.3231151,64.8292083 19.4437466,66.5252517 C32.0200511,70.6932007 45.6545936,63.4578822 49.122716,50.3388915 C49.6009954,48.5292419 49.8368552,46.6787417 49.8508696,44.8034927 C49.8562368,44.0467139 50.0816603,43.4077158 50.7814869,43.0042794 C51.9324587,42.3405324 53.393835,43.1536671 53.4108312,44.48623 C53.4415436,46.8847836 53.1207028,49.2433811 52.4879665,51.5530773 C51.2171267,56.1823095 48.8779108,60.2008707 45.4536208,63.5649285 C41.6810575,67.272787 37.1934604,69.6674642 32.0021604,70.725404 C30.2530411,71.0811318 28.487522,71.2552685 26.6933777,71.2797192" id="Fill-4" fill="#FFFFFF"></path>
                        <path d="M25.7766258,60.5767852 C20.1741366,60.2648897 15.2753504,57.4128056 12.3224817,51.5822094 C8.08624967,43.2161953 12.2336243,32.8091446 21.0337873,29.541995 C22.841946,28.8704954 24.705566,28.5082077 26.6362764,28.5120532 C27.7022671,28.5132767 28.4870748,29.2852627 28.4805148,30.3124901 C28.4727622,31.3125831 27.6879545,32.0639947 26.6413455,32.074431 C20.6148455,32.1322778 15.5124029,36.4048877 14.4273287,42.3037669 C13.2352082,48.7736594 17.3837756,55.1418728 23.7749487,56.656325 C30.7696366,58.3109214 37.720194,53.7938046 38.9650921,46.7657206 C39.0942037,46.0402506 39.1302834,45.293908 39.1598032,44.5553181 C39.2024428,43.5257053 39.9589234,42.7510358 40.9706455,42.7599811 C41.9540405,42.7692247 42.7155902,43.5474724 42.7284119,44.5591945 C42.8187602,51.2366197 38.2834545,57.5854514 31.9513208,59.6876148 C30.2203905,60.263697 28.4560641,60.5702253 25.7766258,60.5767852" id="Fill-6" fill="#FFFFFF"></path>
                    </g>
                </g>
            </g>
        </g>
    </g>
</svg>