<svg width="74px" height="99px" viewBox="0 0 74 99" version="1.1" xmlns="http://www.w3.org/2000/svg" xmlns:xlink="http://www.w3.org/1999/xlink">
	<defs>
			<polygon id="path-_yo_wpdkba-1" points="0 0 51.7459987 0 51.7459987 51.5099162 0 51.5099162"></polygon>
	</defs>
	<g id="Retos" stroke="none" stroke-width="1" fill="none" fill-rule="evenodd">
			<g id="EST-Reto-recomendacion-1---Ticket" transform="translate(-607.000000, -254.000000)">
					<g id="icono-reto-visibilidad" transform="translate(606.292240, 253.008633)">
							<g id="Group-8" transform="translate(0.912499, 1.815935)">
									<g id="Group-3" transform="translate(22.166439, 0.000000)">
											<mask id="mask-_yo_wpdkba-2" fill="white">
													<use xlink:href="#path-_yo_wpdkba-1"></use>
											</mask>
											<g id="Clip-2"></g>
											<path d="M33.2500669,18.4033483 L33.8465142,18.4033483 C39.1269915,18.4033483 44.4087061,18.4085813 49.6891834,18.3981153 C50.5662209,18.3965761 51.2121659,18.7253325 51.5812332,19.518288 C51.9221487,20.2539881 51.729417,21.0016934 51.0503703,21.6776756 C46.0640951,26.6367255 41.0765824,31.5926971 36.0903071,36.5514391 C35.001667,37.6346729 33.9145736,38.7188302 32.8355236,39.8100674 C32.3903536,40.2622614 31.8755774,40.4725054 31.2308698,40.4712741 C25.5346118,40.4605002 19.8383538,40.4672724 14.1420959,40.4580376 C13.8225263,40.4564985 13.6019521,40.5469989 13.381378,40.7732498 C12.544248,41.6302327 11.695053,42.4749026 10.8325554,43.3051048 C10.6095064,43.522121 10.5866137,43.6951182 10.6948899,43.9838575 C11.8862379,47.1396724 10.1547462,50.4687925 6.89068181,51.3270067 C2.86466208,52.3846911 -0.836838306,48.6831036 0.166108979,44.6598397 C0.975087124,41.4107539 4.51448252,39.6318372 7.56075702,40.851745 C7.83330376,40.9610226 7.99912108,40.9342419 8.2011336,40.7279996 C9.0623937,39.8513159 9.94871201,38.999566 10.797907,38.1136476 C10.9544435,37.9511163 11.0667415,37.6703806 11.0667415,37.4444375 C11.0812814,31.7616927 11.0812814,26.0777165 11.073238,20.3937404 C11.0720006,19.7725509 11.2780348,19.2720285 11.7179457,18.8358414 C17.8151351,12.7726257 23.9086121,6.70540829 30.0048735,0.640961278 C30.6211199,0.0262361017 31.4099896,-0.16676975 32.1082166,0.151212777 C32.882237,0.505210751 33.2540885,1.11716551 33.2540885,1.97691885 C33.2460452,7.21362625 33.2500669,12.4518728 33.2500669,17.6901193 L33.2500669,18.4033483 Z M38.0398981,29.4360799 L37.4378822,29.4360799 C33.0359893,29.4360799 28.6340963,29.4360799 24.2322034,29.4345408 C22.8923623,29.4345408 22.163818,28.7040736 22.163818,27.3616518 C22.1622712,22.9656126 22.1622712,18.5695734 22.1622712,14.1750734 C22.1622712,14.0340898 22.1489687,13.8915671 22.1396878,13.6880953 C19.6966666,16.1162135 17.3111865,18.4830748 14.9390089,20.8634803 C14.8214519,20.9804535 14.7799976,21.2159391 14.7799976,21.3969398 C14.7707167,26.3744592 14.7731916,31.3519785 14.7731916,36.3294978 L14.7731916,36.7604519 C14.8870363,36.7752274 14.9325124,36.7869248 14.9779884,36.7869248 C20.1031666,36.7869248 25.2298915,36.7909265 30.3538323,36.7792291 C30.5249087,36.7792291 30.7334178,36.6699515 30.8593276,36.5462061 C32.1750385,35.2582692 33.4759001,33.9543253 34.783877,32.6571536 C35.8375595,31.6114744 36.8937168,30.569489 38.0398981,29.4360799 L38.0398981,29.4360799 Z M45.4490861,22.0821568 L44.8591353,22.0821568 C40.4117663,22.0809255 35.9659442,22.0821568 31.5185752,22.0796942 C30.3269179,22.0796942 29.5569192,21.3104412 29.5553724,20.1317819 C29.5528975,18.2503596 29.554135,16.367706 29.554135,14.4850524 C29.554135,11.9131802 29.554135,9.34253928 29.5528975,6.77189835 C29.5528975,6.64692167 29.5368108,6.521945 29.5235083,6.32493743 C28.3519594,7.49313074 27.2354768,8.58960098 26.1459085,9.71254412 C25.9865877,9.87476754 25.8730524,10.154272 25.8715056,10.3817542 C25.8569656,15.3565031 25.8609873,20.331252 25.8609873,25.30754 L25.8609873,25.7557323 L26.5363216,25.7557323 C31.0758801,25.7557323 35.6154385,25.7197168 40.1537595,25.782513 C41.2677673,25.798212 42.0925228,25.554723 42.8253982,24.6900444 C43.5901378,23.7865801 44.5036799,23.0084002 45.4490861,22.0821568 L45.4490861,22.0821568 Z" id="Fill-1" fill="#388097" mask="url(#mask-_yo_wpdkba-2)"></path>
									</g>
									<path d="M27.694356,73.5853834 C18.3222746,73.2978755 10.7166426,69.5685838 5.13917909,61.9887177 C2.58540678,58.5198454 0.977968748,54.6215581 0.348110428,50.3572677 C-0.936664424,41.6624619 1.33094927,33.9840919 7.21591725,27.432359 C11.4250785,22.745118 16.7284484,19.9069777 22.9419574,18.8172796 C24.5079411,18.543316 26.1190915,18.4968345 27.7144644,18.4155689 C28.746801,18.3638544 29.5502106,19.2273016 29.5477358,20.2489706 C29.5449515,21.2654065 28.7399951,22.0651341 27.6983777,22.0783705 C20.7999442,22.1664083 14.9378689,24.66902 10.1882545,29.6425377 C6.8867575,33.1018674 4.83043714,37.2184021 4.03878319,41.9364255 C3.00768409,48.0886025 4.17923294,53.8138271 7.59024366,59.0336042 C10.6377556,63.6956035 14.8602193,66.9262198 20.1728701,68.6771246 C33.220775,72.979893 47.3666009,65.5105358 50.9647748,51.967189 C51.4609893,50.0990031 51.7056936,48.1886454 51.7202335,46.2527382 C51.725802,45.4714801 51.9596787,44.8118125 52.6857482,44.3953262 C53.8798804,43.7101093 55.396057,44.5495462 55.4136905,45.9252131 C55.4455547,48.401352 55.1126826,50.8362424 54.4562193,53.2206496 C53.1377241,57.9996223 50.7107897,62.1481707 47.1580918,65.6210447 C43.2440606,69.4488402 38.5881826,71.9209773 33.2022133,73.013138 C31.3875037,73.3803724 29.5557791,73.5601419 27.694356,73.5853834" id="Fill-4" fill="#388097"></path>
									<path d="M26.7432266,62.5362448 C20.930649,62.2142606 15.8481626,59.2699209 12.7845639,53.250724 C8.38947694,44.614097 12.6923745,33.8704124 21.8225359,30.4975813 C23.6984989,29.8043609 25.6320031,29.4303544 27.6351134,29.4343243 C28.7410778,29.4355874 29.5553151,30.2325445 29.5485092,31.2929993 C29.5404658,32.3254421 28.7262285,33.1011594 27.6403726,33.1119333 C21.3878841,33.1716512 16.0941044,37.5824659 14.9683409,43.6721545 C13.731517,50.3513267 18.0356519,56.9255308 24.6664885,58.4889706 C31.923471,60.1970878 39.1346682,55.5338571 40.426249,48.2784377 C40.5602021,47.5295012 40.5976348,46.7590169 40.6282615,45.996536 C40.6725,44.9336186 41.4573481,44.133891 42.5070088,44.1431258 C43.5272803,44.1526683 44.3173874,44.9560898 44.3306899,46.0005377 C44.4244262,52.8939557 39.7190505,59.4481512 33.1494673,61.6183127 C31.3536287,62.2130293 29.5231416,62.5294727 26.7432266,62.5362448" id="Fill-6" fill="#388097"></path>
							</g>
							<ellipse id="Oval" fill="#388097" cx="52.9662505" cy="78.984548" rx="21.1029885" ry="20.9981871"></ellipse>
							<g id="Group" transform="translate(39.902496, 65.985670)" stroke="#FFFFFF" stroke-linecap="round" stroke-linejoin="round">
									<g id="Group" transform="translate(3.014713, 1.999827)">
											<path d="M2.10405534,19.9982734 L0,19.9982734 L0,7.36778495 L4.23117564,7.36778495 L4.23117564,17.7615944 C4.23117564,18.9969113 3.27882458,19.9982734 2.10405534,19.9982734 Z" id="Stroke-1"></path>
											<path d="M15.3444515,16.8406513 L16.9540957,16.8406513 C17.5220522,16.8406513 17.9824965,17.2926902 17.9824965,17.8502787 L17.9824965,18.988646 C17.9824965,19.5462345 17.5220522,19.9982734 16.9540957,19.9982734 L8.07009255,19.9982734 C7.34581776,19.9982734 6.63318,19.8190607 5.99809349,19.4770901 L4.23117564,18.5256941" id="Stroke-3"></path>
											<path d="M15.8669087,16.8406513 L18.1352694,16.8406513 C18.6350868,16.8406513 19.0402904,16.3886124 19.0402904,15.8310239 L19.0402904,14.6926566 C19.0402904,14.1350681 18.6350868,13.6830292 18.1352694,13.6830292 L15.8805887,13.6830292" id="Stroke-5"></path>
											<path d="M16.9247026,13.6830292 L19.1956279,13.6830292 C19.6940289,13.6830292 20.0980843,13.2309903 20.0980843,12.6734018 L20.0980843,11.5350345 C20.0980843,10.977446 19.6940289,10.5254071 19.1956279,10.5254071 L17.3083342,10.5254071" id="Stroke-7"></path>
											<line x1="2.11558782" y1="16.8406513" x2="2.11558782" y2="17.893192" id="Stroke-9"></line>
											<path d="M4.23117564,8.98187483 L5.81800055,8.98187483 C6.74568143,8.98187483 7.57524136,8.36888179 7.89712813,7.44545609 L9.16796425,3.8005044 C9.25911486,3.5391074 9.30576253,3.2626298 9.30576253,2.98397073 L9.30576253,0.705947057 C9.30576253,0.288906917 9.64453897,-0.0371754121 10.035593,0.00341889765 C12.0321488,0.210753386 13.3823396,2.26161965 12.879224,4.32272933 L12.5228429,5.78241724 C12.3408992,6.52762633 12.8711812,7.25434035 13.5964542,7.25396097 L19.039218,7.25064134 C19.6239224,7.2503568 20.0980843,7.75332789 20.0980843,8.37390865 L20.0980843,9.4022346 C20.0980843,10.0226257 19.6242798,10.5254071 19.0397542,10.5254071 L15.9534124,10.5254071" id="Stroke-11"></path>
									</g>
							</g>
					</g>
			</g>
	</g>
</svg>