<svg xmlns="http://www.w3.org/2000/svg" width="90" height="90" viewBox="0 0 90 90"><g fill="none" fill-rule="evenodd"><circle cx="45" cy="45" r="45" fill="#273271"/><g fill="#FFF" fill-rule="nonzero" transform="translate(20 19)"><path d="M25.5127891,16.2 C20.1127891,16.2 15.6127891,20.6 15.6127891,26.1 C15.6127891,31.6 20.0127891,36 25.5127891,36 C30.9127891,36 35.4127891,31.6 35.4127891,26.1 C35.4127891,20.6 30.9127891,16.2 25.5127891,16.2 Z M25.5127891,33.3 C21.5127891,33.3 18.3127891,30.1 18.3127891,26.1 C18.3127891,22.1 21.5127891,18.9 25.5127891,18.9 C29.5127891,18.9 32.7127891,22.1 32.7127891,26.1 C32.7127891,30.1 29.5127891,33.3 25.5127891,33.3 Z"/><path d="M50.7127891,17.5 L45.5127891,8.6 C45.2127891,8 44.5127891,7.8 43.9127891,8 L37.5127891,10.6 C36.1127891,9.5 34.6127891,8.6 32.9127891,8 L32.0127891,1.1 C31.9127891,0.4 31.4127891,-3.55271368e-15 30.7127891,-3.55271368e-15 L20.3127891,-3.55271368e-15 C19.6127891,-3.55271368e-15 19.1127891,0.5 19.0127891,1.1 L18.1127891,8 C16.5127891,8.7 14.9127891,9.6 13.5127891,10.6 L7.01278906,8 C6.41278906,7.8 5.71278906,8 5.41278906,8.6 L0.212789059,17.5 C-0.087210941,18.1 0.012789059,18.8 0.512789059,19.2 L6.01278906,23.5 C5.91278906,24.4 5.81278906,25.3 5.81278906,26.1 C5.81278906,27 5.91278906,27.9 6.01278906,28.7 L0.512789059,33 C0.012789059,33.4 -0.187210941,34.1 0.212789059,34.7 L5.41278906,43.6 C5.71278906,44.2 6.41278906,44.4 7.01278906,44.2 L13.5127891,41.6 C14.9127891,42.7 16.4127891,43.6 18.1127891,44.2 L19.0127891,51.1 C19.1127891,51.8 19.6127891,52.2 20.3127891,52.2 L30.6127891,52.2 C31.3127891,52.2 31.8127891,51.7 31.9127891,51.1 L32.9127891,44.2 C34.5127891,43.5 36.1127891,42.6 37.5127891,41.6 L44.0127891,44.3 C44.6127891,44.5 45.3127891,44.3 45.6127891,43.7 L50.8127891,34.8 C51.1127891,34.2 51.0127891,33.5 50.5127891,33.1 L45.0127891,28.8 C45.1127891,27.9 45.2127891,27 45.2127891,26.2 C45.2127891,25.4 45.1127891,24.4 45.0127891,23.6 L50.5127891,19.3 C50.9127891,18.8 51.1127891,18 50.7127891,17.5 Z M42.7127891,21.9 C42.3127891,22.2 42.1127891,22.7 42.2127891,23.2 C42.4127891,24.2 42.5127891,25.2 42.5127891,26.2 C42.5127891,27.2 42.4127891,28.2 42.2127891,29.2 C42.1127891,29.7 42.3127891,30.2 42.7127891,30.5 L47.9127891,34.6 L43.9127891,41.5 L37.8127891,39 C37.3127891,38.8 36.8127891,38.9 36.5127891,39.2 C35.0127891,40.5 33.2127891,41.5 31.4127891,42.2 C30.9127891,42.4 30.6127891,42.8 30.5127891,43.3 L29.5127891,49.6 L21.5127891,49.6 L20.6127891,43.1 C20.5127891,42.6 20.2127891,42.2 19.7127891,42 C17.8127891,41.3 16.1127891,40.3 14.6127891,39 C14.2127891,38.7 13.7127891,38.6 13.3127891,38.8 L7.21278906,41.3 L3.21278906,34.4 L8.41278906,30.3 C8.81278906,30 9.01278906,29.5 8.91278906,29 C8.71278906,28 8.61278906,27 8.61278906,26 C8.61278906,25 8.71278906,24 8.91278906,23 C9.01278906,22.5 8.81278906,22 8.41278906,21.7 L3.21278906,17.6 L7.21278906,10.7 L13.3127891,13.2 C13.8127891,13.4 14.3127891,13.3 14.6127891,13 C16.1127891,11.7 17.9127891,10.7 19.7127891,10 C20.2127891,9.8 20.5127891,9.4 20.6127891,8.9 L21.5127891,2.3 L29.5127891,2.3 L30.4127891,8.9 C30.5127891,9.4 30.8127891,9.8 31.3127891,10 C33.2127891,10.7 34.9127891,11.7 36.4127891,13 C36.8127891,13.3 37.3127891,13.4 37.7127891,13.2 L43.8127891,10.7 L47.8127891,17.6 L42.7127891,21.9 Z"/></g></g></svg>