<svg width="143px" height="143px" viewBox="0 0 143 143" version="1.1" xmlns="http://www.w3.org/2000/svg" xmlns:xlink="http://www.w3.org/1999/xlink">
	<g id="Carrito-de-compra" stroke="none" stroke-width="1" fill="none" fill-rule="evenodd" stroke-linecap="round" stroke-linejoin="round">
		<g id="EST-Canje-de-puntos---Pedido-completado" transform="translate(-345.000000, -556.000000)" stroke="#388097" stroke-width="5.5">
			<g id="Group" transform="translate(348.000000, 559.000000)">
				<g id="Group-9" transform="translate(4.000000, 4.000000)">
					<line x1="64.9999143" y1="4.91874383" x2="64.9999143" y2="0" id="Stroke-1"></line>
					<line x1="64.9999143" y1="130" x2="64.9999143" y2="125.081256" id="Stroke-3"></line>
					<line x1="4.91874383" y1="64.9999143" x2="0" y2="64.9999143" id="Stroke-5"></line>
					<line x1="130" y1="64.9999143" x2="125.081256" y2="64.9999143" id="Stroke-7"></line>
				</g>
				<line x1="26" y1="26" x2="23" y2="23" id="Stroke-10"></line>
				<line x1="114" y1="114" x2="111" y2="111" id="Stroke-11"></line>
				<line x1="26" y1="111" x2="23" y2="114" id="Stroke-12"></line>
				<line x1="114" y1="23" x2="111" y2="26" id="Stroke-13"></line>
				<g id="Group-34">
					<line x1="42.2735762" y1="5.1837375" x2="40.1261012" y2="0" id="Stroke-14"></line>
					<line x1="96.8735562" y1="137" x2="94.7260812" y2="131.816263" id="Stroke-16"></line>
					<line x1="5.1837375" y1="94.7264238" x2="0" y2="96.8738988" id="Stroke-18"></line>
					<line x1="137" y1="40.1264437" x2="131.816262" y2="42.2739187" id="Stroke-20"></line>
					<line x1="5.1837375" y1="42.2735762" x2="0" y2="40.1261012" id="Stroke-22"></line>
					<line x1="137" y1="96.8735563" x2="131.816262" y2="94.7260813" id="Stroke-24"></line>
					<line x1="42.2735762" y1="131.816263" x2="40.1261012" y2="137" id="Stroke-26"></line>
					<line x1="96.8735562" y1="0" x2="94.7260812" y2="5.1837375" id="Stroke-28"></line>
					<path d="M117.591724,68.5 C117.591724,41.3877 95.6117862,19.4077625 68.4994862,19.4077625 C41.3871862,19.4077625 19.4089612,41.3877 19.4089612,68.5 C19.4089612,95.6123 41.3871862,117.592238 68.4994862,117.592238 C95.6117862,117.592238 117.591724,95.6123 117.591724,68.5 Z" id="Stroke-30"></path>
					<path d="M81.967785,51.1155562 L63.48991,69.5934312 L55.03701,61.1405312 C51.50926,57.6127812 45.78951,57.6127812 42.26176,61.1405312 L42.2566225,61.1473812 C38.730585,64.6717062 38.7288725,70.3880312 42.251485,73.9157812 L57.0800225,88.7682937 C60.60606,92.3011812 66.3309475,92.3028937 69.86041,88.7734312 L94.743035,63.8908062 C98.270785,60.3630562 98.270785,54.6433062 94.743035,51.1155562 C91.215285,47.5878062 85.495535,47.5878062 81.967785,51.1155562 Z" id="Stroke-32"></path>
				</g>
			</g>
		</g>
	</g>
</svg>