<svg xmlns="http://www.w3.org/2000/svg" width="90" height="90" viewBox="0 0 90 90"><g fill="none" fill-rule="evenodd"><circle cx="45" cy="45" r="45" fill="#009DD4"/><g fill="#FFF" fill-rule="nonzero" transform="translate(28 19)"><path d="M18.6,1.3 C18.6,0.6 18,0 17.3,0 C16.6,0 16,0.6 16,1.3 C16,3.8 12.9,8.4 9.7,13.3 C5.1,20.1 0,27.9 0,34.3 C0,43.9 7.8,51.7 17.4,51.7 C27,51.7 34.8,43.9 34.8,34.3 C34.8,27.9 29.6,20.1 25.1,13.3 C21.7,8.4 18.6,3.8 18.6,1.3 Z M17.3,49.1 C9.2,49.1 2.6,42.5 2.6,34.4 C2.6,28.8 7.5,21.4 11.9,14.8 C14.1,11.5 16.1,8.5 17.4,5.9 C18.7,8.5 20.7,11.5 22.9,14.8 C27.2,21.3 32.2,28.7 32.2,34.4 C32,42.5 25.4,49.1 17.3,49.1 Z"/><path d="M21.9 44.8C22.1 45.2 22.6 45.4 23 45.4 23.2 45.4 23.5 45.3 23.7 45.2 26.8 43.3 29.1 40.1 29.8 36.6 30 35.9 29.5 35.2 28.8 35 28.1 34.8 27.4 35.3 27.2 36 26.6 38.9 24.7 41.4 22.2 42.9 21.7 43.3 21.5 44.1 21.9 44.8ZM9 25.8C8.4 25.4 7.6 25.5 7.2 26.2 7.2 26.2 6.4 27.3 5.7 28.8 5.4 29.5 5.6 30.2 6.3 30.6 6.5 30.7 6.7 30.7 6.9 30.7 7.4 30.7 7.8 30.4 8.1 30 8.8 28.7 9.4 27.7 9.4 27.7 9.8 27 9.6 26.2 9 25.8ZM17.1 12.9C16.5 12.5 15.7 12.7 15.3 13.3L9 23.3C8.6 23.9 8.8 24.7 9.4 25.1 9.6 25.2 9.9 25.3 10.1 25.3 10.5 25.3 11 25.1 11.2 24.7L17.5 14.7C17.9 14.1 17.7 13.3 17.1 12.9Z"/></g></g></svg>