<svg xmlns="http://www.w3.org/2000/svg" width="90" height="90" viewBox="0 0 90 90"><g fill="none" fill-rule="evenodd"><circle cx="45" cy="45" r="45" fill="#273271"/><g fill="#FFF" fill-rule="nonzero" transform="translate(20 23)"><path d="M48.1193815,17 L31.1193815,17 L32.1193815,2.4 C32.1193815,1.8 31.9193815,1.1 31.5193815,0.7 C31.1193815,0.2 30.4193815,-3.55271368e-15 29.8193815,-3.55271368e-15 L2.31938148,-3.55271368e-15 C1.71938148,-3.55271368e-15 1.01938148,0.3 0.61938148,0.7 C0.21938148,1.2 -0.0806185204,1.8 0.0193814796,2.4 L2.61938148,40.2 C2.71938148,41.4 3.71938148,42.4 4.91938148,42.4 L27.2193815,42.4 C27.9193815,42.4 28.4193815,42.1 28.9193815,41.7 L48.1193815,41.7 C49.8193815,41.7 51.2193815,40.3 51.2193815,38.6 L51.2193815,20.1 C51.2193815,18.4 49.8193815,17 48.1193815,17 Z M26.9193815,39.7 L5.21938148,39.7 L3.91938148,20.7 C4.51938148,20.7 5.01938148,20.8 5.51938148,20.8 C9.61938148,20.8 12.7193815,19.6 15.4193815,18.4 C17.8193815,17.4 19.9193815,16.6 22.4193815,16.6 C25.3193815,16.6 27.4193815,17.6 28.4193815,18.1 L26.9193815,39.7 Z M28.6193815,15.2 C27.2193815,14.6 25.1193815,13.9 22.4193815,13.9 C19.3193815,13.9 16.8193815,14.9 14.4193815,15.9 C11.4193815,17.1 8.31938148,18.4 3.71938148,18 L2.61938148,2.5 L29.5193815,2.5 L28.6193815,15.2 Z M48.5193815,38.5 C48.5193815,38.8 48.3193815,39 48.0193815,39 L29.6193815,39 L30.9193815,19.7 L48.0193815,19.7 C48.3193815,19.7 48.5193815,19.9 48.5193815,20.2 L48.5193815,38.5 Z"/><path d="M34.9193815 21.7C33.1193815 21.7 31.6193815 23.2 31.6193815 25 31.6193815 26.8 33.1193815 28.3 34.9193815 28.3 36.7193815 28.3 38.2193815 26.8 38.2193815 25 38.2193815 23.1 36.7193815 21.7 34.9193815 21.7ZM34.9193815 26.5C34.1193815 26.5 33.4193815 25.8 33.4193815 25 33.4193815 24.2 34.1193815 23.5 34.9193815 23.5 35.7193815 23.5 36.4193815 24.2 36.4193815 25 36.4193815 25.8 35.7193815 26.5 34.9193815 26.5ZM44.1193815 21.7C42.3193815 21.7 40.8193815 23.2 40.8193815 25 40.8193815 26.8 42.3193815 28.3 44.1193815 28.3 45.9193815 28.3 47.4193815 26.8 47.4193815 25 47.4193815 23.1 45.9193815 21.7 44.1193815 21.7ZM44.1193815 26.5C43.3193815 26.5 42.6193815 25.8 42.6193815 25 42.6193815 24.2 43.3193815 23.5 44.1193815 23.5 44.9193815 23.5 45.6193815 24.2 45.6193815 25 45.6193815 25.8 44.9193815 26.5 44.1193815 26.5ZM34.9193815 30.7C33.1193815 30.7 31.6193815 32.2 31.6193815 34 31.6193815 35.8 33.1193815 37.3 34.9193815 37.3 36.7193815 37.3 38.2193815 35.8 38.2193815 34 38.2193815 32.2 36.7193815 30.7 34.9193815 30.7ZM34.9193815 35.6C34.1193815 35.6 33.4193815 34.9 33.4193815 34.1 33.4193815 33.3 34.1193815 32.6 34.9193815 32.6 35.7193815 32.6 36.4193815 33.3 36.4193815 34.1 36.4193815 34.9 35.7193815 35.6 34.9193815 35.6ZM44.1193815 30.7C42.3193815 30.7 40.8193815 32.2 40.8193815 34 40.8193815 35.8 42.3193815 37.3 44.1193815 37.3 45.9193815 37.3 47.4193815 35.8 47.4193815 34 47.4193815 32.2 45.9193815 30.7 44.1193815 30.7ZM44.1193815 35.6C43.3193815 35.6 42.6193815 34.9 42.6193815 34.1 42.6193815 33.3 43.3193815 32.6 44.1193815 32.6 44.9193815 32.6 45.6193815 33.3 45.6193815 34.1 45.6193815 34.9 44.9193815 35.6 44.1193815 35.6Z"/></g></g></svg>