<svg width="100px" height="72px" viewBox="0 0 100 72" version="1.1" xmlns="http://www.w3.org/2000/svg" xmlns:xlink="http://www.w3.org/1999/xlink">
    <defs>
        <polygon id="path-dy4_02k_em-1" points="3.52111881e-15 0 100 0 100 71.8036357 3.52111881e-15 71.8036357"></polygon>
    </defs>
    <g id="Home" stroke="none" stroke-width="1" fill="none" fill-rule="evenodd">
        <g id="EST-Home-Login-con-registro-sin-codigo-PopUp" transform="translate(-427.000000, -280.000000)">
            <g id="icono-codigo-invitacion" transform="translate(427.000000, 280.000000)">
                <g id="Group-3">
                    <mask id="mask-dy4_02k_em-2" fill="white">
                        <use xlink:href="#path-dy4_02k_em-1"></use>
                    </mask>
                    <g id="Clip-2"></g>
                    <path d="M94.5357013,60.5825968 L65.7847548,35.9018319 L94.5357013,11.220997 L94.5357013,60.5825968 Z M7.12212304,66.3467515 L38.3965031,39.4997591 L47.0682796,46.9438839 C47.8861907,47.6459526 48.9256018,48.032664 49.9949946,48.032664 C51.0643873,48.032664 52.1037985,47.6459526 52.9217095,46.9438139 L61.593416,39.4997591 L92.8679361,66.3467515 L7.12212304,66.3467515 Z M5.47327152,11.2372965 L34.2052343,35.9018319 L5.47327152,60.5662972 L5.47327152,11.2372965 Z M92.8678661,5.45684228 L49.9949946,42.2603945 L7.12212304,5.45684228 L92.8678661,5.45684228 Z M99.5808171,2.62184465 C98.8550226,1.02749951 97.2569578,0 95.4966557,0 L4.49333338,0 C2.59566206,0 0.943167905,1.14817194 0.283501206,2.92516967 C0.0615107874,3.52321523 -0.0307458807,4.14483565 0.0089728215,4.7738713 L0.0089728215,67.0297225 C-0.0307458807,67.6588281 0.0615107874,68.2803785 0.283501206,68.8784941 C0.943167905,70.6554918 2.59566206,71.8036637 4.49333338,71.8036637 L95.4966557,71.8036637 C97.3943971,71.8036637 99.0468212,70.6554918 99.7065579,68.8783542 C99.7885872,68.6572963 99.8538744,68.4277038 99.9008083,68.1955231 C99.9666559,67.9019218 100,67.5991564 100,67.2950619 L100,4.42402618 C100,3.7952004 99.8552054,3.17316025 99.5808171,2.62184465 L99.5808171,2.62184465 Z" id="Fill-1" fill="#5A5E5F" mask="url(#mask-dy4_02k_em-2)"></path>
                </g>
                <path d="M65.5435635,39.0785458 C65.5435635,47.6669951 58.5717754,54.6292696 49.9715906,54.6292696 C41.3714759,54.6292696 34.3996178,47.6669951 34.3996178,39.0785458 C34.3996178,30.4900966 41.3714759,23.527822 49.9715906,23.527822 C58.5717754,23.527822 65.5435635,30.4900966 65.5435635,39.0785458" id="Fill-4" fill="#388097"></path>
                <polygon id="Fill-6" fill="#FFFFFF" points="49.7582865 29.0222372 52.7695525 35.1153904 59.5028883 36.0924523 54.6305874 40.8352636 55.7807485 47.5322687 49.7582865 44.3703712 43.7358244 47.5322687 44.8859856 40.8352636 40.0136847 36.0924523 46.7470204 35.1153904"></polygon>
            </g>
        </g>
    </g>
</svg>