<svg xmlns="http://www.w3.org/2000/svg" xmlns:xlink="http://www.w3.org/1999/xlink" width="90" height="90" viewBox="0 0 90 90"><defs><polygon id="a" points="0 0 42 0 42 45.652 0 45.652"/></defs><g fill="none" fill-rule="evenodd"><circle cx="45" cy="45" r="45" fill="#273271"/><g transform="translate(24 21)"><mask id="b" fill="#fff"><use xlink:href="#a"/></mask><path fill="#FFF" d="M21,24.2428834 C19.569741,24.2428834 18.1839352,23.9637672 16.8810621,23.4132461 C15.6210517,22.8808601 14.4887763,22.1180278 13.5157332,21.1459844 C12.54269,20.1739409 11.779112,19.0428676 11.2461396,17.7841517 C10.6950912,16.4825784 10.4156492,15.0981963 10.4156492,13.6694068 C10.4156492,12.240656 10.6950912,10.856274 11.2461396,9.55470064 C11.779112,8.2959848 12.54269,7.16491142 13.5157332,6.19286799 C14.4887763,5.2207858 15.6210517,4.4579923 16.8810621,3.92560622 C18.1839352,3.37508515 19.569741,3.09596899 21,3.09596899 C22.430259,3.09596899 23.8160648,3.37508515 25.1189379,3.92560622 C26.3789483,4.4579923 27.5112237,5.2207858 28.4842668,6.19286799 C29.45731,7.16491142 30.2209268,8.2959848 30.7538604,9.55470064 C31.3049088,10.856274 31.5843508,12.240656 31.5843508,13.6694068 C31.5843508,15.0981963 31.3049088,16.4825784 30.7538604,17.7841517 C30.2209268,19.0428676 29.45731,20.1739409 28.4842668,21.1459844 C27.5112237,22.1180278 26.3789483,22.8808601 25.1189379,23.4132461 C23.8160648,23.9637672 22.430259,24.2428834 21,24.2428834 M41.9928285,43.9575982 C41.1718416,35.383156 35.2062745,28.3089195 27.2153736,25.8505041 C31.6482765,23.5887448 34.6834651,18.9831926 34.6834651,13.6694068 C34.6834651,6.12001801 28.5571917,0 21,0 C13.4428471,0 7.31653492,6.12001801 7.31653492,13.6694068 C7.31653492,18.9831926 10.3517235,23.5887448 14.7846264,25.8505041 C6.79372546,28.3089195 0.828158427,35.383156 0.00717146897,43.9575982 C-0.0798341416,44.8662467 0.635954771,45.6521739 1.54968824,45.6521739 L1.54968824,45.6521739 C2.34740129,45.6521739 3.01606055,45.0472091 3.09154558,44.2539194 C3.26427673,42.4390637 3.70950651,40.6761718 4.42180434,38.9939186 C4.87238712,37.9296502 5.43026259,36.9029305 6.07995362,35.9422796 C6.72398133,34.9899599 7.46374236,34.0943314 8.27863932,33.2802717 C9.09349748,32.4662119 9.99004705,31.7272497 10.9433849,31.0838449 C11.9050239,30.4348601 12.9327607,29.8775578 13.9981624,29.4273992 C16.2141484,28.4910832 18.5698941,28.0163184 21,28.0163184 C23.4301059,28.0163184 25.7858904,28.4910832 28.0018764,29.4273992 C29.0672393,29.8775578 30.0950149,30.4348601 31.0566539,31.0838449 C32.009953,31.7272497 32.9065025,32.4662119 33.7213607,33.2802717 C34.5362576,34.0943314 35.2760187,34.9899599 35.9200464,35.9422796 C36.5697374,36.9029305 37.1276129,37.9296502 37.5781957,38.9939186 C38.2904935,40.6761718 38.7357233,42.4390637 38.9084544,44.2539194 C38.9839395,45.0472091 39.6525987,45.6521739 40.4503118,45.6521739 C41.3640452,45.6521739 42.0798341,44.8662467 41.9928285,43.9575982" mask="url(#b)"/></g></g></svg>