
<svg width="20px" height="14px" viewBox="0 0 20 14" version="1.1" xmlns="http://www.w3.org/2000/svg" xmlns:xlink="http://www.w3.org/1999/xlink">
    <g id="Recursos" stroke="none" stroke-width="1" fill="none" fill-rule="evenodd">
        <g id="EST-Recursos" transform="translate(-151.000000, -1084.000000)" fill="#FFFFFF">
            <g id="Grupo-43" transform="translate(151.189075, 1084.604095)">
                <path d="M1.30983175,6.31044545 C2.30449241,5.08140783 5.81683705,1.13496485 9.90057789,1.13496485 C13.9846687,1.13496485 17.4984337,5.08222137 18.4927444,6.31044545 C17.5002143,7.53948308 13.9923161,11.4855193 9.90057789,11.4855193 C5.81719729,11.4855193 2.30414246,7.53857033 1.30983175,6.31044545 Z M19.5422546,5.94964136 C19.3668473,5.70681019 15.1873643,5.15516449e-15 9.90056759,5.15516449e-15 C4.61386354,5.15516449e-15 0.435800896,5.70711775 0.259776076,5.94964136 C0.259776076,5.94964136 0.17318405,6.06963821 6.73272202e-14,6.30963192 C0.17318405,6.54955948 0.259776076,6.66952326 0.259776076,6.66952326 C0.435183337,6.91286041 4.61368856,12.6191646 9.90056759,12.6191646 C15.1872717,12.6191646 19.3671046,6.91276119 19.5422546,6.66993003 C19.5422546,6.66993003 19.6287814,6.54996625 19.8018351,6.31003868 C19.6287814,6.0697738 19.5422546,5.94964136 19.5422546,5.94964136 Z" id="Trazado-314"></path>
                <path d="M6.49141702,6.30943349 C6.49141702,4.66987667 8.0209247,3.33562477 9.90044408,3.33562477 C11.7799635,3.33562477 13.3094814,4.66987667 13.3094814,6.30943349 C13.3094814,7.94899032 11.7804266,9.28324221 9.90044408,9.28324221 C8.02047183,9.28324221 6.49141702,7.94899032 6.49141702,6.30943349 Z M5.19137358,6.30974105 C5.19137358,8.57470023 7.30399049,10.4176019 9.90044408,10.4176019 C12.496908,10.4176019 14.6095249,8.57471016 14.6095249,6.30974105 C14.6095249,4.04478186 12.496908,2.20188023 9.90044408,2.20188023 C7.30353762,2.20188023 5.19137358,4.04477194 5.19137358,6.30974105 Z" id="Trazado-315"></path>
                <path d="M9.9007835,8.08405725 C8.78043621,8.08405725 7.87184611,7.29062295 7.87184611,6.31228324 C7.87184611,5.33353721 8.78044649,4.54010291 9.9007835,4.54010291 C11.0216032,4.54010291 11.9302139,5.33353721 11.9302139,6.31228324 C11.9302139,7.29062295 11.0216135,8.08405725 9.9007835,8.08405725 Z" id="Trazado-316"></path>
            </g>
        </g>
    </g>
</svg>