
<svg width="12px" height="15px" viewBox="0 0 12 15" version="1.1" xmlns="http://www.w3.org/2000/svg" xmlns:xlink="http://www.w3.org/1999/xlink">
    <g id="Recursos" stroke="none" stroke-width="1" fill="none" fill-rule="evenodd">
        <g id="EST-Recursos" transform="translate(-211.000000, -1083.000000)" fill="#FFFFFF">
            <g id="Grupo-45" transform="translate(211.099109, 1083.727764)">
                <path d="M5.67646485,0.000269915208 C5.32571037,0.000269915208 5.04157628,0.264489912 5.04157628,0.590178599 C5.04157628,0.590178599 5.04157628,3.63832804 5.04157628,9.73462692 C2.40438309,7.2724724 1.0857865,6.04139513 1.0857865,6.04139513 C0.837761058,5.81094153 0.435356393,5.81094153 0.187330956,6.04139513 C-0.0606944812,6.27206467 -0.0606944812,6.64574428 0.187330956,6.87619788 C0.187330956,6.87619788 5.22893648,11.5606213 5.22893648,11.5606213 C5.25841214,11.5875948 5.29027954,11.6120851 5.32418042,11.6342632 C5.32418042,11.6342632 5.33266613,11.6342632 5.34963755,11.6342632 L5.43223523,11.6756682 L5.47032893,11.6756682 C5.47018046,11.6756682 5.47010622,11.6756682 5.47010622,11.6756682 C5.49669628,11.685727 5.52436118,11.6925199 5.5527039,11.6962087 C5.59385749,11.7007433 5.63530158,11.7007433 5.67646485,11.6962087 C5.71880948,11.7007433 5.7613284,11.7007433 5.8034019,11.6962087 C5.83061168,11.692097 5.85720175,11.6853041 5.88288159,11.6756682 C5.88288159,11.6756682 5.89557949,11.6756682 5.92097529,11.6756682 L6.00357297,11.6342632 L6.0290301,11.6342632 L6.12739202,11.5606213 C9.48622879,8.43767235 11.1656472,6.87619788 11.1656472,6.87619788 C11.4136726,6.64574428 11.4136726,6.27206467 11.1656472,6.04139513 C10.9176217,5.81094153 10.5152267,5.81094153 10.2671916,6.04139513 C10.2671916,6.04139513 8.94859503,7.26753894 6.31140184,9.71982657 C6.31140184,3.6333586 6.31140184,0.590124616 6.31140184,0.590124616 C6.31140184,0.433735744 6.24450062,0.283761858 6.12533919,0.17304264 C6.00645856,0.0623234215 5.84476852,0.000215932166 5.67645517,0.000215932166 C5.67645517,0.000215932166 5.67646485,0.000269915208 5.67646485,0.000269915208 Z" id="Trazado-317"></path>
                <path d="M0.633660561,14.199505 C7.35736113,14.199505 10.7192114,14.199505 10.7192114,14.199505 C11.0698729,14.199505 11.3542473,13.9350417 11.3542473,13.6090622 C11.3542473,13.2828035 11.0698148,13.0183943 10.7192114,13.0183943 C10.7192114,13.0183943 0.633660561,13.0183943 0.633660561,13.0183943 C0.282999021,13.0183943 -0.00137533321,13.2828575 -0.00137533321,13.6090622 C-0.00137533321,13.9351048 0.283057133,14.199505 0.633660561,14.199505" id="Trazado-318"></path>
            </g>
        </g>
    </g>
</svg>