<svg xmlns="http://www.w3.org/2000/svg" xmlns:xlink="http://www.w3.org/1999/xlink" width="1282" height="437" viewBox="0 0 1282 437"><defs><polygon id="e" points="0 0 397.759 0 397.759 823.68 0 823.68"/><polygon id="g" points="0 0 1021.67 0 1021.67 797.499 0 797.499"/><rect id="a" width="1282" height="437" x="0" y="0"/><rect id="c" width="1373" height="630" x="0" y="0"/><linearGradient id="i" x1="50%" x2="50%" y1="0%" y2="64.087%"><stop offset="0%" stop-color="#FFF" stop-opacity="0"/><stop offset="100%" stop-color="#FFF"/></linearGradient></defs><g fill="none" fill-rule="evenodd"><mask id="b" fill="#fff"><use xlink:href="#a"/></mask><use xlink:href="#a" fill="#D8D8D8"/><g mask="url(#b)"><g transform="translate(-45)"><mask id="d" fill="#fff"><use xlink:href="#c"/></mask><use xlink:href="#c" fill="#FFF"/><g mask="url(#d)" opacity=".053"><g transform="translate(-90 -59)"><mask id="f" fill="#fff"><use xlink:href="#e"/></mask><path fill="#5B5B5B" d="M180.636445,515.890717 L180.174327,409.676732 L362.292376,402.047206 L361.837121,505.881969 L180.636445,515.890717 Z M175.040697,408.418489 L175.50739,515.641357 L158.793352,506.767314 L158.328946,401.537045 L175.040697,408.418489 Z M177.996423,365.693142 C177.550319,365.709156 177.156832,365.864721 176.797661,366.077478 L166.866695,362.318764 L321.461256,358.898632 L334.675092,360.790571 L177.996423,365.693142 Z M362.315253,396.918151 L180.15145,404.547677 L180.023338,375.351871 C180.016475,373.940351 178.87033,372.798782 177.461098,372.798782 L177.44966,372.798782 C176.033565,372.805645 174.889708,373.958653 174.896571,375.374748 L175.015532,402.861632 L158.306069,395.980188 L158.166518,364.508106 L176.859429,371.584006 C177.15912,371.696104 177.467961,371.748721 177.767652,371.748721 C178.55005,371.748721 179.295845,371.387262 179.78084,370.767292 L362.454803,365.050295 L362.315253,396.918151 Z M337.445514,320.023508 C337.333416,320.309472 337.260209,320.616026 337.260209,320.940881 L337.260209,351.477288 C337.260209,352.893382 338.406354,354.041815 339.822449,354.041815 C341.238544,354.041815 342.386976,352.893382 342.386976,351.477288 L342.386976,320.940881 C342.386976,320.554257 342.288604,320.195086 342.135328,319.865655 L391.513347,318.220789 C391.618581,318.216214 391.707802,318.165884 391.808462,318.14987 L392.124166,510.983571 L366.963888,505.865955 L367.586146,363.970494 C367.956755,363.512951 368.194678,362.941022 368.174088,362.305038 C368.130622,360.893518 366.920421,359.82058 365.534066,359.822868 L364.374195,359.859472 L321.980567,353.794742 C321.841017,353.774152 321.692315,353.769577 321.55734,353.769577 L155.526496,357.441358 C154.785277,357.45966 154.140142,357.798241 153.684887,358.310689 C153.167863,358.592078 152.73091,359.031319 152.506714,359.626125 C152.152118,360.557224 152.401479,361.550092 153.028313,362.238694 L153.179302,396.58872 C153.172439,396.602446 153.158712,396.613885 153.151849,396.629899 C152.872748,397.304774 152.913927,398.025404 153.188453,398.643087 L153.673448,508.32296 C153.678023,509.267785 154.20191,510.134829 155.036926,510.576358 L174.64721,520.985457 C175.01782,521.1822 175.429608,521.285147 175.84826,521.285147 C175.894014,521.285147 175.939768,521.282859 175.990098,521.280572 L364.532048,510.866898 C364.737942,510.855459 364.920959,510.777677 365.110839,510.720484 L378.091329,513.362794 L141.685827,528.36791 L141.246586,326.568657 L337.445514,320.023508 Z M141.223708,316.104654 L391.712378,307.985557 C391.742118,307.985557 391.764995,307.969543 391.792448,307.967255 L391.801599,313.174092 C391.646034,313.148927 391.501908,313.091734 391.341768,313.09631 L141.237435,321.437315 L141.223708,316.104654 Z M6.76103012,304.252007 C6.55056043,299.232763 6.36525559,286.158477 6.21197875,269.45359 L111.757952,266.900501 L112.142288,299.880186 L6.76103012,304.252007 Z M5.8756848,218.618297 L111.165434,216.11325 L111.698471,261.773734 L6.16622447,264.326823 C6.04726335,250.390069 5.95117936,234.401236 5.8756848,218.618297 L5.8756848,218.618297 Z M5.75214824,187.514537 L104.858207,186.844237 L110.826852,187.14164 L111.105954,210.986483 L5.85051994,213.49153 C5.8116288,204.54428 5.77731309,195.74802 5.75214824,187.514537 L5.75214824,187.514537 Z M89.1507622,139.332993 C89.1507622,139.280375 89.1233097,139.234621 89.1187342,139.184291 L135.712605,138.976109 L136.07864,307.457095 L117.278206,300.497869 L115.926167,184.673196 C115.907865,183.31887 114.84179,182.211616 113.492039,182.142985 L112.464856,182.092655 C112.075944,181.850157 111.638991,181.674003 111.144845,181.674003 L111.126543,181.674003 L104.935989,181.715182 L89.5465367,180.944223 L89.1507622,139.332993 Z M199.011364,185.064396 C199.10516,184.986613 199.189806,184.908831 199.272163,184.821898 L352.169241,182.879629 L350.977342,294.895257 L197.643311,299.14583 L199.173792,185.915425 C199.176079,185.613447 199.10516,185.332058 199.011364,185.064396 L199.011364,185.064396 Z M156.45302,182.886492 L194.133958,185.435005 C194.108793,185.574556 194.047025,185.70038 194.044737,185.846794 L192.516544,298.951374 L155.421261,293.172608 L156.45302,182.886492 Z M140.823358,130.552746 L391.504196,131.211608 L391.781009,301.2368 L356.097246,295.407705 L357.323461,180.310526 C357.323461,180.301375 357.318885,180.292224 357.318885,180.280786 C357.318885,180.271635 357.323461,180.262484 357.323461,180.251045 C357.321173,180.093193 357.257117,179.95593 357.227377,179.804941 C357.195349,179.633362 357.186198,179.457208 357.119854,179.297069 C357.035209,179.09575 356.897946,178.931034 356.767546,178.761743 C356.701203,178.672523 356.666887,178.565 356.586817,178.48493 C356.582241,178.480355 356.575378,178.480355 356.570803,178.475779 C356.355758,178.258446 356.094958,178.089156 355.81357,177.961044 C355.79298,177.951893 355.776966,177.931303 355.754089,177.922152 C355.619114,177.86496 355.461262,177.86496 355.314848,177.832932 C355.134119,177.789465 354.960252,177.720834 354.774947,177.720834 L153.938823,176.716527 L153.922809,176.716527 C152.518152,176.716527 151.374295,177.851233 151.360569,179.258177 L150.273905,295.341361 C150.262466,296.61333 151.184415,297.702282 152.442658,297.899026 L193.802239,304.341228 C193.930351,304.35953 194.063039,304.370968 194.195726,304.370968 C194.220891,304.370968 194.24148,304.368681 194.266645,304.368681 L352.587893,299.980845 C352.670251,300.001435 352.734307,300.054052 352.818952,300.067778 L373.50675,303.446732 L141.214558,310.973311 L140.84166,138.950944 L337.354005,138.072462 C337.324265,138.230314 337.260209,138.37444 337.260209,138.543731 L337.260209,166.229646 C337.260209,167.645741 338.406354,168.791886 339.822449,168.791886 C341.238544,168.791886 342.386976,167.645741 342.386976,166.229646 L342.386976,138.543731 C342.386976,138.367577 342.320632,138.216588 342.288604,138.049585 L385.697978,137.855129 C387.114073,137.848266 388.25793,136.695258 388.251066,135.281451 C388.244203,133.865356 386.935631,132.636854 385.677388,132.728362 L140.830222,133.824177 L140.823358,130.552746 Z M69.5908075,522.280303 L68.195302,377.943851 L97.7640054,376.811432 L97.7640054,518.231049 C97.7068126,518.354585 97.6175917,518.455245 97.5787006,518.59022 C97.3956835,519.23078 97.4894798,519.878203 97.7640054,520.43183 L97.7640054,520.619422 L69.5908075,522.280303 Z M27.9727144,525.007258 L27.2772493,384.994585 L54.5994176,385.136424 L56.2740243,520.408953 C56.1710772,520.603408 56.052116,520.788713 56.0017863,521.012909 C55.8507972,521.676346 55.9834846,522.335208 56.3060523,522.879684 L56.3129154,523.476777 L27.9727144,525.007258 Z M6.06327734,414.659373 L16.3328255,414.579303 L17.1266623,525.242892 L7.30093062,525.661544 L6.06327734,414.659373 Z M21.4092629,407.578898 C21.7249674,407.489677 22.0063562,407.350127 22.2602925,407.155671 L22.2717311,409.404494 L21.4229892,409.411357 L21.4092629,407.578898 Z M58.4427772,379.32563 L58.4587912,380.444322 C58.0698798,380.201825 57.6375018,380.025671 57.1456433,380.021095 L37.7572671,379.920436 L58.4427772,379.32563 Z M393.858253,-0.0002287714 L393.853678,-0.0002287714 C392.439871,-0.0002287714 391.296014,1.15049137 391.296014,2.56658634 L391.495045,126.082553 L140.81192,125.423691 L140.585436,21.2206063 C140.580861,19.8067991 139.434716,18.6629421 138.020909,18.6629421 L138.018621,18.6629421 C136.602526,18.6652298 135.454094,19.8159499 135.458669,21.2320449 L135.682865,125.409965 L12.7731425,125.087397 C11.3433213,125.169755 10.2040397,126.228967 10.201752,127.645062 C10.1971765,129.058869 11.3433213,130.211877 12.7571285,130.214165 L135.694304,130.53902 L135.701167,133.847054 L12.2744209,134.400681 C10.8583259,134.407544 9.71446889,135.560552 9.72361975,136.974359 C9.73048289,138.385879 10.8766276,139.527448 12.2858594,139.527448 L12.297298,139.527448 L84.0560231,139.207168 C84.0514477,139.268937 84.0217074,139.321554 84.0217074,139.383322 L84.4174819,180.687999 L40.3721242,178.482642 C40.3217945,178.480355 40.278328,178.482642 40.2257106,178.478067 L3.15330513,178.738866 C1.74178559,178.748017 0.604791733,179.898737 0.607079447,181.307969 C0.607079447,181.307969 0.645970585,195.50781 0.732903717,214.349422 C0.266210061,214.825267 -0.0174664758,215.477265 7.74661192e-15,216.195608 C0.0168492343,216.875059 0.305101199,217.483591 0.748917715,217.931983 C0.787808853,226.142588 0.833563133,235.076111 0.890755983,244.016498 C1.30025679,308.616966 1.30025679,308.616966 3.65660221,309.360473 C3.90367533,309.438255 4.16676244,309.479434 4.42756183,309.479434 C4.46187754,309.479434 4.49848097,309.477146 4.53279668,309.474858 L114.446016,304.915444 L131.654201,311.28444 L12.569536,315.143814 C11.1557287,315.189568 10.0438997,316.372316 10.089654,317.786123 C10.1331206,319.172478 11.2701144,320.268293 12.6518937,320.268293 C12.6770585,320.268293 12.7045111,320.268293 12.7342514,320.268293 L37.2814226,319.474456 L136.096941,316.271657 L136.10838,321.608893 L13.8163401,325.687888 C12.4002451,325.73593 11.2929916,326.920965 11.3433213,328.33706 C11.3890755,329.723415 12.5260694,330.814655 13.9032732,330.814655 C13.9307258,330.814655 13.9604661,330.812367 13.9879187,330.812367 L136.119818,326.737948 L136.554484,527.159997 L102.89306,517.455514 L102.89306,374.148533 C102.89306,373.450781 102.607096,372.782768 102.106087,372.30006 C101.600502,371.817353 100.927914,371.554266 100.232449,371.584006 L65.5141011,372.917743 C64.6493452,372.952059 63.9378662,373.432479 63.4963374,374.109642 L63.4894742,373.585756 C63.4688848,372.183387 62.3227401,371.060119 60.9249469,371.060119 C60.915796,371.060119 60.899782,371.060119 60.8883434,371.060119 C59.4745362,371.080709 58.3444055,372.245155 58.3627072,373.66125 L58.3695703,374.198863 L23.0815818,375.216896 C21.6700623,375.258075 20.5536578,376.436247 20.592549,377.852342 C20.6360155,379.243272 21.7730094,380.343663 23.1570764,380.343663 C23.1822412,380.343663 23.2074061,380.341375 23.2325709,380.341375 L23.2874761,380.339087 C23.1547887,380.430596 23.0037995,380.490077 22.8894138,380.604462 C22.4067062,381.089458 22.1344682,381.746031 22.1390436,382.430058 L22.2397031,403.094979 C21.9857668,402.905098 21.6998026,402.774699 21.3749472,402.699204 L21.2148072,380.533543 C21.2056563,379.122024 20.0595116,377.987317 18.6525675,377.987317 L18.6342658,377.987317 C17.2181708,377.998756 16.0766015,379.154052 16.0880401,380.570146 L16.2458924,402.642011 L2.73236576,402.797576 C1.31627079,402.81359 0.181564643,403.973461 0.195290927,405.387268 C0.213592639,406.794212 1.35973735,407.924343 2.75981832,407.924343 C2.77125689,407.924343 2.77812004,407.924343 2.78955861,407.922055 L16.2824958,407.768778 L16.2962221,409.452536 L3.45070795,409.553195 C2.77125689,409.557771 2.12154612,409.834584 1.64112618,410.321867 C1.16528166,410.806862 0.899906839,411.463436 0.906769981,412.145175 L2.20619154,528.363334 C2.21305468,529.056512 2.50359436,529.717661 3.00689144,530.195793 C3.48273595,530.646473 4.11643273,530.898121 4.77071893,530.898121 C4.80503464,530.898121 4.84163807,530.895834 4.87824149,530.895834 L23.7587452,530.092846 C23.94405,530.083695 24.10419,530.010488 24.2780562,529.967022 C24.6349396,530.147751 25.0169879,530.275863 25.424201,530.275863 C25.4699552,530.275863 25.5179972,530.273575 25.5637515,530.271288 L59.0444459,528.463994 C60.4147866,528.388499 61.4877245,527.244642 61.4694228,525.869726 L61.4579842,524.881434 L64.6150295,525.599776 C64.7339907,526.077908 64.9375972,526.528588 65.3059192,526.871745 C65.7817637,527.315561 66.4085973,527.562634 67.0537327,527.562634 C67.1040624,527.562634 67.1543921,527.560347 67.2047218,527.555771 L100.479522,525.5952 C101.833849,525.51513 102.89306,524.39415 102.89306,523.037536 L102.89306,522.788175 L125.751899,529.379079 L8.18856365,536.841602 C6.7747564,536.930823 5.70410625,538.150175 5.79332709,539.561694 C5.87797251,540.918309 7.00581551,541.963794 8.34641592,541.963794 C8.40360877,541.963794 8.45622619,541.961506 8.50884361,541.959219 L136.56821,533.830971 L137.195044,823.050638 C137.199619,824.466733 138.348052,823.050638 139.759571,823.050638 L139.764147,823.050638 C141.180242,823.04835 142.326387,824.466733 142.324099,823.050638 L141.697265,533.503828 L392.133317,517.608791 L392.632039,823.050638 C392.636614,824.466733 393.782759,823.050638 395.196566,823.050638 L395.198854,823.050638 C396.614949,823.04835 397.758806,824.466733 397.758806,823.050638 L396.422781,2.5597232 C396.418205,1.14362823 395.272061,-0.0002287714 393.858253,-0.0002287714 L393.858253,-0.0002287714 Z" mask="url(#f)"/><path fill="#5B5B5B" d="M443.613517 515.695347 417.551879 513.485415C416.186113 513.364166 414.946172 514.386774 414.795183 515.770841L415.206972 40.1322229C415.206972 38.7138402 414.058539 37.5654078 412.64702 37.5654078L412.642444 37.5654078C411.226349 37.5654078 410.082492 38.7115525 410.077917 40.1276475L409.403041 823.052011C409.403041 824.465818 410.551474 823.047435 411.962993 823.052011L411.967569 823.052011C413.383664 823.052011 414.527521 824.46353 414.532096 823.052011L414.795183 515.951571C414.749429 517.305897 415.753735 518.474919 417.114925 518.591593L443.185714 520.8061C443.256633 520.810675 443.32984 520.812963 443.403041 520.812963 444.718482 520.812963 445.84175 519.804081 445.95156 518.465768 446.072809 517.056537 445.025036 515.814308 443.613517 515.695347M508.366575 214.637446 508.114927 24.7571834C508.112639 23.3410884 506.964206 22.1949437 505.552687 22.1949437L505.548111 22.1949437C504.132016 22.1949437 502.988159 23.3479516 502.988159 24.7617588L503.333604 286.940647C503.335892 287.116801 503.402236 287.272365 503.436551 287.437081L503.52806 823.050409C503.530348 824.464217 504.67878 823.050409 506.092587 823.050409L506.094875 823.050409C507.508682 823.050409 508.654827 824.464217 508.654827 823.050409L508.55188 215.54338C508.55188 215.220813 508.476385 214.921122 508.366575 214.637446M522.890814 45.8929155 522.883951 45.8929155C521.470143 45.8929155 520.323999 47.0367725 520.319423 48.4528675L519.868744 251.707106C519.685726 252.057126 519.559902 252.439174 519.557614 252.860114L519.475257 823.049952C519.475257 824.466047 520.619114 823.047664 522.035209 823.049952L522.039784 823.049952C523.451304 823.049952 524.599736 824.466047 524.604312 823.049952L524.682094 278.116476C524.837658 277.787045 524.938318 277.427874 524.940605 277.041251L525.446204 48.4620184C525.450766 47.0459234 524.302333 45.8929155 522.890814 45.8929155M205.738158 733.836884 205.539127 678.840239 207.536302 678.71899 207.934364 733.386204 205.738158 733.836884ZM211.828053 674.122973C211.315605 673.647128 210.677333 673.393192 209.922387 673.441234L202.809884 673.873612C201.45327 673.95597 200.400922 675.081525 200.403206 676.440427L200.620542 736.989354C200.625118 737.760313 200.97285 738.485519 201.567656 738.968226 202.029774 739.343412 202.601702 739.54473 203.18507 739.54473 203.356648 739.54473 203.532802 739.526429 203.704381 739.489825L211.029641 737.982222C212.228403 737.735149 213.084008 736.675937 213.077186 735.454298L212.642479 675.978309C212.635616 675.273693 212.342789 674.605681 211.828053 674.122973L211.828053 674.122973ZM100.360332 690.296425 100.300852 690.296425C98.8870442 690.333028 97.7637767 691.504338 97.7958047 692.920433L99.0792122 748.557637C98.0039866 748.674311 96.9813785 748.72464 96.281338 748.697188 96.2195697 732.406376 95.2152633 693.572431 95.2084001 693.167506 95.1672213 691.755986 94.1629148 690.67161 92.5752413 690.67161 91.1637218 690.712789 90.0427419 691.888674 90.0793453 693.304769 90.0907839 693.716557 91.1568586 734.877107 91.1568586 750.124721 91.1568586 751.12674 91.5892366 752.03725 92.3716348 752.691536 93.2981589 753.460208 94.8263519 753.846832 96.9356242 753.846832 98.3974735 753.846832 100.142999 753.661527 102.158475 753.290917 103.396129 753.062146 104.286049 751.966331 104.258597 750.708088L102.924859 692.799184C102.892831 691.405966 101.751262 690.296425 100.360332 690.296425"/><g transform="translate(528.33 26.18)"><mask id="h" fill="#fff"><use xlink:href="#g"/></mask><path fill="#5B5B5B" d="M348.019366,301.763203 L348.019366,324.574 C348.019366,324.825648 348.094861,325.052132 348.161204,325.280903 L338.170757,324.544259 C336.793553,324.455038 335.528447,325.498236 335.4255,326.912043 C335.320266,328.323563 336.381765,329.552065 337.793284,329.6573 L359.958945,331.295303 L359.499115,331.414264 C359.480813,331.41884 359.467087,331.434854 359.451073,331.439429 C359.204,331.345633 358.952351,331.263275 358.675538,331.249549 L333.739455,330.066801 C333.030264,330.041636 332.346237,330.290997 331.840653,330.780568 C331.33278,331.270139 331.049103,331.947302 331.053679,332.64963 L332.131192,448.737389 L307.840245,451.141777 L307.92489,300.04513 L348.019366,301.763203 Z M307.929466,289.782445 L633.75942,302.923074 L633.741119,308.89172 L307.929466,294.913788 L307.929466,289.782445 Z M540.162177,168.318558 L539.880789,286.877048 L494.568037,284.895888 L494.302662,167.078617 L540.162177,168.318558 Z M448.25098,283.447765 L447.061368,178.247237 L480.802862,179.118856 L480.901234,283.921322 L448.25098,283.447765 Z M485.929629,180.065969 L489.198773,176.796826 L489.425256,278.211188 C489.104976,278.302696 488.798423,278.455973 488.523897,278.677881 L486.025713,280.688782 L485.929629,180.065969 Z M435.675416,281.386535 L378.235492,279.361908 L376.679847,198.264734 L434.641369,200.794946 L435.675416,281.386535 Z M440.767867,278.744225 L439.75441,199.891299 L442.154222,197.875823 L443.053293,277.302965 L440.767867,278.744225 Z M384.021121,192.897757 C384.041711,192.886318 384.055437,192.865729 384.073739,192.856578 L438.294848,194.423662 L436.707175,195.755112 L382.934457,193.407917 L384.021121,192.897757 Z M634.276444,139.008366 L633.775434,297.796307 L330.145456,285.550174 L373.307757,282.59216 C373.625749,283.605617 374.517957,284.362851 375.629786,284.401742 L438.18275,286.607098 C438.212491,286.607098 438.242231,286.607098 438.271971,286.607098 C438.942271,286.607098 439.585119,286.344011 440.065539,285.877317 C440.353791,285.593641 440.543671,285.24362 440.671783,284.868435 L443.119637,283.321941 L443.149377,286.000854 C443.167679,287.389496 444.288659,288.515051 445.677301,288.535641 L483.429158,289.084692 C483.442884,289.084692 483.454323,289.084692 483.468049,289.084692 C484.140637,289.084692 484.785772,288.819317 485.266192,288.348048 C485.536142,288.082674 485.723735,287.757818 485.851847,287.410086 L489.438982,284.520703 L489.445846,287.35518 C489.450421,288.725521 490.530222,289.851076 491.895987,289.910557 L542.326355,292.113626 C542.362958,292.115913 542.401849,292.118201 542.438453,292.118201 C543.097314,292.118201 543.731011,291.864265 544.209143,291.40901 C544.714728,290.926302 545.000692,290.25829 545.00298,289.560537 L545.288944,167.975401 L548.814312,166.108626 L549.052234,175.970961 C549.08655,177.364179 550.225831,178.47372 551.612186,178.47372 C551.635063,178.47372 551.655652,178.471433 551.676242,178.471433 C553.092337,178.437117 554.211029,177.26352 554.176713,175.845137 L553.858721,162.645027 C553.851858,162.413968 553.771788,162.212649 553.707732,162.002179 C553.7695,161.800861 553.847283,161.604117 553.856433,161.384497 C553.915914,159.970689 552.815523,158.776503 551.401716,158.717022 L497.171456,156.493364 C495.762224,156.440747 494.563462,157.531986 494.506269,158.945794 C494.446788,160.359601 495.547179,161.553787 496.960986,161.613268 L526.294055,162.816606 L491.804479,161.883218 C491.111301,161.883218 490.441001,162.128004 489.944567,162.612999 C489.450421,163.095707 489.17132,163.759144 489.17132,164.452321 L489.180471,168.949967 L450.007944,167.737478 C448.578123,167.746629 447.409101,168.805841 447.367922,170.219648 C447.322168,171.635743 448.433997,172.818491 449.850092,172.861958 L484.799498,173.944047 L484.440327,174.303218 C484.131486,174.159092 483.792904,174.067583 483.429158,174.058432 L444.533444,173.056413 C443.81739,173.060989 443.165391,173.301199 442.668957,173.793057 C442.172523,174.28034 441.897998,174.950641 441.904861,175.646106 L442.060425,189.404418 L381.765435,187.66118 C380.591838,187.684057 379.62871,188.416125 379.290129,189.457035 L372.847926,192.488256 C371.688055,193.032732 371.177895,194.327578 371.525627,195.51719 C371.52334,195.556081 371.500462,195.592684 371.50275,195.636151 L373.072122,277.472256 L307.936329,281.933298 L308.020974,130.644484 L634.276444,139.008366 Z M308.023262,122.468194 L359.352701,123.655517 C359.821682,124.186267 360.487407,124.538575 361.253791,124.538575 L397.509483,124.538575 L634.306184,130.013075 L634.292458,133.881599 L308.023262,125.517716 L308.023262,122.468194 Z M363.818319,98.9024518 L368.322828,98.9024518 C368.775795,99.3096649 369.363738,99.5773274 370.022599,99.5773274 L574.436709,99.5773274 C575.09557,99.5773274 575.681225,99.3096649 576.13648,98.9024518 L589.41666,98.9024518 L589.41666,119.40952 L397.475167,119.40952 L363.818319,118.631697 L363.818319,98.9024518 Z M372.587127,70.5668261 L399.707976,70.5668261 L571.874469,70.5668261 L571.874469,93.773397 L372.587127,93.773397 L372.587127,70.5668261 Z M402.272504,37.5093588 L580.643277,37.5093588 L580.643277,65.4400591 L574.436709,65.4400591 L402.272504,65.4400591 L402.272504,37.5093588 Z M380.683346,31.7077161 L553.65969,31.7077161 L553.65969,5.12676708 L380.683346,5.12676708 L380.683346,31.7077161 Z M688.325975,316.361106 C688.312248,316.475492 688.259631,316.576151 688.261919,316.692825 L689.414927,467.844377 L638.334848,477.841687 L638.851872,314.240395 L688.325975,316.361106 Z M606.286263,470.205298 L568.886714,467.206105 L568.886714,387.321419 L607.517053,389.634298 L606.286263,470.205298 Z M554.831,351.502681 L555.096374,467.002498 L523.265122,463.840877 L523.766131,349.564987 L554.831,351.502681 Z M510.483664,331.503485 L510.522555,463.394773 L474.742708,460.640365 L474.98063,329.435392 L510.483664,331.503485 Z M459.202266,355.815022 L458.881987,459.311204 L416.071994,456.341751 L416.097159,454.346864 C416.566141,453.713167 416.77661,452.901029 416.527249,452.091178 C416.442604,451.81894 416.293903,451.587881 416.133763,451.365973 L417.362265,353.774381 L459.202266,355.815022 Z M464.329034,355.940846 L469.808109,354.931964 L469.625091,454.889052 C468.968518,454.804407 468.279916,454.97141 467.719426,455.415227 L464.013329,458.327487 L464.329034,355.940846 Z M400.469785,454.786105 L369.992859,452.551009 L370.374907,370.563914 L400.517827,372.634295 L400.469785,454.786105 Z M336.205611,335.317105 L355.987474,336.25278 L355.902828,451.423166 L337.271686,450.164923 L336.205611,335.317105 Z M332.558995,453.845855 C332.977646,454.550471 333.689125,455.060631 334.558457,455.120111 L358.288914,456.723799 C358.348395,456.728374 358.405588,456.730662 358.46278,456.730662 C359.110203,456.730662 359.734749,456.483589 360.212882,456.039773 C360.441653,455.824727 360.608656,455.563928 360.745919,455.284827 L364.863804,453.026853 L364.854653,454.918793 C364.850078,456.268544 365.886412,457.389524 367.231588,457.487895 L402.844432,460.102753 C402.9062,460.10504 402.970256,460.109616 403.032025,460.109616 C403.67716,460.109616 404.299418,459.867118 404.77755,459.423302 C405.139009,459.087008 405.342616,458.645479 405.463865,458.176497 L410.945227,456.490452 L410.917775,458.700384 C410.899473,460.059286 411.944958,461.19628 413.301573,461.290076 L461.261209,464.614125 C461.32069,464.6187 461.38017,464.620988 461.437363,464.620988 C461.643257,464.620988 461.837713,464.556932 462.036744,464.506602 C462.398203,464.689619 462.79169,464.797142 463.19204,464.797142 C463.747954,464.797142 464.306156,464.6187 464.775138,464.24809 L469.615941,460.443622 L469.609077,463.008149 C469.609077,464.34875 470.640837,465.467442 471.976861,465.568101 L512.890339,468.718284 C512.954395,468.722859 513.020738,468.725147 513.087082,468.725147 C513.72993,468.725147 514.352188,468.482649 514.828032,468.043408 C514.953857,467.926734 515.0202,467.768882 515.118572,467.631619 C515.125435,467.631619 515.132298,467.633907 515.141449,467.633907 C515.445715,467.633907 515.756844,467.579002 516.058823,467.464616 L518.216137,466.634176 C518.428894,467.727703 519.291362,468.599322 520.437507,468.713708 L557.413829,472.385489 C557.498474,472.392352 557.583119,472.396928 557.665477,472.396928 C558.301462,472.396928 558.916857,472.161293 559.390414,471.733491 C559.511662,471.62368 559.573431,471.472691 559.669515,471.344579 L559.671802,471.344579 C560.040124,471.344579 560.417597,471.264509 560.776768,471.092931 L563.775961,469.658534 C563.821716,470.95338 564.816871,472.021743 566.11858,472.126977 L608.601429,475.533384 C608.672349,475.540247 608.738692,475.542534 608.807324,475.542534 C609.189372,475.542534 609.550831,475.432724 609.8917,475.272584 C610.065566,475.270296 610.24172,475.251995 610.420162,475.213104 L628.536569,471.287386 C629.920636,470.985408 630.799118,469.621931 630.499428,468.237864 C630.458249,468.057134 630.359877,467.913008 630.28667,467.75058 C630.295821,467.663647 630.337,467.588153 630.339288,467.496644 L631.213195,390.444149 C631.226921,389.030342 630.094503,387.868183 628.678408,387.852169 C627.136488,387.824716 626.102442,388.973149 626.088715,390.386956 L625.221672,466.76 L611.419893,469.75233 L612.64382,389.55194 L627.996669,385.470659 C628.209426,385.413466 628.378717,385.294505 628.561734,385.191558 C629.522574,384.878141 630.254643,384.033974 630.334712,382.963324 C630.435372,381.549517 629.373873,380.323302 627.962353,380.220355 L579.721328,376.727016 C578.282356,376.646946 577.081306,377.685568 576.978359,379.097087 C576.875412,380.510895 577.939199,381.739397 579.348431,381.840057 L612.636957,384.251307 L610.683249,384.770618 C610.543699,384.73859 610.417874,384.672246 610.271461,384.663096 L566.477752,382.043663 C565.73882,382.011635 565.079958,382.251845 564.565223,382.734553 C564.050487,383.219548 563.759947,383.894424 563.759947,384.601327 L563.759947,464.021607 C563.702754,464.044484 563.643274,464.039908 563.586081,464.067361 L560.220854,465.675624 L559.957767,351.534709 L567.214395,349.789183 L567.804626,373.672918 C567.838941,375.066135 568.978223,376.173389 570.364578,376.173389 C570.385167,376.173389 570.408044,376.171101 570.428634,376.171101 C571.844729,376.136786 572.963421,374.960901 572.929105,373.547093 L572.277107,347.135435 C572.265668,346.737373 572.158145,346.375914 571.995718,346.044196 C572.007156,345.968701 572.048335,345.906933 572.052911,345.82915 C572.139844,344.417631 571.066906,343.200567 569.653099,343.111346 L534.726569,340.928867 C533.358516,340.830495 532.097985,341.914872 532.008765,343.328679 C531.969874,343.946362 532.184919,344.509139 532.5235,344.975833 L521.373182,344.27808 C520.670854,344.232326 519.979964,344.483975 519.462941,344.966682 C518.948205,345.44939 518.65309,346.121978 518.650803,346.826594 L518.147505,461.441065 C517.786047,461.4159 517.417725,461.450216 517.058554,461.587479 L515.649322,462.129667 L515.608143,329.085372 C515.608143,328.458538 515.363358,327.89576 514.988172,327.449656 L519.806098,327.710456 C519.85414,327.712743 519.899894,327.715031 519.945649,327.715031 C520.119515,327.715031 520.270504,327.650975 520.435219,327.618947 C520.028006,328.083353 519.769495,328.685022 519.783221,329.353034 L520.000554,339.828477 C520.028006,341.223982 521.169576,342.338099 522.560506,342.338099 C522.578808,342.338099 522.597109,342.338099 522.615411,342.335811 C524.029218,342.308359 525.154773,341.134761 525.125033,339.720954 L524.9077,329.245512 C524.880248,327.831704 523.649458,326.804521 522.290556,326.735889 C522.128128,326.738177 521.98629,326.806808 521.833013,326.838836 C522.208198,326.420185 522.471285,325.894011 522.505601,325.287766 C522.578808,323.876247 521.496719,322.666046 520.082912,322.590552 L479.700184,320.405785 C478.277226,320.334866 477.080751,321.414667 477.000681,322.828474 C476.968653,323.439293 477.183699,323.990633 477.517705,324.450463 L472.571667,324.162211 C471.871627,324.116457 471.178449,324.372681 470.666001,324.853101 C470.151266,325.338096 469.860726,326.010684 469.858438,326.7153 L469.821835,347.384796 L422.518772,344.639539 C421.114116,344.557181 419.892477,345.636982 419.812407,347.048502 C419.773516,347.707364 420.006862,348.313608 420.391198,348.79174 L414.95559,348.526365 C414.20522,348.512639 413.580674,348.743698 413.075089,349.219543 C412.567217,349.695387 412.276677,350.358824 412.269814,351.054289 L411.013859,451.107461 L405.59884,452.772917 L405.644594,370.243634 C405.644594,368.893883 404.601396,367.775191 403.256221,367.683682 L368.002548,365.263281 C367.311658,365.212951 366.602467,365.460024 366.080868,365.942732 C365.561557,366.42544 365.266442,367.100315 365.261866,367.807219 L364.891257,447.234361 C364.795173,447.270965 364.694513,447.273252 364.603005,447.323582 L361.029595,449.284153 L361.116529,336.289383 L366.375983,334.903028 L366.577302,353.692023 C366.593316,355.098968 367.737173,356.229098 369.139542,356.229098 L369.166994,356.229098 C370.583089,356.213084 371.717795,355.050926 371.704069,353.637118 L371.50275,334.665106 C371.491312,333.715705 370.967425,332.937882 370.194178,332.503216 C370.297125,332.098291 370.333728,331.675064 370.219343,331.242686 C370.157574,331.004764 370.029462,330.80802 369.910501,330.606701 C370.114108,330.272695 370.267385,329.904373 370.299413,329.488009 C370.40236,328.074202 369.343148,326.8457 367.931629,326.740465 L352.905923,325.633211 C353.054624,325.308356 353.146133,324.95376 353.146133,324.574 L353.146133,301.982824 L633.725105,314.018487 L633.203506,478.845993 L632.315873,479.017572 C631.743944,479.131958 631.284114,479.454525 630.924943,479.859451 L318.295098,455.259662 L332.558995,453.845855 Z M10.1400217,256.2926 L10.3344774,210.403345 L256.508518,219.002862 C256.540546,219.002862 256.570286,219.002862 256.597739,219.002862 C257.974943,219.002862 259.111937,217.91391 259.159979,216.529843 C259.208021,215.116035 258.103055,213.926424 256.68696,213.876094 L10.5106314,205.278865 C10.4557262,205.278865 10.4076842,205.306318 10.3550668,205.308605 L10.4740279,177.368754 C10.753129,177.485428 11.0551073,177.570073 11.377675,177.581512 L257.034692,185.396343 C257.062145,185.396343 257.091885,185.396343 257.119338,185.396343 C258.496542,185.396343 259.633535,184.300528 259.67929,182.916461 C259.725044,181.500366 258.613215,180.317618 257.199408,180.271863 L38.2102725,173.305774 L50.6348473,171.535084 L271.1476,177.430523 L266.100903,178.215209 C264.700822,178.432541 263.744557,179.745689 263.96189,181.141195 C263.991631,181.344801 264.080851,181.518668 264.156346,181.701685 C263.566116,182.15694 263.154327,182.802075 263.15204,183.60735 L262.888952,281.777734 L10.7737185,271.229084 C11.2701524,269.728344 11.5149378,268.264207 11.5149378,266.804646 L11.5149378,262.341316 C11.5149378,260.357868 11.0642581,258.372132 10.1400217,256.2926 L10.1400217,256.2926 Z M268.020295,280.274706 L268.187298,218.325698 L287.227942,213.073107 L286.747522,272.311173 L268.020295,280.274706 Z M287.271408,207.742733 L268.201024,213.004475 L268.278807,183.621077 C268.278807,183.431196 268.210175,183.261906 268.171284,183.083464 L287.497892,180.077408 L287.271408,207.742733 Z M744.779893,24.9841246 L925.019729,29.6808015 L925.012866,53.4432868 C924.939659,53.4524377 924.871027,53.4318483 924.800108,53.4478623 L908.744931,57.0738889 L908.877619,35.1255608 C908.884482,33.9565389 908.092933,33.0071376 907.026858,32.6914331 C906.599056,31.9273366 905.825808,31.380573 904.887845,31.3576958 L729.033558,27.0384918 L744.779893,24.9841246 Z M908.307978,128.478018 L908.712903,62.3333434 L925.010578,58.6546993 L924.989988,124.469943 L908.307978,128.478018 Z M896.539977,57.5520212 L701.649621,53.6972231 L701.599291,31.4903833 L903.741701,36.4570104 L903.176635,129.212375 L701.805186,124.86343 L701.66106,58.8239902 L896.441605,62.6765005 C896.457619,62.6787883 896.475921,62.6787883 896.491935,62.6787883 C897.882865,62.6787883 899.026722,61.5623838 899.051887,60.1645906 C899.081627,58.7507833 897.956072,57.5794737 896.539977,57.5520212 L896.539977,57.5520212 Z M1019.30786,510.421022 L647.888342,481.195476 L692.180773,472.527327 C693.290314,472.309995 694.061274,471.401772 694.200824,470.337985 C694.406719,469.965088 694.557708,469.555587 694.553132,469.098044 L693.388686,316.653934 C693.388686,316.626481 693.37496,316.605892 693.372672,316.578439 L1002.96901,329.860907 C1003.00561,329.860907 1003.0445,329.863194 1003.08111,329.863194 C1004.44687,329.863194 1005.57929,328.787969 1005.63877,327.408477 C1005.70054,325.99467 1004.60244,324.800483 1003.18863,324.738715 L638.867886,309.109053 L638.886187,303.131256 L1001.44997,317.754324 C1001.48657,317.756612 1001.52088,317.756612 1001.5552,317.756612 C1002.92325,317.756612 1004.05796,316.676811 1004.11515,315.297319 C1004.17235,313.883512 1003.07196,312.689325 1001.65815,312.632133 L654.005689,298.610733 L690.451261,294.209172 C691.441841,294.087923 692.205938,293.406184 692.528505,292.52999 C693.047816,292.05872 693.388686,291.397571 693.388686,290.640338 L693.388686,151.199594 C693.388686,149.783499 692.242541,148.635066 690.826446,148.635066 C689.410351,148.635066 688.261919,149.783499 688.261919,151.199594 L688.261919,289.311176 L638.911352,295.272959 L639.405499,139.141053 L1002.69677,148.454337 C1002.71965,148.454337 1002.74024,148.456625 1002.76311,148.456625 C1004.14718,148.456625 1005.28875,147.351659 1005.32535,145.958441 C1005.35967,144.542346 1004.24326,143.366461 1002.82946,143.332145 L639.421513,134.014286 L639.432951,130.132036 L1001.02216,138.491343 C1001.04275,138.491343 1001.06334,138.49363 1001.08393,138.49363 C1002.47257,138.49363 1003.61186,137.384089 1003.64388,135.990871 C1003.6782,134.574776 1002.55722,133.401179 1001.14112,133.369151 L917.909514,131.442896 L928.151609,128.983603 C929.302329,128.70679 930.114468,127.677319 930.116755,126.492283 L930.146496,27.1826178 C930.146496,25.7939754 929.039242,24.6569815 927.648312,24.6203781 L744.71355,19.8527821 C744.587725,19.8596453 744.450462,19.8550698 744.317775,19.8733715 L698.700758,25.8260034 C697.659848,25.9609785 696.866011,26.7159241 696.593773,27.6813394 C696.410756,28.0199211 696.282644,28.3905308 696.271205,28.7977439 C696.262055,29.1660658 696.337549,29.5137984 696.470237,29.8340783 L696.680706,126.327567 L690.117255,126.176578 C690.117255,126.146838 690.133269,126.121673 690.133269,126.089645 L689.668863,10.3519059 C689.662,8.94038632 688.515855,7.79881704 687.104335,7.79881704 L687.095185,7.79881704 C685.67909,7.80568018 684.535233,8.95868804 684.539808,10.3724953 L685.006502,126.057617 L639.448965,125.005269 L639.819575,8.01843758 C639.82415,6.6000549 638.682581,5.44933476 637.266486,5.44247161 L637.255047,5.44247161 C635.843528,5.44247161 634.699671,6.5840409 634.69052,7.99556044 L634.322198,124.886307 L593.55971,123.943769 C594.145365,123.474788 594.543427,122.783898 594.543427,121.974048 L594.543427,96.3379244 C594.543427,94.9218294 593.397282,93.773397 591.981187,93.773397 L577.001236,93.773397 L577.001236,70.5668261 L583.207804,70.5668261 C584.623899,70.5668261 585.772331,69.4183937 585.772331,68.0022987 L585.772331,34.9471191 C585.772331,33.5287364 584.623899,32.3825917 583.207804,32.3825917 L558.788745,32.3825917 L558.788745,2.5645274 C558.788745,1.14843243 557.640312,0 556.224217,0 L378.118819,0 C376.702724,0 375.556579,1.14843243 375.556579,2.5645274 L375.556579,34.2722435 C375.556579,35.6883384 376.702724,36.8344832 378.118819,36.8344832 L397.145736,36.8344832 L397.145736,65.4400591 L370.022599,65.4400591 C368.606504,65.4400591 367.458072,66.5862038 367.458072,68.0022987 L367.458072,93.773397 L361.253791,93.773397 C359.837696,93.773397 358.689264,94.9218294 358.689264,96.3379244 L358.689264,118.512736 L308.027837,117.341427 L308.08503,15.7234583 C308.08503,14.3096511 306.938886,13.1589309 305.522791,13.1589309 L305.522791,13.1589309 C304.106696,13.1589309 302.960551,14.3050757 302.958263,15.7188829 L302.898783,117.222466 L5.29464343,110.341022 C5.274054,110.338734 5.25346458,110.338734 5.23516286,110.338734 C3.84652046,110.338734 2.70266346,111.450563 2.67063547,112.843781 C2.63860747,114.259876 3.76187505,115.433473 5.17339459,115.465501 L302.896495,122.349233 L302.894207,125.385029 L2.6271689,117.689159 C1.21107393,117.696022 0.0351889354,118.771248 -6.50207427e-14,120.182767 C-0.0357301987,121.60115 1.08296195,122.777035 2.49905692,122.811351 L49.4498114,124.016976 L49.1043666,136.800722 C49.0677632,138.216817 50.1841676,139.39499 51.6002626,139.431593 C51.620852,139.431593 51.6460168,139.433881 51.6666063,139.433881 C53.0506732,139.433881 54.1922425,138.331203 54.2311337,136.940273 L54.5788662,124.147376 L302.889632,130.514084 L302.800411,284.445208 L274.036983,283.285337 L290.300342,276.371866 C291.238304,275.973803 291.851412,275.054142 291.860563,274.033822 L292.377586,210.311836 C292.494259,209.886321 292.537726,209.440217 292.411902,208.984962 C292.407326,208.96666 292.395888,208.955222 292.389025,208.939208 L292.66355,175.396745 C292.672701,173.996664 291.56316,172.850519 290.167654,172.811628 L50.5547773,166.406029 C50.4243776,166.401453 50.2665253,166.408317 50.1269747,166.428906 L7.55948029,172.495924 C6.30123759,172.674365 5.36327485,173.749591 5.35641171,175.02156 L5.01325461,256.837076 C5.01325461,257.223699 5.10018774,257.605748 5.26261543,257.95348 C6.02213648,259.532003 6.38588301,260.966399 6.38588301,262.341316 L6.38588301,266.804646 C6.38588301,268.177274 6.02213648,269.613958 5.26261543,271.190193 C5.10018774,271.535638 5.01325461,271.915399 5.01325461,272.297447 L5.01325461,272.867088 C5.01325461,273.013501 5.02698089,273.157627 5.04985803,273.299466 C5.09561231,273.569416 5.17797001,273.834791 5.26947857,274.09559 C5.39987827,275.362984 6.42248643,276.17741 7.69445542,276.230027 L24.3032591,276.925492 C24.6921705,277.774234 25.5088844,278.391917 26.50404,278.430808 L302.798123,289.574263 L302.793548,294.694167 L240.677537,292.02898 C239.266018,291.923745 238.067256,293.063027 238.007775,294.479122 C237.946007,295.895217 239.044109,297.089404 240.457917,297.148884 L302.79126,299.823222 L302.702039,454.03116 L273.853966,451.761747 C272.456172,451.667951 271.209368,452.704285 271.09727,454.115805 C270.98746,455.527325 272.039808,456.760402 273.453616,456.8725 L302.697464,459.173941 L302.50072,796.870268 C302.50072,798.286363 303.646865,796.870268 305.06296,796.870268 C306.481343,796.870268 307.627488,798.286363 307.627488,796.870268 L307.645789,796.870268 L307.835669,459.576578 L633.185204,485.178386 L632.201487,796.870268 C632.194624,798.286363 633.338481,796.863405 634.754576,796.870268 L634.763727,796.870268 C636.175246,796.870268 637.321391,798.281787 637.328254,796.870268 L638.311971,485.583311 L1018.90751,515.531775 C1018.97614,515.538638 1019.04477,515.540926 1019.11112,515.540926 C1020.4357,515.540926 1021.55668,514.522893 1021.6701,513.177717 C1021.77402,511.766198 1020.72167,510.53312 1019.30786,510.421022 L1019.30786,510.421022 Z" mask="url(#h)"/></g><path fill="#5B5B5B" d="M548.696456 98.3593485C549.030463 98.5240639 549.394209 98.6361619 549.792271 98.6407373L594.784743 99.0159224 800.667564 101.944196 792.283093 103.552459C791.077467 103.783518 790.283631 104.833579 790.25389 106.011752 790.073161 106.338895 789.945049 106.698066 789.93361 107.096128L789.1535 134.930745 543.416413 129.728483 544.217112 103.726326 783.386173 109.180236C783.404475 109.180236 783.425064 109.182523 783.443366 109.182523 784.834296 109.182523 785.973577 108.072982 786.005605 106.677477 786.037633 105.261382 784.916654 104.087784 783.500559 104.058044L544.377252 98.6018462 544.386403 98.2975802 548.696456 98.3593485ZM552.141754 58.9694888 791.729466 58.9694888C791.656259 59.2051233 791.578477 59.4407579 791.576189 59.7015573L791.306239 95.5294463 594.576561 93.8845799 552.359087 93.2851988 552.141754 58.9694888ZM805.387118 95.6461197 796.435294 95.5706251 796.702956 59.7404484C796.705244 59.4682104 796.629749 59.2165619 796.554255 58.9694888L805.387118 58.9694888 805.387118 95.6461197ZM794.298569 134.283321 795.030637 108.246848 812.259411 104.943389 812.867943 130.616116 794.298569 134.283321ZM540.719198 134.800345 791.006548 140.09869C791.02485 140.09869 791.043152 140.100978 791.061453 140.100978 791.228456 140.100978 791.393172 140.082676 791.557887 140.050648L815.976947 135.223572C817.200874 134.983362 818.072493 133.896698 818.043491 132.649894L817.260354 99.5215072C817.228326 98.1443034 816.111922 97.0393375 814.734718 97.0187481L810.516173 96.9592675 810.516173 56.4049614C810.516173 54.9888664 809.367741 53.840434 807.951646 53.840434L581.962106 53.840434 581.962106 25.7221412C581.962106 24.3060462 580.813673 23.1576138 579.397578 23.1576138 577.981483 23.1576138 576.833051 24.3060462 576.833051 25.7221412L576.833051 53.840434 549.5635 53.840434C548.881761 53.840434 548.225187 54.1149597 547.747055 54.5976673 547.264347 55.0826627 546.996685 55.7369489 546.998973 56.4209754L547.232319 93.211992 541.936262 93.1364974C541.924823 93.1342097 541.911097 93.1342097 541.899658 93.1342097 540.515591 93.1342097 539.378597 94.2346001 539.339706 95.6186671L538.212717 132.160323C538.191274 132.842062 538.442922 133.507786 538.914191 134.00422 539.38546 134.500654 540.037459 134.786619 540.719198 134.800345L540.719198 134.800345ZM1284.52663 378.840177 1484.11823 386.11282 1463.41213 393.840718C1463.02322 393.570768 1462.58627 393.371737 1462.08068 393.353435L1252.9333 385.703319 1284.52663 378.840177ZM1460.0103 515.720969 1460.98487 429.007458 1490.19669 417.321814 1489.77804 500.752456 1460.0103 515.720969ZM1237.56214 419.746791 1447.3112 430.068957C1447.35467 430.071245 1447.39585 430.073532 1447.43932 430.073532 1448.79822 430.073532 1449.92835 429.00517 1449.99698 427.634829 1450.0679 426.221022 1448.97666 425.017684 1447.56056 424.946765L1237.56214 414.615449 1237.56214 390.274172 1461.89538 398.477914C1461.92512 398.477914 1461.95715 398.477914 1461.98918 398.477914 1462.18363 398.477914 1462.3575 398.41157 1462.53823 398.370392 1462.97976 398.699822 1463.51051 398.894278 1464.06642 398.894278 1464.36611 398.894278 1464.66809 398.841661 1464.9632 398.73185L1490.33624 389.263002 1490.22414 411.810711C1490.1944 411.82215 1490.16466 411.815287 1490.13721 411.826725L1461.04664 423.462039 1461.22508 407.585304C1461.23881 406.169209 1460.10639 405.009338 1458.69029 404.993324 1457.17125 404.965871 1456.11433 406.114304 1456.09831 407.528111L1454.86295 517.249162 1237.56214 502.644396 1237.56214 419.746791ZM1234.82604 507.595009 1457.07517 522.536069C1457.13236 522.540645 1457.18955 522.542932 1457.24675 522.542932 1457.6471 522.542932 1458.04058 522.446848 1458.39747 522.268407L1493.48413 504.625556C1494.3466 504.193178 1494.89337 503.312408 1494.89794 502.349281L1495.49049 383.880011C1495.49732 382.498232 1494.4038 381.35895 1493.01973 381.306333L1284.38936 373.706547C1284.18118 373.699684 1283.96156 373.715698 1283.75338 373.76374L1234.45543 384.472529C1233.55865 384.666985 1232.86318 385.318983 1232.5795 386.149423 1232.27753 386.533759 1232.05104 386.975288 1232.02913 387.506038 1232.01215 388.023061 1232.18602 388.482892 1232.43538 388.896968L1232.43538 505.039632C1232.43538 506.387096 1233.48086 507.505788 1234.82604 507.595009L1234.82604 507.595009ZM792.448494 463.554684 792.771062 404.005489 809.322673 397.927033 809.453073 455.14276 792.448494 463.554684ZM783.359407 464.35996 775.803087 463.820059C775.647523 463.762866 775.491958 463.7194 775.347832 463.696523 772.527081 463.227541 769.523312 462.902686 766.958785 462.646462 765.460332 462.500048 764.156335 462.747121 763.007903 462.964454L561.915554 449.302226 561.725674 396.053395C562.0002 396.170068 562.293027 396.257001 562.608732 396.270728L779.868355 405.389556C779.904958 405.391843 779.939274 405.394131 779.980453 405.394131 781.343931 405.394131 782.478637 404.31433 782.53583 402.937126 782.597598 401.523319 781.499495 400.326845 780.0834 400.269652L562.821489 391.150824C562.439441 391.127947 562.064256 391.240045 561.707372 391.40476L561.595274 359.319571 787.827312 370.154185 787.314864 464.595594 785.413774 464.46977C784.860147 464.462907 783.359407 464.35996 783.359407 464.35996L783.359407 464.35996ZM615.15981 352.653173 795.049625 360.502319 790.02123 361.790302C788.650889 362.14261 787.825024 363.540403 788.175045 364.910744 788.186483 364.958786 788.218511 364.99539 788.234525 365.041144L587.057531 355.40758 615.15981 352.653173ZM791.773619 366.857589C791.750742 366.78667 791.718714 366.724901 791.686686 366.658558L809.240315 362.156336 809.308947 392.470835 792.800802 398.533277 792.960942 368.980587C792.965518 368.07694 792.475947 367.319707 791.773619 366.857589L791.773619 366.857589ZM814.584422 456.728146 814.357931 358.658422C814.353356 357.290369 813.273555 356.164814 811.905502 356.105333L615.200989 347.524118C615.084315 347.519542 614.960779 347.521908 614.841818 347.533269L558.76766 353.02607C557.452224 353.154182 556.450206 354.266011 556.454765 355.586022L556.797938 451.706613C556.804801 453.051789 557.845711 454.163618 559.186311 454.255127L762.982738 468.100372C763.211509 468.114098 763.419691 468.10266 763.625586 468.063769 764.881541 467.828134 765.679953 467.667994 766.450912 467.748064 768.944521 467.997425 771.600557 468.283389 774.17881 468.702041 774.350389 468.770672 774.521967 468.827865 774.672957 468.857605L783.000236 469.473C783.009386 469.473 784.809817 469.591961 785.246771 469.591961L790.34151 469.932831C790.398703 469.937406 790.453608 469.937406 790.508513 469.937406 790.902 469.937406 791.290911 469.845898 791.645507 469.672031L813.156882 459.029586C814.033076 458.597208 814.584422 457.702712 814.584422 456.728146L814.584422 456.728146ZM1451.93902 321.702003 1452.41944 296.779647 1471.44864 288.907623 1471.15582 315.058482 1451.93902 321.702003ZM1235.34283 292.947726C1235.35427 292.947726 1235.36114 292.954589 1235.37257 292.954589L1438.45066 299.351038C1438.47811 299.351038 1438.50556 299.353325 1438.53302 299.353325 1439.91022 299.353325 1441.0495 298.25751 1441.09297 296.871156 1441.13872 295.455061 1440.02689 294.272313 1438.6108 294.228846L1235.53271 287.83011C1235.46408 287.83011 1235.40918 287.85985 1235.34283 287.862138L1235.34283 242.611155 1435.24557 249.380501C1435.2776 249.380501 1435.30505 249.382788 1435.33479 249.382788 1436.712 249.382788 1437.84899 248.291549 1437.89703 246.907482 1437.94507 245.491387 1436.83553 244.304063 1435.42172 244.256021L1235.34283 237.4821 1235.34283 215.833463 1448.73622 222.122388 1446.79624 322.532444 1235.34283 315.465695 1235.34283 292.947726ZM1309.97493 208.688932 1472.2951 213.262072 1472.01829 238.010562 1453.43747 244.091306 1453.88586 220.882447C1453.89044 220.651388 1453.81952 220.443206 1453.7669 220.228161 1453.80808 220.056583 1453.88129 219.894155 1453.88586 219.70885 1453.92704 218.295043 1452.81521 217.114582 1451.39912 217.073404L1271.92109 211.784209 1309.97493 208.688932ZM1453.33224 249.520051 1471.95652 243.423293 1471.51041 283.332464 1452.52925 291.188474 1453.33224 249.520051ZM1309.83995 203.571315 1232.57241 209.839652C1231.24096 209.947174 1230.21607 211.059003 1230.21607 212.392741L1230.21607 317.943289C1230.21607 319.325069 1231.31188 320.459775 1232.69366 320.505529L1449.60098 327.755295C1449.63072 327.755295 1449.65817 327.757582 1449.68791 327.757582 1449.97159 327.757582 1450.25526 327.707253 1450.52521 327.615744L1474.53477 319.315918C1475.55967 318.961322 1476.24827 318.00277 1476.262 316.920681L1477.44944 210.798204C1477.46304 209.400411 1476.35579 208.247403 1474.958 208.208512L1309.83995 203.571315ZM876.587184 139.971722C876.60091 139.971722 876.614636 139.971722 876.63065 139.969435 878.046745 139.946557 879.174588 138.779823 879.149424 137.363728L877.289512 27.6701296C877.266635 26.267761 876.125066 25.1490688 874.72956 25.1490688 874.713546 25.1490688 874.69982 25.1490688 874.683806 25.1490688 873.269999 25.1719459 872.139868 26.3409678 872.165033 27.7547751L874.024944 137.450662C874.047821 138.85303 875.191678 139.971722 876.587184 139.971722M876.349262 297.3303C876.365276 298.737244 877.509133 299.867375 878.913789 299.867375L878.941242 299.867375C880.355049 299.851361 881.492043 298.69149 881.476029 297.277682L880.080523 165.269721C880.064509 163.853626 878.936666 162.833306 877.490831 162.732646 876.074736 162.746373 874.94003 163.906244 874.953756 165.322339L876.349262 297.3303ZM581.32818 346.614294C582.723686 346.614294 583.867543 345.495602 583.892708 344.093233L584.128342 330.362374C584.153507 328.948566 583.025664 327.781832 581.609569 327.75438 581.595843 327.752092 581.577541 327.752092 581.563815 327.752092 580.168309 327.752092 579.029028 328.868496 578.999287 330.26629L578.763653 344.008588C578.743063 345.422395 579.868619 346.589129 581.284714 346.614294 581.300728 346.614294 581.314454 346.614294 581.32818 346.614294M1127.19093 316.157042 1081.03401 314.109538 1080.51012 214.795298 1127.19093 216.728416 1127.19093 316.157042ZM1079.61105 208.824364C1079.59961 209.110329 1079.66367 209.373416 1079.73916 209.631927L1078.03939 209.561008C1077.34621 209.538131 1076.6599 209.792067 1076.1566 210.277063 1075.65102 210.764346 1075.36734 211.436934 1075.37186 212.136974L1075.91868 316.577982C1075.92783 317.943747 1077.00534 319.062439 1078.36882 319.12192L1129.64107 321.398195C1129.67996 321.400483 1129.71656 321.400483 1129.75545 321.400483 1130.20842 321.400483 1130.62936 321.24263 1131.01598 321.018435 1131.20129 321.061901 1131.38659 321.112231 1131.58105 321.112231 1131.80067 321.112231 1132.02486 321.082491 1132.24906 321.020722L1140.48026 318.806215C1141.84602 318.440181 1142.65587 317.033237 1142.28755 315.665184 1141.91923 314.299418 1140.52143 313.48728 1139.14652 313.85789L1132.31769 315.694924 1132.31769 215.836208 1138.48994 214.728954 1139.32267 305.137124C1139.3364 306.544068 1140.48026 307.676486 1141.88491 307.676486L1141.91008 307.676486C1143.32388 307.66276 1144.46317 306.505177 1144.44956 305.089082L1143.59841 212.468693C1143.76084 212.150701 1143.87522 211.80068 1143.89124 211.416344 1143.94614 210.002537 1142.84804 208.80835 1141.43423 208.753445L1082.27395 206.366664C1080.79837 206.335332 1079.66595 207.412845 1079.61105 208.824364L1079.61105 208.824364ZM937.786965 389.155022 901.33453 386.537877C899.884119 386.466958 898.69222 387.501005 898.593849 388.910237 898.490902 390.324044 899.554689 391.550259 900.966208 391.650918L937.418643 394.268063C937.480411 394.272638 937.544467 394.274926 937.603948 394.274926 938.937685 394.274926 940.06324 393.245455 940.159324 391.895703 940.262272 390.484184 939.196197 389.255681 937.786965 389.155022M63.2172363 369.571961C63.2744291 370.949165 64.411423 372.026679 65.7749005 372.026679 65.8137917 372.026679 65.8503951 372.024391 65.8847108 372.022103L98.4571828 370.638036C99.8732778 370.580843 100.97138 369.384369 100.9119 367.970562 100.854707 366.552179 99.5529978 365.428911 98.2444254 365.518132L88.2837186 365.941359C88.2905818 365.854426 88.3317606 365.781219 88.3317606 365.694286L87.9268352 331.497537C87.9085335 330.092881 86.7646765 328.965038 85.3623078 328.965038 85.353157 328.965038 85.3417184 328.965038 85.3348553 328.965038 83.9187603 328.981052 82.7840542 330.143211 82.8000681 331.559306L83.2027058 365.756054C83.2049935 365.897893 83.2644741 366.019142 83.2873512 366.154117L65.6719534 366.902199C64.2535707 366.96168 63.1577557 368.158154 63.2172363 369.571961"/></g></g><rect width="1335" height="464" x="7" y="209" fill="url(#i)" mask="url(#d)"/></g></g></g></svg>