<svg width="143px" height="143px" viewBox="0 0 143 143" version="1.1" xmlns="http://www.w3.org/2000/svg" xmlns:xlink="http://www.w3.org/1999/xlink">
    <g id="Home" stroke="none" stroke-width="1" fill="none" fill-rule="evenodd">
        <g id="Artboard" transform="translate(-199.000000, -971.000000)">
            <g id="Group" transform="translate(199.000000, 971.000000)">
                <circle id="Oval-Copy-4" fill="#388097" cx="71.5" cy="71.5" r="71.5"></circle>
                <g transform="translate(29.000020, 30.291380)" fill="#FFFFFF" id="icono-productos-copy" stroke="#FFFFFF" stroke-width="0.5">
                    <g id="Grupo-25">
                        <path d="M73.4874696,29.223504 L25.8056712,29.223504 C25.8056712,29.0542827 25.8056712,28.969672 25.8056712,28.969672 C25.8090332,27.086152 26.5808614,25.285488 27.941563,23.985736 C27.941563,23.985736 29.8508709,22.1687227 33.6694867,18.534696 C33.6694867,18.5343067 33.6694867,18.534112 33.6694867,18.534112 C33.9189154,18.297848 34.0587549,17.967896 34.0542269,17.624336 C34.0542269,17.624336 34.0542269,16.4494587 34.0542269,14.099704 L65.2649077,14.099704 C65.2649077,16.4494587 65.2649077,17.624336 65.2649077,17.624336 C65.2649077,17.962192 65.4035812,18.285848 65.6490729,18.518008 C65.6490729,18.518008 67.5583782,20.3350213 71.3769886,23.969048 C71.3773773,23.969048 71.3775716,23.969048 71.3775716,23.969048 C72.7382812,25.268792 73.5101174,27.069456 73.5128885,28.952984 C73.5128885,28.952984 73.5044155,29.0431573 73.4874696,29.223504 Z M73.4874696,62.661984 L35.8458586,62.661984 C35.8462473,62.661984 35.8464416,62.661984 35.8464416,62.661984 C35.2099249,59.156824 32.9850392,56.146136 29.8233465,54.513672 C30.4249413,52.323624 30.3644488,50.004312 29.6491681,47.849248 C28.9340391,45.693456 27.596121,43.799096 25.8055195,42.406112 C25.8055195,42.406112 25.8055195,38.834784 25.8055195,31.692128 L73.5121617,31.692128 L73.4874696,62.661984 Z M73.4874696,71.00704 C73.4874696,71.739544 73.1969699,72.442328 72.679841,72.960376 C72.1627042,73.47844 71.461167,73.769448 70.7299546,73.769448 C70.7299546,73.769448 31.6811726,73.769448 31.6811726,73.769448 C34.0008977,71.952824 35.5334459,69.310448 35.960423,66.391992 C36.0174177,65.981968 36.0505828,65.572104 36.0665065,65.154024 C36.0665065,65.154024 48.5484368,65.154024 73.5122975,65.154024 C73.4957456,69.0560347 73.4874696,71.00704 73.4874696,71.00704 Z M29.9862809,71.957944 C28.5513433,73.040456 26.8263451,73.667712 25.0329645,73.759784 C23.238993,73.851864 21.4592042,73.404072 19.9215372,72.474384 C21.6076604,70.607408 22.6338924,68.23672 22.8428491,65.728128 C22.8428491,65.728128 26.3070148,66.2253947 33.2353463,67.219928 C33.2349577,67.219928 33.2347634,67.219928 33.2347634,67.219928 C32.7119326,69.114872 31.5782994,70.783504 30.0109731,71.965992 C30.0109731,71.965992 29.9862809,71.957944 29.9862809,71.957944 Z M17.7118485,71.228368 C10.6910679,61.610064 7.18067768,56.800912 7.18067768,56.800912 C9.09797404,55.764216 11.3257825,55.459448 13.4508696,55.943096 C15.5753737,56.426888 17.4533559,57.666472 18.7347185,59.432304 C20.0162249,61.19184 20.6184106,63.356128 20.4304886,65.526112 C20.2421354,67.696104 19.276843,69.724408 17.7118485,71.236264 C17.7118485,71.236264 17.7118485,71.233632 17.7118485,71.228368 Z M10.0774412,73.68776 C7.84787585,73.354304 5.82449604,72.195376 4.40650425,70.439792 C2.98924717,68.683768 2.28083424,66.459472 2.42125666,64.205304 C2.56227004,61.95172 3.54232018,59.833256 5.16736796,58.26812 C5.16736796,58.26812 15.7317118,72.68752 15.7317118,72.68752 C14.0056915,73.628624 12.018695,73.97468 10.0774332,73.670928 C10.0774332,73.670928 10.0774412,73.68776 10.0774412,73.68776 Z M10.3474813,48.275512 C10.3474813,48.275512 13.7952814,50.1609867 20.6908818,53.931936 C20.6904931,53.931936 20.6902988,53.931936 20.6902988,53.931936 C19.7467758,54.2812 18.8529324,54.752408 18.0309853,55.334 C15.6821838,53.688928 12.804706,52.981608 9.96273309,53.34976 C9.60195031,51.656696 9.73551293,49.894816 10.3474813,48.275512 Z M31.7780564,59.326336 C31.778445,59.3259467 31.7786394,59.325752 31.7786394,59.325752 C32.9590294,60.902304 33.5908665,62.823008 33.5788877,64.793488 C33.5788877,64.793488 22.8261987,63.252496 22.8261987,63.252496 C22.5818809,61.339256 21.8552044,59.519704 20.7148472,57.964968 C20.4768143,57.633856 20.2199268,57.316488 19.9459418,57.014056 C21.3437694,56.161952 22.9489405,55.7108 24.585384,55.7108 C25.018055,55.71256 25.4501511,55.742864 25.8782941,55.801264 C28.247116,56.133408 30.3841817,57.402848 31.8112294,59.325896 C31.8112294,59.325896 31.8001718,59.3260427 31.7780564,59.326336 Z M16.2304414,42.815688 C17.0598473,42.57152 17.9194954,42.447384 18.7836715,42.446208 C21.5519913,42.44796 24.1657139,43.725456 25.8706916,45.91024 C27.5750864,48.095168 28.1817921,50.944528 27.5151769,53.635952 C27.0899566,53.529672 26.6965918,53.431304 26.2222668,53.365576 C25.6794156,53.295744 25.1326194,53.263112 24.5852403,53.267208 C24.5852403,53.267208 20.2209011,50.8844667 11.4922227,46.118984 C11.4926113,46.118984 11.4928057,46.118984 11.4928057,46.118984 C12.6645791,44.523696 14.3302426,43.36228 16.2304414,42.815688 Z M31.287073,10.517536 C31.287073,5.893856 31.287073,3.582016 31.287073,3.582016 C31.291601,2.960472 31.7961682,2.45896 32.4166175,2.45896 C32.4166175,2.45896 66.9077878,2.45896 66.9077878,2.45896 C67.52545,2.463496 68.0243154,2.96384 68.0288513,3.582016 C68.0288513,3.582016 68.0288513,10.517536 68.0288513,10.517536 C68.0288513,11.137328 67.5272069,11.640592 66.9077878,11.640592 C66.9077878,11.640592 32.4166175,11.640592 32.4166175,11.640592 C32.1175011,11.642784 31.8305152,11.525096 31.6186357,11.314592 C31.4063171,11.103656 31.287081,10.816592 31.287081,10.517528 C31.287081,10.517528 31.2870783,10.5175307 31.287073,10.517536 Z M67.717309,17.124872 C67.717309,15.0423173 67.717309,14.00104 67.717309,14.00104 C68.5027211,13.816888 69.2025173,13.372616 69.7043055,12.740672 C70.2065409,12.108296 70.4805179,11.324848 70.4834407,10.517392 C70.4834407,10.517392 70.4834407,3.581872 70.4834407,3.581872 C70.4834407,2.632136 70.1067263,1.7206 69.4360223,1.04928 C68.7653104,0.377528 67.8561183,-1.42117221e-15 66.9073406,-1.42117221e-15 C66.9073406,-1.42117221e-15 32.4161782,-1.42117221e-15 32.4161782,-1.42117221e-15 C31.4669533,-1.42117221e-15 30.5564596,0.376936 29.8847254,1.048696 C29.2128476,1.720016 28.8338013,2.6314 28.8321961,3.581872 C28.8321961,3.581872 28.8321961,10.517392 28.8321961,10.517392 C28.8343842,11.324848 29.1089522,12.108144 29.6107404,12.740672 C30.1129678,13.372608 30.812756,13.816888 31.5977369,14.00104 C31.5977369,14.00104 31.5977369,15.0421227 31.5977369,17.124288 L26.2459367,22.206592 C26.2463254,22.2069813 26.2465197,22.207176 26.2465197,22.207176 C24.4005366,23.974616 23.3542841,26.420248 23.3497561,28.978016 C23.3497561,28.978016 23.3497561,40.95456 23.3497561,40.95456 C20.755463,39.821256 17.8341511,39.689656 15.1485323,40.586256 C12.4634964,41.482272 10.2042718,43.342376 8.80703513,45.808064 C7.40979846,48.273752 6.97303073,51.170552 7.58091034,53.939248 C6.54664455,54.30404 5.57053141,54.818144 4.6841468,55.46428 C2.23028408,57.26612 0.592666645,59.971296 0.132085243,62.983576 C-0.328496159,65.996448 0.426090703,69.068176 2.2292619,71.523032 C4.01753158,73.993848 6.72141393,75.64184 9.73302934,76.097528 C10.3232284,76.192968 10.9197042,76.238896 11.517354,76.236448 C13.8610366,76.233088 16.1465665,75.505704 18.0638628,74.154432 C19.5365015,75.190544 21.2330063,75.864768 23.0144002,76.121976 C23.5566684,76.196336 24.1034646,76.234696 24.6508437,76.236448 C25.4380126,76.234696 26.2222668,76.149496 26.9911642,75.982472 C27.5196968,76.154624 28.0721949,76.2404 28.6276077,76.236448 C28.6276077,76.236448 70.7537603,76.236448 70.7537603,76.236448 C72.1356642,76.234696 73.4599825,75.683416 74.4371178,74.705128 C75.4143969,73.726112 75.9639641,72.398992 75.966304,71.01464 C75.966304,71.01464 75.966304,28.977568 75.966304,28.977568 C75.962359,26.419808 74.9161065,23.973584 73.0695324,22.206728 C73.0695324,22.206728 71.285458,20.512776 67.717309,17.124872 Z" id="Trazado-299"></path>
                        <path d="M39.8861737,45.266008 C44.3052742,45.266008 46.5148245,45.266008 46.5148245,45.266008 C47.1924282,45.266008 47.7419875,44.715312 47.7419875,44.036672 C47.7419875,44.036672 47.7419875,41.8205147 47.7419875,37.3882 L51.5714613,37.3882 C51.5714613,41.8205147 51.5714613,44.036672 51.5714613,44.036672 C51.5714613,44.715312 52.1211643,45.266008 52.7993589,45.266008 C52.7993589,45.266008 55.0086962,45.266008 59.4273709,45.266008 L59.4273709,49.102288 C55.0086962,49.102288 52.7993589,49.102288 52.7993589,49.102288 C52.1211723,49.102288 51.5714613,49.653 51.5714613,50.332192 C51.5714613,50.332192 51.5714613,52.545472 51.5714613,56.972032 L47.7665278,56.972032 C47.7665278,52.545472 47.7665278,50.332192 47.7665278,50.332192 C47.7665278,49.652992 47.2169446,49.102288 46.5393649,49.102288 C46.5393649,49.102288 44.3300196,49.102288 39.911329,49.102288 L39.8861737,45.266008 Z M38.6590347,51.561656 L45.3116429,51.561656 C45.3116429,55.988216 45.3116429,58.201496 45.3116429,58.201496 C45.3116429,58.880888 45.8612262,59.4314 46.5393649,59.4314 C46.5393649,59.4314 52.8238993,59.4314 52.8238993,59.4314 C53.5014551,59.4314 54.0510383,58.880888 54.0510383,58.201496 C54.0510383,58.201496 54.0510383,55.988216 54.0510383,51.561656 C58.4697289,51.561656 60.6790742,51.561656 60.6790742,51.561656 C61.3572369,51.561656 61.9069718,51.010976 61.9069718,50.33236 C61.9069718,50.33236 61.9069718,44.036672 61.9069718,44.036672 C61.9069718,43.357304 61.3572369,42.806608 60.6790742,42.806608 C60.6790742,42.806608 58.4697289,42.806608 54.0510383,42.806608 C54.0510383,38.3746933 54.0510383,36.158736 54.0510383,36.158736 C54.0510383,35.479512 53.5014551,34.928816 52.8238993,34.928816 C52.8238993,34.928816 46.5148245,34.928816 46.5148245,34.928816 C45.8366618,34.928816 45.2871026,35.479512 45.2871026,36.158736 C45.2871026,36.158736 45.2871026,38.3746933 45.2871026,42.806608 C40.868396,42.806608 38.6590427,42.806608 38.6590427,42.806608 C37.981463,42.806608 37.43176,43.357304 37.43176,44.036672 C37.43176,44.036672 37.43176,50.33236 37.43176,50.33236 C37.43176,51.010976 37.981463,51.561656 38.6590427,51.561656" id="Trazado-300"></path>
                    </g>
                </g>
            </g>
        </g>
    </g>
</svg>