<svg width="143px" height="143px" viewBox="0 0 143 143" version="1.1" xmlns="http://www.w3.org/2000/svg" xmlns:xlink="http://www.w3.org/1999/xlink">
    <g id="Home" stroke="none" stroke-width="1" fill="none" fill-rule="evenodd">
        <g id="Artboard" transform="translate(-421.000000, -971.000000)">
            <g id="Group-2" transform="translate(421.000000, 971.000000)">
                <circle id="Oval-Copy-5" fill="#273271" cx="71.5" cy="71.5" r="71.5"></circle>
                <g id="Group" transform="translate(34.976790, 37.291550)" fill="#FFFFFF">
                    <g id="Grupo-23" transform="translate(0.000000, 0.000000)">
                        <path d="M71.6360737,31.8191192 C71.6360737,32.6508058 70.9639006,33.3253154 70.1344317,33.3253154 C69.3044247,33.3253154 68.6322517,32.6508058 68.6322517,31.8191192 C68.6322517,30.9874327 69.3044247,30.3134626 70.1344317,30.3134626 C70.9639006,30.3134626 71.6360737,30.9874327 71.6360737,31.8191192" id="Trazado-293"></path>
                        <path d="M59.5429019,56.1495043 C53.4549189,61.5005185 45.6151616,64.5108656 37.5257584,64.5108656 C29.4363623,64.5108656 21.5963362,61.584342 15.4245954,56.1495043 C14.7575473,55.5640378 13.8401952,55.6480174 13.2562256,56.3166406 C12.6722561,56.9853914 12.7560068,57.9052511 13.4229134,58.4905615 C20.0947315,64.3437506 28.6855635,67.6046462 37.5257514,67.6046462 C46.3659463,67.6046462 54.8727516,64.3437506 61.5445768,58.4905615 C62.2116178,57.9052511 62.2116178,56.9853914 61.711399,56.3166406 C61.1274294,55.6480245 60.2100773,55.5640449 59.5430222,56.1495043 C59.5430222,56.1495043 59.5429019,56.1495043 59.5429019,56.1495043 Z" id="Trazado-294"></path>
                        <path d="M22.5154598,49.1275792 C21.9315708,49.7964024 22.015317,50.7162125 22.6821316,51.3017352 C26.7680107,54.8974128 32.1051381,56.9042938 37.52546,56.9042938 C42.9456474,56.9042938 48.1990286,54.8972638 52.3686469,51.3017352 C53.0354615,50.7162054 53.0354615,49.7964024 52.5353116,49.1275792 C51.9514226,48.4587347 51.034197,48.4587347 50.367248,48.9604249 C46.7816532,52.0544123 42.2788328,53.8103277 37.52546,53.8103277 C32.8558334,53.8103277 28.2692668,52.0544194 24.6836721,48.9604249 C24.016716,48.4587347 23.0157441,48.4587347 22.5155943,49.1275792 C22.5155943,49.1275792 22.5154598,49.1275792 22.5154598,49.1275792 Z" id="Trazado-295"></path>
                        <path d="M30.8527215,43.0227571 C30.2686763,43.6913461 30.3524369,44.6108343 31.0194288,45.1961732 C32.8546383,46.7842504 35.1899838,47.7038662 37.5253152,47.7038662 C39.8608022,47.7038662 42.1961407,46.7842504 44.0312016,45.1961732 C44.6983279,44.6108272 44.6983279,43.6913391 44.1980575,43.0227571 C43.6140123,42.3541681 42.6965597,42.3541681 42.0294263,42.8556826 C40.6946287,44.0261974 39.1936688,44.6108272 37.5254496,44.6108272 C35.4404516,44.6108272 33.9389397,43.6913391 33.021473,42.8556826 C32.3543466,42.2703578 31.3531193,42.353622 30.8528418,43.0227571 C30.8528418,43.0227571 30.8527215,43.0227571 30.8527215,43.0227571 Z" id="Trazado-296"></path>
                        <path d="M40.3642722,35.5827276 C40.3642722,33.9934848 39.1127878,32.738537 37.5275166,32.738537 C35.9423517,32.738537 34.6907611,33.9934848 34.6907611,35.5827276 C34.6907611,37.1722544 35.9423517,38.427188 37.5275166,38.427188 C39.1127878,38.427188 40.3642722,37.1722544 40.3642722,35.5827276" id="Trazado-297"></path>
                        <path d="M38.3609505,23.5406984 C37.9438373,23.707828 37.5272689,23.7917972 36.526217,23.5406984 C36.526217,23.5406984 25.3792358,20.1959521 3.08527358,13.5064595 L3.08527358,13.3387907 C25.4343443,6.64929814 36.6088797,3.30455185 36.6088797,3.30455185 C37.4425684,3.05345308 37.6929976,3.05345308 38.4436132,3.30455185 C38.4436132,3.30455185 47.9784222,6.17531497 67.0480401,11.9168412 C48.7011675,11.9168412 39.5277311,11.9168412 39.5277311,11.9168412 C38.6940425,11.9168412 38.0265,12.5856292 38.0265,13.4220859 C38.0265,14.2580035 38.6935047,14.9273307 39.5277311,14.9273307 C39.5277311,14.9273307 48.7567288,14.9273307 67.2147241,14.9273307 C47.978875,20.6695758 38.3609505,23.5406984 38.3609505,23.5406984 Z M73.9701297,10.9147376 C73.8033113,10.747608 73.5530165,10.5803436 73.303125,10.4965092 C73.303125,10.4965092 39.4447925,0.378975125 39.4447925,0.378975125 C37.8604882,-0.206517642 36.8594434,-0.0392532501 35.6085071,0.378975125 C35.6085071,0.378975125 1.66751179,10.4965092 1.66751179,10.4965092 C1.41708255,10.5803436 1.16732547,10.6636388 1.00050708,10.9147376 C0.333502358,11.5835256 -2.8154562e-15,12.5032775 -2.8154562e-15,13.4231643 C-2.8154562e-15,14.343051 0.333502358,15.262803 1.00050708,15.931591 C1.16732547,16.0987206 1.41762028,16.265985 1.66751179,16.3498194 C1.66751179,16.3498194 6.86585377,17.9106368 17.2625377,21.0322717 L17.2625377,21.1161061 L15.2609858,29.8122298 C15.2609858,30.0351591 15.2609858,30.1466238 15.2609858,30.1466238 C15.2609858,31.5680341 15.2609858,35.9160996 20.2644552,37.5886016 C20.2644552,37.5886016 28.6038892,40.5985519 28.6038892,40.5985519 C28.7707075,40.6823863 28.9373915,40.6823863 29.1040684,40.6823863 C29.7710731,40.6823863 30.3550047,40.2641579 30.5216887,39.6793391 C30.7721179,38.8432867 30.3550047,38.00683 29.6043892,37.7564051 C29.6043892,37.7564051 21.1818892,34.746462 21.1818892,34.746462 C18.7632241,33.9937048 18.2630377,32.4053067 18.2630377,30.3983965 C18.2630377,30.3983965 18.9023042,27.5833882 20.1808373,21.9533716 C30.5215071,25.0750112 35.691842,26.635831 35.691842,26.635831 C36.4424575,26.886795 37.1094623,26.9700902 37.6096486,26.9700902 C38.3602642,26.9700902 38.9441958,26.8029606 39.3607642,26.635831 C39.3607642,26.635831 44.5310991,25.0750112 54.8717689,21.9533716 C56.1503019,27.5278581 56.7895684,30.3151013 56.7895684,30.3151013 C56.7895684,31.9876104 56.3724552,33.6599848 53.7876509,34.7470011 C53.7876509,34.7470011 44.1983632,38.0064185 44.1983632,38.0064185 C43.3646745,38.2573825 42.9474269,39.1772692 43.2809292,39.9293453 C43.5313656,40.5979985 44.1147524,40.9323925 44.6985495,40.9323925 C44.8653679,40.9323925 45.0320519,40.9323925 45.1988703,40.8485581 C45.1988703,40.8485581 54.8723066,37.4203794 54.8723066,37.4203794 C58.2082712,35.9989691 59.7927028,33.5738376 59.7927028,29.9784017 C59.7927028,29.9784017 59.7927028,29.866937 59.7927028,29.6440077 L57.791158,20.9478839 L57.791158,20.8640495 L68.715934,17.6030005 C68.715934,23.5678155 68.715934,26.550223 68.715934,26.550223 C68.715934,27.3861406 69.3829387,28.0554677 70.217158,28.0554677 C71.0508467,28.0554677 71.7183892,27.3866797 71.7183892,26.550223 C71.7183892,26.550223 71.7183892,23.2893584 71.7183892,16.7676292 C72.7745967,16.4332801 73.3027005,16.2661056 73.3027005,16.2661056 C73.5531297,16.1821364 73.8028797,16.0988412 73.9697052,15.8478772 C75.3873184,14.5103012 75.3873184,12.2524412 73.9697052,10.9148653 C73.9697052,10.9148653 73.9701297,10.9147376 73.9701297,10.9147376 Z" id="Trazado-298"></path>
                    </g>
                </g>
            </g>
        </g>
    </g>
</svg>