<svg width="68px" height="82px" viewBox="0 0 68 82" version="1.1" xmlns="http://www.w3.org/2000/svg" xmlns:xlink="http://www.w3.org/1999/xlink">
    <defs>
        <polygon id="path-i-rkg28b00-1" points="0 0 48 0 48 48 0 48"></polygon>
        <polygon id="path-i-rkg28b00-3" points="0 0 19 0 19 32 0 32"></polygon>
        <polygon id="path-i-rkg28b00-5" points="0 0 19 0 19 32 0 32"></polygon>
    </defs>
    <g id="Mi-cuenta" stroke="none" stroke-width="1" fill="none" fill-rule="evenodd">
        <g id="EST-Mi-Cuenta-Auxiliar-sin-codigo" transform="translate(-1095.000000, -257.000000)">
            <g id="Group" transform="translate(1082.000000, 251.000000)">
                <g id="Group-10" transform="translate(13.000000, 6.000000)">
                    <g id="Group-3" transform="translate(10.000000, 0.000000)">
                        <mask id="mask-i-rkg28b00-2" fill="white">
                            <use xlink:href="#path-i-rkg28b00-1"></use>
                        </mask>
                        <g id="Clip-2"></g>
                        <path d="M42.5515436,23.9989331 C42.5515436,34.2271858 34.2294888,42.5491996 24.0011855,42.5491996 C13.7728822,42.5491996 5.45082736,34.2271858 5.45082736,23.9989331 C5.45082736,13.7706803 13.7728822,5.44866659 24.0011855,5.44866659 C34.2294888,5.44866659 42.5515436,13.7706803 42.5515436,23.9989331 M48,23.9989331 C48,10.7643232 37.2358607,-0.00213384967 24.0011855,-0.00213384967 C10.7665102,-0.00213384967 0,10.7643232 0,23.9989331 C0,37.2335429 10.7665102,48 24.0011855,48 C37.2358607,48 48,37.2335429 48,23.9989331" id="Fill-1" fill="#388097" mask="url(#mask-i-rkg28b00-2)"></path>
                    </g>
                    <g id="Group-6" transform="translate(0.000000, 50.000000)">
                        <mask id="mask-i-rkg28b00-4" fill="white">
                            <use xlink:href="#path-i-rkg28b00-3"></use>
                        </mask>
                        <g id="Clip-5"></g>
                        <path d="M16.8291271,0.0518598252 C16.125389,-0.0899759164 15.4123299,0.0614758076 14.8227745,0.47736705 C5.54135477,6.94651926 0,17.6971877 0,29.2363666 C0,30.7604999 1.20008314,32.0009616 2.67746704,32.0009616 C4.15485095,32.0009616 5.35493409,30.7604999 5.35493409,29.2363666 C5.35493409,19.5362443 10.0154511,10.4972208 17.8194869,5.05457471 C18.4113726,4.64108746 18.8145073,4.0136446 18.9496623,3.29004192 C19.0871476,2.56643924 18.9403413,1.83081658 18.5418671,1.2202017 C18.1410626,0.607182813 17.5328651,0.193695567 16.8291271,0.0518598252" id="Fill-4" fill="#388097" mask="url(#mask-i-rkg28b00-4)"></path>
                    </g>
                    <g id="Group-9" transform="translate(49.000000, 50.000000)">
                        <mask id="mask-i-rkg28b00-6" fill="white">
                            <use xlink:href="#path-i-rkg28b00-5"></use>
                        </mask>
                        <g id="Clip-8"></g>
                        <path d="M4.17874148,0.476019247 C3.58682329,0.0625206278 2.86906423,-0.0913393234 2.16994827,0.0529043808 C1.46617152,0.192339962 0.857940632,0.608242642 0.461774917,1.21647026 C0.058618042,1.82710194 -0.0858659247,2.5651489 0.0492964957,3.28877148 C0.186789303,4.01479812 0.587615791,4.63985418 1.17953398,5.05094873 C8.98632895,10.4961486 13.6447717,19.5378248 13.6447717,29.2358098 C13.6447717,30.759985 14.8472512,32.0004808 16.3223858,32.0004808 C17.7998509,32.0004808 19,30.759985 19,29.2358098 C19,17.6963135 13.4583408,6.94534938 4.17874148,0.476019247" id="Fill-7" fill="#388097" mask="url(#mask-i-rkg28b00-6)"></path>
                    </g>
                </g>
            </g>
        </g>
    </g>
</svg>