
<svg width="33px" height="31px" viewBox="0 0 33 31" version="1.1" xmlns="http://www.w3.org/2000/svg" xmlns:xlink="http://www.w3.org/1999/xlink">
    <g id="Page-1" stroke="none" stroke-width="1" fill="none" fill-rule="evenodd" stroke-linejoin="round">
        <g id="EST-Retos---PROXIMAMENTE" transform="translate(-451.000000, -900.000000)" stroke="#5A5E5F" stroke-width="1.2173913">
            <g id="icono-recomendacion-copy" transform="translate(452.000000, 900.903891)">
                <path d="M26.9630524,10.8842926 C26.9630524,9.87758768 26.0427128,8.9610049 25.0599689,8.9610049 C23.0944812,8.9610049 21.6203653,11.521292 23.5858531,13.5695217 C24.3808929,14.3985427 25.5513408,14.5936365 26.0427128,14.5936365 C28.9909444,14.5936365 30.4650602,12.4158563 30.4650602,9.72909103 C30.4650602,7.04232573 28.0082005,4.86454552 25.0599689,4.86454552 L5.40509133,4.86454552 C2.4568597,4.86454552 0,7.04232573 0,9.72909103 C0,12.4158563 1.47411582,14.5936365 4.42234745,14.5936365 C4.91371939,14.5936365 6.08367598,14.3985427 6.87920715,13.5695217 C8.84469491,11.521292 7.37057909,8.9610049 5.40509133,8.9610049 C4.42234745,8.9610049 3.50151644,9.87758768 3.50151644,10.8842926" id="Stroke-1" stroke-linecap="round"></path>
                <polyline id="Stroke-3" stroke-linecap="round" points="4.91371939 2.91872731 1.96548776 2.91872731 1.96548776 0 28.4995725 0 28.4995725 2.91872731 25.5513408 2.91872731"></polyline>
                <path d="M26.5340847,2.91872731 C26.5340847,4.37809096 24.568597,4.86454552 24.568597,4.86454552 L4.91371939,4.86454552 C4.91371939,4.86454552 2.94823164,4.37809096 2.94823164,2.91872731" id="Stroke-5" stroke-linecap="round"></path>
                <line x1="9.82743879" y1="8.26972738" x2="20.6376215" y2="8.26972738" id="Stroke-7" stroke-linecap="round"></line>
                <line x1="5.40509133" y1="16.5394548" x2="5.40509133" y2="29.1872731" id="Stroke-9" stroke-linecap="square"></line>
                <line x1="15.2325301" y1="14.5936365" x2="15.2325301" y2="29.1872731" id="Stroke-11" stroke-linecap="square"></line>
                <line x1="20.1462495" y1="14.5936365" x2="20.1462495" y2="29.1872731" id="Stroke-13" stroke-linecap="square"></line>
                <line x1="25.0599689" y1="16.5394548" x2="25.0599689" y2="29.1872731" id="Stroke-15" stroke-linecap="square"></line>
                <line x1="10.3188107" y1="14.5936365" x2="10.3188107" y2="29.1872731" id="Stroke-17" stroke-linecap="square"></line>
                <line x1="10.8101827" y1="11.1884547" x2="19.6548776" y2="11.1884547" id="Stroke-19" stroke-linecap="round"></line>
            </g>
        </g>
    </g>
</svg>